<svg xmlns="http://www.w3.org/2000/svg" xmlns:xlink="http://www.w3.org/1999/xlink" width="300" zoomAndPan="magnify" viewBox="0 0 224.87999 225" height="300" preserveAspectRatio="xMidYMid meet" version="1.2"><defs><clipPath id="c715ee8a2a"><path d="M 75 64 L 152 64 L 152 134 L 75 134 Z M 75 64 "/></clipPath><clipPath id="49db0710b3"><path d="M 147.582031 74.5625 L 131.839844 110.53125 L 105.214844 66.417969 C 104.851562 65.816406 104.359375 65.355469 103.734375 65.039062 C 103.109375 64.722656 102.445312 64.59375 101.746094 64.65625 C 101.046875 64.722656 100.417969 64.964844 99.859375 65.390625 C 99.300781 65.816406 98.898438 66.355469 98.648438 67.011719 L 75.324219 128.503906 C 75.875 129.109375 76.398438 129.746094 76.984375 130.324219 C 78.285156 131.609375 79.660156 132.8125 81.105469 133.933594 L 102.832031 76.660156 L 129.21875 120.394531 C 129.578125 120.976562 130.0625 121.421875 130.667969 121.738281 C 131.273438 122.058594 131.917969 122.199219 132.597656 122.164062 C 133.28125 122.117188 133.90625 121.894531 134.464844 121.5 C 135.027344 121.105469 135.445312 120.59375 135.71875 119.96875 L 151.75 83.324219 C 150.679688 80.253906 149.289062 77.332031 147.582031 74.5625 Z M 147.582031 74.5625 "/></clipPath><radialGradient gradientTransform="matrix(0.999757,0,0,1.000243,1.296983,18.946766)" id="f70605248e" gradientUnits="userSpaceOnUse" r="36.476727" cx="112.270625" fx="112.270625" cy="80.323649" fy="80.323649"><stop style="stop-color:#130c0e;stop-opacity:1;" offset="0"/><stop style="stop-color:#130c0e;stop-opacity:1;" offset="1"/></radialGradient><clipPath id="7dcee94538"><path d="M 152 18.746094 L 188 18.746094 L 188 68 L 152 68 Z M 152 18.746094 "/></clipPath><clipPath id="8a0159a3c9"><path d="M 158.820312 67.175781 L 174.621094 31.070312 L 180.179688 42.59375 C 180.484375 43.226562 180.9375 43.730469 181.535156 44.105469 C 182.128906 44.480469 182.78125 44.667969 183.484375 44.667969 C 184.042969 44.667969 184.574219 44.542969 185.074219 44.296875 C 185.511719 44.085938 185.894531 43.800781 186.21875 43.4375 C 186.542969 43.074219 186.785156 42.664062 186.945312 42.203125 C 187.105469 41.746094 187.171875 41.273438 187.144531 40.789062 C 187.117188 40.300781 186.996094 39.839844 186.785156 39.402344 L 177.914062 21.019531 C 177.699219 20.582031 177.414062 20.203125 177.050781 19.878906 C 176.6875 19.554688 176.277344 19.3125 175.820312 19.152344 C 175.359375 18.992188 174.886719 18.925781 174.402344 18.953125 C 173.917969 18.980469 173.457031 19.101562 173.015625 19.3125 L 154.398438 28.316406 C 153.957031 28.527344 153.578125 28.816406 153.253906 29.179688 C 152.925781 29.542969 152.683594 29.953125 152.523438 30.414062 C 152.363281 30.871094 152.296875 31.34375 152.324219 31.832031 C 152.351562 32.316406 152.46875 32.78125 152.679688 33.21875 C 152.890625 33.660156 153.179688 34.039062 153.542969 34.363281 C 153.90625 34.6875 154.316406 34.933594 154.777344 35.09375 C 155.234375 35.253906 155.707031 35.320312 156.195312 35.292969 C 156.679688 35.265625 157.140625 35.144531 157.582031 34.933594 L 166.898438 30.429688 L 153.800781 60.335938 C 155.640625 62.496094 157.3125 64.777344 158.820312 67.175781 Z M 158.820312 67.175781 "/></clipPath><radialGradient gradientTransform="matrix(0.999757,0,0,1.000243,1.296983,18.946766)" id="2fb47fe459" gradientUnits="userSpaceOnUse" r="21.032281" cx="168.476751" fx="168.476751" cy="24.109436" fy="24.109436"><stop style="stop-color:#130c0e;stop-opacity:1;" offset="0"/><stop style="stop-color:#130c0e;stop-opacity:1;" offset="1"/></radialGradient><clipPath id="41ef887be1"><path d="M 1 114 L 77 114 L 77 186 L 1 186 Z M 1 114 "/></clipPath><clipPath id="1cbe16511c"><path d="M 62.550781 166.285156 C 62.925781 166.871094 63.425781 167.316406 64.046875 167.621094 C 64.671875 167.925781 65.328125 168.046875 66.019531 167.980469 C 66.714844 167.914062 67.335938 167.667969 67.886719 167.242188 C 68.4375 166.820312 68.835938 166.28125 69.082031 165.628906 L 76.160156 146.964844 C 74.042969 145.527344 72.023438 143.953125 70.109375 142.25 L 64.84375 156.148438 L 39.917969 116.546875 C 39.574219 115.972656 39.109375 115.53125 38.519531 115.222656 C 37.929688 114.914062 37.300781 114.785156 36.636719 114.832031 C 35.972656 114.863281 35.363281 115.058594 34.808594 115.421875 C 34.253906 115.785156 33.828125 116.261719 33.535156 116.855469 L 1.683594 180.589844 C 1.46875 181.023438 1.339844 181.484375 1.308594 181.96875 C 1.273438 182.453125 1.332031 182.925781 1.484375 183.390625 C 1.640625 183.851562 1.875 184.265625 2.195312 184.632812 C 2.511719 185 2.890625 185.292969 3.324219 185.511719 C 3.757812 185.726562 4.21875 185.855469 4.703125 185.890625 C 5.191406 185.921875 5.664062 185.863281 6.125 185.710938 C 6.585938 185.554688 7 185.320312 7.367188 185 C 7.734375 184.683594 8.027344 184.304688 8.246094 183.871094 L 37.183594 125.972656 Z M 62.550781 166.285156 "/></clipPath><radialGradient gradientTransform="matrix(0.999757,0,0,1.000243,1.296983,18.946766)" id="df04378646" gradientUnits="userSpaceOnUse" r="36.49898" cx="37.44175" fx="37.44175" cy="131.376913" fy="131.376913"><stop style="stop-color:#130c0e;stop-opacity:1;" offset="0"/><stop style="stop-color:#130c0e;stop-opacity:1;" offset="1"/></radialGradient><clipPath id="010ce01d52"><path d="M 53 42 L 223 42 L 223 211.390625 L 53 211.390625 Z M 53 42 "/></clipPath><clipPath id="6c46027a47"><path d="M 163.953125 140.050781 L 154.421875 130.515625 C 155.085938 129.578125 155.722656 128.621094 156.328125 127.640625 C 156.933594 126.664062 157.511719 125.667969 158.054688 124.65625 C 158.597656 123.644531 159.113281 122.613281 159.59375 121.570312 C 160.074219 120.523438 160.519531 119.464844 160.9375 118.390625 C 161.351562 117.320312 161.734375 116.234375 162.082031 115.136719 C 162.429688 114.042969 162.742188 112.9375 163.023438 111.820312 C 163.300781 110.703125 163.546875 109.582031 163.753906 108.449219 C 163.964844 107.316406 164.140625 106.183594 164.28125 105.039062 C 164.417969 103.898438 164.523438 102.753906 164.589844 101.605469 C 164.660156 100.457031 164.691406 99.308594 164.691406 98.15625 C 164.6875 97.007812 164.648438 95.855469 164.574219 94.707031 C 164.5 93.5625 164.394531 92.417969 164.246094 91.273438 C 164.101562 90.132812 163.921875 89 163.707031 87.867188 C 163.492188 86.738281 163.242188 85.617188 162.957031 84.5 C 162.675781 83.386719 162.355469 82.28125 162.003906 81.1875 C 161.648438 80.09375 161.261719 79.007812 160.84375 77.9375 C 160.421875 76.867188 159.96875 75.808594 159.484375 74.769531 C 159 73.726562 158.480469 72.699219 157.933594 71.6875 C 157.382812 70.675781 156.804688 69.683594 156.195312 68.710938 C 155.582031 67.734375 154.941406 66.78125 154.273438 65.84375 C 153.601562 64.910156 152.90625 63.996094 152.179688 63.105469 C 151.453125 62.210938 150.699219 61.34375 149.917969 60.5 C 149.140625 59.652344 148.332031 58.832031 147.503906 58.039062 C 146.671875 57.242188 145.816406 56.472656 144.9375 55.730469 C 144.058594 54.988281 143.160156 54.273438 142.238281 53.589844 C 141.3125 52.902344 140.371094 52.246094 139.40625 51.617188 C 138.445312 50.988281 137.460938 50.390625 136.460938 49.824219 C 135.460938 49.257812 134.445312 48.722656 133.410156 48.21875 C 132.378906 47.714844 131.328125 47.242188 130.265625 46.804688 C 129.203125 46.363281 128.128906 45.960938 127.039062 45.585938 C 125.953125 45.214844 124.855469 44.875 123.746094 44.570312 C 122.636719 44.269531 121.519531 44 120.394531 43.761719 C 119.269531 43.527344 118.136719 43.328125 116.996094 43.164062 C 115.859375 43 114.71875 42.871094 113.570312 42.773438 C 112.425781 42.679688 111.277344 42.621094 110.128906 42.601562 C 108.980469 42.578125 107.828125 42.589844 106.679688 42.636719 C 105.53125 42.6875 104.386719 42.769531 103.242188 42.890625 C 102.097656 43.007812 100.960938 43.164062 99.824219 43.355469 C 98.691406 43.542969 97.566406 43.769531 96.445312 44.027344 C 95.324219 44.289062 94.214844 44.582031 93.113281 44.910156 C 92.011719 45.242188 90.917969 45.601562 89.839844 46 C 88.761719 46.394531 87.695312 46.824219 86.640625 47.289062 C 85.589844 47.75 84.550781 48.246094 83.527344 48.773438 C 82.507812 49.296875 81.503906 49.855469 80.515625 50.445312 C 79.527344 51.035156 78.558594 51.652344 77.609375 52.304688 C 76.660156 52.953125 75.730469 53.628906 74.824219 54.335938 C 73.917969 55.042969 73.03125 55.777344 72.171875 56.539062 C 71.308594 57.300781 70.472656 58.089844 69.660156 58.902344 C 68.84375 59.714844 68.058594 60.554688 67.296875 61.414062 C 66.535156 62.277344 65.800781 63.164062 65.097656 64.070312 C 64.390625 64.976562 63.710938 65.90625 63.0625 66.855469 C 62.414062 67.804688 61.796875 68.773438 61.207031 69.761719 C 60.617188 70.75 60.058594 71.757812 59.535156 72.78125 C 59.007812 73.800781 58.511719 74.839844 58.050781 75.894531 C 57.589844 76.945312 57.160156 78.011719 56.761719 79.09375 C 56.367188 80.171875 56.003906 81.265625 55.675781 82.367188 C 55.347656 83.46875 55.050781 84.582031 54.792969 85.703125 C 54.53125 86.820312 54.308594 87.949219 54.117188 89.085938 C 53.929688 90.21875 53.773438 91.359375 53.652344 92.503906 C 53.535156 93.644531 53.449219 94.792969 53.402344 95.941406 C 53.355469 97.09375 53.339844 98.242188 53.363281 99.390625 C 53.386719 100.542969 53.445312 101.691406 53.539062 102.835938 C 53.632812 103.984375 53.761719 105.125 53.929688 106.265625 C 54.09375 107.402344 54.292969 108.535156 54.527344 109.660156 C 54.761719 110.789062 55.03125 111.90625 55.335938 113.015625 C 55.640625 114.125 55.976562 115.222656 56.351562 116.3125 C 56.722656 117.398438 57.128906 118.476562 57.566406 119.539062 C 58.003906 120.601562 58.476562 121.652344 58.980469 122.683594 C 59.484375 123.71875 60.019531 124.738281 60.585938 125.738281 C 61.152344 126.738281 61.75 127.722656 62.378906 128.683594 C 63.003906 129.648438 63.660156 130.59375 64.347656 131.515625 C 65.035156 132.4375 65.75 133.339844 66.488281 134.21875 C 67.230469 135.097656 68 135.953125 68.796875 136.785156 C 69.589844 137.617188 70.410156 138.421875 71.253906 139.203125 C 72.097656 139.980469 72.96875 140.734375 73.859375 141.460938 C 74.75 142.1875 75.664062 142.886719 76.597656 143.558594 C 77.53125 144.226562 78.488281 144.867188 79.460938 145.480469 C 80.433594 146.089844 81.425781 146.667969 82.4375 147.21875 C 83.449219 147.769531 84.472656 148.285156 85.515625 148.773438 C 86.558594 149.257812 87.617188 149.710938 88.6875 150.128906 C 89.757812 150.550781 90.839844 150.9375 91.933594 151.289062 C 93.027344 151.644531 94.132812 151.964844 95.246094 152.246094 C 96.359375 152.53125 97.480469 152.78125 98.609375 152.996094 C 99.738281 153.210938 100.875 153.390625 102.015625 153.539062 C 103.15625 153.683594 104.300781 153.792969 105.449219 153.867188 C 106.59375 153.9375 107.746094 153.976562 108.894531 153.980469 C 110.042969 153.984375 111.191406 153.949219 112.339844 153.882812 C 113.488281 153.8125 114.632812 153.707031 115.773438 153.570312 C 116.914062 153.429688 118.050781 153.253906 119.183594 153.042969 C 120.3125 152.835938 121.433594 152.589844 122.550781 152.308594 C 123.667969 152.03125 124.773438 151.71875 125.867188 151.367188 C 126.964844 151.019531 128.046875 150.640625 129.121094 150.222656 C 130.191406 149.808594 131.25 149.359375 132.296875 148.878906 C 133.339844 148.398438 134.367188 147.886719 135.382812 147.339844 C 136.394531 146.796875 137.390625 146.21875 138.367188 145.613281 C 139.34375 145.007812 140.300781 144.371094 141.238281 143.707031 L 150.609375 153.085938 C 150.199219 154.828125 150.019531 156.59375 150.066406 158.386719 C 150.113281 160.175781 150.386719 161.929688 150.886719 163.648438 C 151.382812 165.371094 152.09375 166.996094 153.015625 168.53125 C 153.933594 170.070312 155.035156 171.460938 156.316406 172.714844 L 188.828125 205.230469 C 189.804688 206.214844 190.871094 207.097656 192.019531 207.875 C 193.167969 208.652344 194.382812 209.308594 195.660156 209.847656 C 196.941406 210.386719 198.257812 210.800781 199.617188 211.082031 C 200.976562 211.363281 202.347656 211.507812 203.738281 211.519531 C 206.195312 211.546875 208.5625 211.097656 210.84375 210.175781 C 213.121094 209.25 215.136719 207.925781 216.882812 206.195312 C 224.355469 198.71875 223.925781 186.121094 215.921875 178.125 L 183.414062 145.597656 C 182.148438 144.367188 180.75 143.308594 179.222656 142.425781 C 177.691406 141.539062 176.078125 140.855469 174.382812 140.371094 C 172.683594 139.886719 170.953125 139.621094 169.1875 139.566406 C 167.421875 139.511719 165.675781 139.671875 163.953125 140.050781 Z M 74.839844 132.480469 C 74.1875 131.828125 73.554688 131.15625 72.941406 130.46875 C 72.328125 129.777344 71.734375 129.070312 71.160156 128.347656 C 70.585938 127.625 70.03125 126.886719 69.5 126.132812 C 68.96875 125.375 68.460938 124.605469 67.972656 123.820312 C 67.484375 123.039062 67.019531 122.242188 66.578125 121.429688 C 66.136719 120.617188 65.71875 119.796875 65.324219 118.960938 C 64.929688 118.125 64.558594 117.28125 64.210938 116.425781 C 63.867188 115.570312 63.542969 114.703125 63.25 113.828125 C 62.953125 112.953125 62.679688 112.070312 62.433594 111.183594 C 62.1875 110.292969 61.96875 109.394531 61.773438 108.492188 C 61.578125 107.589844 61.410156 106.683594 61.265625 105.769531 C 61.121094 104.859375 61.003906 103.941406 60.914062 103.023438 C 60.824219 102.105469 60.761719 101.183594 60.722656 100.261719 C 60.683594 99.335938 60.675781 98.414062 60.6875 97.492188 C 60.703125 96.566406 60.746094 95.644531 60.8125 94.726562 C 60.882812 93.804688 60.976562 92.886719 61.097656 91.96875 C 61.214844 91.054688 61.363281 90.144531 61.535156 89.234375 C 61.707031 88.328125 61.90625 87.425781 62.132812 86.53125 C 62.355469 85.636719 62.605469 84.746094 62.878906 83.863281 C 63.15625 82.984375 63.457031 82.109375 63.78125 81.246094 C 64.105469 80.382812 64.457031 79.527344 64.828125 78.683594 C 65.203125 77.839844 65.601562 77.007812 66.023438 76.183594 C 66.445312 75.363281 66.890625 74.554688 67.359375 73.757812 C 67.824219 72.960938 68.316406 72.179688 68.828125 71.414062 C 69.34375 70.644531 69.875 69.890625 70.433594 69.15625 C 70.988281 68.417969 71.566406 67.699219 72.160156 66.992188 C 72.757812 66.289062 73.375 65.601562 74.011719 64.933594 C 74.648438 64.265625 75.304688 63.613281 75.976562 62.984375 C 76.652344 62.351562 77.34375 61.742188 78.050781 61.148438 C 78.761719 60.558594 79.484375 59.984375 80.226562 59.4375 C 80.96875 58.886719 81.722656 58.359375 82.496094 57.851562 C 83.265625 57.34375 84.054688 56.859375 84.851562 56.398438 C 85.652344 55.9375 86.464844 55.496094 87.289062 55.082031 C 88.113281 54.667969 88.949219 54.277344 89.796875 53.910156 C 90.640625 53.542969 91.5 53.199219 92.367188 52.878906 C 93.230469 52.5625 94.105469 52.269531 94.988281 52 C 95.875 51.734375 96.765625 51.488281 97.660156 51.273438 C 98.558594 51.054688 99.460938 50.863281 100.367188 50.699219 C 101.277344 50.535156 102.1875 50.394531 103.105469 50.28125 C 104.019531 50.167969 104.941406 50.082031 105.859375 50.023438 C 106.78125 49.960938 107.703125 49.925781 108.628906 49.917969 C 109.550781 49.910156 110.472656 49.929688 111.394531 49.976562 C 112.316406 50.023438 113.238281 50.09375 114.15625 50.191406 C 115.070312 50.289062 115.988281 50.414062 116.898438 50.5625 C 117.808594 50.714844 118.714844 50.890625 119.613281 51.09375 C 120.515625 51.296875 121.410156 51.523438 122.296875 51.777344 C 123.183594 52.03125 124.0625 52.308594 124.933594 52.613281 C 125.808594 52.917969 126.667969 53.246094 127.523438 53.597656 C 128.375 53.953125 129.214844 54.332031 130.046875 54.730469 C 130.878906 55.132812 131.699219 55.558594 132.503906 56.007812 C 133.3125 56.457031 134.105469 56.925781 134.886719 57.421875 C 135.664062 57.914062 136.429688 58.429688 137.179688 58.96875 C 137.929688 59.507812 138.664062 60.066406 139.382812 60.644531 C 140.101562 61.226562 140.800781 61.828125 141.488281 62.445312 C 142.171875 63.066406 142.835938 63.707031 143.484375 64.363281 C 144.128906 65.023438 144.757812 65.699219 145.367188 66.394531 C 145.976562 67.085938 146.5625 67.796875 147.132812 68.527344 C 147.699219 69.253906 148.246094 70 148.773438 70.757812 C 149.296875 71.515625 149.800781 72.289062 150.28125 73.078125 C 150.761719 73.867188 151.21875 74.667969 151.65625 75.484375 C 152.089844 76.296875 152.503906 77.125 152.890625 77.960938 C 153.277344 78.800781 153.640625 79.648438 153.980469 80.507812 C 154.320312 81.367188 154.632812 82.234375 154.921875 83.109375 C 155.214844 83.988281 155.476562 84.871094 155.714844 85.765625 C 155.957031 86.65625 156.167969 87.554688 156.355469 88.457031 C 156.542969 89.363281 156.703125 90.273438 156.839844 91.183594 C 156.976562 92.097656 157.085938 93.015625 157.167969 93.933594 C 157.25 94.855469 157.308594 95.777344 157.335938 96.699219 C 157.367188 97.621094 157.371094 98.546875 157.347656 99.46875 C 157.328125 100.390625 157.277344 101.3125 157.203125 102.234375 C 157.125 103.15625 157.023438 104.070312 156.898438 104.988281 C 156.769531 105.902344 156.613281 106.8125 156.433594 107.71875 C 156.253906 108.621094 156.050781 109.523438 155.816406 110.417969 C 155.585938 111.3125 155.328125 112.199219 155.046875 113.078125 C 154.765625 113.957031 154.457031 114.828125 154.125 115.6875 C 153.792969 116.550781 153.4375 117.402344 153.054688 118.242188 C 152.675781 119.082031 152.269531 119.914062 151.839844 120.730469 C 151.414062 121.550781 150.960938 122.355469 150.488281 123.144531 C 150.011719 123.9375 149.515625 124.714844 148.996094 125.480469 C 148.476562 126.242188 147.9375 126.992188 147.375 127.722656 C 146.8125 128.457031 146.230469 129.171875 145.628906 129.871094 C 145.023438 130.570312 144.402344 131.253906 143.761719 131.917969 C 143.117188 132.582031 142.457031 133.226562 141.777344 133.851562 C 141.101562 134.476562 140.402344 135.082031 139.691406 135.667969 C 138.976562 136.253906 138.246094 136.820312 137.5 137.363281 C 136.753906 137.90625 135.996094 138.429688 135.21875 138.929688 C 134.441406 139.429688 133.652344 139.90625 132.851562 140.363281 C 132.046875 140.820312 131.230469 141.25 130.402344 141.660156 C 129.578125 142.066406 128.738281 142.453125 127.886719 142.8125 C 127.039062 143.171875 126.179688 143.507812 125.308594 143.820312 C 124.441406 144.128906 123.5625 144.417969 122.675781 144.675781 C 121.792969 144.9375 120.898438 145.171875 120 145.382812 C 119.101562 145.59375 118.199219 145.777344 117.289062 145.933594 C 116.378906 146.09375 115.464844 146.222656 114.546875 146.328125 C 113.632812 146.433594 112.710938 146.515625 111.789062 146.566406 C 110.867188 146.621094 109.945312 146.644531 109.023438 146.644531 C 105.847656 146.65625 102.703125 146.351562 99.585938 145.734375 C 96.472656 145.121094 93.449219 144.203125 90.515625 142.988281 C 87.582031 141.773438 84.796875 140.28125 82.15625 138.511719 C 79.519531 136.746094 77.082031 134.734375 74.839844 132.480469 Z M 146.949219 139.042969 C 147.429688 138.59375 147.914062 138.144531 148.382812 137.671875 C 148.851562 137.203125 149.308594 136.714844 149.761719 136.230469 L 156.855469 143.324219 C 156.332031 143.734375 155.832031 144.171875 155.363281 144.640625 C 154.890625 145.113281 154.445312 145.609375 154.03125 146.128906 Z M 211.695312 201.007812 C 207.28125 205.414062 198.917969 204.953125 194.011719 200.042969 L 161.503906 167.519531 C 156.363281 162.378906 155.9375 154.441406 160.546875 149.828125 C 161.605469 148.789062 162.828125 147.992188 164.207031 147.441406 C 165.585938 146.890625 167.015625 146.628906 168.5 146.652344 C 170.332031 146.671875 172.089844 147.042969 173.773438 147.761719 C 175.457031 148.476562 176.941406 149.484375 178.226562 150.789062 L 210.734375 183.3125 C 215.875 188.457031 216.300781 196.390625 211.695312 201.007812 Z M 211.695312 201.007812 "/></clipPath><radialGradient gradientTransform="matrix(0.999757,0,0,1.000243,1.296983,18.946766)" id="eaaefa72bf" gradientUnits="userSpaceOnUse" r="84.450801" cx="136.519664" fx="136.519664" cy="108.078739" fy="108.078739"><stop style="stop-color:#130c0e;stop-opacity:1;" offset="0"/><stop style="stop-color:#130c0e;stop-opacity:1;" offset="1"/></radialGradient></defs><g id="8e512e9794"><g clip-rule="nonzero" clip-path="url(#c715ee8a2a)"><g clip-rule="nonzero" clip-path="url(#49db0710b3)"><path style=" stroke:none;fill-rule:nonzero;fill:url(#f70605248e);" d="M 75.324219 64.59375 L 75.324219 133.933594 L 151.75 133.933594 L 151.75 64.59375 Z M 75.324219 64.59375 "/></g></g><g clip-rule="nonzero" clip-path="url(#7dcee94538)"><g clip-rule="nonzero" clip-path="url(#8a0159a3c9)"><path style=" stroke:none;fill-rule:nonzero;fill:url(#2fb47fe459);" d="M 152.296875 18.925781 L 152.296875 67.175781 L 187.171875 67.175781 L 187.171875 18.925781 Z M 152.296875 18.925781 "/></g></g><g clip-rule="nonzero" clip-path="url(#41ef887be1)"><g clip-rule="nonzero" clip-path="url(#1cbe16511c)"><path style=" stroke:none;fill-rule:nonzero;fill:url(#df04378646);" d="M 1.273438 114.785156 L 1.273438 185.921875 L 76.160156 185.921875 L 76.160156 114.785156 Z M 1.273438 114.785156 "/></g></g><g clip-rule="nonzero" clip-path="url(#010ce01d52)"><g clip-rule="nonzero" clip-path="url(#6c46027a47)"><path style=" stroke:none;fill-rule:nonzero;fill:url(#eaaefa72bf);" d="M 53.339844 42.578125 L 53.339844 211.390625 L 224.355469 211.390625 L 224.355469 42.578125 Z M 53.339844 42.578125 "/></g></g></g></svg>