<svg xmlns="http://www.w3.org/2000/svg" xmlns:xlink="http://www.w3.org/1999/xlink" width="300" zoomAndPan="magnify" viewBox="0 0 224.87999 225" height="300" preserveAspectRatio="xMidYMid meet" version="1.2"><defs><clipPath id="cf4cc7b586"><path d="M 77 1.722656 L 127 1.722656 L 127 52 L 77 52 Z M 77 1.722656 "/></clipPath><clipPath id="e440fe98a8"><path d="M 122 129 L 131 129 L 131 223.601562 L 122 223.601562 Z M 122 129 "/></clipPath><clipPath id="039b665ff7"><path d="M 52.757812 55 L 150 55 L 150 130 L 52.757812 130 Z M 52.757812 55 "/></clipPath><clipPath id="7af03566fa"><path d="M 73 120 L 82 120 L 82 223.601562 L 73 223.601562 Z M 73 120 "/></clipPath><clipPath id="77bf833250"><path d="M 97 141 L 107 141 L 107 223.601562 L 97 223.601562 Z M 97 141 "/></clipPath><clipPath id="d72c294204"><path d="M 89 71 L 171.945312 71 L 171.945312 138 L 89 138 Z M 89 71 "/></clipPath></defs><g id="3f05a93a24"><g clip-rule="nonzero" clip-path="url(#cf4cc7b586)"><path style=" stroke:none;fill-rule:nonzero;fill:#000000;fill-opacity:1;" d="M 101.90625 51.042969 C 101.101562 51.042969 100.300781 51.003906 99.5 50.925781 C 98.699219 50.847656 97.902344 50.726562 97.113281 50.570312 C 96.324219 50.414062 95.542969 50.21875 94.773438 49.984375 C 94.003906 49.75 93.246094 49.476562 92.503906 49.167969 C 91.757812 48.859375 91.03125 48.515625 90.324219 48.132812 C 89.613281 47.753906 88.921875 47.339844 88.253906 46.890625 C 87.585938 46.441406 86.9375 45.960938 86.316406 45.449219 C 85.695312 44.9375 85.097656 44.394531 84.53125 43.824219 C 83.960938 43.253906 83.421875 42.65625 82.910156 42.03125 C 82.398438 41.410156 81.921875 40.761719 81.472656 40.089844 C 81.027344 39.417969 80.613281 38.726562 80.234375 38.015625 C 79.855469 37.304688 79.511719 36.574219 79.203125 35.828125 C 78.894531 35.082031 78.625 34.324219 78.390625 33.550781 C 78.15625 32.777344 77.960938 31.996094 77.804688 31.207031 C 77.648438 30.414062 77.53125 29.617188 77.449219 28.8125 C 77.371094 28.007812 77.332031 27.203125 77.332031 26.398438 C 77.332031 25.589844 77.371094 24.785156 77.449219 23.980469 C 77.53125 23.179688 77.648438 22.378906 77.804688 21.589844 C 77.960938 20.796875 78.15625 20.015625 78.390625 19.242188 C 78.625 18.46875 78.894531 17.710938 79.203125 16.964844 C 79.511719 16.21875 79.855469 15.492188 80.234375 14.777344 C 80.613281 14.066406 81.027344 13.375 81.472656 12.703125 C 81.921875 12.03125 82.398438 11.386719 82.910156 10.761719 C 83.421875 10.136719 83.960938 9.539062 84.53125 8.96875 C 85.097656 8.398438 85.695312 7.855469 86.316406 7.34375 C 86.9375 6.832031 87.585938 6.351562 88.253906 5.902344 C 88.921875 5.457031 89.613281 5.039062 90.324219 4.660156 C 91.03125 4.28125 91.757812 3.933594 92.503906 3.625 C 93.246094 3.316406 94.003906 3.046875 94.773438 2.8125 C 95.542969 2.578125 96.324219 2.382812 97.113281 2.222656 C 97.902344 2.066406 98.699219 1.949219 99.5 1.867188 C 100.300781 1.789062 101.101562 1.75 101.90625 1.75 C 102.710938 1.75 103.515625 1.789062 104.316406 1.867188 C 105.117188 1.949219 105.910156 2.066406 106.703125 2.222656 C 107.492188 2.382812 108.269531 2.578125 109.039062 2.8125 C 109.8125 3.046875 110.566406 3.316406 111.3125 3.625 C 112.054688 3.933594 112.78125 4.28125 113.492188 4.660156 C 114.199219 5.039062 114.890625 5.457031 115.558594 5.902344 C 116.230469 6.351562 116.875 6.832031 117.496094 7.34375 C 118.117188 7.855469 118.714844 8.398438 119.285156 8.96875 C 119.851562 9.539062 120.394531 10.136719 120.902344 10.761719 C 121.414062 11.386719 121.894531 12.03125 122.339844 12.703125 C 122.785156 13.375 123.199219 14.066406 123.578125 14.777344 C 123.960938 15.492188 124.304688 16.21875 124.609375 16.964844 C 124.917969 17.710938 125.191406 18.46875 125.421875 19.242188 C 125.65625 20.015625 125.851562 20.796875 126.007812 21.589844 C 126.167969 22.378906 126.285156 23.179688 126.363281 23.980469 C 126.441406 24.785156 126.480469 25.589844 126.480469 26.398438 C 126.480469 27.203125 126.441406 28.007812 126.359375 28.8125 C 126.28125 29.613281 126.164062 30.414062 126.003906 31.203125 C 125.847656 31.996094 125.652344 32.777344 125.417969 33.550781 C 125.183594 34.320312 124.914062 35.078125 124.605469 35.824219 C 124.296875 36.570312 123.953125 37.300781 123.574219 38.011719 C 123.191406 38.722656 122.78125 39.414062 122.332031 40.085938 C 121.886719 40.753906 121.40625 41.402344 120.894531 42.027344 C 120.386719 42.648438 119.84375 43.246094 119.277344 43.816406 C 118.707031 44.386719 118.113281 44.929688 117.492188 45.441406 C 116.867188 45.953125 116.222656 46.433594 115.554688 46.882812 C 114.886719 47.332031 114.195312 47.746094 113.488281 48.125 C 112.777344 48.507812 112.050781 48.851562 111.308594 49.160156 C 110.5625 49.46875 109.808594 49.742188 109.039062 49.976562 C 108.269531 50.210938 107.488281 50.410156 106.699219 50.566406 C 105.910156 50.722656 105.117188 50.84375 104.316406 50.921875 C 103.515625 51.003906 102.710938 51.042969 101.90625 51.042969 Z M 101.90625 9.964844 C 101.371094 9.964844 100.835938 9.992188 100.300781 10.042969 C 99.765625 10.097656 99.238281 10.175781 98.710938 10.28125 C 98.183594 10.386719 97.664062 10.515625 97.152344 10.671875 C 96.636719 10.828125 96.132812 11.011719 95.636719 11.214844 C 95.140625 11.421875 94.65625 11.652344 94.183594 11.90625 C 93.710938 12.160156 93.25 12.4375 92.804688 12.734375 C 92.359375 13.035156 91.929688 13.355469 91.515625 13.695312 C 91.097656 14.035156 90.703125 14.398438 90.324219 14.777344 C 89.941406 15.160156 89.582031 15.558594 89.242188 15.972656 C 88.902344 16.390625 88.582031 16.820312 88.285156 17.269531 C 87.988281 17.714844 87.710938 18.175781 87.457031 18.652344 C 87.207031 19.125 86.976562 19.613281 86.769531 20.109375 C 86.566406 20.605469 86.386719 21.113281 86.230469 21.628906 C 86.074219 22.140625 85.945312 22.664062 85.839844 23.191406 C 85.734375 23.71875 85.65625 24.25 85.601562 24.785156 C 85.550781 25.320312 85.523438 25.859375 85.523438 26.398438 C 85.523438 26.933594 85.550781 27.472656 85.601562 28.007812 C 85.65625 28.542969 85.734375 29.074219 85.839844 29.601562 C 85.945312 30.128906 86.074219 30.652344 86.230469 31.167969 C 86.386719 31.683594 86.566406 32.1875 86.769531 32.683594 C 86.976562 33.183594 87.207031 33.667969 87.457031 34.144531 C 87.710938 34.617188 87.988281 35.078125 88.285156 35.527344 C 88.582031 35.972656 88.902344 36.40625 89.242188 36.820312 C 89.582031 37.238281 89.941406 37.636719 90.324219 38.015625 C 90.703125 38.394531 91.097656 38.757812 91.515625 39.097656 C 91.929688 39.441406 92.359375 39.761719 92.804688 40.058594 C 93.25 40.359375 93.710938 40.632812 94.183594 40.886719 C 94.65625 41.140625 95.140625 41.371094 95.636719 41.578125 C 96.132812 41.785156 96.636719 41.964844 97.152344 42.121094 C 97.664062 42.277344 98.183594 42.40625 98.710938 42.511719 C 99.238281 42.617188 99.765625 42.695312 100.300781 42.75 C 100.835938 42.800781 101.371094 42.828125 101.90625 42.828125 C 102.445312 42.828125 102.980469 42.800781 103.511719 42.75 C 104.046875 42.695312 104.578125 42.617188 105.101562 42.511719 C 105.628906 42.40625 106.148438 42.277344 106.664062 42.121094 C 107.175781 41.964844 107.679688 41.785156 108.175781 41.578125 C 108.671875 41.371094 109.15625 41.140625 109.628906 40.886719 C 110.101562 40.632812 110.5625 40.359375 111.007812 40.058594 C 111.453125 39.761719 111.886719 39.441406 112.300781 39.097656 C 112.714844 38.757812 113.113281 38.394531 113.492188 38.015625 C 113.871094 37.636719 114.230469 37.238281 114.570312 36.820312 C 114.910156 36.40625 115.230469 35.972656 115.527344 35.527344 C 115.828125 35.078125 116.101562 34.617188 116.355469 34.144531 C 116.609375 33.667969 116.835938 33.183594 117.042969 32.683594 C 117.25 32.1875 117.429688 31.683594 117.585938 31.167969 C 117.742188 30.652344 117.871094 30.128906 117.976562 29.601562 C 118.078125 29.074219 118.160156 28.542969 118.210938 28.007812 C 118.265625 27.472656 118.289062 26.933594 118.289062 26.398438 C 118.289062 25.859375 118.265625 25.320312 118.210938 24.785156 C 118.160156 24.25 118.078125 23.71875 117.976562 23.191406 C 117.871094 22.664062 117.742188 22.140625 117.585938 21.628906 C 117.429688 21.113281 117.25 20.605469 117.042969 20.109375 C 116.835938 19.613281 116.609375 19.125 116.355469 18.652344 C 116.101562 18.175781 115.828125 17.714844 115.527344 17.269531 C 115.230469 16.820312 114.910156 16.390625 114.570312 15.972656 C 114.230469 15.558594 113.871094 15.160156 113.492188 14.777344 C 113.113281 14.398438 112.714844 14.035156 112.300781 13.695312 C 111.886719 13.355469 111.453125 13.035156 111.007812 12.734375 C 110.5625 12.4375 110.101562 12.160156 109.628906 11.90625 C 109.15625 11.652344 108.671875 11.421875 108.175781 11.214844 C 107.679688 11.011719 107.175781 10.828125 106.664062 10.671875 C 106.148438 10.515625 105.628906 10.386719 105.101562 10.28125 C 104.578125 10.175781 104.046875 10.097656 103.511719 10.042969 C 102.980469 9.992188 102.445312 9.964844 101.90625 9.964844 Z M 101.90625 9.964844 "/></g><g clip-rule="nonzero" clip-path="url(#e440fe98a8)"><path style=" stroke:none;fill-rule:nonzero;fill:#000000;fill-opacity:1;" d="M 126.480469 223.574219 C 126.210938 223.574219 125.945312 223.546875 125.683594 223.496094 C 125.417969 223.441406 125.164062 223.363281 124.914062 223.261719 C 124.664062 223.160156 124.429688 223.03125 124.207031 222.882812 C 123.980469 222.730469 123.777344 222.5625 123.585938 222.371094 C 123.394531 222.179688 123.226562 221.972656 123.074219 221.75 C 122.925781 221.523438 122.800781 221.289062 122.699219 221.039062 C 122.59375 220.789062 122.515625 220.53125 122.464844 220.269531 C 122.410156 220.003906 122.386719 219.734375 122.386719 219.464844 L 122.386719 133.203125 C 122.386719 132.929688 122.410156 132.664062 122.464844 132.398438 C 122.515625 132.136719 122.59375 131.878906 122.699219 131.628906 C 122.800781 131.378906 122.925781 131.144531 123.074219 130.917969 C 123.226562 130.695312 123.394531 130.488281 123.585938 130.296875 C 123.777344 130.105469 123.980469 129.9375 124.207031 129.785156 C 124.429688 129.636719 124.664062 129.507812 124.914062 129.40625 C 125.164062 129.304688 125.417969 129.226562 125.683594 129.171875 C 125.945312 129.121094 126.210938 129.09375 126.480469 129.09375 C 126.75 129.09375 127.015625 129.121094 127.28125 129.171875 C 127.542969 129.226562 127.800781 129.304688 128.050781 129.40625 C 128.296875 129.507812 128.535156 129.636719 128.757812 129.785156 C 128.980469 129.9375 129.1875 130.105469 129.378906 130.296875 C 129.566406 130.488281 129.738281 130.695312 129.886719 130.917969 C 130.035156 131.144531 130.164062 131.378906 130.265625 131.628906 C 130.367188 131.878906 130.445312 132.136719 130.5 132.398438 C 130.550781 132.664062 130.578125 132.929688 130.578125 133.203125 L 130.578125 219.464844 C 130.578125 219.734375 130.550781 220.003906 130.5 220.269531 C 130.445312 220.53125 130.367188 220.789062 130.265625 221.039062 C 130.164062 221.289062 130.035156 221.523438 129.886719 221.75 C 129.738281 221.972656 129.566406 222.179688 129.378906 222.371094 C 129.1875 222.5625 128.980469 222.730469 128.757812 222.882812 C 128.535156 223.03125 128.296875 223.160156 128.050781 223.261719 C 127.800781 223.363281 127.542969 223.441406 127.28125 223.496094 C 127.015625 223.546875 126.75 223.574219 126.480469 223.574219 Z M 126.480469 223.574219 "/></g><g clip-rule="nonzero" clip-path="url(#039b665ff7)"><path style=" stroke:none;fill-rule:nonzero;fill:#000000;fill-opacity:1;" d="M 97.238281 129.09375 L 69.140625 129.09375 C 68.605469 129.09375 68.070312 129.066406 67.535156 129.015625 C 67 128.960938 66.472656 128.882812 65.945312 128.777344 C 65.417969 128.671875 64.898438 128.542969 64.386719 128.386719 C 63.871094 128.230469 63.367188 128.046875 62.871094 127.84375 C 62.375 127.636719 61.890625 127.40625 61.417969 127.152344 C 60.945312 126.898438 60.484375 126.625 60.039062 126.324219 C 59.59375 126.023438 59.164062 125.707031 58.746094 125.363281 C 58.332031 125.023438 57.9375 124.660156 57.554688 124.28125 C 57.175781 123.898438 56.816406 123.503906 56.476562 123.085938 C 56.136719 122.671875 55.816406 122.238281 55.519531 121.789062 C 55.222656 121.34375 54.945312 120.882812 54.691406 120.40625 C 54.441406 119.933594 54.210938 119.445312 54.003906 118.949219 C 53.800781 118.453125 53.621094 117.945312 53.464844 117.433594 C 53.308594 116.917969 53.175781 116.394531 53.074219 115.867188 C 52.96875 115.339844 52.890625 114.808594 52.835938 114.273438 C 52.785156 113.738281 52.757812 113.199219 52.757812 112.660156 L 52.757812 83.90625 C 52.757812 82.964844 52.804688 82.027344 52.898438 81.089844 C 52.992188 80.152344 53.128906 79.222656 53.3125 78.300781 C 53.5 77.375 53.726562 76.464844 54 75.5625 C 54.273438 74.664062 54.589844 73.777344 54.949219 72.90625 C 55.308594 72.039062 55.710938 71.1875 56.152344 70.359375 C 56.597656 69.527344 57.078125 68.722656 57.601562 67.9375 C 58.121094 67.15625 58.679688 66.402344 59.277344 65.675781 C 59.871094 64.945312 60.5 64.25 61.164062 63.582031 C 61.828125 62.917969 62.523438 62.285156 63.25 61.6875 C 63.972656 61.089844 64.726562 60.53125 65.507812 60.007812 C 66.289062 59.484375 67.09375 59 67.917969 58.558594 C 68.746094 58.113281 69.59375 57.710938 70.460938 57.351562 C 71.328125 56.988281 72.210938 56.671875 73.109375 56.398438 C 74.007812 56.125 74.917969 55.894531 75.835938 55.710938 C 76.757812 55.527344 77.683594 55.386719 78.617188 55.292969 C 79.554688 55.199219 80.488281 55.152344 81.429688 55.152344 L 122.386719 55.152344 C 123.859375 55.148438 125.328125 55.261719 126.785156 55.484375 C 128.242188 55.710938 129.671875 56.046875 131.078125 56.492188 C 132.484375 56.9375 133.847656 57.492188 135.167969 58.148438 C 136.488281 58.808594 137.75 59.566406 138.953125 60.417969 C 140.160156 61.273438 141.289062 62.214844 142.347656 63.246094 C 143.40625 64.277344 144.378906 65.382812 145.265625 66.5625 C 146.15625 67.742188 146.945312 68.984375 147.640625 70.289062 C 148.339844 71.59375 148.929688 72.945312 149.417969 74.339844 C 149.507812 74.59375 149.570312 74.855469 149.605469 75.121094 C 149.640625 75.390625 149.652344 75.65625 149.636719 75.925781 C 149.621094 76.195312 149.578125 76.460938 149.511719 76.722656 C 149.445312 76.984375 149.351562 77.234375 149.234375 77.476562 C 149.117188 77.71875 148.976562 77.949219 148.816406 78.164062 C 148.65625 78.378906 148.472656 78.574219 148.273438 78.753906 C 148.070312 78.933594 147.855469 79.09375 147.625 79.230469 C 147.390625 79.367188 147.148438 79.476562 146.894531 79.566406 C 146.640625 79.65625 146.382812 79.71875 146.117188 79.757812 C 145.847656 79.792969 145.582031 79.804688 145.3125 79.789062 C 145.046875 79.773438 144.78125 79.730469 144.519531 79.664062 C 144.261719 79.597656 144.007812 79.503906 143.765625 79.386719 C 143.523438 79.269531 143.296875 79.128906 143.082031 78.96875 C 142.867188 78.804688 142.671875 78.625 142.492188 78.421875 C 142.3125 78.222656 142.15625 78.003906 142.019531 77.773438 C 141.882812 77.539062 141.769531 77.296875 141.679688 77.042969 C 141.332031 76.046875 140.910156 75.085938 140.414062 74.152344 C 139.914062 73.222656 139.351562 72.339844 138.714844 71.496094 C 138.082031 70.652344 137.386719 69.863281 136.632812 69.128906 C 135.875 68.394531 135.070312 67.726562 134.210938 67.117188 C 133.351562 66.507812 132.449219 65.96875 131.507812 65.5 C 130.566406 65.03125 129.59375 64.636719 128.589844 64.316406 C 127.585938 64 126.5625 63.761719 125.523438 63.601562 C 124.484375 63.441406 123.4375 63.363281 122.386719 63.367188 L 81.429688 63.367188 C 80.757812 63.367188 80.089844 63.402344 79.421875 63.46875 C 78.753906 63.535156 78.09375 63.632812 77.433594 63.765625 C 76.777344 63.898438 76.128906 64.0625 75.484375 64.257812 C 74.84375 64.453125 74.214844 64.679688 73.59375 64.9375 C 72.976562 65.195312 72.371094 65.484375 71.78125 65.800781 C 71.1875 66.117188 70.613281 66.464844 70.058594 66.835938 C 69.5 67.210938 68.960938 67.609375 68.441406 68.039062 C 67.925781 68.464844 67.429688 68.914062 66.953125 69.390625 C 66.480469 69.867188 66.03125 70.363281 65.605469 70.882812 C 65.179688 71.402344 64.78125 71.941406 64.410156 72.5 C 64.035156 73.0625 63.691406 73.636719 63.375 74.230469 C 63.058594 74.824219 62.773438 75.429688 62.515625 76.050781 C 62.257812 76.671875 62.03125 77.304688 61.835938 77.949219 C 61.640625 78.589844 61.476562 79.242188 61.347656 79.902344 C 61.214844 80.5625 61.117188 81.226562 61.050781 81.894531 C 60.984375 82.5625 60.949219 83.234375 60.949219 83.90625 L 60.949219 112.660156 C 60.949219 113.203125 61 113.734375 61.105469 114.265625 C 61.210938 114.792969 61.367188 115.308594 61.574219 115.804688 C 61.777344 116.304688 62.03125 116.777344 62.328125 117.226562 C 62.628906 117.675781 62.96875 118.089844 63.347656 118.472656 C 63.730469 118.851562 64.144531 119.195312 64.589844 119.492188 C 65.039062 119.792969 65.507812 120.046875 66.007812 120.253906 C 66.503906 120.457031 67.015625 120.613281 67.542969 120.71875 C 68.070312 120.824219 68.601562 120.878906 69.140625 120.878906 L 97.238281 120.878906 C 97.507812 120.878906 97.773438 120.902344 98.035156 120.957031 C 98.300781 121.007812 98.558594 121.085938 98.804688 121.191406 C 99.054688 121.292969 99.289062 121.421875 99.511719 121.570312 C 99.738281 121.71875 99.945312 121.890625 100.132812 122.082031 C 100.324219 122.273438 100.492188 122.480469 100.644531 122.703125 C 100.792969 122.925781 100.917969 123.164062 101.023438 123.414062 C 101.125 123.664062 101.203125 123.917969 101.253906 124.183594 C 101.308594 124.449219 101.332031 124.714844 101.332031 124.984375 C 101.332031 125.253906 101.308594 125.523438 101.253906 125.785156 C 101.203125 126.050781 101.125 126.308594 101.023438 126.558594 C 100.917969 126.808594 100.792969 127.042969 100.644531 127.269531 C 100.492188 127.492188 100.324219 127.699219 100.132812 127.890625 C 99.945312 128.082031 99.738281 128.25 99.511719 128.402344 C 99.289062 128.550781 99.054688 128.675781 98.804688 128.78125 C 98.558594 128.882812 98.300781 128.960938 98.035156 129.015625 C 97.773438 129.066406 97.507812 129.09375 97.238281 129.09375 Z M 97.238281 129.09375 "/></g><path style=" stroke:none;fill-rule:nonzero;fill:#000000;fill-opacity:1;" d="M 106.003906 108.554688 L 77.332031 108.554688 C 77.0625 108.554688 76.796875 108.527344 76.535156 108.476562 C 76.269531 108.421875 76.011719 108.34375 75.765625 108.242188 C 75.515625 108.136719 75.28125 108.011719 75.058594 107.863281 C 74.832031 107.710938 74.625 107.542969 74.4375 107.351562 C 74.246094 107.160156 74.078125 106.953125 73.925781 106.730469 C 73.777344 106.503906 73.652344 106.265625 73.546875 106.019531 C 73.445312 105.769531 73.367188 105.511719 73.316406 105.246094 C 73.261719 104.984375 73.238281 104.714844 73.238281 104.445312 L 73.238281 92.121094 C 73.238281 91.851562 73.261719 91.585938 73.316406 91.320312 C 73.367188 91.058594 73.445312 90.800781 73.546875 90.550781 C 73.652344 90.300781 73.777344 90.066406 73.925781 89.839844 C 74.078125 89.617188 74.246094 89.410156 74.4375 89.21875 C 74.625 89.027344 74.832031 88.855469 75.058594 88.707031 C 75.28125 88.558594 75.515625 88.429688 75.765625 88.328125 C 76.011719 88.222656 76.269531 88.144531 76.535156 88.09375 C 76.796875 88.042969 77.0625 88.015625 77.332031 88.015625 C 77.601562 88.015625 77.867188 88.042969 78.132812 88.09375 C 78.394531 88.144531 78.652344 88.222656 78.898438 88.328125 C 79.148438 88.429688 79.382812 88.558594 79.609375 88.707031 C 79.832031 88.855469 80.039062 89.027344 80.230469 89.21875 C 80.417969 89.410156 80.589844 89.617188 80.738281 89.839844 C 80.886719 90.066406 81.011719 90.300781 81.117188 90.550781 C 81.21875 90.800781 81.296875 91.058594 81.347656 91.320312 C 81.402344 91.585938 81.429688 91.851562 81.429688 92.121094 L 81.429688 100.339844 L 106.003906 100.339844 C 106.273438 100.339844 106.539062 100.363281 106.800781 100.417969 C 107.066406 100.46875 107.320312 100.546875 107.570312 100.652344 C 107.820312 100.753906 108.054688 100.882812 108.277344 101.03125 C 108.5 101.179688 108.707031 101.351562 108.898438 101.542969 C 109.089844 101.730469 109.257812 101.941406 109.410156 102.164062 C 109.558594 102.386719 109.683594 102.625 109.785156 102.875 C 109.890625 103.125 109.96875 103.378906 110.019531 103.644531 C 110.070312 103.910156 110.097656 104.175781 110.097656 104.445312 C 110.097656 104.714844 110.070312 104.984375 110.019531 105.246094 C 109.96875 105.511719 109.890625 105.769531 109.785156 106.019531 C 109.683594 106.265625 109.558594 106.503906 109.410156 106.730469 C 109.257812 106.953125 109.089844 107.160156 108.898438 107.351562 C 108.707031 107.542969 108.5 107.710938 108.277344 107.863281 C 108.054688 108.011719 107.820312 108.136719 107.570312 108.242188 C 107.320312 108.34375 107.066406 108.421875 106.800781 108.476562 C 106.539062 108.527344 106.273438 108.554688 106.003906 108.554688 Z M 106.003906 108.554688 "/><g clip-rule="nonzero" clip-path="url(#7af03566fa)"><path style=" stroke:none;fill-rule:nonzero;fill:#000000;fill-opacity:1;" d="M 77.332031 223.574219 C 77.0625 223.574219 76.796875 223.546875 76.535156 223.496094 C 76.269531 223.441406 76.011719 223.363281 75.765625 223.261719 C 75.515625 223.160156 75.28125 223.03125 75.058594 222.882812 C 74.832031 222.730469 74.625 222.5625 74.4375 222.371094 C 74.246094 222.179688 74.078125 221.972656 73.925781 221.75 C 73.777344 221.523438 73.652344 221.289062 73.546875 221.039062 C 73.445312 220.789062 73.367188 220.53125 73.316406 220.269531 C 73.261719 220.003906 73.238281 219.734375 73.238281 219.464844 L 73.238281 124.984375 C 73.238281 124.714844 73.261719 124.449219 73.316406 124.183594 C 73.367188 123.917969 73.445312 123.664062 73.546875 123.414062 C 73.652344 123.164062 73.777344 122.925781 73.925781 122.703125 C 74.078125 122.480469 74.246094 122.273438 74.4375 122.082031 C 74.625 121.890625 74.832031 121.71875 75.058594 121.570312 C 75.28125 121.421875 75.515625 121.292969 75.765625 121.191406 C 76.011719 121.085938 76.269531 121.007812 76.535156 120.957031 C 76.796875 120.902344 77.0625 120.878906 77.332031 120.878906 C 77.601562 120.878906 77.867188 120.902344 78.132812 120.957031 C 78.394531 121.007812 78.652344 121.085938 78.898438 121.191406 C 79.148438 121.292969 79.382812 121.421875 79.609375 121.570312 C 79.832031 121.71875 80.039062 121.890625 80.230469 122.082031 C 80.417969 122.273438 80.589844 122.480469 80.738281 122.703125 C 80.886719 122.925781 81.011719 123.164062 81.117188 123.414062 C 81.21875 123.664062 81.296875 123.917969 81.347656 124.183594 C 81.402344 124.449219 81.429688 124.714844 81.429688 124.984375 L 81.429688 219.464844 C 81.429688 219.734375 81.402344 220.003906 81.347656 220.269531 C 81.296875 220.53125 81.21875 220.789062 81.117188 221.039062 C 81.011719 221.289062 80.886719 221.523438 80.738281 221.75 C 80.589844 221.972656 80.417969 222.179688 80.230469 222.371094 C 80.039062 222.5625 79.832031 222.730469 79.609375 222.882812 C 79.382812 223.03125 79.148438 223.160156 78.898438 223.261719 C 78.652344 223.363281 78.394531 223.441406 78.132812 223.496094 C 77.867188 223.546875 77.601562 223.574219 77.332031 223.574219 Z M 77.332031 223.574219 "/></g><g clip-rule="nonzero" clip-path="url(#77bf833250)"><path style=" stroke:none;fill-rule:nonzero;fill:#000000;fill-opacity:1;" d="M 101.90625 223.574219 C 101.636719 223.574219 101.371094 223.546875 101.109375 223.496094 C 100.84375 223.441406 100.589844 223.363281 100.339844 223.261719 C 100.089844 223.160156 99.855469 223.03125 99.632812 222.882812 C 99.40625 222.730469 99.199219 222.5625 99.011719 222.371094 C 98.820312 222.179688 98.652344 221.972656 98.5 221.75 C 98.351562 221.523438 98.226562 221.289062 98.121094 221.039062 C 98.019531 220.789062 97.941406 220.53125 97.890625 220.269531 C 97.835938 220.003906 97.8125 219.734375 97.8125 219.464844 L 97.8125 145.523438 C 97.8125 145.253906 97.835938 144.988281 97.890625 144.722656 C 97.941406 144.457031 98.019531 144.203125 98.121094 143.953125 C 98.226562 143.703125 98.351562 143.46875 98.5 143.242188 C 98.652344 143.019531 98.820312 142.8125 99.011719 142.621094 C 99.199219 142.429688 99.40625 142.257812 99.632812 142.109375 C 99.855469 141.960938 100.089844 141.832031 100.339844 141.730469 C 100.589844 141.625 100.84375 141.546875 101.109375 141.496094 C 101.371094 141.445312 101.636719 141.417969 101.90625 141.417969 C 102.175781 141.417969 102.441406 141.445312 102.707031 141.496094 C 102.96875 141.546875 103.226562 141.625 103.472656 141.730469 C 103.722656 141.832031 103.957031 141.960938 104.183594 142.109375 C 104.40625 142.257812 104.613281 142.429688 104.804688 142.621094 C 104.992188 142.8125 105.164062 143.019531 105.3125 143.242188 C 105.460938 143.46875 105.589844 143.703125 105.691406 143.953125 C 105.792969 144.203125 105.871094 144.457031 105.925781 144.722656 C 105.976562 144.988281 106.003906 145.253906 106.003906 145.523438 L 106.003906 219.464844 C 106.003906 219.734375 105.976562 220.003906 105.925781 220.269531 C 105.871094 220.53125 105.792969 220.789062 105.691406 221.039062 C 105.589844 221.289062 105.460938 221.523438 105.3125 221.75 C 105.164062 221.972656 104.992188 222.179688 104.804688 222.371094 C 104.613281 222.5625 104.40625 222.730469 104.183594 222.882812 C 103.957031 223.03125 103.722656 223.160156 103.472656 223.261719 C 103.226562 223.363281 102.96875 223.441406 102.707031 223.496094 C 102.441406 223.546875 102.175781 223.574219 101.90625 223.574219 Z M 101.90625 223.574219 "/></g><path style=" stroke:none;fill-rule:nonzero;fill:#000000;fill-opacity:1;" d="M 146.386719 129.09375 L 142.863281 129.09375 C 142.089844 129.128906 141.320312 129.0625 140.5625 128.898438 C 139.804688 128.734375 139.078125 128.472656 138.386719 128.117188 C 137.695312 127.765625 137.0625 127.328125 136.484375 126.808594 C 135.90625 126.289062 135.402344 125.703125 134.976562 125.050781 C 134.550781 124.273438 134.230469 123.457031 134.015625 122.597656 C 133.800781 121.734375 133.699219 120.863281 133.710938 119.976562 C 133.722656 119.089844 133.84375 118.21875 134.082031 117.363281 C 134.316406 116.511719 134.65625 115.699219 135.101562 114.933594 C 136.699219 111.902344 138.925781 109.445312 141.777344 107.558594 C 143.140625 106.597656 144.609375 105.851562 146.191406 105.324219 C 147.769531 104.792969 149.390625 104.5 151.054688 104.445312 L 153.390625 104.445312 C 153.660156 104.445312 153.925781 104.472656 154.191406 104.523438 C 154.453125 104.578125 154.710938 104.65625 154.957031 104.757812 C 155.207031 104.863281 155.441406 104.988281 155.667969 105.136719 C 155.890625 105.289062 156.097656 105.457031 156.285156 105.648438 C 156.476562 105.839844 156.648438 106.046875 156.796875 106.273438 C 156.945312 106.496094 157.070312 106.734375 157.175781 106.980469 C 157.277344 107.230469 157.355469 107.488281 157.40625 107.753906 C 157.460938 108.015625 157.488281 108.285156 157.488281 108.554688 C 157.488281 108.824219 157.460938 109.089844 157.40625 109.355469 C 157.355469 109.621094 157.277344 109.878906 157.175781 110.125 C 157.070312 110.375 156.945312 110.613281 156.796875 110.835938 C 156.648438 111.0625 156.476562 111.269531 156.285156 111.457031 C 156.097656 111.648438 155.890625 111.820312 155.667969 111.96875 C 155.441406 112.121094 155.207031 112.246094 154.957031 112.347656 C 154.710938 112.453125 154.453125 112.53125 154.191406 112.582031 C 153.925781 112.636719 153.660156 112.660156 153.390625 112.660156 L 151.054688 112.660156 C 149.316406 112.78125 147.746094 113.355469 146.335938 114.386719 C 144.675781 115.472656 143.367188 116.886719 142.417969 118.636719 C 142 119.273438 141.839844 119.976562 141.941406 120.734375 C 142.242188 120.84375 142.546875 120.890625 142.863281 120.878906 L 146.386719 120.878906 C 146.65625 120.878906 146.921875 120.902344 147.1875 120.957031 C 147.449219 121.007812 147.707031 121.085938 147.953125 121.191406 C 148.203125 121.292969 148.4375 121.421875 148.664062 121.570312 C 148.886719 121.71875 149.09375 121.890625 149.28125 122.082031 C 149.472656 122.273438 149.644531 122.480469 149.792969 122.703125 C 149.941406 122.925781 150.066406 123.164062 150.171875 123.414062 C 150.273438 123.664062 150.351562 123.917969 150.402344 124.183594 C 150.457031 124.449219 150.484375 124.714844 150.484375 124.984375 C 150.484375 125.253906 150.457031 125.523438 150.402344 125.785156 C 150.351562 126.050781 150.273438 126.308594 150.171875 126.558594 C 150.066406 126.808594 149.941406 127.042969 149.792969 127.269531 C 149.644531 127.492188 149.472656 127.699219 149.28125 127.890625 C 149.09375 128.082031 148.886719 128.25 148.664062 128.402344 C 148.4375 128.550781 148.203125 128.675781 147.953125 128.78125 C 147.707031 128.882812 147.449219 128.960938 147.1875 129.015625 C 146.921875 129.066406 146.65625 129.09375 146.386719 129.09375 Z M 146.386719 129.09375 "/><path style=" stroke:none;fill-rule:nonzero;fill:#b3b3b3;fill-opacity:1;" d="M 106.003906 104.445312 L 93.714844 92.121094 "/><path style=" stroke:none;fill-rule:nonzero;fill:#000000;fill-opacity:1;" d="M 106.003906 108.554688 C 104.871094 108.554688 103.90625 108.152344 103.105469 107.351562 L 90.820312 95.027344 C 90.445312 94.640625 90.160156 94.195312 89.960938 93.695312 C 89.761719 93.195312 89.664062 92.675781 89.671875 92.136719 C 89.675781 91.597656 89.78125 91.082031 89.988281 90.585938 C 90.195312 90.089844 90.488281 89.648438 90.871094 89.269531 C 91.25 88.886719 91.6875 88.59375 92.183594 88.386719 C 92.675781 88.175781 93.191406 88.070312 93.730469 88.066406 C 94.265625 88.0625 94.785156 88.160156 95.285156 88.359375 C 95.78125 88.558594 96.226562 88.84375 96.609375 89.21875 L 108.898438 101.542969 C 109.183594 101.828125 109.421875 102.152344 109.613281 102.511719 C 109.804688 102.867188 109.941406 103.246094 110.019531 103.644531 C 110.097656 104.042969 110.117188 104.445312 110.078125 104.847656 C 110.039062 105.253906 109.941406 105.644531 109.785156 106.019531 C 109.632812 106.394531 109.425781 106.738281 109.167969 107.050781 C 108.910156 107.367188 108.613281 107.636719 108.277344 107.863281 C 107.941406 108.085938 107.578125 108.257812 107.191406 108.378906 C 106.804688 108.496094 106.40625 108.554688 106.003906 108.554688 Z M 106.003906 108.554688 "/><g clip-rule="nonzero" clip-path="url(#d72c294204)"><path style=" stroke:none;fill-rule:nonzero;fill:#000000;fill-opacity:1;" d="M 142.863281 137.308594 L 93.714844 137.308594 C 93.375 137.308594 93.042969 137.269531 92.714844 137.183594 C 92.386719 137.101562 92.070312 136.980469 91.773438 136.816406 C 91.476562 136.65625 91.203125 136.460938 90.953125 136.230469 C 90.703125 136.003906 90.484375 135.746094 90.296875 135.460938 C 90.109375 135.179688 89.960938 134.875 89.847656 134.554688 C 89.738281 134.234375 89.667969 133.90625 89.636719 133.566406 C 89.605469 133.226562 89.617188 132.890625 89.671875 132.554688 C 89.722656 132.21875 89.816406 131.894531 89.953125 131.582031 L 114.527344 74.074219 C 114.683594 73.703125 114.890625 73.363281 115.148438 73.054688 C 115.40625 72.746094 115.703125 72.484375 116.035156 72.261719 C 116.371094 72.039062 116.730469 71.871094 117.113281 71.757812 C 117.496094 71.640625 117.890625 71.582031 118.289062 71.582031 L 167.4375 71.582031 C 167.777344 71.582031 168.113281 71.625 168.441406 71.707031 C 168.769531 71.792969 169.082031 71.914062 169.378906 72.074219 C 169.679688 72.234375 169.953125 72.429688 170.203125 72.660156 C 170.453125 72.890625 170.671875 73.148438 170.859375 73.429688 C 171.042969 73.714844 171.195312 74.015625 171.304688 74.335938 C 171.417969 74.65625 171.488281 74.988281 171.519531 75.328125 C 171.546875 75.664062 171.535156 76.003906 171.484375 76.335938 C 171.429688 76.671875 171.335938 76.996094 171.203125 77.308594 L 157.15625 110.171875 C 156.996094 110.542969 156.789062 110.882812 156.53125 111.1875 C 156.273438 111.496094 155.980469 111.761719 155.644531 111.984375 C 155.308594 112.203125 154.953125 112.375 154.566406 112.488281 C 154.183594 112.605469 153.792969 112.660156 153.390625 112.660156 L 151.054688 112.660156 C 149.320312 112.777344 147.746094 113.351562 146.34375 114.382812 C 144.679688 115.46875 143.371094 116.886719 142.417969 118.636719 C 142 119.273438 141.839844 119.976562 141.941406 120.734375 C 142.242188 120.84375 142.546875 120.890625 142.863281 120.878906 L 146.386719 120.878906 C 146.726562 120.875 147.0625 120.917969 147.394531 121 C 147.722656 121.085938 148.039062 121.207031 148.339844 121.367188 C 148.636719 121.53125 148.914062 121.726562 149.164062 121.957031 C 149.414062 122.1875 149.632812 122.445312 149.820312 122.730469 C 150.007812 123.015625 150.15625 123.320312 150.269531 123.644531 C 150.378906 123.964844 150.449219 124.296875 150.476562 124.636719 C 150.507812 124.976562 150.492188 125.316406 150.4375 125.652344 C 150.382812 125.992188 150.285156 126.316406 150.152344 126.628906 L 146.628906 134.84375 C 146.46875 135.210938 146.261719 135.546875 146.003906 135.855469 C 145.746094 136.160156 145.449219 136.421875 145.113281 136.640625 C 144.78125 136.859375 144.421875 137.027344 144.039062 137.140625 C 143.65625 137.253906 143.265625 137.308594 142.863281 137.308594 Z M 99.929688 129.09375 L 140.167969 129.09375 L 140.296875 128.796875 C 139.195312 128.554688 138.183594 128.109375 137.261719 127.460938 C 136.335938 126.808594 135.574219 126.007812 134.972656 125.050781 C 134.546875 124.273438 134.226562 123.457031 134.011719 122.597656 C 133.796875 121.734375 133.695312 120.863281 133.707031 119.976562 C 133.71875 119.089844 133.839844 118.21875 134.078125 117.363281 C 134.3125 116.511719 134.652344 115.699219 135.097656 114.933594 C 136.695312 111.902344 138.921875 109.445312 141.773438 107.558594 C 144.453125 105.675781 147.421875 104.636719 150.6875 104.445312 L 161.226562 79.800781 L 120.988281 79.800781 Z M 99.929688 129.09375 "/></g><path style=" stroke:none;fill-rule:nonzero;fill:#000000;fill-opacity:1;" d="M 151.054688 129.09375 L 142.863281 129.09375 C 142.089844 129.128906 141.320312 129.0625 140.5625 128.898438 C 139.804688 128.734375 139.078125 128.472656 138.386719 128.117188 C 137.695312 127.765625 137.0625 127.328125 136.484375 126.808594 C 135.90625 126.289062 135.402344 125.703125 134.976562 125.050781 C 134.550781 124.273438 134.230469 123.457031 134.015625 122.597656 C 133.800781 121.734375 133.699219 120.863281 133.710938 119.976562 C 133.722656 119.089844 133.84375 118.21875 134.082031 117.363281 C 134.316406 116.511719 134.65625 115.699219 135.101562 114.933594 C 136.699219 111.902344 138.925781 109.445312 141.777344 107.558594 C 143.140625 106.597656 144.609375 105.851562 146.191406 105.320312 C 147.769531 104.792969 149.390625 104.5 151.054688 104.445312 L 159.246094 104.445312 C 159.597656 104.445312 159.941406 104.488281 160.28125 104.574219 C 160.621094 104.660156 160.941406 104.789062 161.25 104.957031 C 161.554688 105.128906 161.835938 105.332031 162.089844 105.574219 C 162.34375 105.816406 162.5625 106.085938 162.746094 106.382812 C 162.933594 106.683594 163.078125 107 163.179688 107.335938 C 163.285156 107.667969 163.34375 108.011719 163.359375 108.363281 C 163.378906 108.714844 163.347656 109.0625 163.277344 109.402344 C 163.203125 109.746094 163.089844 110.078125 162.933594 110.390625 L 154.742188 126.820312 C 154.394531 127.523438 153.886719 128.074219 153.222656 128.484375 C 152.558594 128.894531 151.835938 129.097656 151.054688 129.09375 Z M 151.054688 112.660156 C 149.320312 112.777344 147.746094 113.351562 146.34375 114.382812 C 144.679688 115.46875 143.371094 116.886719 142.417969 118.636719 C 142 119.273438 141.839844 119.976562 141.941406 120.734375 C 142.242188 120.84375 142.546875 120.890625 142.863281 120.878906 L 148.523438 120.878906 L 152.621094 112.660156 Z M 151.054688 112.660156 "/></g></svg>