<svg xmlns="http://www.w3.org/2000/svg" xmlns:xlink="http://www.w3.org/1999/xlink" width="300" zoomAndPan="magnify" viewBox="0 0 224.87999 225" height="300" preserveAspectRatio="xMidYMid meet" version="1.2"><defs><clipPath id="d9ff548a99"><path d="M 62 209 L 70 209 L 70 224.9375 L 62 224.9375 Z M 62 209 "/></clipPath><clipPath id="ec269361d5"><path d="M 25.300781 135 L 118 135 L 118 224.9375 L 25.300781 224.9375 Z M 25.300781 135 "/></clipPath><clipPath id="edb6808a36"><path d="M 84 154 L 114 154 L 114 224.9375 L 84 224.9375 Z M 84 154 "/></clipPath><clipPath id="ed54adccfe"><path d="M 117 135 L 202 135 L 202 224.9375 L 117 224.9375 Z M 117 135 "/></clipPath><clipPath id="d2e337bf05"><path d="M 154 209 L 162 209 L 162 224.9375 L 154 224.9375 Z M 154 209 "/></clipPath></defs><g id="ffb45a6c9d"><path style=" stroke:none;fill-rule:nonzero;fill:#000000;fill-opacity:1;" d="M 74.765625 65.042969 L 73.109375 76.457031 C 72.988281 77.171875 73.070312 77.863281 73.359375 78.53125 C 73.644531 79.199219 74.089844 79.734375 74.691406 80.136719 C 75.339844 80.523438 76.039062 80.695312 76.789062 80.652344 C 77.445312 80.65625 78.058594 80.496094 78.628906 80.175781 L 98.269531 68.90625 C 99.515625 68.640625 100.742188 68.296875 101.945312 67.878906 C 104.140625 69.972656 106.578125 71.734375 109.257812 73.160156 C 111.9375 74.585938 114.757812 75.621094 117.722656 76.269531 L 137.402344 87.539062 C 137.992188 87.875 138.632812 88.035156 139.3125 88.015625 C 140.0625 88.019531 140.75 87.808594 141.371094 87.390625 C 141.976562 86.988281 142.421875 86.449219 142.707031 85.785156 C 142.996094 85.117188 143.078125 84.425781 142.953125 83.707031 L 141.335938 72.296875 C 142.878906 71.375 144.335938 70.335938 145.707031 69.179688 C 147.082031 68.019531 148.351562 66.757812 149.519531 65.394531 C 150.6875 64.03125 151.738281 62.582031 152.671875 61.042969 C 153.601562 59.507812 154.40625 57.90625 155.078125 56.242188 C 155.75 54.574219 156.28125 52.867188 156.675781 51.113281 C 157.070312 49.359375 157.320312 47.585938 157.425781 45.792969 C 157.53125 44 157.492188 42.207031 157.308594 40.421875 C 157.125 38.632812 156.796875 36.871094 156.324219 35.136719 C 155.855469 33.40625 155.246094 31.71875 154.5 30.085938 C 153.757812 28.449219 152.882812 26.886719 151.886719 25.394531 C 150.886719 23.898438 149.773438 22.496094 148.546875 21.1875 C 147.320312 19.875 145.996094 18.671875 144.570312 17.574219 C 143.148438 16.476562 141.648438 15.503906 140.066406 14.652344 C 138.484375 13.800781 136.847656 13.085938 135.148438 12.5 C 133.453125 11.914062 131.71875 11.472656 129.949219 11.171875 C 128.179688 10.867188 126.398438 10.710938 124.601562 10.699219 C 121.035156 10.699219 117.566406 11.277344 114.191406 12.429688 C 113.351562 11.617188 112.46875 10.851562 111.546875 10.132812 C 110.621094 9.417969 109.664062 8.75 108.671875 8.132812 C 107.675781 7.515625 106.652344 6.953125 105.601562 6.445312 C 104.546875 5.9375 103.46875 5.484375 102.367188 5.09375 C 101.265625 4.699219 100.148438 4.363281 99.011719 4.089844 C 97.875 3.8125 96.726562 3.597656 95.570312 3.445312 C 94.410156 3.292969 93.246094 3.199219 92.078125 3.171875 C 90.910156 3.140625 89.742188 3.171875 88.578125 3.265625 C 87.410156 3.359375 86.253906 3.515625 85.105469 3.734375 C 83.957031 3.949219 82.820312 4.226562 81.703125 4.5625 C 80.582031 4.898438 79.484375 5.296875 78.40625 5.75 C 77.328125 6.203125 76.277344 6.710938 75.253906 7.277344 C 74.230469 7.839844 73.238281 8.457031 72.28125 9.128906 C 71.320312 9.796875 70.402344 10.519531 69.519531 11.285156 C 68.636719 12.054688 67.796875 12.867188 67 13.722656 C 66.203125 14.578125 65.453125 15.476562 64.753906 16.410156 C 64.050781 17.347656 63.402344 18.320312 62.800781 19.324219 C 62.203125 20.328125 61.660156 21.363281 61.167969 22.425781 C 60.679688 23.488281 60.25 24.574219 59.875 25.683594 C 59.5 26.792969 59.183594 27.917969 58.929688 29.058594 C 58.671875 30.203125 58.480469 31.355469 58.347656 32.515625 C 58.210938 33.679688 58.140625 34.847656 58.132812 36.015625 C 58.121094 37.1875 58.171875 38.355469 58.285156 39.519531 C 58.402344 40.683594 58.574219 41.839844 58.8125 42.984375 C 59.046875 44.132812 59.34375 45.261719 59.699219 46.378906 C 60.054688 47.492188 60.46875 48.585938 60.941406 49.65625 C 61.410156 50.726562 61.9375 51.769531 62.519531 52.785156 C 63.101562 53.800781 63.734375 54.78125 64.421875 55.730469 C 65.105469 56.679688 65.839844 57.585938 66.621094 58.457031 C 67.40625 59.328125 68.230469 60.152344 69.097656 60.9375 C 69.96875 61.71875 70.878906 62.453125 71.824219 63.140625 C 72.769531 63.824219 73.753906 64.460938 74.765625 65.042969 Z M 150.347656 43.835938 C 150.34375 45.046875 150.257812 46.25 150.085938 47.449219 C 149.914062 48.648438 149.65625 49.828125 149.320312 50.992188 C 148.980469 52.152344 148.5625 53.285156 148.0625 54.390625 C 147.566406 55.492188 146.992188 56.558594 146.347656 57.578125 C 145.699219 58.601562 144.980469 59.574219 144.199219 60.496094 C 143.414062 61.417969 142.566406 62.28125 141.660156 63.082031 C 140.753906 63.886719 139.796875 64.621094 138.789062 65.289062 C 137.777344 65.953125 136.726562 66.546875 135.636719 67.066406 C 135.296875 67.230469 134.988281 67.441406 134.714844 67.703125 C 134.441406 67.960938 134.210938 68.253906 134.027344 68.582031 C 133.84375 68.914062 133.710938 69.261719 133.632812 69.632812 C 133.558594 70 133.539062 70.375 133.574219 70.75 L 134.496094 77.265625 L 120.921875 69.605469 C 120.5625 69.421875 120.179688 69.289062 119.785156 69.203125 C 115.894531 68.441406 112.378906 66.859375 109.226562 64.453125 C 110.144531 63.871094 111.03125 63.242188 111.886719 62.570312 C 112.742188 61.902344 113.5625 61.1875 114.347656 60.4375 C 115.132812 59.6875 115.878906 58.898438 116.585938 58.070312 C 117.292969 57.246094 117.960938 56.390625 118.582031 55.496094 C 119.207031 54.605469 119.785156 53.6875 120.316406 52.738281 C 120.851562 51.792969 121.335938 50.820312 121.773438 49.824219 C 122.210938 48.828125 122.597656 47.8125 122.933594 46.78125 C 123.273438 45.746094 123.558594 44.699219 123.792969 43.636719 C 124.027344 42.574219 124.207031 41.503906 124.335938 40.421875 C 124.464844 39.34375 124.542969 38.257812 124.5625 37.171875 C 124.585938 36.085938 124.554688 35 124.472656 33.914062 C 124.386719 32.828125 124.25 31.753906 124.058594 30.679688 C 123.867188 29.609375 123.625 28.550781 123.332031 27.503906 C 123.035156 26.457031 122.691406 25.429688 122.296875 24.414062 C 121.898438 23.402344 121.453125 22.410156 120.960938 21.441406 C 120.46875 20.472656 119.929688 19.53125 119.34375 18.613281 C 121.074219 18.246094 122.828125 18.058594 124.601562 18.0625 C 125.445312 18.0625 126.285156 18.105469 127.125 18.1875 C 127.964844 18.269531 128.796875 18.394531 129.625 18.558594 C 130.449219 18.722656 131.269531 18.925781 132.074219 19.171875 C 132.882812 19.417969 133.675781 19.703125 134.453125 20.023438 C 135.234375 20.347656 135.992188 20.707031 136.738281 21.105469 C 137.480469 21.503906 138.203125 21.9375 138.90625 22.40625 C 139.605469 22.875 140.28125 23.378906 140.933594 23.914062 C 141.585938 24.449219 142.210938 25.015625 142.804688 25.609375 C 143.402344 26.207031 143.96875 26.832031 144.503906 27.484375 C 145.039062 28.136719 145.539062 28.816406 146.007812 29.515625 C 146.476562 30.21875 146.910156 30.941406 147.308594 31.6875 C 147.703125 32.429688 148.0625 33.191406 148.386719 33.972656 C 148.710938 34.753906 148.992188 35.546875 149.238281 36.355469 C 149.484375 37.160156 149.6875 37.980469 149.851562 38.808594 C 150.015625 39.636719 150.140625 40.46875 150.222656 41.308594 C 150.304688 42.148438 150.347656 42.992188 150.347656 43.835938 Z M 91.5 10.699219 C 92.292969 10.699219 93.085938 10.734375 93.875 10.804688 C 94.667969 10.878906 95.453125 10.988281 96.234375 11.132812 C 97.011719 11.277344 97.785156 11.457031 98.550781 11.675781 C 99.3125 11.890625 100.066406 12.140625 100.804688 12.429688 C 101.546875 12.714844 102.273438 13.035156 102.984375 13.386719 C 103.695312 13.738281 104.386719 14.125 105.0625 14.542969 C 105.738281 14.960938 106.390625 15.40625 107.027344 15.886719 C 107.660156 16.363281 108.269531 16.871094 108.859375 17.40625 C 109.445312 17.941406 110.007812 18.5 110.542969 19.085938 C 111.078125 19.671875 111.585938 20.285156 112.0625 20.917969 C 112.542969 21.550781 112.992188 22.203125 113.410156 22.878906 C 113.828125 23.554688 114.214844 24.246094 114.570312 24.957031 C 114.921875 25.667969 115.246094 26.394531 115.53125 27.136719 C 115.820312 27.875 116.074219 28.628906 116.289062 29.394531 C 116.507812 30.15625 116.691406 30.929688 116.835938 31.710938 C 116.984375 32.492188 117.09375 33.277344 117.167969 34.066406 C 117.242188 34.859375 117.28125 35.652344 117.28125 36.445312 C 117.28125 37.242188 117.246094 38.035156 117.171875 38.824219 C 117.101562 39.617188 116.992188 40.402344 116.847656 41.183594 C 116.703125 41.964844 116.519531 42.738281 116.304688 43.503906 C 116.085938 44.265625 115.835938 45.019531 115.550781 45.761719 C 115.265625 46.5 114.945312 47.226562 114.589844 47.941406 C 114.238281 48.652344 113.851562 49.34375 113.4375 50.019531 C 113.019531 50.695312 112.570312 51.351562 112.09375 51.984375 C 111.613281 52.621094 111.109375 53.230469 110.574219 53.820312 C 110.039062 54.40625 109.480469 54.96875 108.894531 55.503906 C 108.308594 56.039062 107.699219 56.546875 107.066406 57.027344 C 106.433594 57.507812 105.777344 57.957031 105.105469 58.375 C 104.429688 58.792969 103.738281 59.179688 103.027344 59.535156 C 102.316406 59.890625 101.589844 60.210938 100.851562 60.496094 C 100.113281 60.785156 99.359375 61.039062 98.597656 61.253906 C 97.832031 61.472656 97.0625 61.65625 96.28125 61.800781 C 95.894531 61.902344 95.527344 62.050781 95.179688 62.242188 L 81.535156 70.085938 L 82.453125 63.570312 C 82.492188 63.195312 82.472656 62.820312 82.394531 62.453125 C 82.316406 62.082031 82.1875 61.734375 82.003906 61.402344 C 81.816406 61.074219 81.589844 60.78125 81.3125 60.523438 C 81.039062 60.261719 80.734375 60.050781 80.394531 59.886719 C 79.0625 59.273438 77.792969 58.554688 76.585938 57.726562 C 75.375 56.894531 74.246094 55.96875 73.195312 54.949219 C 72.144531 53.925781 71.191406 52.820312 70.328125 51.636719 C 69.464844 50.449219 68.710938 49.199219 68.0625 47.886719 C 67.410156 46.570312 66.878906 45.210938 66.460938 43.804688 C 66.046875 42.398438 65.75 40.964844 65.578125 39.511719 C 65.40625 38.054688 65.355469 36.59375 65.433594 35.128906 C 65.507812 33.664062 65.707031 32.21875 66.03125 30.785156 C 66.355469 29.355469 66.796875 27.964844 67.355469 26.609375 C 67.917969 25.253906 68.589844 23.957031 69.371094 22.714844 C 70.152344 21.476562 71.03125 20.308594 72.011719 19.21875 C 72.992188 18.132812 74.058594 17.132812 75.210938 16.226562 C 76.359375 15.316406 77.578125 14.515625 78.867188 13.816406 C 80.15625 13.117188 81.492188 12.53125 82.878906 12.058594 C 84.269531 11.589844 85.6875 11.238281 87.132812 11.011719 C 88.578125 10.78125 90.035156 10.679688 91.5 10.699219 Z M 91.5 10.699219 "/><path style=" stroke:none;fill-rule:nonzero;fill:#000000;fill-opacity:1;" d="M 84.144531 36.472656 C 84.144531 36.960938 84.050781 37.429688 83.863281 37.878906 C 83.679688 38.332031 83.414062 38.730469 83.066406 39.074219 C 82.722656 39.421875 82.324219 39.6875 81.875 39.871094 C 81.425781 40.058594 80.953125 40.152344 80.46875 40.152344 C 79.980469 40.152344 79.511719 40.058594 79.058594 39.871094 C 78.609375 39.6875 78.210938 39.421875 77.867188 39.074219 C 77.523438 38.730469 77.253906 38.332031 77.070312 37.878906 C 76.882812 37.429688 76.789062 36.960938 76.789062 36.472656 C 76.789062 35.984375 76.882812 35.511719 77.070312 35.0625 C 77.253906 34.613281 77.523438 34.214844 77.867188 33.867188 C 78.210938 33.523438 78.609375 33.257812 79.058594 33.070312 C 79.511719 32.882812 79.980469 32.789062 80.46875 32.789062 C 80.953125 32.789062 81.425781 32.882812 81.875 33.070312 C 82.324219 33.257812 82.722656 33.523438 83.066406 33.867188 C 83.414062 34.214844 83.679688 34.613281 83.863281 35.0625 C 84.050781 35.511719 84.144531 35.984375 84.144531 36.472656 Z M 84.144531 36.472656 "/><path style=" stroke:none;fill-rule:nonzero;fill:#000000;fill-opacity:1;" d="M 95.179688 36.472656 C 95.179688 36.960938 95.085938 37.429688 94.898438 37.878906 C 94.710938 38.332031 94.445312 38.730469 94.101562 39.074219 C 93.757812 39.421875 93.359375 39.6875 92.90625 39.871094 C 92.457031 40.058594 91.988281 40.152344 91.5 40.152344 C 91.011719 40.152344 90.542969 40.058594 90.09375 39.871094 C 89.644531 39.6875 89.246094 39.421875 88.898438 39.074219 C 88.554688 38.730469 88.289062 38.332031 88.101562 37.878906 C 87.917969 37.429688 87.824219 36.960938 87.824219 36.472656 C 87.824219 35.984375 87.917969 35.511719 88.101562 35.0625 C 88.289062 34.613281 88.554688 34.214844 88.898438 33.867188 C 89.246094 33.523438 89.644531 33.257812 90.09375 33.070312 C 90.542969 32.882812 91.011719 32.789062 91.5 32.789062 C 91.988281 32.789062 92.457031 32.882812 92.90625 33.070312 C 93.359375 33.257812 93.757812 33.523438 94.101562 33.867188 C 94.445312 34.214844 94.710938 34.613281 94.898438 35.0625 C 95.085938 35.511719 95.179688 35.984375 95.179688 36.472656 Z M 95.179688 36.472656 "/><path style=" stroke:none;fill-rule:nonzero;fill:#000000;fill-opacity:1;" d="M 106.210938 36.472656 C 106.210938 36.960938 106.117188 37.429688 105.933594 37.878906 C 105.746094 38.332031 105.480469 38.730469 105.136719 39.074219 C 104.789062 39.421875 104.390625 39.6875 103.941406 39.871094 C 103.492188 40.058594 103.023438 40.152344 102.535156 40.152344 C 102.046875 40.152344 101.578125 40.058594 101.125 39.871094 C 100.675781 39.6875 100.277344 39.421875 99.933594 39.074219 C 99.589844 38.730469 99.324219 38.332031 99.136719 37.878906 C 98.949219 37.429688 98.855469 36.960938 98.855469 36.472656 C 98.855469 35.984375 98.949219 35.511719 99.136719 35.0625 C 99.324219 34.613281 99.589844 34.214844 99.933594 33.867188 C 100.277344 33.523438 100.675781 33.257812 101.125 33.070312 C 101.578125 32.882812 102.046875 32.789062 102.535156 32.789062 C 103.023438 32.789062 103.492188 32.882812 103.941406 33.070312 C 104.390625 33.257812 104.789062 33.523438 105.136719 33.867188 C 105.480469 34.214844 105.746094 34.613281 105.933594 35.0625 C 106.117188 35.511719 106.210938 35.984375 106.210938 36.472656 Z M 106.210938 36.472656 "/><path style=" stroke:none;fill-rule:nonzero;fill:#000000;fill-opacity:1;" d="M 65.753906 132.199219 C 66.476562 132.199219 67.199219 132.160156 67.917969 132.089844 C 68.636719 132.019531 69.351562 131.914062 70.0625 131.773438 C 70.769531 131.632812 71.46875 131.457031 72.160156 131.246094 C 72.851562 131.035156 73.53125 130.792969 74.199219 130.515625 C 74.867188 130.238281 75.519531 129.929688 76.15625 129.589844 C 76.796875 129.246094 77.414062 128.875 78.015625 128.472656 C 78.617188 128.074219 79.195312 127.640625 79.753906 127.183594 C 80.3125 126.722656 80.847656 126.238281 81.359375 125.726562 C 81.871094 125.214844 82.355469 124.679688 82.8125 124.121094 C 83.273438 123.5625 83.703125 122.980469 84.105469 122.378906 C 84.503906 121.777344 84.875 121.160156 85.21875 120.519531 C 85.558594 119.882812 85.867188 119.230469 86.144531 118.5625 C 86.417969 117.890625 86.664062 117.210938 86.871094 116.519531 C 87.082031 115.828125 87.257812 115.125 87.398438 114.417969 C 87.539062 113.707031 87.644531 112.992188 87.714844 112.273438 C 87.789062 111.550781 87.824219 110.832031 87.824219 110.105469 C 87.824219 109.382812 87.789062 108.660156 87.714844 107.941406 C 87.644531 107.222656 87.539062 106.507812 87.398438 105.796875 C 87.257812 105.085938 87.082031 104.386719 86.871094 103.695312 C 86.664062 103 86.417969 102.320312 86.144531 101.652344 C 85.867188 100.984375 85.558594 100.332031 85.21875 99.695312 C 84.875 99.054688 84.503906 98.433594 84.105469 97.832031 C 83.703125 97.230469 83.273438 96.652344 82.8125 96.09375 C 82.355469 95.535156 81.871094 94.996094 81.359375 94.488281 C 80.847656 93.976562 80.3125 93.488281 79.753906 93.03125 C 79.195312 92.570312 78.617188 92.140625 78.015625 91.738281 C 77.414062 91.335938 76.796875 90.964844 76.15625 90.625 C 75.519531 90.285156 74.867188 89.976562 74.199219 89.699219 C 73.53125 89.421875 72.851562 89.175781 72.160156 88.96875 C 71.46875 88.757812 70.769531 88.582031 70.0625 88.441406 C 69.351562 88.300781 68.636719 88.195312 67.917969 88.121094 C 67.199219 88.050781 66.476562 88.015625 65.753906 88.015625 C 65.03125 88.015625 64.3125 88.050781 63.59375 88.121094 C 62.875 88.195312 62.160156 88.300781 61.449219 88.441406 C 60.742188 88.582031 60.042969 88.757812 59.351562 88.96875 C 58.65625 89.175781 57.980469 89.421875 57.3125 89.699219 C 56.644531 89.976562 55.992188 90.285156 55.351562 90.625 C 54.714844 90.964844 54.097656 91.335938 53.496094 91.738281 C 52.894531 92.140625 52.316406 92.570312 51.757812 93.03125 C 51.199219 93.488281 50.664062 93.976562 50.152344 94.488281 C 49.640625 94.996094 49.15625 95.535156 48.699219 96.09375 C 48.238281 96.652344 47.808594 97.230469 47.40625 97.832031 C 47.003906 98.433594 46.632812 99.054688 46.292969 99.695312 C 45.953125 100.332031 45.644531 100.984375 45.367188 101.652344 C 45.089844 102.320312 44.847656 103 44.636719 103.695312 C 44.429688 104.386719 44.253906 105.085938 44.113281 105.796875 C 43.972656 106.507812 43.867188 107.222656 43.792969 107.941406 C 43.722656 108.660156 43.6875 109.382812 43.6875 110.105469 C 43.6875 110.832031 43.722656 111.550781 43.792969 112.273438 C 43.867188 112.992188 43.972656 113.707031 44.113281 114.417969 C 44.253906 115.125 44.429688 115.828125 44.636719 116.519531 C 44.847656 117.210938 45.089844 117.890625 45.367188 118.558594 C 45.644531 119.230469 45.953125 119.882812 46.292969 120.519531 C 46.632812 121.160156 47.003906 121.777344 47.40625 122.378906 C 47.808594 122.980469 48.238281 123.5625 48.699219 124.121094 C 49.15625 124.679688 49.640625 125.214844 50.152344 125.726562 C 50.664062 126.238281 51.199219 126.722656 51.757812 127.183594 C 52.316406 127.640625 52.894531 128.074219 53.496094 128.472656 C 54.097656 128.875 54.714844 129.246094 55.351562 129.589844 C 55.992188 129.929688 56.644531 130.238281 57.3125 130.515625 C 57.980469 130.792969 58.65625 131.035156 59.351562 131.246094 C 60.042969 131.457031 60.742188 131.632812 61.449219 131.773438 C 62.160156 131.914062 62.875 132.019531 63.59375 132.089844 C 64.3125 132.160156 65.03125 132.199219 65.753906 132.199219 Z M 65.753906 95.378906 C 66.722656 95.378906 67.679688 95.472656 68.625 95.664062 C 69.574219 95.851562 70.492188 96.128906 71.386719 96.5 C 72.277344 96.871094 73.125 97.324219 73.929688 97.863281 C 74.730469 98.398438 75.476562 99.007812 76.15625 99.691406 C 76.839844 100.378906 77.449219 101.121094 77.988281 101.925781 C 78.523438 102.730469 78.976562 103.578125 79.347656 104.472656 C 79.71875 105.363281 79.996094 106.285156 80.183594 107.234375 C 80.371094 108.183594 80.46875 109.140625 80.46875 110.105469 C 80.46875 111.074219 80.371094 112.03125 80.183594 112.980469 C 79.996094 113.929688 79.71875 114.847656 79.347656 115.742188 C 78.976562 116.636719 78.523438 117.484375 77.988281 118.289062 C 77.449219 119.09375 76.839844 119.835938 76.15625 120.519531 C 75.476562 121.203125 74.730469 121.816406 73.929688 122.351562 C 73.125 122.890625 72.277344 123.34375 71.386719 123.710938 C 70.492188 124.082031 69.574219 124.363281 68.625 124.550781 C 67.679688 124.738281 66.722656 124.832031 65.753906 124.832031 C 64.789062 124.832031 63.832031 124.738281 62.886719 124.550781 C 61.9375 124.363281 61.019531 124.082031 60.125 123.710938 C 59.234375 123.34375 58.386719 122.890625 57.582031 122.351562 C 56.777344 121.816406 56.035156 121.203125 55.351562 120.519531 C 54.671875 119.835938 54.058594 119.09375 53.523438 118.289062 C 52.988281 117.484375 52.535156 116.636719 52.164062 115.742188 C 51.792969 114.847656 51.515625 113.929688 51.328125 112.980469 C 51.136719 112.03125 51.042969 111.074219 51.042969 110.105469 C 51.042969 109.140625 51.136719 108.183594 51.328125 107.234375 C 51.515625 106.285156 51.792969 105.363281 52.164062 104.472656 C 52.535156 103.578125 52.988281 102.730469 53.523438 101.925781 C 54.058594 101.121094 54.671875 100.378906 55.351562 99.691406 C 56.035156 99.007812 56.777344 98.398438 57.582031 97.863281 C 58.386719 97.324219 59.234375 96.871094 60.125 96.5 C 61.019531 96.128906 61.9375 95.851562 62.886719 95.664062 C 63.832031 95.472656 64.789062 95.378906 65.753906 95.378906 Z M 65.753906 95.378906 "/><g clip-rule="nonzero" clip-path="url(#d9ff548a99)"><path style=" stroke:none;fill-rule:nonzero;fill:#000000;fill-opacity:1;" d="M 65.753906 209.515625 C 65.269531 209.515625 64.796875 209.609375 64.347656 209.792969 C 63.898438 209.980469 63.5 210.246094 63.15625 210.59375 C 62.808594 210.9375 62.542969 211.335938 62.359375 211.789062 C 62.171875 212.238281 62.078125 212.707031 62.078125 213.195312 L 62.078125 220.558594 C 62.078125 221.046875 62.171875 221.519531 62.359375 221.96875 C 62.542969 222.417969 62.808594 222.816406 63.15625 223.164062 C 63.5 223.507812 63.898438 223.773438 64.347656 223.960938 C 64.796875 224.148438 65.269531 224.242188 65.753906 224.242188 C 66.242188 224.242188 66.710938 224.148438 67.164062 223.960938 C 67.613281 223.773438 68.011719 223.507812 68.355469 223.164062 C 68.699219 222.816406 68.96875 222.417969 69.152344 221.96875 C 69.339844 221.519531 69.433594 221.046875 69.433594 220.558594 L 69.433594 213.195312 C 69.433594 212.707031 69.339844 212.238281 69.152344 211.789062 C 68.96875 211.335938 68.699219 210.9375 68.355469 210.59375 C 68.011719 210.246094 67.613281 209.980469 67.164062 209.792969 C 66.710938 209.609375 66.242188 209.515625 65.753906 209.515625 Z M 65.753906 209.515625 "/></g><g clip-rule="nonzero" clip-path="url(#ec269361d5)"><path style=" stroke:none;fill-rule:nonzero;fill:#000000;fill-opacity:1;" d="M 113.566406 135.878906 L 51.042969 135.878906 C 36.847656 135.878906 25.300781 145.78125 25.300781 157.96875 L 25.300781 181.902344 C 25.296875 182.953125 25.386719 184 25.566406 185.039062 C 25.746094 186.074219 26.011719 187.089844 26.367188 188.082031 C 26.71875 189.074219 27.152344 190.027344 27.667969 190.945312 C 28.1875 191.863281 28.777344 192.730469 29.441406 193.546875 C 30.109375 194.363281 30.839844 195.117188 31.632812 195.804688 C 32.425781 196.496094 33.273438 197.113281 34.175781 197.660156 C 35.074219 198.203125 36.015625 198.667969 36.996094 199.050781 C 37.972656 199.433594 38.980469 199.730469 40.011719 199.941406 L 40.011719 220.558594 C 40.011719 221.046875 40.105469 221.519531 40.289062 221.96875 C 40.476562 222.417969 40.742188 222.816406 41.085938 223.164062 C 41.433594 223.507812 41.832031 223.773438 42.28125 223.960938 C 42.730469 224.148438 43.199219 224.242188 43.6875 224.242188 C 44.175781 224.242188 44.644531 224.148438 45.097656 223.960938 C 45.546875 223.773438 45.945312 223.507812 46.289062 223.164062 C 46.632812 222.816406 46.898438 222.417969 47.085938 221.96875 C 47.273438 221.519531 47.367188 221.046875 47.367188 220.558594 L 47.367188 200.308594 L 62.078125 200.308594 C 71.75 200.308594 76.789062 191.03125 76.789062 181.902344 C 76.789062 181.414062 76.695312 180.945312 76.507812 180.492188 C 76.324219 180.042969 76.058594 179.644531 75.710938 179.296875 C 75.367188 178.953125 74.96875 178.6875 74.519531 178.5 C 74.066406 178.3125 73.597656 178.21875 73.109375 178.21875 L 47.367188 178.21875 L 47.367188 165.332031 C 47.367188 164.84375 47.273438 164.375 47.085938 163.925781 C 46.898438 163.472656 46.632812 163.074219 46.289062 162.730469 C 45.945312 162.382812 45.546875 162.117188 45.097656 161.933594 C 44.644531 161.746094 44.175781 161.652344 43.6875 161.652344 C 43.199219 161.652344 42.730469 161.746094 42.28125 161.933594 C 41.832031 162.117188 41.433594 162.382812 41.085938 162.730469 C 40.742188 163.074219 40.476562 163.472656 40.289062 163.925781 C 40.105469 164.375 40.011719 164.84375 40.011719 165.332031 L 40.011719 181.902344 C 40.011719 182.390625 40.105469 182.859375 40.289062 183.308594 C 40.476562 183.761719 40.742188 184.160156 41.085938 184.503906 C 41.433594 184.851562 41.832031 185.117188 42.28125 185.304688 C 42.730469 185.488281 43.199219 185.582031 43.6875 185.582031 L 69.027344 185.582031 C 68.257812 189.265625 66.308594 192.945312 62.078125 192.945312 L 43.6875 192.945312 C 42.964844 192.945312 42.246094 192.875 41.535156 192.734375 C 40.824219 192.59375 40.136719 192.382812 39.464844 192.105469 C 38.796875 191.828125 38.160156 191.488281 37.558594 191.085938 C 36.957031 190.683594 36.398438 190.222656 35.886719 189.710938 C 35.375 189.199219 34.917969 188.640625 34.515625 188.039062 C 34.113281 187.433594 33.773438 186.796875 33.496094 186.128906 C 33.21875 185.457031 33.007812 184.765625 32.867188 184.054688 C 32.726562 183.34375 32.65625 182.625 32.65625 181.902344 L 32.65625 157.96875 C 32.65625 149.832031 40.894531 143.242188 51.042969 143.242188 L 113.566406 143.242188 C 114.054688 143.242188 114.523438 143.148438 114.976562 142.960938 C 115.425781 142.777344 115.824219 142.507812 116.167969 142.164062 C 116.511719 141.820312 116.777344 141.421875 116.964844 140.96875 C 117.152344 140.519531 117.246094 140.050781 117.246094 139.5625 C 117.246094 139.074219 117.152344 138.601562 116.964844 138.152344 C 116.777344 137.699219 116.511719 137.304688 116.167969 136.957031 C 115.824219 136.613281 115.425781 136.347656 114.976562 136.160156 C 114.523438 135.972656 114.054688 135.878906 113.566406 135.878906 Z M 113.566406 135.878906 "/></g><g clip-rule="nonzero" clip-path="url(#edb6808a36)"><path style=" stroke:none;fill-rule:nonzero;fill:#000000;fill-opacity:1;" d="M 109.890625 154.289062 L 87.824219 154.289062 C 87.335938 154.289062 86.867188 154.382812 86.414062 154.566406 C 85.964844 154.753906 85.566406 155.019531 85.222656 155.367188 C 84.878906 155.710938 84.613281 156.109375 84.425781 156.5625 C 84.238281 157.011719 84.144531 157.480469 84.144531 157.96875 L 84.144531 220.558594 C 84.144531 221.046875 84.238281 221.519531 84.425781 221.96875 C 84.613281 222.417969 84.878906 222.816406 85.222656 223.164062 C 85.566406 223.507812 85.964844 223.773438 86.414062 223.960938 C 86.867188 224.148438 87.335938 224.242188 87.824219 224.242188 C 88.308594 224.242188 88.78125 224.148438 89.230469 223.960938 C 89.679688 223.773438 90.078125 223.507812 90.421875 223.164062 C 90.769531 222.816406 91.035156 222.417969 91.21875 221.96875 C 91.40625 221.519531 91.5 221.046875 91.5 220.558594 L 91.5 161.652344 L 109.890625 161.652344 C 110.378906 161.652344 110.847656 161.558594 111.296875 161.371094 C 111.75 161.183594 112.144531 160.917969 112.492188 160.574219 C 112.835938 160.226562 113.101562 159.828125 113.289062 159.378906 C 113.472656 158.925781 113.566406 158.457031 113.566406 157.96875 C 113.566406 157.480469 113.472656 157.011719 113.289062 156.5625 C 113.101562 156.109375 112.835938 155.710938 112.492188 155.367188 C 112.144531 155.019531 111.75 154.753906 111.296875 154.566406 C 110.847656 154.382812 110.378906 154.289062 109.890625 154.289062 Z M 109.890625 154.289062 "/></g><g clip-rule="nonzero" clip-path="url(#ed54adccfe)"><path style=" stroke:none;fill-rule:nonzero;fill:#000000;fill-opacity:1;" d="M 198.160156 154.289062 L 197.753906 154.289062 C 195.730469 143.867188 185.140625 135.878906 172.414062 135.878906 L 142.992188 135.878906 C 128.792969 135.878906 117.246094 145.78125 117.246094 157.96875 L 117.246094 183.742188 C 117.246094 184.796875 117.335938 185.839844 117.515625 186.878906 C 117.691406 187.917969 117.960938 188.929688 118.3125 189.921875 C 118.664062 190.914062 119.101562 191.871094 119.617188 192.789062 C 120.132812 193.703125 120.722656 194.570312 121.390625 195.386719 C 122.054688 196.203125 122.785156 196.957031 123.578125 197.648438 C 124.375 198.335938 125.222656 198.953125 126.121094 199.5 C 127.019531 200.042969 127.960938 200.507812 128.941406 200.890625 C 129.921875 201.273438 130.925781 201.570312 131.957031 201.78125 L 131.957031 220.558594 C 131.957031 221.046875 132.050781 221.519531 132.238281 221.96875 C 132.425781 222.417969 132.691406 222.816406 133.035156 223.164062 C 133.378906 223.507812 133.777344 223.773438 134.226562 223.960938 C 134.679688 224.148438 135.148438 224.242188 135.636719 224.242188 C 136.121094 224.242188 136.59375 224.148438 137.042969 223.960938 C 137.492188 223.773438 137.890625 223.507812 138.234375 223.164062 C 138.582031 222.816406 138.847656 222.417969 139.03125 221.96875 C 139.21875 221.519531 139.3125 221.046875 139.3125 220.558594 L 139.3125 202.152344 L 176.089844 202.152344 L 176.089844 220.558594 C 176.089844 221.046875 176.183594 221.519531 176.371094 221.96875 C 176.558594 222.417969 176.824219 222.816406 177.167969 223.164062 C 177.515625 223.507812 177.910156 223.773438 178.363281 223.960938 C 178.8125 224.148438 179.28125 224.242188 179.769531 224.242188 C 180.257812 224.242188 180.726562 224.148438 181.175781 223.960938 C 181.628906 223.773438 182.023438 223.507812 182.371094 223.164062 C 182.714844 222.816406 182.980469 222.417969 183.167969 221.96875 C 183.355469 221.519531 183.449219 221.046875 183.449219 220.558594 L 183.449219 202.152344 L 187.125 202.152344 C 187.539062 202.164062 187.945312 202.109375 188.34375 201.988281 C 188.738281 201.863281 189.105469 201.679688 189.4375 201.429688 C 189.773438 201.183594 190.058594 200.886719 190.289062 200.542969 C 190.523438 200.199219 190.695312 199.828125 190.804688 199.425781 L 201.835938 158.925781 C 201.988281 158.375 202.007812 157.816406 201.898438 157.253906 C 201.789062 156.6875 201.558594 156.179688 201.210938 155.722656 C 200.847656 155.25 200.398438 154.886719 199.859375 154.636719 C 199.320312 154.382812 198.753906 154.265625 198.160156 154.289062 Z M 146.667969 194.789062 L 135.636719 194.789062 C 134.910156 194.789062 134.191406 194.714844 133.484375 194.574219 C 132.773438 194.433594 132.082031 194.222656 131.414062 193.945312 C 130.742188 193.667969 130.109375 193.328125 129.503906 192.925781 C 128.902344 192.523438 128.34375 192.066406 127.832031 191.550781 C 127.320312 191.039062 126.863281 190.480469 126.460938 189.878906 C 126.058594 189.277344 125.71875 188.640625 125.441406 187.96875 C 125.164062 187.300781 124.953125 186.609375 124.8125 185.898438 C 124.671875 185.1875 124.601562 184.46875 124.601562 183.742188 L 124.601562 157.96875 C 124.601562 149.832031 132.839844 143.242188 142.992188 143.242188 L 172.414062 143.242188 C 173.339844 143.1875 174.269531 143.207031 175.191406 143.292969 C 176.117188 143.382812 177.03125 143.542969 177.929688 143.773438 C 178.832031 144 179.710938 144.296875 180.5625 144.664062 C 181.417969 145.027344 182.242188 145.457031 183.03125 145.949219 C 183.820312 146.4375 184.566406 146.988281 185.269531 147.59375 C 185.972656 148.203125 186.628906 148.859375 187.230469 149.566406 C 187.835938 150.273438 188.378906 151.023438 188.867188 151.816406 C 189.355469 152.605469 189.78125 153.429688 190.140625 154.289062 L 150.347656 154.289062 C 149.933594 154.273438 149.53125 154.324219 149.136719 154.445312 C 148.738281 154.566406 148.375 154.75 148.042969 154.992188 C 147.707031 155.238281 147.425781 155.527344 147.1875 155.867188 C 146.953125 156.207031 146.78125 156.578125 146.667969 156.976562 L 140.234375 180.058594 L 139.3125 180.058594 L 139.3125 163.492188 C 139.3125 163.003906 139.21875 162.535156 139.03125 162.082031 C 138.847656 161.632812 138.582031 161.234375 138.234375 160.890625 C 137.890625 160.542969 137.492188 160.277344 137.042969 160.089844 C 136.59375 159.902344 136.121094 159.8125 135.636719 159.8125 C 135.148438 159.8125 134.679688 159.902344 134.226562 160.089844 C 133.777344 160.277344 133.378906 160.542969 133.035156 160.890625 C 132.691406 161.234375 132.425781 161.632812 132.238281 162.082031 C 132.050781 162.535156 131.957031 163.003906 131.957031 163.492188 L 131.957031 183.742188 C 131.957031 184.230469 132.050781 184.699219 132.238281 185.152344 C 132.425781 185.601562 132.691406 186 133.035156 186.34375 C 133.378906 186.691406 133.777344 186.957031 134.226562 187.144531 C 134.679688 187.332031 135.148438 187.425781 135.636719 187.425781 L 157.296875 187.425781 C 156.527344 191.105469 154.574219 194.789062 150.347656 194.789062 Z M 184.332031 194.789062 L 162.261719 194.789062 C 164.140625 191.347656 165.074219 187.664062 165.058594 183.742188 C 165.058594 183.253906 164.964844 182.785156 164.777344 182.332031 C 164.589844 181.882812 164.324219 181.484375 163.980469 181.140625 C 163.636719 180.792969 163.238281 180.527344 162.789062 180.339844 C 162.335938 180.152344 161.867188 180.058594 161.378906 180.058594 L 147.882812 180.058594 L 153.105469 161.652344 L 193.339844 161.652344 Z M 184.332031 194.789062 "/></g><path style=" stroke:none;fill-rule:nonzero;fill:#000000;fill-opacity:1;" d="M 135.636719 110.105469 C 135.636719 110.832031 135.671875 111.550781 135.742188 112.273438 C 135.8125 112.992188 135.917969 113.707031 136.058594 114.417969 C 136.199219 115.125 136.375 115.828125 136.585938 116.519531 C 136.796875 117.210938 137.039062 117.890625 137.316406 118.558594 C 137.589844 119.230469 137.898438 119.882812 138.242188 120.519531 C 138.582031 121.160156 138.953125 121.777344 139.355469 122.378906 C 139.753906 122.980469 140.1875 123.5625 140.644531 124.121094 C 141.101562 124.679688 141.585938 125.214844 142.097656 125.726562 C 142.609375 126.238281 143.144531 126.722656 143.703125 127.183594 C 144.261719 127.640625 144.839844 128.074219 145.441406 128.472656 C 146.042969 128.875 146.664062 129.246094 147.300781 129.589844 C 147.9375 129.929688 148.589844 130.238281 149.257812 130.515625 C 149.925781 130.792969 150.605469 131.035156 151.296875 131.246094 C 151.988281 131.457031 152.6875 131.632812 153.398438 131.773438 C 154.105469 131.914062 154.820312 132.019531 155.539062 132.089844 C 156.257812 132.160156 156.980469 132.199219 157.703125 132.199219 C 158.425781 132.199219 159.144531 132.160156 159.867188 132.089844 C 160.585938 132.019531 161.296875 131.914062 162.007812 131.773438 C 162.714844 131.632812 163.417969 131.457031 164.109375 131.246094 C 164.800781 131.035156 165.480469 130.792969 166.148438 130.515625 C 166.816406 130.238281 167.46875 129.929688 168.105469 129.589844 C 168.742188 129.246094 169.359375 128.875 169.960938 128.472656 C 170.5625 128.074219 171.144531 127.640625 171.703125 127.183594 C 172.261719 126.722656 172.796875 126.238281 173.304688 125.726562 C 173.816406 125.214844 174.300781 124.679688 174.761719 124.121094 C 175.21875 123.5625 175.648438 122.980469 176.050781 122.378906 C 176.453125 121.777344 176.824219 121.160156 177.164062 120.519531 C 177.503906 119.882812 177.8125 119.230469 178.089844 118.5625 C 178.367188 117.890625 178.609375 117.210938 178.820312 116.519531 C 179.027344 115.828125 179.203125 115.125 179.34375 114.417969 C 179.488281 113.707031 179.59375 112.992188 179.664062 112.273438 C 179.734375 111.550781 179.769531 110.832031 179.769531 110.105469 C 179.769531 109.382812 179.734375 108.660156 179.664062 107.941406 C 179.59375 107.222656 179.488281 106.507812 179.34375 105.796875 C 179.203125 105.085938 179.027344 104.386719 178.820312 103.695312 C 178.609375 103 178.367188 102.320312 178.089844 101.652344 C 177.8125 100.984375 177.503906 100.332031 177.164062 99.695312 C 176.824219 99.054688 176.453125 98.433594 176.050781 97.832031 C 175.648438 97.230469 175.21875 96.652344 174.761719 96.09375 C 174.300781 95.535156 173.816406 94.996094 173.304688 94.488281 C 172.796875 93.976562 172.261719 93.488281 171.703125 93.03125 C 171.144531 92.570312 170.5625 92.140625 169.960938 91.738281 C 169.359375 91.335938 168.742188 90.964844 168.105469 90.625 C 167.46875 90.285156 166.816406 89.976562 166.148438 89.699219 C 165.480469 89.421875 164.800781 89.175781 164.109375 88.96875 C 163.417969 88.757812 162.714844 88.582031 162.007812 88.441406 C 161.296875 88.300781 160.585938 88.195312 159.867188 88.121094 C 159.144531 88.050781 158.425781 88.015625 157.703125 88.015625 C 156.980469 88.015625 156.257812 88.050781 155.539062 88.121094 C 154.820312 88.195312 154.105469 88.300781 153.398438 88.441406 C 152.6875 88.582031 151.988281 88.757812 151.296875 88.96875 C 150.605469 89.175781 149.925781 89.421875 149.257812 89.699219 C 148.589844 89.976562 147.9375 90.285156 147.300781 90.625 C 146.664062 90.964844 146.042969 91.335938 145.441406 91.738281 C 144.839844 92.140625 144.261719 92.570312 143.703125 93.03125 C 143.144531 93.488281 142.609375 93.976562 142.097656 94.488281 C 141.585938 94.996094 141.101562 95.535156 140.644531 96.09375 C 140.1875 96.652344 139.753906 97.230469 139.355469 97.832031 C 138.953125 98.433594 138.582031 99.054688 138.242188 99.695312 C 137.898438 100.332031 137.589844 100.984375 137.316406 101.652344 C 137.039062 102.320312 136.796875 103 136.585938 103.695312 C 136.375 104.386719 136.199219 105.085938 136.058594 105.796875 C 135.917969 106.507812 135.8125 107.222656 135.742188 107.941406 C 135.671875 108.660156 135.636719 109.382812 135.636719 110.105469 Z M 172.414062 110.105469 C 172.414062 111.074219 172.320312 112.03125 172.132812 112.980469 C 171.941406 113.929688 171.664062 114.847656 171.292969 115.742188 C 170.925781 116.636719 170.472656 117.484375 169.933594 118.289062 C 169.398438 119.09375 168.789062 119.835938 168.105469 120.519531 C 167.421875 121.203125 166.679688 121.816406 165.875 122.351562 C 165.074219 122.890625 164.222656 123.34375 163.332031 123.710938 C 162.441406 124.082031 161.519531 124.363281 160.574219 124.550781 C 159.625 124.738281 158.667969 124.832031 157.703125 124.832031 C 156.738281 124.832031 155.78125 124.738281 154.832031 124.550781 C 153.886719 124.363281 152.964844 124.082031 152.074219 123.710938 C 151.179688 123.34375 150.332031 122.890625 149.527344 122.351562 C 148.726562 121.816406 147.984375 121.203125 147.300781 120.519531 C 146.617188 119.835938 146.007812 119.09375 145.46875 118.289062 C 144.933594 117.484375 144.480469 116.636719 144.109375 115.742188 C 143.742188 114.847656 143.460938 113.929688 143.273438 112.980469 C 143.085938 112.03125 142.992188 111.074219 142.992188 110.105469 C 142.992188 109.140625 143.085938 108.183594 143.273438 107.234375 C 143.460938 106.285156 143.742188 105.363281 144.109375 104.472656 C 144.480469 103.578125 144.933594 102.730469 145.46875 101.925781 C 146.007812 101.121094 146.617188 100.378906 147.300781 99.691406 C 147.984375 99.007812 148.726562 98.398438 149.527344 97.863281 C 150.332031 97.324219 151.179688 96.871094 152.074219 96.5 C 152.964844 96.128906 153.886719 95.851562 154.832031 95.664062 C 155.78125 95.472656 156.738281 95.378906 157.703125 95.378906 C 158.667969 95.378906 159.625 95.472656 160.574219 95.664062 C 161.519531 95.851562 162.441406 96.128906 163.332031 96.5 C 164.222656 96.871094 165.074219 97.324219 165.875 97.863281 C 166.679688 98.398438 167.421875 99.007812 168.105469 99.691406 C 168.789062 100.378906 169.398438 101.121094 169.933594 101.925781 C 170.472656 102.730469 170.925781 103.578125 171.292969 104.472656 C 171.664062 105.363281 171.941406 106.285156 172.132812 107.234375 C 172.320312 108.183594 172.414062 109.140625 172.414062 110.105469 Z M 172.414062 110.105469 "/><g clip-rule="nonzero" clip-path="url(#d2e337bf05)"><path style=" stroke:none;fill-rule:nonzero;fill:#000000;fill-opacity:1;" d="M 157.703125 209.515625 C 157.214844 209.515625 156.746094 209.609375 156.292969 209.792969 C 155.84375 209.980469 155.445312 210.246094 155.101562 210.59375 C 154.757812 210.9375 154.492188 211.335938 154.304688 211.789062 C 154.117188 212.238281 154.023438 212.707031 154.023438 213.195312 L 154.023438 220.558594 C 154.023438 221.046875 154.117188 221.519531 154.304688 221.96875 C 154.492188 222.417969 154.757812 222.816406 155.101562 223.164062 C 155.445312 223.507812 155.84375 223.773438 156.292969 223.960938 C 156.746094 224.148438 157.214844 224.242188 157.703125 224.242188 C 158.191406 224.242188 158.660156 224.148438 159.109375 223.960938 C 159.558594 223.773438 159.957031 223.507812 160.304688 223.164062 C 160.648438 222.816406 160.914062 222.417969 161.101562 221.96875 C 161.285156 221.519531 161.378906 221.046875 161.378906 220.558594 L 161.378906 213.195312 C 161.378906 212.707031 161.285156 212.238281 161.101562 211.789062 C 160.914062 211.335938 160.648438 210.9375 160.304688 210.59375 C 159.957031 210.246094 159.558594 209.980469 159.109375 209.792969 C 158.660156 209.609375 158.191406 209.515625 157.703125 209.515625 Z M 157.703125 209.515625 "/></g></g></svg>