<svg xmlns="http://www.w3.org/2000/svg" xmlns:xlink="http://www.w3.org/1999/xlink" width="300" zoomAndPan="magnify" viewBox="0 0 224.87999 225" height="300" preserveAspectRatio="xMidYMid meet" version="1.2"><defs><clipPath id="89c2458431"><path d="M 137 98 L 201.445312 98 L 201.445312 149 L 137 149 Z M 137 98 "/></clipPath><clipPath id="7e91e7e32e"><path d="M 23.792969 98 L 88 98 L 88 149 L 23.792969 149 Z M 23.792969 98 "/></clipPath><clipPath id="7c3b112e97"><path d="M 80 173 L 145 173 L 145 223.570312 L 80 223.570312 Z M 80 173 "/></clipPath></defs><g id="148bed0418"><path style=" stroke:none;fill-rule:nonzero;fill:#000000;fill-opacity:1;" d="M 112.472656 93.566406 C 112.054688 93.566406 111.652344 93.644531 111.265625 93.804688 C 110.875 93.964844 110.535156 94.195312 110.238281 94.492188 C 109.941406 94.785156 109.714844 95.128906 109.554688 95.515625 C 109.394531 95.902344 109.3125 96.304688 109.3125 96.722656 L 109.3125 104.425781 L 101.605469 104.425781 C 101.1875 104.425781 100.78125 104.503906 100.394531 104.664062 C 100.007812 104.824219 99.667969 105.054688 99.371094 105.347656 C 99.074219 105.644531 98.84375 105.988281 98.683594 106.375 C 98.523438 106.761719 98.445312 107.164062 98.445312 107.582031 C 98.445312 108 98.523438 108.40625 98.683594 108.792969 C 98.84375 109.179688 99.074219 109.519531 99.371094 109.816406 C 99.667969 110.113281 100.007812 110.339844 100.394531 110.5 C 100.78125 110.660156 101.1875 110.742188 101.605469 110.742188 L 109.3125 110.742188 L 109.3125 118.441406 C 109.3125 118.859375 109.394531 119.261719 109.554688 119.648438 C 109.714844 120.039062 109.941406 120.378906 110.238281 120.675781 C 110.535156 120.972656 110.875 121.199219 111.265625 121.359375 C 111.652344 121.519531 112.054688 121.601562 112.472656 121.601562 C 112.894531 121.601562 113.296875 121.519531 113.683594 121.359375 C 114.070312 121.199219 114.414062 120.972656 114.707031 120.675781 C 115.003906 120.378906 115.234375 120.039062 115.394531 119.648438 C 115.554688 119.261719 115.632812 118.859375 115.632812 118.441406 L 115.632812 110.742188 L 123.339844 110.742188 C 123.761719 110.742188 124.164062 110.660156 124.550781 110.5 C 124.9375 110.339844 125.28125 110.113281 125.578125 109.816406 C 125.875 109.519531 126.101562 109.179688 126.261719 108.792969 C 126.421875 108.40625 126.503906 108 126.503906 107.582031 C 126.503906 107.164062 126.421875 106.761719 126.261719 106.375 C 126.101562 105.988281 125.875 105.644531 125.578125 105.347656 C 125.28125 105.054688 124.9375 104.824219 124.550781 104.664062 C 124.164062 104.503906 123.761719 104.425781 123.339844 104.425781 L 115.632812 104.425781 L 115.632812 96.722656 C 115.632812 96.304688 115.554688 95.902344 115.394531 95.515625 C 115.234375 95.128906 115.003906 94.785156 114.707031 94.492188 C 114.414062 94.195312 114.070312 93.964844 113.683594 93.804688 C 113.296875 93.644531 112.894531 93.566406 112.472656 93.566406 Z M 112.472656 93.566406 "/><path style=" stroke:none;fill-rule:nonzero;fill:#000000;fill-opacity:1;" d="M 169.488281 92.585938 C 170.035156 92.585938 170.582031 92.558594 171.128906 92.503906 C 171.675781 92.449219 172.21875 92.371094 172.753906 92.261719 C 173.292969 92.15625 173.824219 92.019531 174.351562 91.863281 C 174.875 91.703125 175.390625 91.519531 175.898438 91.308594 C 176.402344 91.097656 176.898438 90.863281 177.382812 90.605469 C 177.867188 90.34375 178.335938 90.0625 178.792969 89.757812 C 179.25 89.453125 179.6875 89.128906 180.113281 88.78125 C 180.535156 88.429688 180.941406 88.0625 181.328125 87.675781 C 181.71875 87.289062 182.085938 86.882812 182.433594 86.457031 C 182.78125 86.035156 183.105469 85.59375 183.410156 85.136719 C 183.714844 84.683594 183.996094 84.210938 184.253906 83.730469 C 184.511719 83.246094 184.746094 82.75 184.957031 82.242188 C 185.167969 81.738281 185.351562 81.222656 185.511719 80.695312 C 185.667969 80.171875 185.800781 79.640625 185.910156 79.101562 C 186.015625 78.566406 186.09375 78.023438 186.148438 77.476562 C 186.203125 76.933594 186.230469 76.386719 186.230469 75.835938 C 186.230469 75.289062 186.203125 74.742188 186.148438 74.195312 C 186.09375 73.652344 186.011719 73.109375 185.90625 72.574219 C 185.796875 72.035156 185.664062 71.503906 185.503906 70.980469 C 185.347656 70.453125 185.160156 69.941406 184.949219 69.433594 C 184.742188 68.925781 184.507812 68.433594 184.246094 67.949219 C 183.988281 67.464844 183.707031 66.996094 183.402344 66.539062 C 183.097656 66.085938 182.769531 65.644531 182.421875 65.222656 C 182.074219 64.796875 181.707031 64.390625 181.316406 64.003906 C 180.929688 63.617188 180.523438 63.25 180.097656 62.902344 C 179.675781 62.554688 179.234375 62.226562 178.777344 61.925781 C 178.320312 61.621094 177.851562 61.339844 177.367188 61.082031 C 176.882812 60.820312 176.386719 60.589844 175.882812 60.378906 C 175.375 60.167969 174.859375 59.984375 174.332031 59.824219 C 173.808594 59.667969 173.277344 59.535156 172.738281 59.425781 C 172.199219 59.320312 171.660156 59.238281 171.113281 59.1875 C 170.566406 59.132812 170.019531 59.105469 169.46875 59.105469 C 168.921875 59.105469 168.375 59.132812 167.828125 59.1875 C 167.28125 59.242188 166.742188 59.320312 166.203125 59.429688 C 165.664062 59.535156 165.132812 59.667969 164.609375 59.828125 C 164.082031 59.988281 163.566406 60.171875 163.058594 60.382812 C 162.554688 60.589844 162.058594 60.824219 161.574219 61.085938 C 161.089844 61.34375 160.621094 61.625 160.164062 61.929688 C 159.707031 62.234375 159.269531 62.558594 158.84375 62.90625 C 158.421875 63.253906 158.015625 63.621094 157.625 64.011719 C 157.238281 64.398438 156.871094 64.804688 156.523438 65.226562 C 156.175781 65.652344 155.847656 66.089844 155.542969 66.546875 C 155.238281 67.003906 154.957031 67.472656 154.699219 67.957031 C 154.441406 68.441406 154.207031 68.933594 153.996094 69.441406 C 153.785156 69.949219 153.601562 70.464844 153.441406 70.988281 C 153.28125 71.511719 153.148438 72.042969 153.042969 72.582031 C 152.9375 73.117188 152.855469 73.660156 152.800781 74.207031 C 152.746094 74.75 152.722656 75.296875 152.722656 75.847656 C 152.722656 76.394531 152.75 76.941406 152.804688 77.488281 C 152.859375 78.03125 152.9375 78.574219 153.046875 79.113281 C 153.152344 79.648438 153.289062 80.179688 153.449219 80.707031 C 153.605469 81.230469 153.792969 81.746094 154.003906 82.253906 C 154.214844 82.757812 154.449219 83.253906 154.707031 83.738281 C 154.964844 84.21875 155.246094 84.691406 155.554688 85.144531 C 155.859375 85.601562 156.183594 86.042969 156.535156 86.464844 C 156.882812 86.890625 157.25 87.292969 157.636719 87.683594 C 158.027344 88.070312 158.433594 88.4375 158.855469 88.785156 C 159.28125 89.132812 159.722656 89.457031 160.179688 89.761719 C 160.632812 90.066406 161.105469 90.347656 161.589844 90.609375 C 162.074219 90.867188 162.566406 91.101562 163.074219 91.308594 C 163.582031 91.519531 164.097656 91.703125 164.625 91.863281 C 165.148438 92.023438 165.679688 92.15625 166.21875 92.261719 C 166.757812 92.371094 167.300781 92.449219 167.84375 92.503906 C 168.390625 92.558594 168.9375 92.585938 169.488281 92.585938 Z M 169.488281 65.421875 C 170.171875 65.425781 170.851562 65.492188 171.523438 65.625 C 172.195312 65.761719 172.84375 65.957031 173.476562 66.222656 C 174.109375 66.484375 174.710938 66.804688 175.28125 67.1875 C 175.847656 67.566406 176.375 68 176.859375 68.484375 C 177.34375 68.96875 177.773438 69.496094 178.152344 70.0625 C 178.535156 70.632812 178.855469 71.234375 179.117188 71.867188 C 179.378906 72.5 179.574219 73.148438 179.707031 73.820312 C 179.839844 74.492188 179.90625 75.171875 179.90625 75.855469 C 179.90625 76.539062 179.839844 77.214844 179.703125 77.886719 C 179.570312 78.558594 179.371094 79.210938 179.109375 79.839844 C 178.847656 80.472656 178.527344 81.074219 178.144531 81.640625 C 177.765625 82.210938 177.332031 82.738281 176.847656 83.222656 C 176.363281 83.703125 175.835938 84.136719 175.265625 84.515625 C 174.695312 84.894531 174.09375 85.214844 173.460938 85.476562 C 172.828125 85.738281 172.175781 85.9375 171.503906 86.070312 C 170.832031 86.203125 170.15625 86.269531 169.46875 86.269531 C 168.785156 86.269531 168.109375 86.203125 167.4375 86.066406 C 166.765625 85.933594 166.113281 85.738281 165.480469 85.472656 C 164.847656 85.210938 164.246094 84.890625 163.675781 84.511719 C 163.109375 84.128906 162.582031 83.699219 162.097656 83.214844 C 161.613281 82.730469 161.179688 82.203125 160.800781 81.636719 C 160.421875 81.066406 160.097656 80.464844 159.835938 79.832031 C 159.574219 79.203125 159.378906 78.550781 159.242188 77.878906 C 159.109375 77.207031 159.042969 76.53125 159.042969 75.847656 C 159.042969 75.160156 159.113281 74.484375 159.246094 73.8125 C 159.378906 73.140625 159.578125 72.488281 159.84375 71.855469 C 160.105469 71.222656 160.425781 70.625 160.808594 70.054688 C 161.1875 69.484375 161.621094 68.960938 162.105469 68.476562 C 162.589844 67.992188 163.117188 67.558594 163.6875 67.179688 C 164.257812 66.800781 164.859375 66.476562 165.492188 66.214844 C 166.125 65.953125 166.78125 65.757812 167.453125 65.625 C 168.125 65.488281 168.800781 65.421875 169.488281 65.421875 Z M 169.488281 65.421875 "/><g clip-rule="nonzero" clip-path="url(#89c2458431)"><path style=" stroke:none;fill-rule:nonzero;fill:#000000;fill-opacity:1;" d="M 190.066406 98.769531 L 148.863281 98.769531 C 148.136719 98.773438 147.417969 98.84375 146.707031 98.988281 C 145.992188 99.128906 145.300781 99.339844 144.632812 99.621094 C 143.960938 99.898438 143.324219 100.242188 142.722656 100.644531 C 142.117188 101.050781 141.558594 101.507812 141.046875 102.023438 C 140.53125 102.539062 140.074219 103.097656 139.671875 103.699219 C 139.269531 104.304688 138.929688 104.941406 138.652344 105.613281 C 138.375 106.285156 138.164062 106.976562 138.023438 107.6875 C 137.882812 108.398438 137.8125 109.117188 137.8125 109.84375 L 137.8125 137.007812 C 137.8125 137.734375 137.882812 138.453125 138.023438 139.164062 C 138.164062 139.878906 138.371094 140.570312 138.648438 141.242188 C 138.925781 141.914062 139.265625 142.550781 139.667969 143.15625 C 140.074219 143.761719 140.53125 144.320312 141.042969 144.835938 C 141.554688 145.347656 142.113281 145.808594 142.71875 146.214844 C 143.320312 146.617188 143.960938 146.960938 144.628906 147.242188 C 145.300781 147.519531 145.992188 147.730469 146.707031 147.875 C 147.417969 148.019531 148.136719 148.089844 148.863281 148.09375 L 155.1875 148.09375 C 155.605469 148.09375 156.007812 148.011719 156.394531 147.851562 C 156.785156 147.691406 157.125 147.464844 157.421875 147.167969 C 157.71875 146.871094 157.945312 146.53125 158.105469 146.144531 C 158.265625 145.757812 158.347656 145.355469 158.347656 144.933594 L 158.347656 124.605469 C 158.347656 124.1875 158.265625 123.785156 158.105469 123.398438 C 157.945312 123.011719 157.71875 122.667969 157.421875 122.375 C 157.125 122.078125 156.785156 121.847656 156.394531 121.6875 C 156.007812 121.527344 155.605469 121.449219 155.1875 121.449219 C 154.765625 121.449219 154.363281 121.527344 153.976562 121.6875 C 153.589844 121.847656 153.246094 122.078125 152.953125 122.375 C 152.65625 122.667969 152.425781 123.011719 152.265625 123.398438 C 152.105469 123.785156 152.027344 124.1875 152.027344 124.605469 L 152.027344 141.800781 L 148.863281 141.800781 C 148.550781 141.800781 148.242188 141.765625 147.9375 141.703125 C 147.632812 141.640625 147.335938 141.550781 147.050781 141.429688 C 146.761719 141.308594 146.488281 141.160156 146.230469 140.988281 C 145.972656 140.8125 145.734375 140.613281 145.515625 140.394531 C 145.292969 140.171875 145.097656 139.929688 144.925781 139.671875 C 144.753906 139.410156 144.609375 139.136719 144.492188 138.847656 C 144.371094 138.5625 144.285156 138.265625 144.222656 137.957031 C 144.164062 137.652344 144.132812 137.34375 144.136719 137.03125 L 144.136719 109.871094 C 144.136719 109.558594 144.164062 109.25 144.226562 108.945312 C 144.285156 108.640625 144.375 108.34375 144.492188 108.054688 C 144.613281 107.769531 144.757812 107.496094 144.929688 107.234375 C 145.101562 106.976562 145.296875 106.734375 145.515625 106.515625 C 145.734375 106.292969 145.976562 106.097656 146.234375 105.921875 C 146.492188 105.75 146.765625 105.601562 147.050781 105.480469 C 147.339844 105.363281 147.632812 105.269531 147.941406 105.207031 C 148.246094 105.144531 148.554688 105.113281 148.863281 105.113281 L 190.066406 105.113281 C 190.378906 105.113281 190.691406 105.140625 190.996094 105.203125 C 191.304688 105.261719 191.601562 105.355469 191.890625 105.472656 C 192.183594 105.59375 192.457031 105.738281 192.71875 105.910156 C 192.976562 106.085938 193.21875 106.28125 193.441406 106.503906 C 193.664062 106.722656 193.863281 106.964844 194.035156 107.222656 C 194.210938 107.484375 194.359375 107.757812 194.476562 108.046875 C 194.597656 108.335938 194.691406 108.632812 194.753906 108.941406 C 194.8125 109.246094 194.84375 109.554688 194.847656 109.871094 L 194.847656 137.03125 C 194.84375 137.347656 194.816406 137.65625 194.753906 137.964844 C 194.691406 138.269531 194.601562 138.570312 194.480469 138.859375 C 194.359375 139.148438 194.210938 139.421875 194.039062 139.683594 C 193.863281 139.941406 193.664062 140.183594 193.445312 140.40625 C 193.222656 140.625 192.980469 140.824219 192.71875 141 C 192.460938 141.171875 192.183594 141.320312 191.894531 141.4375 C 191.605469 141.558594 191.304688 141.648438 191 141.710938 C 190.691406 141.769531 190.378906 141.800781 190.066406 141.800781 L 186.90625 141.800781 L 186.90625 124.605469 C 186.90625 124.1875 186.824219 123.785156 186.664062 123.398438 C 186.503906 123.011719 186.277344 122.667969 185.980469 122.375 C 185.683594 122.078125 185.339844 121.847656 184.953125 121.6875 C 184.566406 121.527344 184.164062 121.449219 183.746094 121.449219 C 183.324219 121.449219 182.921875 121.527344 182.535156 121.6875 C 182.148438 121.847656 181.804688 122.078125 181.507812 122.375 C 181.210938 122.667969 180.984375 123.011719 180.824219 123.398438 C 180.664062 123.785156 180.582031 124.1875 180.582031 124.605469 L 180.582031 144.960938 C 180.582031 145.378906 180.664062 145.78125 180.824219 146.167969 C 180.984375 146.554688 181.210938 146.898438 181.507812 147.195312 C 181.804688 147.488281 182.148438 147.71875 182.535156 147.878906 C 182.921875 148.039062 183.324219 148.117188 183.746094 148.117188 L 190.066406 148.117188 C 190.796875 148.117188 191.515625 148.046875 192.230469 147.90625 C 192.945312 147.761719 193.640625 147.550781 194.3125 147.273438 C 194.984375 146.996094 195.625 146.652344 196.230469 146.25 C 196.835938 145.84375 197.398438 145.386719 197.914062 144.871094 C 198.429688 144.355469 198.886719 143.796875 199.292969 143.191406 C 199.699219 142.585938 200.039062 141.945312 200.320312 141.273438 C 200.597656 140.601562 200.808594 139.910156 200.953125 139.195312 C 201.09375 138.480469 201.167969 137.761719 201.167969 137.03125 L 201.167969 109.871094 C 201.167969 109.140625 201.097656 108.417969 200.957031 107.703125 C 200.8125 106.988281 200.605469 106.296875 200.324219 105.621094 C 200.046875 104.949219 199.703125 104.308594 199.300781 103.703125 C 198.894531 103.097656 198.433594 102.535156 197.917969 102.023438 C 197.402344 101.507812 196.84375 101.046875 196.234375 100.640625 C 195.628906 100.238281 194.988281 99.894531 194.316406 99.617188 C 193.644531 99.335938 192.949219 99.125 192.234375 98.984375 C 191.519531 98.839844 190.796875 98.769531 190.066406 98.769531 Z M 190.066406 98.769531 "/></g><path style=" stroke:none;fill-rule:nonzero;fill:#000000;fill-opacity:1;" d="M 130.117188 19.769531 C 130.117188 19.222656 130.09375 18.675781 130.039062 18.128906 C 129.984375 17.582031 129.90625 17.039062 129.796875 16.503906 C 129.691406 15.964844 129.558594 15.433594 129.398438 14.90625 C 129.238281 14.382812 129.054688 13.867188 128.84375 13.359375 C 128.636719 12.851562 128.402344 12.359375 128.140625 11.875 C 127.882812 11.390625 127.601562 10.921875 127.296875 10.464844 C 126.992188 10.007812 126.664062 9.566406 126.316406 9.144531 C 125.96875 8.71875 125.601562 8.3125 125.214844 7.925781 C 124.824219 7.539062 124.417969 7.167969 123.996094 6.820312 C 123.570312 6.472656 123.128906 6.148438 122.671875 5.839844 C 122.214844 5.535156 121.746094 5.253906 121.261719 4.996094 C 120.777344 4.738281 120.28125 4.503906 119.777344 4.292969 C 119.269531 4.082031 118.753906 3.898438 118.226562 3.738281 C 117.703125 3.578125 117.167969 3.445312 116.632812 3.339844 C 116.09375 3.234375 115.550781 3.152344 115.003906 3.097656 C 114.457031 3.042969 113.910156 3.015625 113.359375 3.015625 C 112.8125 3.015625 112.265625 3.042969 111.71875 3.097656 C 111.171875 3.152344 110.628906 3.230469 110.089844 3.339844 C 109.550781 3.445312 109.019531 3.578125 108.496094 3.738281 C 107.96875 3.898438 107.453125 4.082031 106.945312 4.292969 C 106.4375 4.5 105.941406 4.734375 105.457031 4.996094 C 104.972656 5.253906 104.503906 5.535156 104.046875 5.839844 C 103.589844 6.144531 103.152344 6.46875 102.726562 6.820312 C 102.300781 7.167969 101.894531 7.535156 101.507812 7.921875 C 101.117188 8.308594 100.75 8.714844 100.402344 9.140625 C 100.054688 9.5625 99.726562 10.003906 99.421875 10.460938 C 99.117188 10.917969 98.835938 11.386719 98.578125 11.871094 C 98.316406 12.355469 98.082031 12.847656 97.875 13.355469 C 97.664062 13.863281 97.480469 14.378906 97.320312 14.902344 C 97.160156 15.429688 97.027344 15.960938 96.921875 16.5 C 96.8125 17.035156 96.734375 17.578125 96.679688 18.125 C 96.625 18.671875 96.597656 19.21875 96.597656 19.765625 C 96.597656 20.316406 96.625 20.863281 96.679688 21.40625 C 96.734375 21.953125 96.8125 22.496094 96.921875 23.035156 C 97.027344 23.570312 97.160156 24.101562 97.320312 24.628906 C 97.480469 25.152344 97.664062 25.667969 97.875 26.175781 C 98.085938 26.683594 98.320312 27.175781 98.578125 27.660156 C 98.839844 28.144531 99.121094 28.613281 99.425781 29.070312 C 99.730469 29.527344 100.058594 29.964844 100.40625 30.390625 C 100.753906 30.816406 101.121094 31.21875 101.511719 31.609375 C 101.898438 31.996094 102.304688 32.363281 102.730469 32.710938 C 103.152344 33.058594 103.59375 33.386719 104.050781 33.691406 C 104.507812 33.996094 104.976562 34.277344 105.460938 34.535156 C 105.945312 34.792969 106.441406 35.027344 106.949219 35.238281 C 107.457031 35.445312 107.972656 35.632812 108.5 35.789062 C 109.023438 35.949219 109.554688 36.082031 110.09375 36.191406 C 110.632812 36.296875 111.175781 36.375 111.722656 36.429688 C 112.269531 36.484375 112.816406 36.511719 113.363281 36.511719 C 113.914062 36.507812 114.460938 36.480469 115.007812 36.429688 C 115.550781 36.375 116.09375 36.292969 116.632812 36.183594 C 117.171875 36.078125 117.703125 35.945312 118.226562 35.785156 C 118.75 35.625 119.265625 35.441406 119.773438 35.230469 C 120.28125 35.019531 120.773438 34.785156 121.257812 34.527344 C 121.742188 34.269531 122.210938 33.988281 122.667969 33.683594 C 123.125 33.378906 123.566406 33.050781 123.988281 32.703125 C 124.414062 32.355469 124.820312 31.988281 125.207031 31.601562 C 125.59375 31.214844 125.960938 30.808594 126.308594 30.386719 C 126.65625 29.960938 126.984375 29.523438 127.289062 29.066406 C 127.59375 28.609375 127.875 28.140625 128.136719 27.65625 C 128.394531 27.175781 128.628906 26.679688 128.839844 26.171875 C 129.046875 25.667969 129.234375 25.152344 129.394531 24.628906 C 129.554688 24.101562 129.6875 23.570312 129.792969 23.035156 C 129.902344 22.496094 129.980469 21.957031 130.035156 21.410156 C 130.089844 20.863281 130.117188 20.316406 130.117188 19.769531 Z M 102.933594 19.769531 C 102.933594 19.085938 103 18.40625 103.132812 17.734375 C 103.265625 17.0625 103.464844 16.410156 103.726562 15.777344 C 103.988281 15.144531 104.308594 14.542969 104.691406 13.972656 C 105.070312 13.402344 105.503906 12.875 105.988281 12.390625 C 106.472656 11.90625 107 11.476562 107.570312 11.09375 C 108.140625 10.714844 108.742188 10.390625 109.375 10.128906 C 110.007812 9.867188 110.660156 9.667969 111.332031 9.535156 C 112.003906 9.402344 112.683594 9.335938 113.371094 9.335938 C 114.054688 9.335938 114.734375 9.402344 115.40625 9.535156 C 116.078125 9.667969 116.730469 9.867188 117.363281 10.128906 C 118 10.390625 118.601562 10.710938 119.167969 11.09375 C 119.738281 11.472656 120.265625 11.90625 120.753906 12.390625 C 121.238281 12.875 121.667969 13.402344 122.050781 13.96875 C 122.429688 14.539062 122.753906 15.140625 123.015625 15.773438 C 123.277344 16.40625 123.476562 17.058594 123.609375 17.730469 C 123.742188 18.402344 123.808594 19.082031 123.808594 19.765625 C 123.808594 20.449219 123.742188 21.128906 123.609375 21.800781 C 123.472656 22.472656 123.277344 23.125 123.011719 23.757812 C 122.75 24.390625 122.429688 24.992188 122.046875 25.5625 C 121.667969 26.128906 121.234375 26.65625 120.75 27.140625 C 120.265625 27.625 119.738281 28.058594 119.167969 28.4375 C 118.597656 28.820312 117.996094 29.140625 117.359375 29.402344 C 116.726562 29.664062 116.074219 29.859375 115.402344 29.992188 C 114.730469 30.128906 114.050781 30.195312 113.363281 30.191406 C 112.679688 30.191406 112 30.125 111.328125 29.992188 C 110.65625 29.859375 110.003906 29.660156 109.371094 29.398438 C 108.738281 29.136719 108.136719 28.816406 107.566406 28.433594 C 106.996094 28.054688 106.472656 27.621094 105.984375 27.140625 C 105.5 26.65625 105.066406 26.128906 104.6875 25.558594 C 104.304688 24.992188 103.984375 24.390625 103.722656 23.757812 C 103.457031 23.125 103.257812 22.476562 103.125 21.804688 C 102.988281 21.132812 102.921875 20.453125 102.921875 19.769531 Z M 102.933594 19.769531 "/><path style=" stroke:none;fill-rule:nonzero;fill:#000000;fill-opacity:1;" d="M 145.027344 80.957031 L 145.027344 53.792969 C 145.027344 53.066406 144.957031 52.34375 144.816406 51.628906 C 144.671875 50.914062 144.460938 50.21875 144.183594 49.546875 C 143.90625 48.875 143.5625 48.234375 143.15625 47.628906 C 142.753906 47.023438 142.292969 46.460938 141.777344 45.945312 C 141.261719 45.429688 140.699219 44.96875 140.09375 44.566406 C 139.488281 44.160156 138.847656 43.820312 138.175781 43.539062 C 137.5 43.261719 136.808594 43.050781 136.089844 42.90625 C 135.375 42.765625 134.652344 42.695312 133.925781 42.695312 L 92.742188 42.695312 C 92.015625 42.695312 91.296875 42.769531 90.582031 42.910156 C 89.871094 43.054688 89.179688 43.265625 88.507812 43.542969 C 87.839844 43.824219 87.203125 44.164062 86.597656 44.570312 C 85.996094 44.972656 85.4375 45.433594 84.921875 45.945312 C 84.410156 46.460938 83.953125 47.019531 83.550781 47.625 C 83.148438 48.226562 82.808594 48.867188 82.53125 49.535156 C 82.253906 50.207031 82.042969 50.898438 81.902344 51.609375 C 81.761719 52.324219 81.691406 53.042969 81.691406 53.769531 L 81.691406 80.929688 C 81.691406 81.65625 81.757812 82.378906 81.902344 83.089844 C 82.042969 83.800781 82.25 84.496094 82.527344 85.164062 C 82.804688 85.835938 83.144531 86.476562 83.546875 87.078125 C 83.949219 87.683594 84.40625 88.242188 84.921875 88.757812 C 85.433594 89.273438 85.992188 89.734375 86.59375 90.136719 C 87.199219 90.542969 87.835938 90.886719 88.507812 91.164062 C 89.179688 91.445312 89.871094 91.65625 90.582031 91.800781 C 91.296875 91.941406 92.015625 92.015625 92.742188 92.019531 L 99.0625 92.019531 C 99.484375 92.019531 99.886719 91.9375 100.273438 91.777344 C 100.660156 91.617188 101.003906 91.390625 101.300781 91.09375 C 101.59375 90.796875 101.824219 90.453125 101.984375 90.066406 C 102.144531 89.679688 102.226562 89.277344 102.226562 88.859375 L 102.226562 68.53125 C 102.226562 68.113281 102.144531 67.710938 101.984375 67.324219 C 101.824219 66.933594 101.59375 66.59375 101.300781 66.296875 C 101.003906 66 100.660156 65.773438 100.273438 65.613281 C 99.886719 65.453125 99.484375 65.371094 99.0625 65.371094 C 98.644531 65.371094 98.242188 65.453125 97.855469 65.613281 C 97.46875 65.773438 97.125 66 96.828125 66.296875 C 96.53125 66.59375 96.304688 66.933594 96.144531 67.324219 C 95.984375 67.710938 95.902344 68.113281 95.902344 68.53125 L 95.902344 85.726562 L 92.742188 85.726562 C 92.429688 85.722656 92.121094 85.691406 91.816406 85.628906 C 91.511719 85.566406 91.214844 85.472656 90.925781 85.355469 C 90.640625 85.234375 90.367188 85.085938 90.109375 84.910156 C 89.851562 84.734375 89.609375 84.539062 89.390625 84.316406 C 89.171875 84.097656 88.976562 83.855469 88.804688 83.59375 C 88.632812 83.335938 88.488281 83.0625 88.367188 82.773438 C 88.25 82.484375 88.160156 82.1875 88.101562 81.882812 C 88.042969 81.578125 88.011719 81.269531 88.011719 80.957031 L 88.011719 53.792969 C 88.011719 53.480469 88.042969 53.175781 88.101562 52.867188 C 88.164062 52.5625 88.25 52.265625 88.371094 51.980469 C 88.488281 51.691406 88.632812 51.417969 88.804688 51.160156 C 88.980469 50.898438 89.175781 50.660156 89.394531 50.4375 C 89.613281 50.21875 89.851562 50.019531 90.109375 49.847656 C 90.367188 49.671875 90.640625 49.527344 90.929688 49.40625 C 91.214844 49.285156 91.511719 49.195312 91.816406 49.132812 C 92.121094 49.070312 92.429688 49.039062 92.742188 49.035156 L 133.925781 49.035156 C 134.238281 49.035156 134.546875 49.066406 134.855469 49.128906 C 135.164062 49.1875 135.460938 49.277344 135.75 49.398438 C 136.039062 49.515625 136.316406 49.664062 136.574219 49.835938 C 136.835938 50.007812 137.078125 50.207031 137.300781 50.425781 C 137.523438 50.648438 137.71875 50.886719 137.894531 51.148438 C 138.070312 51.40625 138.214844 51.683594 138.335938 51.972656 C 138.457031 52.257812 138.546875 52.558594 138.609375 52.863281 C 138.671875 53.171875 138.703125 53.480469 138.703125 53.792969 L 138.703125 80.957031 C 138.703125 81.269531 138.671875 81.582031 138.613281 81.886719 C 138.550781 82.195312 138.460938 82.492188 138.339844 82.78125 C 138.21875 83.070312 138.070312 83.347656 137.898438 83.605469 C 137.722656 83.867188 137.523438 84.109375 137.300781 84.328125 C 137.082031 84.550781 136.839844 84.75 136.578125 84.921875 C 136.316406 85.097656 136.042969 85.242188 135.753906 85.363281 C 135.460938 85.484375 135.164062 85.574219 134.855469 85.632812 C 134.550781 85.695312 134.238281 85.726562 133.925781 85.726562 L 130.765625 85.726562 L 130.765625 68.53125 C 130.765625 68.113281 130.683594 67.710938 130.523438 67.324219 C 130.363281 66.933594 130.132812 66.59375 129.839844 66.296875 C 129.542969 66 129.199219 65.773438 128.8125 65.613281 C 128.425781 65.453125 128.023438 65.371094 127.601562 65.371094 C 127.183594 65.371094 126.78125 65.453125 126.394531 65.613281 C 126.003906 65.773438 125.664062 66 125.367188 66.296875 C 125.070312 66.59375 124.84375 66.933594 124.683594 67.324219 C 124.523438 67.710938 124.441406 68.113281 124.441406 68.53125 L 124.441406 88.882812 C 124.441406 89.304688 124.523438 89.707031 124.683594 90.09375 C 124.84375 90.480469 125.070312 90.820312 125.367188 91.117188 C 125.664062 91.414062 126.003906 91.640625 126.394531 91.800781 C 126.78125 91.960938 127.183594 92.042969 127.601562 92.042969 L 133.925781 92.042969 C 134.652344 92.042969 135.375 91.972656 136.089844 91.828125 C 136.804688 91.6875 137.496094 91.476562 138.171875 91.199219 C 138.84375 90.917969 139.484375 90.578125 140.089844 90.171875 C 140.695312 89.769531 141.253906 89.308594 141.769531 88.792969 C 142.285156 88.28125 142.746094 87.71875 143.152344 87.113281 C 143.558594 86.507812 143.898438 85.871094 144.179688 85.199219 C 144.457031 84.527344 144.667969 83.832031 144.8125 83.121094 C 144.953125 82.40625 145.027344 81.683594 145.027344 80.957031 Z M 145.027344 80.957031 "/><path style=" stroke:none;fill-rule:nonzero;fill:#000000;fill-opacity:1;" d="M 55.453125 59.105469 C 54.90625 59.105469 54.355469 59.132812 53.8125 59.1875 C 53.265625 59.242188 52.722656 59.324219 52.183594 59.429688 C 51.648438 59.539062 51.117188 59.671875 50.589844 59.832031 C 50.066406 59.988281 49.550781 60.175781 49.042969 60.382812 C 48.535156 60.59375 48.042969 60.828125 47.558594 61.089844 C 47.074219 61.347656 46.605469 61.628906 46.148438 61.933594 C 45.691406 62.238281 45.253906 62.566406 44.828125 62.914062 C 44.40625 63.261719 44 63.628906 43.613281 64.015625 C 43.222656 64.40625 42.855469 64.808594 42.507812 65.234375 C 42.160156 65.660156 41.835938 66.097656 41.53125 66.554688 C 41.226562 67.011719 40.945312 67.480469 40.6875 67.964844 C 40.425781 68.445312 40.191406 68.941406 39.984375 69.449219 C 39.773438 69.957031 39.589844 70.472656 39.429688 70.996094 C 39.273438 71.519531 39.140625 72.050781 39.03125 72.589844 C 38.925781 73.125 38.84375 73.667969 38.792969 74.214844 C 38.738281 74.757812 38.710938 75.304688 38.710938 75.855469 C 38.710938 76.402344 38.738281 76.949219 38.792969 77.496094 C 38.847656 78.039062 38.929688 78.582031 39.035156 79.121094 C 39.144531 79.65625 39.277344 80.1875 39.433594 80.710938 C 39.59375 81.238281 39.78125 81.753906 39.988281 82.257812 C 40.199219 82.765625 40.433594 83.261719 40.695312 83.742188 C 40.953125 84.226562 41.234375 84.695312 41.539062 85.152344 C 41.84375 85.609375 42.171875 86.046875 42.519531 86.472656 C 42.867188 86.894531 43.234375 87.300781 43.625 87.6875 C 44.011719 88.074219 44.417969 88.441406 44.84375 88.789062 C 45.265625 89.136719 45.707031 89.464844 46.164062 89.769531 C 46.617188 90.074219 47.089844 90.355469 47.574219 90.613281 C 48.058594 90.871094 48.550781 91.105469 49.058594 91.3125 C 49.566406 91.523438 50.082031 91.707031 50.605469 91.867188 C 51.132812 92.027344 51.664062 92.160156 52.203125 92.265625 C 52.738281 92.371094 53.28125 92.453125 53.828125 92.507812 C 54.375 92.558594 54.921875 92.585938 55.46875 92.585938 C 56.019531 92.585938 56.566406 92.558594 57.113281 92.503906 C 57.65625 92.453125 58.199219 92.371094 58.738281 92.265625 C 59.277344 92.15625 59.808594 92.023438 60.332031 91.863281 C 60.859375 91.707031 61.375 91.519531 61.878906 91.3125 C 62.386719 91.101562 62.882812 90.867188 63.367188 90.609375 C 63.851562 90.351562 64.320312 90.066406 64.777344 89.761719 C 65.230469 89.457031 65.671875 89.132812 66.097656 88.785156 C 66.519531 88.4375 66.925781 88.070312 67.3125 87.679688 C 67.703125 87.292969 68.070312 86.886719 68.417969 86.464844 C 68.765625 86.039062 69.09375 85.601562 69.398438 85.144531 C 69.703125 84.6875 69.984375 84.21875 70.242188 83.734375 C 70.5 83.253906 70.734375 82.757812 70.945312 82.25 C 71.15625 81.746094 71.339844 81.230469 71.5 80.703125 C 71.65625 80.179688 71.789062 79.648438 71.898438 79.113281 C 72.003906 78.574219 72.085938 78.03125 72.140625 77.488281 C 72.191406 76.941406 72.21875 76.394531 72.21875 75.847656 C 72.21875 75.296875 72.191406 74.75 72.136719 74.207031 C 72.082031 73.660156 72.003906 73.117188 71.894531 72.578125 C 71.785156 72.042969 71.652344 71.511719 71.492188 70.988281 C 71.332031 70.460938 71.148438 69.945312 70.9375 69.441406 C 70.726562 68.933594 70.492188 68.4375 70.234375 67.957031 C 69.976562 67.472656 69.691406 67.003906 69.386719 66.546875 C 69.082031 66.089844 68.753906 65.652344 68.40625 65.226562 C 68.058594 64.804688 67.691406 64.398438 67.300781 64.011719 C 66.914062 63.621094 66.507812 63.253906 66.082031 62.90625 C 65.660156 62.558594 65.21875 62.234375 64.761719 61.929688 C 64.304688 61.625 63.835938 61.34375 63.351562 61.085938 C 62.867188 60.824219 62.371094 60.589844 61.867188 60.382812 C 61.359375 60.171875 60.84375 59.988281 60.316406 59.828125 C 59.792969 59.667969 59.261719 59.535156 58.722656 59.429688 C 58.183594 59.320312 57.640625 59.242188 57.09375 59.1875 C 56.550781 59.132812 56.003906 59.105469 55.453125 59.105469 Z M 55.453125 86.269531 C 54.769531 86.269531 54.089844 86.199219 53.417969 86.066406 C 52.746094 85.933594 52.09375 85.734375 51.464844 85.472656 C 50.832031 85.207031 50.230469 84.886719 49.660156 84.507812 C 49.09375 84.125 48.566406 83.691406 48.082031 83.207031 C 47.597656 82.722656 47.167969 82.199219 46.785156 81.628906 C 46.40625 81.058594 46.085938 80.457031 45.824219 79.824219 C 45.5625 79.195312 45.367188 78.542969 45.234375 77.871094 C 45.101562 77.199219 45.035156 76.523438 45.035156 75.835938 C 45.035156 75.152344 45.101562 74.476562 45.234375 73.804688 C 45.371094 73.132812 45.570312 72.484375 45.832031 71.851562 C 46.09375 71.21875 46.414062 70.617188 46.796875 70.050781 C 47.175781 69.480469 47.609375 68.953125 48.09375 68.472656 C 48.578125 67.988281 49.105469 67.554688 49.675781 67.175781 C 50.246094 66.796875 50.847656 66.476562 51.480469 66.214844 C 52.113281 65.953125 52.761719 65.753906 53.433594 65.621094 C 54.105469 65.488281 54.785156 65.421875 55.46875 65.421875 C 56.15625 65.421875 56.832031 65.492188 57.503906 65.625 C 58.175781 65.757812 58.828125 65.957031 59.460938 66.21875 C 60.09375 66.480469 60.695312 66.800781 61.261719 67.179688 C 61.832031 67.5625 62.359375 67.992188 62.84375 68.476562 C 63.328125 68.960938 63.761719 69.488281 64.140625 70.058594 C 64.519531 70.625 64.84375 71.226562 65.105469 71.859375 C 65.367188 72.492188 65.5625 73.140625 65.695312 73.8125 C 65.832031 74.484375 65.898438 75.160156 65.898438 75.847656 C 65.898438 76.53125 65.828125 77.207031 65.695312 77.878906 C 65.558594 78.550781 65.363281 79.203125 65.097656 79.835938 C 64.835938 80.46875 64.515625 81.070312 64.132812 81.636719 C 63.75 82.207031 63.320312 82.734375 62.832031 83.21875 C 62.347656 83.699219 61.820312 84.132812 61.25 84.511719 C 60.683594 84.894531 60.082031 85.214844 59.445312 85.476562 C 58.8125 85.738281 58.160156 85.933594 57.488281 86.070312 C 56.816406 86.203125 56.136719 86.269531 55.453125 86.269531 Z M 55.453125 86.269531 "/><g clip-rule="nonzero" clip-path="url(#7e91e7e32e)"><path style=" stroke:none;fill-rule:nonzero;fill:#000000;fill-opacity:1;" d="M 87.128906 137.03125 L 87.128906 109.871094 C 87.128906 109.144531 87.058594 108.421875 86.917969 107.710938 C 86.78125 106.996094 86.570312 106.304688 86.292969 105.632812 C 86.015625 104.960938 85.679688 104.320312 85.273438 103.714844 C 84.871094 103.109375 84.414062 102.550781 83.902344 102.035156 C 83.386719 101.519531 82.832031 101.058594 82.226562 100.652344 C 81.621094 100.246094 80.984375 99.90625 80.3125 99.625 C 79.640625 99.34375 78.949219 99.132812 78.238281 98.988281 C 77.523438 98.84375 76.804688 98.773438 76.078125 98.769531 L 34.894531 98.769531 C 34.164062 98.769531 33.445312 98.839844 32.730469 98.984375 C 32.015625 99.125 31.320312 99.335938 30.648438 99.613281 C 29.976562 99.890625 29.335938 100.230469 28.730469 100.636719 C 28.125 101.039062 27.566406 101.5 27.050781 102.011719 C 26.535156 102.527344 26.074219 103.085938 25.667969 103.691406 C 25.265625 104.296875 24.921875 104.933594 24.640625 105.605469 C 24.363281 106.277344 24.152344 106.96875 24.007812 107.683594 C 23.863281 108.394531 23.792969 109.117188 23.792969 109.84375 L 23.792969 137.007812 C 23.792969 137.734375 23.863281 138.457031 24.007812 139.171875 C 24.148438 139.882812 24.359375 140.578125 24.640625 141.25 C 24.917969 141.921875 25.261719 142.558594 25.667969 143.164062 C 26.070312 143.769531 26.53125 144.332031 27.046875 144.84375 C 27.5625 145.359375 28.121094 145.820312 28.730469 146.222656 C 29.335938 146.628906 29.972656 146.96875 30.648438 147.25 C 31.320312 147.527344 32.015625 147.738281 32.730469 147.878906 C 33.441406 148.023438 34.164062 148.09375 34.894531 148.09375 L 41.214844 148.09375 C 41.632812 148.09375 42.039062 148.011719 42.425781 147.851562 C 42.8125 147.691406 43.15625 147.464844 43.449219 147.167969 C 43.746094 146.871094 43.976562 146.53125 44.136719 146.144531 C 44.296875 145.757812 44.375 145.355469 44.375 144.933594 L 44.375 124.605469 C 44.375 124.1875 44.296875 123.785156 44.136719 123.398438 C 43.976562 123.011719 43.746094 122.667969 43.449219 122.375 C 43.15625 122.078125 42.8125 121.847656 42.425781 121.6875 C 42.039062 121.527344 41.632812 121.449219 41.214844 121.449219 C 40.796875 121.449219 40.394531 121.527344 40.003906 121.6875 C 39.617188 121.847656 39.277344 122.078125 38.980469 122.375 C 38.683594 122.667969 38.457031 123.011719 38.296875 123.398438 C 38.132812 123.785156 38.054688 124.1875 38.054688 124.605469 L 38.054688 141.800781 L 34.894531 141.800781 C 34.578125 141.800781 34.269531 141.769531 33.960938 141.710938 C 33.652344 141.648438 33.355469 141.558594 33.066406 141.4375 C 32.777344 141.320312 32.5 141.171875 32.238281 141 C 31.980469 140.824219 31.738281 140.625 31.515625 140.40625 C 31.292969 140.183594 31.097656 139.941406 30.921875 139.683594 C 30.746094 139.421875 30.597656 139.148438 30.480469 138.859375 C 30.359375 138.570312 30.269531 138.269531 30.207031 137.964844 C 30.144531 137.65625 30.113281 137.347656 30.113281 137.03125 L 30.113281 109.871094 C 30.113281 109.554688 30.144531 109.246094 30.207031 108.941406 C 30.269531 108.632812 30.359375 108.335938 30.480469 108.046875 C 30.601562 107.757812 30.75 107.484375 30.921875 107.222656 C 31.097656 106.964844 31.296875 106.722656 31.519531 106.503906 C 31.742188 106.28125 31.980469 106.085938 32.242188 105.910156 C 32.503906 105.738281 32.777344 105.59375 33.066406 105.472656 C 33.355469 105.355469 33.65625 105.261719 33.960938 105.203125 C 34.269531 105.140625 34.578125 105.113281 34.894531 105.113281 L 76.078125 105.113281 C 76.386719 105.113281 76.695312 105.144531 77 105.207031 C 77.304688 105.269531 77.601562 105.363281 77.890625 105.480469 C 78.175781 105.601562 78.449219 105.75 78.707031 105.921875 C 78.964844 106.097656 79.203125 106.292969 79.425781 106.515625 C 79.644531 106.734375 79.839844 106.976562 80.011719 107.234375 C 80.183594 107.496094 80.328125 107.769531 80.449219 108.054688 C 80.566406 108.34375 80.65625 108.640625 80.714844 108.945312 C 80.777344 109.25 80.804688 109.558594 80.804688 109.871094 L 80.804688 137.03125 C 80.804688 137.34375 80.777344 137.652344 80.71875 137.957031 C 80.65625 138.265625 80.566406 138.5625 80.449219 138.847656 C 80.332031 139.136719 80.1875 139.410156 80.015625 139.671875 C 79.84375 139.929688 79.644531 140.171875 79.425781 140.394531 C 79.207031 140.613281 78.96875 140.8125 78.710938 140.988281 C 78.453125 141.160156 78.179688 141.308594 77.890625 141.429688 C 77.605469 141.550781 77.308594 141.640625 77.003906 141.703125 C 76.695312 141.765625 76.386719 141.800781 76.078125 141.800781 L 73.027344 141.800781 L 73.027344 124.605469 C 73.027344 124.1875 72.949219 123.785156 72.789062 123.398438 C 72.628906 123.011719 72.398438 122.667969 72.101562 122.375 C 71.808594 122.078125 71.464844 121.847656 71.078125 121.6875 C 70.691406 121.527344 70.285156 121.449219 69.867188 121.449219 C 69.449219 121.449219 69.046875 121.527344 68.65625 121.6875 C 68.269531 121.847656 67.929688 122.078125 67.632812 122.375 C 67.335938 122.667969 67.109375 123.011719 66.949219 123.398438 C 66.785156 123.785156 66.707031 124.1875 66.707031 124.605469 L 66.707031 144.960938 C 66.707031 145.371094 66.78125 145.765625 66.9375 146.144531 C 67.089844 146.523438 67.308594 146.859375 67.59375 147.15625 C 67.875 147.449219 68.207031 147.679688 68.578125 147.847656 C 68.953125 148.011719 69.34375 148.105469 69.753906 148.117188 L 76.078125 148.117188 C 76.804688 148.117188 77.523438 148.042969 78.234375 147.898438 C 78.949219 147.753906 79.640625 147.542969 80.308594 147.265625 C 80.980469 146.984375 81.617188 146.640625 82.222656 146.238281 C 82.824219 145.832031 83.382812 145.371094 83.894531 144.859375 C 84.410156 144.34375 84.867188 143.785156 85.269531 143.179688 C 85.671875 142.574219 86.011719 141.9375 86.289062 141.265625 C 86.566406 140.59375 86.777344 139.902344 86.917969 139.191406 C 87.058594 138.476562 87.128906 137.757812 87.128906 137.03125 Z M 87.128906 137.03125 "/></g><path style=" stroke:none;fill-rule:nonzero;fill:#000000;fill-opacity:1;" d="M 112.460938 167.613281 C 113.007812 167.613281 113.558594 167.585938 114.101562 167.53125 C 114.648438 167.480469 115.191406 167.398438 115.730469 167.292969 C 116.269531 167.183594 116.800781 167.050781 117.324219 166.890625 C 117.847656 166.734375 118.367188 166.546875 118.871094 166.339844 C 119.378906 166.128906 119.875 165.894531 120.359375 165.636719 C 120.84375 165.378906 121.3125 165.097656 121.769531 164.792969 C 122.226562 164.488281 122.664062 164.160156 123.089844 163.8125 C 123.511719 163.464844 123.917969 163.097656 124.308594 162.710938 C 124.695312 162.324219 125.0625 161.917969 125.410156 161.492188 C 125.761719 161.070312 126.085938 160.628906 126.390625 160.171875 C 126.695312 159.71875 126.976562 159.246094 127.238281 158.765625 C 127.496094 158.28125 127.730469 157.785156 127.941406 157.277344 C 128.148438 156.773438 128.335938 156.257812 128.492188 155.734375 C 128.652344 155.207031 128.785156 154.675781 128.894531 154.140625 C 129 153.601562 129.082031 153.058594 129.132812 152.515625 C 129.1875 151.96875 129.214844 151.421875 129.214844 150.875 C 129.214844 150.324219 129.1875 149.777344 129.132812 149.230469 C 129.082031 148.6875 129 148.144531 128.894531 147.605469 C 128.785156 147.070312 128.652344 146.539062 128.492188 146.015625 C 128.335938 145.488281 128.148438 144.972656 127.941406 144.46875 C 127.730469 143.960938 127.496094 143.464844 127.238281 142.980469 C 126.976562 142.5 126.695312 142.027344 126.390625 141.574219 C 126.085938 141.117188 125.761719 140.675781 125.410156 140.253906 C 125.0625 139.828125 124.695312 139.421875 124.308594 139.035156 C 123.917969 138.648438 123.511719 138.28125 123.089844 137.933594 C 122.664062 137.585938 122.226562 137.257812 121.769531 136.953125 C 121.3125 136.648438 120.84375 136.367188 120.359375 136.109375 C 119.875 135.851562 119.378906 135.617188 118.871094 135.40625 C 118.367188 135.199219 117.847656 135.011719 117.324219 134.855469 C 116.800781 134.695312 116.269531 134.5625 115.730469 134.453125 C 115.191406 134.347656 114.648438 134.265625 114.101562 134.214844 C 113.558594 134.160156 113.007812 134.132812 112.460938 134.132812 C 111.914062 134.132812 111.363281 134.160156 110.820312 134.214844 C 110.273438 134.265625 109.730469 134.347656 109.191406 134.453125 C 108.652344 134.5625 108.121094 134.695312 107.597656 134.855469 C 107.074219 135.011719 106.554688 135.199219 106.050781 135.40625 C 105.542969 135.617188 105.046875 135.851562 104.5625 136.109375 C 104.078125 136.367188 103.609375 136.648438 103.152344 136.953125 C 102.695312 137.257812 102.257812 137.585938 101.832031 137.933594 C 101.40625 138.28125 101.003906 138.648438 100.613281 139.035156 C 100.226562 139.421875 99.859375 139.828125 99.511719 140.253906 C 99.160156 140.675781 98.835938 141.117188 98.53125 141.574219 C 98.226562 142.027344 97.945312 142.5 97.683594 142.980469 C 97.425781 143.464844 97.191406 143.960938 96.980469 144.46875 C 96.773438 144.972656 96.585938 145.488281 96.429688 146.015625 C 96.269531 146.539062 96.136719 147.070312 96.027344 147.605469 C 95.921875 148.144531 95.839844 148.6875 95.789062 149.230469 C 95.734375 149.777344 95.707031 150.324219 95.707031 150.875 C 95.707031 151.421875 95.734375 151.96875 95.789062 152.511719 C 95.84375 153.058594 95.925781 153.597656 96.035156 154.136719 C 96.140625 154.675781 96.277344 155.203125 96.433594 155.730469 C 96.59375 156.253906 96.78125 156.769531 96.992188 157.273438 C 97.199219 157.78125 97.4375 158.273438 97.695312 158.757812 C 97.953125 159.242188 98.234375 159.710938 98.539062 160.164062 C 98.84375 160.621094 99.171875 161.0625 99.519531 161.484375 C 99.867188 161.90625 100.234375 162.3125 100.625 162.699219 C 101.011719 163.089844 101.417969 163.457031 101.839844 163.804688 C 102.265625 164.152344 102.703125 164.476562 103.160156 164.78125 C 103.617188 165.085938 104.085938 165.367188 104.570312 165.628906 C 105.054688 165.886719 105.546875 166.121094 106.054688 166.332031 C 106.5625 166.539062 107.078125 166.726562 107.601562 166.886719 C 108.125 167.042969 108.65625 167.179688 109.195312 167.285156 C 109.730469 167.394531 110.273438 167.476562 110.820312 167.53125 C 111.367188 167.585938 111.914062 167.613281 112.460938 167.613281 Z M 112.460938 140.449219 C 113.144531 140.449219 113.824219 140.515625 114.496094 140.648438 C 115.167969 140.785156 115.820312 140.980469 116.453125 141.242188 C 117.085938 141.503906 117.6875 141.828125 118.257812 142.207031 C 118.824219 142.585938 119.351562 143.019531 119.835938 143.503906 C 120.320312 143.988281 120.753906 144.511719 121.132812 145.082031 C 121.515625 145.652344 121.835938 146.253906 122.097656 146.882812 C 122.359375 147.515625 122.558594 148.167969 122.691406 148.839844 C 122.824219 149.511719 122.890625 150.1875 122.894531 150.875 C 122.890625 151.558594 122.824219 152.234375 122.691406 152.90625 C 122.558594 153.578125 122.359375 154.230469 122.097656 154.863281 C 121.835938 155.492188 121.515625 156.09375 121.132812 156.664062 C 120.753906 157.234375 120.320312 157.757812 119.835938 158.242188 C 119.351562 158.726562 118.824219 159.160156 118.257812 159.539062 C 117.6875 159.917969 117.085938 160.242188 116.453125 160.503906 C 115.820312 160.765625 115.167969 160.960938 114.496094 161.097656 C 113.824219 161.230469 113.144531 161.296875 112.460938 161.296875 C 111.777344 161.296875 111.097656 161.230469 110.425781 161.097656 C 109.753906 160.960938 109.101562 160.765625 108.46875 160.503906 C 107.835938 160.242188 107.234375 159.917969 106.664062 159.539062 C 106.097656 159.160156 105.570312 158.726562 105.085938 158.242188 C 104.601562 157.757812 104.167969 157.234375 103.789062 156.664062 C 103.40625 156.09375 103.085938 155.492188 102.824219 154.863281 C 102.5625 154.230469 102.363281 153.578125 102.230469 152.90625 C 102.097656 152.234375 102.027344 151.558594 102.027344 150.875 C 102.03125 150.1875 102.097656 149.511719 102.234375 148.839844 C 102.367188 148.171875 102.566406 147.519531 102.828125 146.886719 C 103.089844 146.253906 103.414062 145.65625 103.792969 145.085938 C 104.171875 144.519531 104.605469 143.992188 105.089844 143.507812 C 105.574219 143.023438 106.101562 142.59375 106.667969 142.210938 C 107.238281 141.832031 107.839844 141.511719 108.472656 141.25 C 109.105469 140.984375 109.753906 140.789062 110.425781 140.652344 C 111.097656 140.519531 111.777344 140.453125 112.460938 140.449219 Z M 112.460938 140.449219 "/><g clip-rule="nonzero" clip-path="url(#7c3b112e97)"><path style=" stroke:none;fill-rule:nonzero;fill:#000000;fill-opacity:1;" d="M 133.085938 173.796875 L 91.902344 173.796875 C 91.171875 173.796875 90.453125 173.867188 89.738281 174.011719 C 89.023438 174.152344 88.332031 174.363281 87.660156 174.640625 C 86.984375 174.921875 86.347656 175.261719 85.742188 175.664062 C 85.136719 176.070312 84.578125 176.527344 84.0625 177.042969 C 83.546875 177.554688 83.085938 178.113281 82.683594 178.71875 C 82.277344 179.324219 81.933594 179.960938 81.65625 180.632812 C 81.375 181.304688 81.164062 181.996094 81.023438 182.710938 C 80.878906 183.421875 80.804688 184.144531 80.804688 184.871094 L 80.804688 212.035156 C 80.804688 212.761719 80.878906 213.484375 81.019531 214.195312 C 81.164062 214.910156 81.375 215.601562 81.652344 216.273438 C 81.933594 216.945312 82.273438 217.585938 82.679688 218.191406 C 83.085938 218.796875 83.542969 219.355469 84.058594 219.871094 C 84.574219 220.382812 85.132812 220.84375 85.738281 221.25 C 86.34375 221.652344 86.984375 221.996094 87.65625 222.273438 C 88.328125 222.550781 89.023438 222.761719 89.738281 222.90625 C 90.453125 223.046875 91.171875 223.121094 91.902344 223.121094 L 98.222656 223.121094 C 98.640625 223.121094 99.046875 223.039062 99.433594 222.878906 C 99.820312 222.71875 100.160156 222.492188 100.457031 222.195312 C 100.753906 221.898438 100.984375 221.558594 101.144531 221.171875 C 101.304688 220.785156 101.382812 220.382812 101.382812 219.960938 L 101.382812 199.632812 C 101.382812 199.214844 101.304688 198.8125 101.144531 198.425781 C 100.984375 198.039062 100.753906 197.695312 100.457031 197.402344 C 100.160156 197.105469 99.820312 196.875 99.433594 196.714844 C 99.046875 196.554688 98.640625 196.476562 98.222656 196.476562 C 97.804688 196.476562 97.402344 196.554688 97.011719 196.714844 C 96.625 196.875 96.285156 197.105469 95.988281 197.402344 C 95.691406 197.695312 95.464844 198.039062 95.300781 198.425781 C 95.140625 198.8125 95.0625 199.214844 95.0625 199.632812 L 95.0625 216.828125 L 91.902344 216.828125 C 91.585938 216.828125 91.277344 216.796875 90.96875 216.734375 C 90.664062 216.675781 90.363281 216.585938 90.074219 216.464844 C 89.785156 216.34375 89.511719 216.195312 89.25 216.023438 C 88.988281 215.847656 88.75 215.652344 88.527344 215.429688 C 88.304688 215.207031 88.109375 214.96875 87.933594 214.707031 C 87.761719 214.449219 87.613281 214.171875 87.492188 213.882812 C 87.371094 213.59375 87.28125 213.296875 87.21875 212.988281 C 87.160156 212.683594 87.128906 212.371094 87.128906 212.058594 L 87.128906 184.894531 C 87.128906 184.582031 87.160156 184.273438 87.222656 183.96875 C 87.285156 183.660156 87.375 183.363281 87.496094 183.074219 C 87.613281 182.785156 87.761719 182.511719 87.9375 182.253906 C 88.109375 181.992188 88.308594 181.753906 88.53125 181.53125 C 88.75 181.3125 88.992188 181.113281 89.253906 180.941406 C 89.511719 180.765625 89.789062 180.621094 90.078125 180.5 C 90.367188 180.382812 90.664062 180.292969 90.972656 180.230469 C 91.277344 180.171875 91.589844 180.140625 91.902344 180.140625 L 133.085938 180.140625 C 133.394531 180.140625 133.703125 180.171875 134.007812 180.234375 C 134.3125 180.296875 134.609375 180.390625 134.898438 180.507812 C 135.183594 180.628906 135.457031 180.777344 135.714844 180.949219 C 135.972656 181.125 136.210938 181.320312 136.433594 181.542969 C 136.652344 181.761719 136.847656 182.003906 137.019531 182.261719 C 137.191406 182.519531 137.335938 182.792969 137.457031 183.082031 C 137.574219 183.371094 137.664062 183.667969 137.722656 183.972656 C 137.785156 184.277344 137.8125 184.585938 137.8125 184.894531 L 137.8125 212.058594 C 137.8125 212.371094 137.785156 212.679688 137.722656 212.984375 C 137.664062 213.292969 137.574219 213.589844 137.457031 213.875 C 137.339844 214.164062 137.195312 214.4375 137.023438 214.699219 C 136.851562 214.957031 136.652344 215.199219 136.433594 215.421875 C 136.214844 215.640625 135.976562 215.839844 135.71875 216.011719 C 135.460938 216.1875 135.1875 216.335938 134.898438 216.457031 C 134.613281 216.578125 134.316406 216.667969 134.011719 216.730469 C 133.703125 216.792969 133.394531 216.828125 133.085938 216.828125 L 130.042969 216.828125 L 130.042969 199.632812 C 130.042969 199.214844 129.960938 198.8125 129.800781 198.425781 C 129.640625 198.039062 129.414062 197.695312 129.117188 197.402344 C 128.820312 197.105469 128.480469 196.875 128.089844 196.714844 C 127.703125 196.554688 127.300781 196.476562 126.882812 196.476562 C 126.460938 196.476562 126.058594 196.554688 125.671875 196.714844 C 125.285156 196.875 124.941406 197.105469 124.648438 197.402344 C 124.351562 197.695312 124.121094 198.039062 123.960938 198.425781 C 123.800781 198.8125 123.722656 199.214844 123.722656 199.632812 L 123.722656 219.988281 C 123.71875 220.394531 123.796875 220.789062 123.949219 221.167969 C 124.101562 221.546875 124.320312 221.886719 124.605469 222.179688 C 124.886719 222.472656 125.214844 222.703125 125.589844 222.871094 C 125.960938 223.039062 126.351562 223.128906 126.761719 223.144531 L 133.085938 223.144531 C 133.8125 223.144531 134.53125 223.070312 135.242188 222.925781 C 135.957031 222.785156 136.648438 222.570312 137.320312 222.292969 C 137.988281 222.011719 138.625 221.671875 139.230469 221.265625 C 139.832031 220.859375 140.390625 220.402344 140.90625 219.886719 C 141.417969 219.371094 141.875 218.8125 142.277344 218.207031 C 142.679688 217.601562 143.019531 216.964844 143.296875 216.292969 C 143.574219 215.621094 143.785156 214.929688 143.925781 214.21875 C 144.066406 213.503906 144.136719 212.785156 144.136719 212.058594 L 144.136719 184.894531 C 144.136719 184.167969 144.070312 183.449219 143.929688 182.734375 C 143.789062 182.023438 143.582031 181.328125 143.304688 180.65625 C 143.027344 179.984375 142.6875 179.347656 142.285156 178.742188 C 141.882812 178.136719 141.425781 177.574219 140.910156 177.058594 C 140.398438 176.542969 139.839844 176.082031 139.234375 175.679688 C 138.632812 175.273438 137.992188 174.929688 137.324219 174.648438 C 136.652344 174.371094 135.957031 174.160156 135.246094 174.015625 C 134.53125 173.871094 133.8125 173.800781 133.085938 173.796875 Z M 133.085938 173.796875 "/></g></g></svg>