<svg xmlns="http://www.w3.org/2000/svg" xmlns:xlink="http://www.w3.org/1999/xlink" width="400" zoomAndPan="magnify" viewBox="0 0 300 239.999995" height="320" preserveAspectRatio="xMidYMid meet" version="1.2"><defs><clipPath id="145979ef06"><path d="M 103 27 L 218 27 L 218 143 L 103 143 Z M 103 27 "/></clipPath><clipPath id="a577722220"><path d="M 157.925781 2.964844 L 242.78125 87.816406 L 188.15625 142.441406 L 103.300781 57.589844 Z M 157.925781 2.964844 "/></clipPath><clipPath id="0dfa926067"><path d="M 157.925781 2.964844 L 242.78125 87.816406 L 157.925781 172.671875 L 73.074219 87.816406 Z M 157.925781 2.964844 "/></clipPath><clipPath id="763150762f"><path d="M 126 56 L 190 56 L 190 120 L 126 120 Z M 126 56 "/></clipPath><clipPath id="bd16fabea5"><path d="M 157.925781 2.964844 L 242.78125 87.816406 L 188.15625 142.441406 L 103.300781 57.589844 Z M 157.925781 2.964844 "/></clipPath><clipPath id="1ce1dea3bc"><path d="M 157.925781 2.964844 L 242.78125 87.816406 L 157.925781 172.671875 L 73.074219 87.816406 Z M 157.925781 2.964844 "/></clipPath><clipPath id="3214f3706f"><path d="M 58.171875 68.558594 L 178 68.558594 L 178 144.308594 L 58.171875 144.308594 Z M 58.171875 68.558594 "/></clipPath><clipPath id="2dbfee0c0e"><path d="M 86 96 L 150 96 L 150 144.308594 L 86 144.308594 Z M 86 96 "/></clipPath></defs><g id="9272d8f096"><g style="fill:#ffffff;fill-opacity:1;"><g transform="translate(6.031421, 185.706494)"><path style="stroke:none" d="M 32.296875 -0.546875 C 32.390625 -0.546875 32.4375 -0.453125 32.4375 -0.265625 C 32.4375 -0.0859375 32.390625 0 32.296875 0 L 24.859375 0 C 24.148438 0 22.832031 -1.226562 20.90625 -3.6875 C 18.976562 -6.15625 16.644531 -9.609375 13.90625 -14.046875 C 13.226562 -13.984375 12.707031 -13.953125 12.34375 -13.953125 C 11.65625 -13.953125 10.851562 -13.984375 9.9375 -14.046875 L 9.9375 -3.75 C 9.9375 -2.789062 10.019531 -2.09375 10.1875 -1.65625 C 10.351562 -1.226562 10.675781 -0.9375 11.15625 -0.78125 C 11.632812 -0.625 12.394531 -0.546875 13.4375 -0.546875 C 13.5 -0.546875 13.53125 -0.453125 13.53125 -0.265625 C 13.53125 -0.0859375 13.5 0 13.4375 0 C 12.425781 0 11.644531 -0.015625 11.09375 -0.046875 L 7.671875 -0.09375 L 4.34375 -0.046875 C 3.757812 -0.015625 2.957031 0 1.9375 0 C 1.84375 0 1.796875 -0.0859375 1.796875 -0.265625 C 1.796875 -0.453125 1.84375 -0.546875 1.9375 -0.546875 C 2.988281 -0.546875 3.75 -0.625 4.21875 -0.78125 C 4.695312 -0.9375 5.03125 -1.238281 5.21875 -1.6875 C 5.40625 -2.132812 5.5 -2.820312 5.5 -3.75 L 5.5 -25.140625 C 5.5 -26.054688 5.410156 -26.726562 5.234375 -27.15625 C 5.066406 -27.59375 4.738281 -27.894531 4.25 -28.0625 C 3.757812 -28.238281 3.003906 -28.328125 1.984375 -28.328125 C 1.921875 -28.328125 1.890625 -28.414062 1.890625 -28.59375 C 1.890625 -28.78125 1.921875 -28.875 1.984375 -28.875 L 4.390625 -28.828125 C 5.742188 -28.765625 6.835938 -28.734375 7.671875 -28.734375 C 8.679688 -28.734375 9.789062 -28.78125 11 -28.875 C 11.394531 -28.90625 11.878906 -28.9375 12.453125 -28.96875 C 13.023438 -29 13.664062 -29.015625 14.375 -29.015625 C 17.050781 -29.015625 19.117188 -28.488281 20.578125 -27.4375 C 22.046875 -26.394531 22.78125 -24.9375 22.78125 -23.0625 C 22.78125 -21.363281 22.304688 -19.835938 21.359375 -18.484375 C 20.421875 -17.128906 19.171875 -16.050781 17.609375 -15.25 C 20.128906 -11.519531 22.234375 -8.609375 23.921875 -6.515625 C 25.617188 -4.421875 27.125 -2.898438 28.4375 -1.953125 C 29.75 -1.015625 31.035156 -0.546875 32.296875 -0.546875 Z M 9.9375 -15.296875 C 10.675781 -15.171875 11.566406 -15.109375 12.609375 -15.109375 C 14.609375 -15.109375 16.039062 -15.609375 16.90625 -16.609375 C 17.769531 -17.609375 18.203125 -19.21875 18.203125 -21.4375 C 18.203125 -23.9375 17.773438 -25.675781 16.921875 -26.65625 C 16.078125 -27.644531 14.859375 -28.140625 13.265625 -28.140625 C 12.054688 -28.140625 11.195312 -27.914062 10.6875 -27.46875 C 10.1875 -27.019531 9.9375 -26.210938 9.9375 -25.046875 Z M 9.9375 -15.296875 "/></g></g><g style="fill:#ffffff;fill-opacity:1;"><g transform="translate(37.906061, 185.706494)"><path style="stroke:none" d="M 16.90625 0.546875 C 14.039062 0.546875 11.488281 -0.117188 9.25 -1.453125 C 7.019531 -2.796875 5.296875 -4.613281 4.078125 -6.90625 C 2.867188 -9.195312 2.265625 -11.703125 2.265625 -14.421875 C 2.265625 -17.585938 3.0625 -20.300781 4.65625 -22.5625 C 6.257812 -24.832031 8.316406 -26.535156 10.828125 -27.671875 C 13.335938 -28.816406 15.90625 -29.390625 18.53125 -29.390625 C 21.457031 -29.390625 24.023438 -28.703125 26.234375 -27.328125 C 28.453125 -25.953125 30.15625 -24.140625 31.34375 -21.890625 C 32.53125 -19.648438 33.125 -17.265625 33.125 -14.734375 C 33.125 -11.929688 32.382812 -9.359375 30.90625 -7.015625 C 29.425781 -4.679688 27.445312 -2.835938 24.96875 -1.484375 C 22.488281 -0.128906 19.800781 0.546875 16.90625 0.546875 Z M 18.484375 -0.546875 C 20.328125 -0.546875 21.976562 -1.046875 23.4375 -2.046875 C 24.90625 -3.054688 26.0625 -4.53125 26.90625 -6.46875 C 27.757812 -8.40625 28.1875 -10.71875 28.1875 -13.40625 C 28.1875 -16.238281 27.710938 -18.773438 26.765625 -21.015625 C 25.828125 -23.265625 24.488281 -25.019531 22.75 -26.28125 C 21.007812 -27.550781 18.972656 -28.1875 16.640625 -28.1875 C 13.648438 -28.1875 11.328125 -27.113281 9.671875 -24.96875 C 8.023438 -22.832031 7.203125 -19.867188 7.203125 -16.078125 C 7.203125 -13.148438 7.6875 -10.5 8.65625 -8.125 C 9.632812 -5.757812 10.976562 -3.90625 12.6875 -2.5625 C 14.394531 -1.21875 16.328125 -0.546875 18.484375 -0.546875 Z M 18.484375 -0.546875 "/></g></g><g style="fill:#ffffff;fill-opacity:1;"><g transform="translate(73.29154, 185.706494)"><path style="stroke:none" d="M 16.21875 -16.21875 C 18.738281 -15.9375 20.753906 -15.085938 22.265625 -13.671875 C 23.773438 -12.253906 24.53125 -10.5 24.53125 -8.40625 C 24.53125 -6.800781 24.09375 -5.34375 23.21875 -4.03125 C 22.34375 -2.726562 21.125 -1.695312 19.5625 -0.9375 C 18.007812 -0.1875 16.28125 0.1875 14.375 0.1875 C 13.476562 0.1875 12.445312 0.140625 11.28125 0.046875 C 10.875 0.015625 10.363281 -0.015625 9.75 -0.046875 C 9.132812 -0.078125 8.441406 -0.09375 7.671875 -0.09375 L 4.34375 -0.046875 C 3.757812 -0.015625 2.957031 0 1.9375 0 C 1.84375 0 1.796875 -0.0859375 1.796875 -0.265625 C 1.796875 -0.453125 1.84375 -0.546875 1.9375 -0.546875 C 2.925781 -0.546875 3.664062 -0.628906 4.15625 -0.796875 C 4.644531 -0.972656 4.988281 -1.273438 5.1875 -1.703125 C 5.394531 -2.140625 5.5 -2.820312 5.5 -3.75 L 5.5 -25.140625 C 5.5 -26.023438 5.394531 -26.691406 5.1875 -27.140625 C 4.988281 -27.585938 4.648438 -27.894531 4.171875 -28.0625 C 3.703125 -28.238281 2.972656 -28.328125 1.984375 -28.328125 C 1.921875 -28.328125 1.890625 -28.414062 1.890625 -28.59375 C 1.890625 -28.78125 1.921875 -28.875 1.984375 -28.875 L 4.390625 -28.828125 C 5.742188 -28.765625 6.835938 -28.734375 7.671875 -28.734375 C 8.535156 -28.734375 9.441406 -28.78125 10.390625 -28.875 C 10.734375 -28.90625 11.144531 -28.9375 11.625 -28.96875 C 12.101562 -29 12.648438 -29.015625 13.265625 -29.015625 C 16.003906 -29.015625 18.097656 -28.488281 19.546875 -27.4375 C 20.992188 -26.394531 21.71875 -24.921875 21.71875 -23.015625 C 21.71875 -21.535156 21.238281 -20.203125 20.28125 -19.015625 C 19.320312 -17.828125 17.96875 -16.894531 16.21875 -16.21875 Z M 12.46875 -28.09375 C 11.488281 -28.09375 10.820312 -27.890625 10.46875 -27.484375 C 10.113281 -27.085938 9.9375 -26.273438 9.9375 -25.046875 L 9.9375 -16.265625 L 11.875 -16.21875 C 13.6875 -16.21875 15.054688 -16.8125 15.984375 -18 C 16.910156 -19.1875 17.375 -20.71875 17.375 -22.59375 C 17.375 -24.351562 16.957031 -25.707031 16.125 -26.65625 C 15.289062 -27.613281 14.070312 -28.09375 12.46875 -28.09375 Z M 13.625 -0.875 C 17.789062 -0.875 19.875 -3.015625 19.875 -7.296875 C 19.875 -9.640625 19.265625 -11.519531 18.046875 -12.9375 C 16.828125 -14.351562 15.046875 -15.0625 12.703125 -15.0625 C 11.597656 -15.0625 10.675781 -15.03125 9.9375 -14.96875 L 9.9375 -3.75 C 9.9375 -3.039062 10.023438 -2.484375 10.203125 -2.078125 C 10.390625 -1.679688 10.742188 -1.378906 11.265625 -1.171875 C 11.796875 -0.972656 12.582031 -0.875 13.625 -0.875 Z M 13.625 -0.875 "/></g></g><g style="fill:#ffffff;fill-opacity:1;"><g transform="translate(100.223296, 185.706494)"><path style="stroke:none" d="M 16.90625 0.546875 C 14.039062 0.546875 11.488281 -0.117188 9.25 -1.453125 C 7.019531 -2.796875 5.296875 -4.613281 4.078125 -6.90625 C 2.867188 -9.195312 2.265625 -11.703125 2.265625 -14.421875 C 2.265625 -17.585938 3.0625 -20.300781 4.65625 -22.5625 C 6.257812 -24.832031 8.316406 -26.535156 10.828125 -27.671875 C 13.335938 -28.816406 15.90625 -29.390625 18.53125 -29.390625 C 21.457031 -29.390625 24.023438 -28.703125 26.234375 -27.328125 C 28.453125 -25.953125 30.15625 -24.140625 31.34375 -21.890625 C 32.53125 -19.648438 33.125 -17.265625 33.125 -14.734375 C 33.125 -11.929688 32.382812 -9.359375 30.90625 -7.015625 C 29.425781 -4.679688 27.445312 -2.835938 24.96875 -1.484375 C 22.488281 -0.128906 19.800781 0.546875 16.90625 0.546875 Z M 18.484375 -0.546875 C 20.328125 -0.546875 21.976562 -1.046875 23.4375 -2.046875 C 24.90625 -3.054688 26.0625 -4.53125 26.90625 -6.46875 C 27.757812 -8.40625 28.1875 -10.71875 28.1875 -13.40625 C 28.1875 -16.238281 27.710938 -18.773438 26.765625 -21.015625 C 25.828125 -23.265625 24.488281 -25.019531 22.75 -26.28125 C 21.007812 -27.550781 18.972656 -28.1875 16.640625 -28.1875 C 13.648438 -28.1875 11.328125 -27.113281 9.671875 -24.96875 C 8.023438 -22.832031 7.203125 -19.867188 7.203125 -16.078125 C 7.203125 -13.148438 7.6875 -10.5 8.65625 -8.125 C 9.632812 -5.757812 10.976562 -3.90625 12.6875 -2.5625 C 14.394531 -1.21875 16.328125 -0.546875 18.484375 -0.546875 Z M 18.484375 -0.546875 "/></g></g><g style="fill:#ffffff;fill-opacity:1;"><g transform="translate(135.608775, 185.706494)"><path style="stroke:none" d="M 10.078125 -3.75 C 10.078125 -2.789062 10.148438 -2.09375 10.296875 -1.65625 C 10.453125 -1.226562 10.769531 -0.9375 11.25 -0.78125 C 11.726562 -0.625 12.488281 -0.546875 13.53125 -0.546875 C 13.625 -0.546875 13.671875 -0.453125 13.671875 -0.265625 C 13.671875 -0.0859375 13.625 0 13.53125 0 C 12.550781 0 11.769531 -0.015625 11.1875 -0.046875 L 7.765625 -0.09375 L 4.4375 -0.046875 C 3.851562 -0.015625 3.050781 0 2.03125 0 C 1.9375 0 1.890625 -0.0859375 1.890625 -0.265625 C 1.890625 -0.453125 1.9375 -0.546875 2.03125 -0.546875 C 3.082031 -0.546875 3.84375 -0.625 4.3125 -0.78125 C 4.789062 -0.9375 5.125 -1.238281 5.3125 -1.6875 C 5.5 -2.132812 5.59375 -2.820312 5.59375 -3.75 L 5.59375 -25.140625 C 5.59375 -26.054688 5.5 -26.726562 5.3125 -27.15625 C 5.125 -27.59375 4.789062 -27.894531 4.3125 -28.0625 C 3.84375 -28.238281 3.082031 -28.328125 2.03125 -28.328125 C 1.9375 -28.328125 1.890625 -28.414062 1.890625 -28.59375 C 1.890625 -28.78125 1.9375 -28.875 2.03125 -28.875 L 4.4375 -28.828125 C 5.789062 -28.765625 6.898438 -28.734375 7.765625 -28.734375 C 8.710938 -28.734375 9.867188 -28.765625 11.234375 -28.828125 L 13.53125 -28.875 C 13.625 -28.875 13.671875 -28.78125 13.671875 -28.59375 C 13.671875 -28.414062 13.625 -28.328125 13.53125 -28.328125 C 12.519531 -28.328125 11.773438 -28.234375 11.296875 -28.046875 C 10.816406 -27.859375 10.492188 -27.539062 10.328125 -27.09375 C 10.160156 -26.644531 10.078125 -25.960938 10.078125 -25.046875 Z M 10.078125 -3.75 "/></g></g><g style="fill:#ffffff;fill-opacity:1;"><g transform="translate(151.268928, 185.706494)"><path style="stroke:none" d="M 33.125 -28.875 C 33.1875 -28.875 33.21875 -28.78125 33.21875 -28.59375 C 33.21875 -28.414062 33.1875 -28.328125 33.125 -28.328125 C 31.894531 -28.328125 30.941406 -27.882812 30.265625 -27 C 29.585938 -26.125 29.25 -24.867188 29.25 -23.234375 L 29.25 0.640625 C 29.25 0.734375 29.171875 0.796875 29.015625 0.828125 C 28.859375 0.859375 28.75 0.84375 28.6875 0.78125 L 7.015625 -24.390625 L 7.015625 -5.59375 C 7.015625 -3.957031 7.335938 -2.707031 7.984375 -1.84375 C 8.640625 -0.976562 9.582031 -0.546875 10.8125 -0.546875 C 10.875 -0.546875 10.90625 -0.453125 10.90625 -0.265625 C 10.90625 -0.0859375 10.875 0 10.8125 0 C 9.976562 0 9.347656 -0.015625 8.921875 -0.046875 L 6.46875 -0.09375 L 3.75 -0.046875 C 3.25 -0.015625 2.535156 0 1.609375 0 C 1.523438 0 1.484375 -0.0859375 1.484375 -0.265625 C 1.484375 -0.453125 1.523438 -0.546875 1.609375 -0.546875 C 2.941406 -0.546875 3.96875 -0.976562 4.6875 -1.84375 C 5.414062 -2.707031 5.78125 -3.957031 5.78125 -5.59375 L 5.78125 -25.828125 C 4.914062 -26.753906 4.132812 -27.398438 3.4375 -27.765625 C 2.75 -28.140625 2.035156 -28.328125 1.296875 -28.328125 C 1.234375 -28.328125 1.203125 -28.414062 1.203125 -28.59375 C 1.203125 -28.78125 1.234375 -28.875 1.296875 -28.875 L 3.140625 -28.828125 C 3.546875 -28.796875 4.113281 -28.78125 4.84375 -28.78125 L 7.8125 -28.828125 C 8.175781 -28.859375 8.617188 -28.875 9.140625 -28.875 C 9.390625 -28.875 9.578125 -28.8125 9.703125 -28.6875 C 9.828125 -28.5625 10.007812 -28.316406 10.25 -27.953125 L 11.359375 -26.46875 L 28 -6.890625 L 28 -23.234375 C 28 -24.867188 27.675781 -26.125 27.03125 -27 C 26.382812 -27.882812 25.457031 -28.328125 24.25 -28.328125 C 24.195312 -28.328125 24.171875 -28.414062 24.171875 -28.59375 C 24.171875 -28.78125 24.195312 -28.875 24.25 -28.875 L 26.15625 -28.828125 C 27.132812 -28.765625 27.945312 -28.734375 28.59375 -28.734375 C 29.21875 -28.734375 30.050781 -28.765625 31.09375 -28.828125 Z M 33.125 -28.875 "/></g></g><g style="fill:#ffffff;fill-opacity:1;"><g transform="translate(185.083772, 185.706494)"><path style="stroke:none" d="M 30.765625 -28.875 C 30.859375 -28.875 30.90625 -28.78125 30.90625 -28.59375 C 30.90625 -28.414062 30.859375 -28.328125 30.765625 -28.328125 C 29.660156 -28.328125 28.644531 -27.910156 27.71875 -27.078125 C 26.789062 -26.242188 26.035156 -25.039062 25.453125 -23.46875 L 16.5 -0.046875 C 16.46875 0.078125 16.296875 0.140625 15.984375 0.140625 C 15.679688 0.140625 15.515625 0.078125 15.484375 -0.046875 L 3.78125 -25.046875 C 3.226562 -26.179688 2.675781 -27.007812 2.125 -27.53125 C 1.570312 -28.0625 0.910156 -28.328125 0.140625 -28.328125 C 0.046875 -28.328125 0 -28.414062 0 -28.59375 C 0 -28.78125 0.046875 -28.875 0.140625 -28.875 L 1.34375 -28.828125 C 2.019531 -28.765625 2.789062 -28.734375 3.65625 -28.734375 C 5.8125 -28.734375 7.75 -28.765625 9.46875 -28.828125 C 9.957031 -28.859375 10.585938 -28.875 11.359375 -28.875 C 11.453125 -28.875 11.5 -28.78125 11.5 -28.59375 C 11.5 -28.414062 11.453125 -28.328125 11.359375 -28.328125 C 9.421875 -28.328125 8.453125 -27.648438 8.453125 -26.296875 C 8.453125 -25.765625 8.609375 -25.175781 8.921875 -24.53125 L 17.515625 -6.140625 L 24.25 -23.65625 C 24.53125 -24.394531 24.671875 -25.054688 24.671875 -25.640625 C 24.671875 -26.503906 24.382812 -27.164062 23.8125 -27.625 C 23.25 -28.09375 22.394531 -28.328125 21.25 -28.328125 C 21.15625 -28.328125 21.109375 -28.414062 21.109375 -28.59375 C 21.109375 -28.78125 21.15625 -28.875 21.25 -28.875 L 23.46875 -28.828125 C 24.644531 -28.765625 25.722656 -28.734375 26.703125 -28.734375 C 27.285156 -28.734375 28.007812 -28.765625 28.875 -28.828125 Z M 30.765625 -28.875 "/></g></g><g style="fill:#ffffff;fill-opacity:1;"><g transform="translate(215.664942, 185.706494)"><path style="stroke:none" d="M 22.59375 -7.203125 C 22.59375 -7.265625 22.65625 -7.296875 22.78125 -7.296875 C 22.875 -7.296875 22.957031 -7.269531 23.03125 -7.21875 C 23.101562 -7.175781 23.140625 -7.140625 23.140625 -7.109375 C 22.835938 -4.773438 22.6875 -2.632812 22.6875 -0.6875 C 22.6875 -0.445312 22.640625 -0.269531 22.546875 -0.15625 C 22.453125 -0.0507812 22.269531 0 22 0 L 1.9375 0 C 1.84375 0 1.796875 -0.0859375 1.796875 -0.265625 C 1.796875 -0.453125 1.84375 -0.546875 1.9375 -0.546875 C 2.988281 -0.546875 3.75 -0.625 4.21875 -0.78125 C 4.695312 -0.9375 5.019531 -1.238281 5.1875 -1.6875 C 5.363281 -2.132812 5.453125 -2.820312 5.453125 -3.75 L 5.453125 -25.140625 C 5.453125 -26.054688 5.363281 -26.726562 5.1875 -27.15625 C 5.019531 -27.59375 4.691406 -27.894531 4.203125 -28.0625 C 3.710938 -28.238281 2.957031 -28.328125 1.9375 -28.328125 C 1.84375 -28.328125 1.796875 -28.414062 1.796875 -28.59375 C 1.796875 -28.78125 1.84375 -28.875 1.9375 -28.875 L 21.15625 -28.875 C 21.46875 -28.875 21.625 -28.738281 21.625 -28.46875 L 21.71875 -22.453125 C 21.71875 -22.390625 21.628906 -22.34375 21.453125 -22.3125 C 21.285156 -22.28125 21.1875 -22.3125 21.15625 -22.40625 C 20.414062 -25.914062 18.273438 -27.671875 14.734375 -27.671875 L 12.890625 -27.671875 C 11.785156 -27.671875 11 -27.46875 10.53125 -27.0625 C 10.070312 -26.664062 9.84375 -25.992188 9.84375 -25.046875 L 9.84375 -15.609375 L 14.28125 -15.609375 C 17.664062 -15.609375 19.359375 -16.75 19.359375 -19.03125 C 19.359375 -19.125 19.441406 -19.171875 19.609375 -19.171875 C 19.785156 -19.171875 19.875 -19.125 19.875 -19.03125 L 19.828125 -15.015625 L 19.875 -12.84375 C 19.925781 -11.851562 19.953125 -11.050781 19.953125 -10.4375 C 19.953125 -10.375 19.859375 -10.34375 19.671875 -10.34375 C 19.492188 -10.34375 19.40625 -10.375 19.40625 -10.4375 C 19.40625 -13.09375 17.679688 -14.421875 14.234375 -14.421875 L 9.84375 -14.421875 L 9.84375 -3.921875 C 9.84375 -2.910156 10.035156 -2.203125 10.421875 -1.796875 C 10.804688 -1.398438 11.488281 -1.203125 12.46875 -1.203125 L 14.734375 -1.203125 C 18.867188 -1.203125 21.488281 -3.203125 22.59375 -7.203125 Z M 22.59375 -7.203125 "/></g></g><g style="fill:#ffffff;fill-opacity:1;"><g transform="translate(240.933678, 185.706494)"><path style="stroke:none" d="M 7.578125 -23.984375 C 7.578125 -22.835938 7.859375 -21.828125 8.421875 -20.953125 C 8.992188 -20.078125 9.703125 -19.316406 10.546875 -18.671875 C 11.398438 -18.023438 12.550781 -17.253906 14 -16.359375 C 15.570312 -15.367188 16.8125 -14.519531 17.71875 -13.8125 C 18.625 -13.101562 19.390625 -12.234375 20.015625 -11.203125 C 20.648438 -10.171875 20.96875 -8.960938 20.96875 -7.578125 C 20.96875 -6.003906 20.5625 -4.601562 19.75 -3.375 C 18.9375 -2.144531 17.78125 -1.179688 16.28125 -0.484375 C 14.789062 0.203125 13.09375 0.546875 11.1875 0.546875 C 9.882812 0.546875 8.546875 0.375 7.171875 0.03125 C 5.804688 -0.300781 4.769531 -0.710938 4.0625 -1.203125 C 3.789062 -1.390625 3.640625 -1.679688 3.609375 -2.078125 L 3.328125 -9.109375 L 3.328125 -9.140625 C 3.328125 -9.265625 3.398438 -9.332031 3.546875 -9.34375 C 3.703125 -9.363281 3.796875 -9.3125 3.828125 -9.1875 C 4.847656 -6.632812 6.007812 -4.539062 7.3125 -2.90625 C 8.625 -1.28125 10.300781 -0.46875 12.34375 -0.46875 C 13.664062 -0.46875 14.769531 -0.828125 15.65625 -1.546875 C 16.550781 -2.273438 17 -3.484375 17 -5.171875 C 17 -6.523438 16.695312 -7.707031 16.09375 -8.71875 C 15.5 -9.738281 14.757812 -10.585938 13.875 -11.265625 C 13 -11.953125 11.804688 -12.785156 10.296875 -13.765625 C 8.816406 -14.722656 7.660156 -15.53125 6.828125 -16.1875 C 6.003906 -16.851562 5.296875 -17.671875 4.703125 -18.640625 C 4.117188 -19.609375 3.828125 -20.738281 3.828125 -22.03125 C 3.828125 -23.632812 4.273438 -24.988281 5.171875 -26.09375 C 6.066406 -27.207031 7.226562 -28.035156 8.65625 -28.578125 C 10.09375 -29.117188 11.597656 -29.390625 13.171875 -29.390625 C 14.210938 -29.390625 15.253906 -29.285156 16.296875 -29.078125 C 17.347656 -28.878906 18.226562 -28.628906 18.9375 -28.328125 C 19.40625 -28.140625 19.640625 -27.84375 19.640625 -27.4375 L 19.78125 -21.15625 C 19.78125 -21.0625 19.691406 -21 19.515625 -20.96875 C 19.347656 -20.945312 19.25 -20.976562 19.21875 -21.0625 C 18.601562 -22.945312 17.78125 -24.648438 16.75 -26.171875 C 15.71875 -27.703125 14.171875 -28.46875 12.109375 -28.46875 C 10.722656 -28.46875 9.617188 -28.066406 8.796875 -27.265625 C 7.984375 -26.460938 7.578125 -25.367188 7.578125 -23.984375 Z M 7.578125 -23.984375 "/></g></g><g style="fill:#ffffff;fill-opacity:1;"><g transform="translate(264.35461, 185.706494)"><path style="stroke:none" d="M 9.75 -27.90625 C 7.875 -27.90625 6.328125 -27.328125 5.109375 -26.171875 C 3.890625 -25.015625 2.957031 -23.269531 2.3125 -20.9375 C 2.3125 -20.875 2.222656 -20.84375 2.046875 -20.84375 C 1.878906 -20.84375 1.796875 -20.882812 1.796875 -20.96875 C 1.921875 -22.175781 2.0625 -23.726562 2.21875 -25.625 C 2.375 -27.519531 2.453125 -28.941406 2.453125 -29.890625 C 2.453125 -30.046875 2.535156 -30.125 2.703125 -30.125 C 2.867188 -30.125 2.953125 -30.046875 2.953125 -29.890625 C 2.953125 -29.210938 3.816406 -28.875 5.546875 -28.875 C 8.191406 -28.78125 11.285156 -28.734375 14.828125 -28.734375 C 16.648438 -28.734375 18.578125 -28.765625 20.609375 -28.828125 L 23.75 -28.875 C 24.914062 -28.875 25.769531 -28.953125 26.3125 -29.109375 C 26.851562 -29.265625 27.203125 -29.570312 27.359375 -30.03125 C 27.390625 -30.15625 27.476562 -30.21875 27.625 -30.21875 C 27.78125 -30.21875 27.859375 -30.15625 27.859375 -30.03125 C 27.765625 -29.070312 27.671875 -27.625 27.578125 -25.6875 C 27.484375 -23.75 27.4375 -22.175781 27.4375 -20.96875 C 27.4375 -20.882812 27.351562 -20.84375 27.1875 -20.84375 C 27.019531 -20.84375 26.921875 -20.882812 26.890625 -20.96875 C 26.578125 -23.34375 25.851562 -25.09375 24.71875 -26.21875 C 23.582031 -27.34375 22.039062 -27.90625 20.09375 -27.90625 C 19.226562 -27.90625 18.585938 -27.828125 18.171875 -27.671875 C 17.765625 -27.515625 17.488281 -27.242188 17.34375 -26.859375 C 17.207031 -26.484375 17.140625 -25.878906 17.140625 -25.046875 L 17.140625 -3.75 C 17.140625 -2.789062 17.234375 -2.09375 17.421875 -1.65625 C 17.609375 -1.226562 17.976562 -0.9375 18.53125 -0.78125 C 19.082031 -0.625 19.957031 -0.546875 21.15625 -0.546875 C 21.25 -0.546875 21.296875 -0.453125 21.296875 -0.265625 C 21.296875 -0.0859375 21.25 0 21.15625 0 C 20.082031 0 19.238281 -0.015625 18.625 -0.046875 L 14.828125 -0.09375 L 11.234375 -0.046875 C 10.578125 -0.015625 9.679688 0 8.546875 0 C 8.484375 0 8.453125 -0.0859375 8.453125 -0.265625 C 8.453125 -0.453125 8.484375 -0.546875 8.546875 -0.546875 C 9.742188 -0.546875 10.628906 -0.625 11.203125 -0.78125 C 11.773438 -0.9375 12.160156 -1.238281 12.359375 -1.6875 C 12.554688 -2.132812 12.65625 -2.820312 12.65625 -3.75 L 12.65625 -25.140625 C 12.65625 -25.929688 12.578125 -26.507812 12.421875 -26.875 C 12.273438 -27.25 12 -27.515625 11.59375 -27.671875 C 11.195312 -27.828125 10.582031 -27.90625 9.75 -27.90625 Z M 9.75 -27.90625 "/></g></g><path style="fill:none;stroke-width:3;stroke-linecap:butt;stroke-linejoin:miter;stroke:#ffffff;stroke-opacity:1;stroke-miterlimit:4;" d="M -0.00000441667 1.499001 L 399.942729 1.499001 " transform="matrix(0.75,0,0,0.75,0.0000033125,197.660906)"/><g style="fill:#ffffff;fill-opacity:1;"><g transform="translate(0.285746, 214.384401)"><path style="stroke:none" d="M 2.9375 -9.1875 C 2.3125 -9.1875 1.828125 -9.015625 1.484375 -8.671875 C 1.148438 -8.335938 0.910156 -7.785156 0.765625 -7.015625 C 0.753906 -6.984375 0.71875 -6.96875 0.65625 -6.96875 C 0.601562 -6.976562 0.578125 -6.992188 0.578125 -7.015625 C 0.617188 -7.296875 0.660156 -7.75 0.703125 -8.375 C 0.753906 -9.007812 0.78125 -9.488281 0.78125 -9.8125 C 0.78125 -9.851562 0.8125 -9.875 0.875 -9.875 C 0.9375 -9.875 0.96875 -9.851562 0.96875 -9.8125 C 0.96875 -9.582031 1.238281 -9.46875 1.78125 -9.46875 C 2.65625 -9.4375 3.671875 -9.421875 4.828125 -9.421875 C 5.429688 -9.421875 6.066406 -9.429688 6.734375 -9.453125 L 7.765625 -9.46875 C 8.128906 -9.46875 8.398438 -9.492188 8.578125 -9.546875 C 8.753906 -9.597656 8.863281 -9.703125 8.90625 -9.859375 C 8.914062 -9.890625 8.945312 -9.90625 9 -9.90625 C 9.050781 -9.90625 9.078125 -9.890625 9.078125 -9.859375 C 9.046875 -9.554688 9.015625 -9.097656 8.984375 -8.484375 C 8.953125 -7.878906 8.9375 -7.390625 8.9375 -7.015625 C 8.9375 -6.992188 8.910156 -6.984375 8.859375 -6.984375 C 8.804688 -6.984375 8.773438 -6.992188 8.765625 -7.015625 C 8.722656 -7.796875 8.539062 -8.351562 8.21875 -8.6875 C 7.90625 -9.019531 7.414062 -9.1875 6.75 -9.1875 C 6.34375 -9.1875 6.050781 -9.164062 5.875 -9.125 C 5.695312 -9.082031 5.570312 -8.992188 5.5 -8.859375 C 5.4375 -8.734375 5.40625 -8.519531 5.40625 -8.21875 L 5.40625 -1.234375 C 5.40625 -0.921875 5.4375 -0.691406 5.5 -0.546875 C 5.570312 -0.398438 5.707031 -0.300781 5.90625 -0.25 C 6.101562 -0.207031 6.414062 -0.1875 6.84375 -0.1875 C 6.863281 -0.1875 6.875 -0.15625 6.875 -0.09375 C 6.875 -0.03125 6.863281 0 6.84375 0 C 6.5 0 6.226562 -0.00390625 6.03125 -0.015625 L 4.828125 -0.03125 L 3.6875 -0.015625 C 3.476562 -0.00390625 3.191406 0 2.828125 0 C 2.804688 0 2.796875 -0.03125 2.796875 -0.09375 C 2.796875 -0.15625 2.804688 -0.1875 2.828125 -0.1875 C 3.253906 -0.1875 3.566406 -0.207031 3.765625 -0.25 C 3.972656 -0.300781 4.113281 -0.398438 4.1875 -0.546875 C 4.257812 -0.691406 4.296875 -0.921875 4.296875 -1.234375 L 4.296875 -8.25 C 4.296875 -8.539062 4.257812 -8.75 4.1875 -8.875 C 4.125 -9 4.003906 -9.082031 3.828125 -9.125 C 3.648438 -9.164062 3.351562 -9.1875 2.9375 -9.1875 Z M 2.9375 -9.1875 "/></g></g><g style="fill:#ffffff;fill-opacity:1;"><g transform="translate(9.917546, 214.384401)"><path style="stroke:none" d="M 7.265625 -2.28125 C 7.265625 -2.300781 7.289062 -2.304688 7.34375 -2.296875 C 7.40625 -2.296875 7.4375 -2.285156 7.4375 -2.265625 C 7.351562 -1.597656 7.3125 -0.921875 7.3125 -0.234375 C 7.3125 -0.148438 7.289062 -0.0859375 7.25 -0.046875 C 7.21875 -0.015625 7.15625 0 7.0625 0 L 0.65625 0 C 0.632812 0 0.625 -0.03125 0.625 -0.09375 C 0.625 -0.15625 0.632812 -0.1875 0.65625 -0.1875 C 1.03125 -0.1875 1.300781 -0.207031 1.46875 -0.25 C 1.644531 -0.300781 1.757812 -0.398438 1.8125 -0.546875 C 1.875 -0.691406 1.90625 -0.921875 1.90625 -1.234375 L 1.90625 -8.25 C 1.90625 -8.550781 1.875 -8.769531 1.8125 -8.90625 C 1.757812 -9.050781 1.644531 -9.148438 1.46875 -9.203125 C 1.300781 -9.265625 1.03125 -9.296875 0.65625 -9.296875 C 0.632812 -9.296875 0.625 -9.320312 0.625 -9.375 C 0.625 -9.4375 0.632812 -9.46875 0.65625 -9.46875 L 6.8125 -9.46875 C 6.894531 -9.46875 6.9375 -9.425781 6.9375 -9.34375 L 6.96875 -7.4375 C 6.96875 -7.40625 6.941406 -7.390625 6.890625 -7.390625 C 6.835938 -7.390625 6.8125 -7.40625 6.8125 -7.4375 C 6.75 -7.988281 6.5625 -8.410156 6.25 -8.703125 C 5.9375 -8.992188 5.523438 -9.140625 5.015625 -9.140625 L 4.1875 -9.140625 C 3.707031 -9.140625 3.390625 -9.070312 3.234375 -8.9375 C 3.085938 -8.8125 3.015625 -8.5625 3.015625 -8.1875 L 3.015625 -5.09375 L 4.765625 -5.09375 C 5.265625 -5.09375 5.628906 -5.175781 5.859375 -5.34375 C 6.085938 -5.519531 6.203125 -5.800781 6.203125 -6.1875 C 6.203125 -6.207031 6.226562 -6.21875 6.28125 -6.21875 C 6.34375 -6.21875 6.375 -6.207031 6.375 -6.1875 L 6.359375 -4.921875 C 6.359375 -4.628906 6.363281 -4.410156 6.375 -4.265625 L 6.390625 -3.5 C 6.390625 -3.476562 6.359375 -3.46875 6.296875 -3.46875 C 6.242188 -3.46875 6.21875 -3.476562 6.21875 -3.5 C 6.21875 -3.945312 6.097656 -4.269531 5.859375 -4.46875 C 5.628906 -4.664062 5.253906 -4.765625 4.734375 -4.765625 L 3.015625 -4.765625 L 3.015625 -1.28125 C 3.015625 -1.019531 3.046875 -0.820312 3.109375 -0.6875 C 3.171875 -0.5625 3.273438 -0.46875 3.421875 -0.40625 C 3.578125 -0.351562 3.8125 -0.328125 4.125 -0.328125 L 5.203125 -0.328125 C 5.734375 -0.328125 6.175781 -0.492188 6.53125 -0.828125 C 6.882812 -1.171875 7.128906 -1.65625 7.265625 -2.28125 Z M 7.265625 -2.28125 "/></g></g><g style="fill:#ffffff;fill-opacity:1;"><g transform="translate(18.095481, 214.384401)"><path style="stroke:none" d="M 6.28125 -9.640625 C 6.882812 -9.640625 7.40625 -9.59375 7.84375 -9.5 C 8.28125 -9.414062 8.710938 -9.273438 9.140625 -9.078125 C 9.210938 -9.035156 9.253906 -8.992188 9.265625 -8.953125 C 9.285156 -8.921875 9.300781 -8.847656 9.3125 -8.734375 L 9.5 -6.875 C 9.5 -6.84375 9.472656 -6.820312 9.421875 -6.8125 C 9.367188 -6.8125 9.335938 -6.828125 9.328125 -6.859375 C 8.828125 -8.546875 7.78125 -9.390625 6.1875 -9.390625 C 5.363281 -9.390625 4.640625 -9.203125 4.015625 -8.828125 C 3.390625 -8.460938 2.898438 -7.929688 2.546875 -7.234375 C 2.203125 -6.546875 2.03125 -5.738281 2.03125 -4.8125 C 2.03125 -3.925781 2.21875 -3.117188 2.59375 -2.390625 C 2.976562 -1.660156 3.492188 -1.085938 4.140625 -0.671875 C 4.785156 -0.265625 5.492188 -0.0625 6.265625 -0.0625 C 7.054688 -0.0625 7.707031 -0.257812 8.21875 -0.65625 C 8.726562 -1.0625 9.132812 -1.679688 9.4375 -2.515625 C 9.445312 -2.546875 9.476562 -2.554688 9.53125 -2.546875 C 9.582031 -2.535156 9.609375 -2.519531 9.609375 -2.5 L 9.453125 -0.796875 C 9.429688 -0.679688 9.410156 -0.601562 9.390625 -0.5625 C 9.378906 -0.53125 9.34375 -0.492188 9.28125 -0.453125 C 8.757812 -0.210938 8.265625 -0.046875 7.796875 0.046875 C 7.335938 0.148438 6.820312 0.203125 6.25 0.203125 C 5.1875 0.203125 4.238281 -0.00390625 3.40625 -0.421875 C 2.570312 -0.847656 1.921875 -1.4375 1.453125 -2.1875 C 0.984375 -2.9375 0.75 -3.800781 0.75 -4.78125 C 0.75 -5.726562 0.984375 -6.566406 1.453125 -7.296875 C 1.929688 -8.035156 2.59375 -8.609375 3.4375 -9.015625 C 4.28125 -9.429688 5.226562 -9.640625 6.28125 -9.640625 Z M 6.28125 -9.640625 "/></g></g><g style="fill:#ffffff;fill-opacity:1;"><g transform="translate(28.469356, 214.384401)"><path style="stroke:none" d="M 10.96875 -0.1875 C 11 -0.1875 11.015625 -0.15625 11.015625 -0.09375 C 11.015625 -0.03125 11 0 10.96875 0 C 10.644531 0 10.394531 -0.00390625 10.21875 -0.015625 L 9.140625 -0.03125 L 7.96875 -0.015625 C 7.800781 -0.00390625 7.566406 0 7.265625 0 C 7.234375 0 7.21875 -0.03125 7.21875 -0.09375 C 7.21875 -0.15625 7.234375 -0.1875 7.265625 -0.1875 C 7.648438 -0.1875 7.929688 -0.207031 8.109375 -0.25 C 8.285156 -0.300781 8.40625 -0.398438 8.46875 -0.546875 C 8.539062 -0.691406 8.578125 -0.921875 8.578125 -1.234375 L 8.578125 -4.765625 L 2.921875 -4.765625 L 2.921875 -1.234375 C 2.921875 -0.921875 2.953125 -0.691406 3.015625 -0.546875 C 3.085938 -0.398438 3.210938 -0.300781 3.390625 -0.25 C 3.566406 -0.207031 3.851562 -0.1875 4.25 -0.1875 C 4.269531 -0.1875 4.28125 -0.15625 4.28125 -0.09375 C 4.28125 -0.03125 4.269531 0 4.25 0 C 3.925781 0 3.671875 -0.00390625 3.484375 -0.015625 L 2.34375 -0.03125 L 1.28125 -0.015625 C 1.101562 -0.00390625 0.847656 0 0.515625 0 C 0.492188 0 0.484375 -0.03125 0.484375 -0.09375 C 0.484375 -0.15625 0.492188 -0.1875 0.515625 -0.1875 C 0.898438 -0.1875 1.179688 -0.207031 1.359375 -0.25 C 1.535156 -0.300781 1.65625 -0.398438 1.71875 -0.546875 C 1.78125 -0.691406 1.8125 -0.921875 1.8125 -1.234375 L 1.8125 -8.25 C 1.8125 -8.550781 1.78125 -8.769531 1.71875 -8.90625 C 1.65625 -9.050781 1.535156 -9.148438 1.359375 -9.203125 C 1.179688 -9.265625 0.90625 -9.296875 0.53125 -9.296875 C 0.507812 -9.296875 0.5 -9.320312 0.5 -9.375 C 0.5 -9.4375 0.507812 -9.46875 0.53125 -9.46875 L 1.296875 -9.453125 C 1.722656 -9.429688 2.070312 -9.421875 2.34375 -9.421875 C 2.644531 -9.421875 3.03125 -9.429688 3.5 -9.453125 L 4.25 -9.46875 C 4.269531 -9.46875 4.28125 -9.4375 4.28125 -9.375 C 4.28125 -9.320312 4.269531 -9.296875 4.25 -9.296875 C 3.863281 -9.296875 3.578125 -9.265625 3.390625 -9.203125 C 3.210938 -9.140625 3.085938 -9.035156 3.015625 -8.890625 C 2.953125 -8.742188 2.921875 -8.519531 2.921875 -8.21875 L 2.921875 -5.09375 L 8.578125 -5.09375 L 8.578125 -8.21875 C 8.578125 -8.519531 8.539062 -8.742188 8.46875 -8.890625 C 8.40625 -9.035156 8.28125 -9.140625 8.09375 -9.203125 C 7.914062 -9.265625 7.640625 -9.296875 7.265625 -9.296875 C 7.234375 -9.296875 7.21875 -9.320312 7.21875 -9.375 C 7.21875 -9.4375 7.234375 -9.46875 7.265625 -9.46875 L 7.96875 -9.453125 C 8.414062 -9.429688 8.804688 -9.421875 9.140625 -9.421875 C 9.410156 -9.421875 9.769531 -9.429688 10.21875 -9.453125 L 10.96875 -9.46875 C 11 -9.46875 11.015625 -9.4375 11.015625 -9.375 C 11.015625 -9.320312 11 -9.296875 10.96875 -9.296875 C 10.582031 -9.296875 10.300781 -9.265625 10.125 -9.203125 C 9.945312 -9.148438 9.828125 -9.050781 9.765625 -8.90625 C 9.703125 -8.769531 9.671875 -8.550781 9.671875 -8.25 L 9.671875 -1.234375 C 9.671875 -0.921875 9.703125 -0.691406 9.765625 -0.546875 C 9.828125 -0.398438 9.945312 -0.300781 10.125 -0.25 C 10.300781 -0.207031 10.582031 -0.1875 10.96875 -0.1875 Z M 10.96875 -0.1875 "/></g></g><g style="fill:#ffffff;fill-opacity:1;"><g transform="translate(39.97904, 214.384401)"><path style="stroke:none" d="M 10.71875 -9.46875 C 10.75 -9.46875 10.765625 -9.4375 10.765625 -9.375 C 10.765625 -9.320312 10.75 -9.296875 10.71875 -9.296875 C 10.300781 -9.296875 9.992188 -9.171875 9.796875 -8.921875 C 9.597656 -8.671875 9.5 -8.285156 9.5 -7.765625 L 9.5 0.1875 C 9.5 0.21875 9.472656 0.234375 9.421875 0.234375 C 9.367188 0.242188 9.335938 0.242188 9.328125 0.234375 L 2.265625 -8.234375 L 2.21875 -8.296875 L 2.21875 -1.703125 C 2.21875 -1.171875 2.3125 -0.785156 2.5 -0.546875 C 2.6875 -0.304688 2.984375 -0.1875 3.390625 -0.1875 C 3.421875 -0.1875 3.4375 -0.15625 3.4375 -0.09375 C 3.4375 -0.03125 3.421875 0 3.390625 0 C 3.148438 0 2.957031 -0.00390625 2.8125 -0.015625 L 2.046875 -0.03125 L 1.25 -0.015625 C 1.09375 -0.00390625 0.875 0 0.59375 0 C 0.570312 0 0.5625 -0.03125 0.5625 -0.09375 C 0.5625 -0.15625 0.570312 -0.1875 0.59375 -0.1875 C 1.03125 -0.1875 1.34375 -0.304688 1.53125 -0.546875 C 1.726562 -0.785156 1.828125 -1.171875 1.828125 -1.703125 L 1.828125 -8.6875 C 1.421875 -9.09375 1.003906 -9.296875 0.578125 -9.296875 C 0.546875 -9.296875 0.53125 -9.320312 0.53125 -9.375 C 0.53125 -9.4375 0.546875 -9.46875 0.578125 -9.46875 L 1.140625 -9.453125 C 1.253906 -9.441406 1.425781 -9.4375 1.65625 -9.4375 L 2.359375 -9.453125 C 2.441406 -9.460938 2.550781 -9.46875 2.6875 -9.46875 C 2.757812 -9.46875 2.8125 -9.445312 2.84375 -9.40625 C 2.882812 -9.375 2.945312 -9.300781 3.03125 -9.1875 C 3.15625 -9 3.273438 -8.832031 3.390625 -8.6875 L 9.125 -1.75 L 9.125 -7.765625 C 9.125 -8.285156 9.03125 -8.671875 8.84375 -8.921875 C 8.664062 -9.171875 8.367188 -9.296875 7.953125 -9.296875 C 7.929688 -9.296875 7.921875 -9.320312 7.921875 -9.375 C 7.921875 -9.4375 7.929688 -9.46875 7.953125 -9.46875 L 8.546875 -9.453125 C 8.867188 -9.429688 9.128906 -9.421875 9.328125 -9.421875 C 9.515625 -9.421875 9.769531 -9.429688 10.09375 -9.453125 Z M 10.71875 -9.46875 "/></g></g><g style="fill:#ffffff;fill-opacity:1;"><g transform="translate(51.004115, 214.384401)"><path style="stroke:none" d="M 3.09375 -1.234375 C 3.09375 -0.921875 3.125 -0.691406 3.1875 -0.546875 C 3.25 -0.398438 3.363281 -0.300781 3.53125 -0.25 C 3.707031 -0.207031 3.976562 -0.1875 4.34375 -0.1875 C 4.363281 -0.1875 4.375 -0.15625 4.375 -0.09375 C 4.375 -0.03125 4.363281 0 4.34375 0 C 4.03125 0 3.785156 -0.00390625 3.609375 -0.015625 L 2.515625 -0.03125 L 1.46875 -0.015625 C 1.28125 -0.00390625 1.023438 0 0.703125 0 C 0.671875 0 0.65625 -0.03125 0.65625 -0.09375 C 0.65625 -0.15625 0.671875 -0.1875 0.703125 -0.1875 C 1.078125 -0.1875 1.347656 -0.207031 1.515625 -0.25 C 1.679688 -0.300781 1.796875 -0.398438 1.859375 -0.546875 C 1.929688 -0.691406 1.96875 -0.921875 1.96875 -1.234375 L 1.96875 -8.25 C 1.96875 -8.550781 1.929688 -8.769531 1.859375 -8.90625 C 1.796875 -9.050781 1.679688 -9.148438 1.515625 -9.203125 C 1.347656 -9.265625 1.078125 -9.296875 0.703125 -9.296875 C 0.671875 -9.296875 0.65625 -9.320312 0.65625 -9.375 C 0.65625 -9.4375 0.671875 -9.46875 0.703125 -9.46875 L 1.46875 -9.453125 C 1.894531 -9.429688 2.242188 -9.421875 2.515625 -9.421875 C 2.804688 -9.421875 3.175781 -9.429688 3.625 -9.453125 L 4.34375 -9.46875 C 4.363281 -9.46875 4.375 -9.4375 4.375 -9.375 C 4.375 -9.320312 4.363281 -9.296875 4.34375 -9.296875 C 3.976562 -9.296875 3.707031 -9.265625 3.53125 -9.203125 C 3.363281 -9.140625 3.25 -9.035156 3.1875 -8.890625 C 3.125 -8.742188 3.09375 -8.519531 3.09375 -8.21875 Z M 3.09375 -1.234375 "/></g></g><g style="fill:#ffffff;fill-opacity:1;"><g transform="translate(56.062319, 214.384401)"><path style="stroke:none" d="M 6.28125 -9.640625 C 6.882812 -9.640625 7.40625 -9.59375 7.84375 -9.5 C 8.28125 -9.414062 8.710938 -9.273438 9.140625 -9.078125 C 9.210938 -9.035156 9.253906 -8.992188 9.265625 -8.953125 C 9.285156 -8.921875 9.300781 -8.847656 9.3125 -8.734375 L 9.5 -6.875 C 9.5 -6.84375 9.472656 -6.820312 9.421875 -6.8125 C 9.367188 -6.8125 9.335938 -6.828125 9.328125 -6.859375 C 8.828125 -8.546875 7.78125 -9.390625 6.1875 -9.390625 C 5.363281 -9.390625 4.640625 -9.203125 4.015625 -8.828125 C 3.390625 -8.460938 2.898438 -7.929688 2.546875 -7.234375 C 2.203125 -6.546875 2.03125 -5.738281 2.03125 -4.8125 C 2.03125 -3.925781 2.21875 -3.117188 2.59375 -2.390625 C 2.976562 -1.660156 3.492188 -1.085938 4.140625 -0.671875 C 4.785156 -0.265625 5.492188 -0.0625 6.265625 -0.0625 C 7.054688 -0.0625 7.707031 -0.257812 8.21875 -0.65625 C 8.726562 -1.0625 9.132812 -1.679688 9.4375 -2.515625 C 9.445312 -2.546875 9.476562 -2.554688 9.53125 -2.546875 C 9.582031 -2.535156 9.609375 -2.519531 9.609375 -2.5 L 9.453125 -0.796875 C 9.429688 -0.679688 9.410156 -0.601562 9.390625 -0.5625 C 9.378906 -0.53125 9.34375 -0.492188 9.28125 -0.453125 C 8.757812 -0.210938 8.265625 -0.046875 7.796875 0.046875 C 7.335938 0.148438 6.820312 0.203125 6.25 0.203125 C 5.1875 0.203125 4.238281 -0.00390625 3.40625 -0.421875 C 2.570312 -0.847656 1.921875 -1.4375 1.453125 -2.1875 C 0.984375 -2.9375 0.75 -3.800781 0.75 -4.78125 C 0.75 -5.726562 0.984375 -6.566406 1.453125 -7.296875 C 1.929688 -8.035156 2.59375 -8.609375 3.4375 -9.015625 C 4.28125 -9.429688 5.226562 -9.640625 6.28125 -9.640625 Z M 6.28125 -9.640625 "/></g></g><g style="fill:#ffffff;fill-opacity:1;"><g transform="translate(66.436194, 214.384401)"><path style="stroke:none" d="M 10.640625 -0.1875 C 10.679688 -0.1875 10.703125 -0.15625 10.703125 -0.09375 C 10.703125 -0.03125 10.679688 0 10.640625 0 C 10.453125 0 10.15625 -0.0078125 9.75 -0.03125 C 9.34375 -0.0507812 9.039062 -0.0625 8.84375 -0.0625 C 8.613281 -0.0625 8.328125 -0.0507812 7.984375 -0.03125 C 7.660156 -0.0078125 7.410156 0 7.234375 0 C 7.191406 0 7.171875 -0.03125 7.171875 -0.09375 C 7.171875 -0.15625 7.191406 -0.1875 7.234375 -0.1875 C 7.597656 -0.1875 7.859375 -0.21875 8.015625 -0.28125 C 8.171875 -0.34375 8.25 -0.460938 8.25 -0.640625 C 8.25 -0.785156 8.175781 -1.007812 8.03125 -1.3125 L 6.734375 -4.046875 L 3.109375 -4.046875 L 2.21875 -1.96875 C 2.082031 -1.664062 2.015625 -1.390625 2.015625 -1.140625 C 2.015625 -0.503906 2.503906 -0.1875 3.484375 -0.1875 C 3.535156 -0.1875 3.5625 -0.15625 3.5625 -0.09375 C 3.5625 -0.03125 3.535156 0 3.484375 0 C 3.304688 0 3.046875 -0.0078125 2.703125 -0.03125 C 2.316406 -0.0507812 1.984375 -0.0625 1.703125 -0.0625 C 1.441406 -0.0625 1.128906 -0.0507812 0.765625 -0.03125 C 0.460938 -0.0078125 0.207031 0 0 0 C -0.0507812 0 -0.078125 -0.03125 -0.078125 -0.09375 C -0.078125 -0.15625 -0.0507812 -0.1875 0 -0.1875 C 0.28125 -0.1875 0.519531 -0.238281 0.71875 -0.34375 C 0.914062 -0.445312 1.101562 -0.632812 1.28125 -0.90625 C 1.46875 -1.175781 1.671875 -1.578125 1.890625 -2.109375 L 5.09375 -9.59375 C 5.113281 -9.625 5.15625 -9.640625 5.21875 -9.640625 C 5.28125 -9.640625 5.3125 -9.625 5.3125 -9.59375 L 8.921875 -2.078125 C 9.265625 -1.335938 9.554688 -0.835938 9.796875 -0.578125 C 10.046875 -0.316406 10.328125 -0.1875 10.640625 -0.1875 Z M 3.25 -4.359375 L 6.578125 -4.359375 L 4.8125 -8.03125 Z M 3.25 -4.359375 "/></g></g><g style="fill:#ffffff;fill-opacity:1;"><g transform="translate(77.097803, 214.384401)"><path style="stroke:none" d="M 2.875 -1.28125 C 2.875 -1 2.898438 -0.789062 2.953125 -0.65625 C 3.015625 -0.53125 3.125 -0.441406 3.28125 -0.390625 C 3.4375 -0.347656 3.6875 -0.328125 4.03125 -0.328125 L 5.484375 -0.328125 C 6.085938 -0.328125 6.582031 -0.507812 6.96875 -0.875 C 7.363281 -1.25 7.625 -1.753906 7.75 -2.390625 C 7.75 -2.421875 7.773438 -2.429688 7.828125 -2.421875 C 7.878906 -2.421875 7.90625 -2.40625 7.90625 -2.375 C 7.820312 -1.519531 7.78125 -0.804688 7.78125 -0.234375 C 7.78125 -0.148438 7.765625 -0.0859375 7.734375 -0.046875 C 7.703125 -0.015625 7.640625 0 7.546875 0 L 0.515625 0 C 0.492188 0 0.484375 -0.03125 0.484375 -0.09375 C 0.484375 -0.15625 0.492188 -0.1875 0.515625 -0.1875 C 0.890625 -0.1875 1.160156 -0.207031 1.328125 -0.25 C 1.503906 -0.300781 1.617188 -0.398438 1.671875 -0.546875 C 1.734375 -0.691406 1.765625 -0.921875 1.765625 -1.234375 L 1.765625 -8.25 C 1.765625 -8.550781 1.734375 -8.769531 1.671875 -8.90625 C 1.617188 -9.050781 1.503906 -9.148438 1.328125 -9.203125 C 1.160156 -9.265625 0.890625 -9.296875 0.515625 -9.296875 C 0.492188 -9.296875 0.484375 -9.320312 0.484375 -9.375 C 0.484375 -9.4375 0.492188 -9.46875 0.515625 -9.46875 L 1.265625 -9.453125 C 1.691406 -9.429688 2.039062 -9.421875 2.3125 -9.421875 C 2.613281 -9.421875 2.972656 -9.429688 3.390625 -9.453125 L 4.140625 -9.46875 C 4.160156 -9.46875 4.171875 -9.4375 4.171875 -9.375 C 4.171875 -9.320312 4.160156 -9.296875 4.140625 -9.296875 C 3.773438 -9.296875 3.503906 -9.265625 3.328125 -9.203125 C 3.148438 -9.148438 3.03125 -9.050781 2.96875 -8.90625 C 2.90625 -8.757812 2.875 -8.535156 2.875 -8.234375 Z M 2.875 -1.28125 "/></g></g><g style="fill:#ffffff;fill-opacity:1;"><g transform="translate(85.200023, 214.384401)"><path style="stroke:none" d=""/></g></g><g style="fill:#ffffff;fill-opacity:1;"><g transform="translate(88.743791, 214.384401)"><path style="stroke:none" d="M 6.28125 -9.640625 C 6.882812 -9.640625 7.40625 -9.59375 7.84375 -9.5 C 8.28125 -9.414062 8.710938 -9.273438 9.140625 -9.078125 C 9.210938 -9.035156 9.253906 -8.992188 9.265625 -8.953125 C 9.285156 -8.921875 9.300781 -8.847656 9.3125 -8.734375 L 9.5 -6.875 C 9.5 -6.84375 9.472656 -6.820312 9.421875 -6.8125 C 9.367188 -6.8125 9.335938 -6.828125 9.328125 -6.859375 C 8.828125 -8.546875 7.78125 -9.390625 6.1875 -9.390625 C 5.363281 -9.390625 4.640625 -9.203125 4.015625 -8.828125 C 3.390625 -8.460938 2.898438 -7.929688 2.546875 -7.234375 C 2.203125 -6.546875 2.03125 -5.738281 2.03125 -4.8125 C 2.03125 -3.925781 2.21875 -3.117188 2.59375 -2.390625 C 2.976562 -1.660156 3.492188 -1.085938 4.140625 -0.671875 C 4.785156 -0.265625 5.492188 -0.0625 6.265625 -0.0625 C 7.054688 -0.0625 7.707031 -0.257812 8.21875 -0.65625 C 8.726562 -1.0625 9.132812 -1.679688 9.4375 -2.515625 C 9.445312 -2.546875 9.476562 -2.554688 9.53125 -2.546875 C 9.582031 -2.535156 9.609375 -2.519531 9.609375 -2.5 L 9.453125 -0.796875 C 9.429688 -0.679688 9.410156 -0.601562 9.390625 -0.5625 C 9.378906 -0.53125 9.34375 -0.492188 9.28125 -0.453125 C 8.757812 -0.210938 8.265625 -0.046875 7.796875 0.046875 C 7.335938 0.148438 6.820312 0.203125 6.25 0.203125 C 5.1875 0.203125 4.238281 -0.00390625 3.40625 -0.421875 C 2.570312 -0.847656 1.921875 -1.4375 1.453125 -2.1875 C 0.984375 -2.9375 0.75 -3.800781 0.75 -4.78125 C 0.75 -5.726562 0.984375 -6.566406 1.453125 -7.296875 C 1.929688 -8.035156 2.59375 -8.609375 3.4375 -9.015625 C 4.28125 -9.429688 5.226562 -9.640625 6.28125 -9.640625 Z M 6.28125 -9.640625 "/></g></g><g style="fill:#ffffff;fill-opacity:1;"><g transform="translate(99.117667, 214.384401)"><path style="stroke:none" d="M 5.546875 0.1875 C 4.609375 0.1875 3.769531 -0.03125 3.03125 -0.46875 C 2.300781 -0.914062 1.738281 -1.515625 1.34375 -2.265625 C 0.945312 -3.015625 0.75 -3.835938 0.75 -4.734375 C 0.75 -5.773438 1.007812 -6.664062 1.53125 -7.40625 C 2.050781 -8.144531 2.722656 -8.703125 3.546875 -9.078125 C 4.378906 -9.453125 5.222656 -9.640625 6.078125 -9.640625 C 7.035156 -9.640625 7.878906 -9.414062 8.609375 -8.96875 C 9.335938 -8.519531 9.894531 -7.925781 10.28125 -7.1875 C 10.664062 -6.445312 10.859375 -5.660156 10.859375 -4.828125 C 10.859375 -3.910156 10.613281 -3.066406 10.125 -2.296875 C 9.644531 -1.535156 9 -0.929688 8.1875 -0.484375 C 7.375 -0.0351562 6.492188 0.1875 5.546875 0.1875 Z M 6.078125 -0.15625 C 6.742188 -0.15625 7.34375 -0.320312 7.875 -0.65625 C 8.40625 -0.988281 8.820312 -1.472656 9.125 -2.109375 C 9.4375 -2.753906 9.59375 -3.519531 9.59375 -4.40625 C 9.59375 -5.34375 9.421875 -6.179688 9.078125 -6.921875 C 8.742188 -7.660156 8.265625 -8.238281 7.640625 -8.65625 C 7.015625 -9.070312 6.285156 -9.28125 5.453125 -9.28125 C 4.367188 -9.28125 3.523438 -8.921875 2.921875 -8.203125 C 2.316406 -7.492188 2.015625 -6.515625 2.015625 -5.265625 C 2.015625 -4.304688 2.1875 -3.4375 2.53125 -2.65625 C 2.875 -1.882812 3.351562 -1.273438 3.96875 -0.828125 C 4.582031 -0.378906 5.285156 -0.15625 6.078125 -0.15625 Z M 6.078125 -0.15625 "/></g></g><g style="fill:#ffffff;fill-opacity:1;"><g transform="translate(110.718226, 214.384401)"><path style="stroke:none" d="M 10.71875 -9.46875 C 10.75 -9.46875 10.765625 -9.4375 10.765625 -9.375 C 10.765625 -9.320312 10.75 -9.296875 10.71875 -9.296875 C 10.300781 -9.296875 9.992188 -9.171875 9.796875 -8.921875 C 9.597656 -8.671875 9.5 -8.285156 9.5 -7.765625 L 9.5 0.1875 C 9.5 0.21875 9.472656 0.234375 9.421875 0.234375 C 9.367188 0.242188 9.335938 0.242188 9.328125 0.234375 L 2.265625 -8.234375 L 2.21875 -8.296875 L 2.21875 -1.703125 C 2.21875 -1.171875 2.3125 -0.785156 2.5 -0.546875 C 2.6875 -0.304688 2.984375 -0.1875 3.390625 -0.1875 C 3.421875 -0.1875 3.4375 -0.15625 3.4375 -0.09375 C 3.4375 -0.03125 3.421875 0 3.390625 0 C 3.148438 0 2.957031 -0.00390625 2.8125 -0.015625 L 2.046875 -0.03125 L 1.25 -0.015625 C 1.09375 -0.00390625 0.875 0 0.59375 0 C 0.570312 0 0.5625 -0.03125 0.5625 -0.09375 C 0.5625 -0.15625 0.570312 -0.1875 0.59375 -0.1875 C 1.03125 -0.1875 1.34375 -0.304688 1.53125 -0.546875 C 1.726562 -0.785156 1.828125 -1.171875 1.828125 -1.703125 L 1.828125 -8.6875 C 1.421875 -9.09375 1.003906 -9.296875 0.578125 -9.296875 C 0.546875 -9.296875 0.53125 -9.320312 0.53125 -9.375 C 0.53125 -9.4375 0.546875 -9.46875 0.578125 -9.46875 L 1.140625 -9.453125 C 1.253906 -9.441406 1.425781 -9.4375 1.65625 -9.4375 L 2.359375 -9.453125 C 2.441406 -9.460938 2.550781 -9.46875 2.6875 -9.46875 C 2.757812 -9.46875 2.8125 -9.445312 2.84375 -9.40625 C 2.882812 -9.375 2.945312 -9.300781 3.03125 -9.1875 C 3.15625 -9 3.273438 -8.832031 3.390625 -8.6875 L 9.125 -1.75 L 9.125 -7.765625 C 9.125 -8.285156 9.03125 -8.671875 8.84375 -8.921875 C 8.664062 -9.171875 8.367188 -9.296875 7.953125 -9.296875 C 7.929688 -9.296875 7.921875 -9.320312 7.921875 -9.375 C 7.921875 -9.4375 7.929688 -9.46875 7.953125 -9.46875 L 8.546875 -9.453125 C 8.867188 -9.429688 9.128906 -9.421875 9.328125 -9.421875 C 9.515625 -9.421875 9.769531 -9.429688 10.09375 -9.453125 Z M 10.71875 -9.46875 "/></g></g><g style="fill:#ffffff;fill-opacity:1;"><g transform="translate(121.743301, 214.384401)"><path style="stroke:none" d="M 2.28125 -7.75 C 2.28125 -7.363281 2.375 -7.023438 2.5625 -6.734375 C 2.75 -6.441406 2.976562 -6.191406 3.25 -5.984375 C 3.53125 -5.785156 3.914062 -5.539062 4.40625 -5.25 C 4.925781 -4.9375 5.332031 -4.664062 5.625 -4.4375 C 5.914062 -4.21875 6.164062 -3.941406 6.375 -3.609375 C 6.582031 -3.273438 6.6875 -2.878906 6.6875 -2.421875 C 6.6875 -1.929688 6.5625 -1.488281 6.3125 -1.09375 C 6.0625 -0.695312 5.695312 -0.382812 5.21875 -0.15625 C 4.75 0.0703125 4.191406 0.1875 3.546875 0.1875 C 2.722656 0.1875 1.992188 0.00390625 1.359375 -0.359375 C 1.304688 -0.390625 1.269531 -0.425781 1.25 -0.46875 C 1.238281 -0.507812 1.226562 -0.570312 1.21875 -0.65625 L 1.046875 -2.78125 C 1.035156 -2.8125 1.054688 -2.832031 1.109375 -2.84375 C 1.171875 -2.851562 1.207031 -2.835938 1.21875 -2.796875 C 1.414062 -2.054688 1.726562 -1.421875 2.15625 -0.890625 C 2.59375 -0.359375 3.171875 -0.09375 3.890625 -0.09375 C 4.390625 -0.09375 4.804688 -0.222656 5.140625 -0.484375 C 5.472656 -0.742188 5.640625 -1.171875 5.640625 -1.765625 C 5.640625 -2.222656 5.535156 -2.613281 5.328125 -2.9375 C 5.128906 -3.269531 4.882812 -3.550781 4.59375 -3.78125 C 4.3125 -4.007812 3.921875 -4.269531 3.421875 -4.5625 C 2.929688 -4.875 2.546875 -5.132812 2.265625 -5.34375 C 1.992188 -5.550781 1.757812 -5.8125 1.5625 -6.125 C 1.375 -6.445312 1.28125 -6.828125 1.28125 -7.265625 C 1.28125 -7.773438 1.414062 -8.207031 1.6875 -8.5625 C 1.96875 -8.925781 2.328125 -9.195312 2.765625 -9.375 C 3.210938 -9.550781 3.6875 -9.640625 4.1875 -9.640625 C 4.8125 -9.640625 5.410156 -9.523438 5.984375 -9.296875 C 6.140625 -9.222656 6.21875 -9.128906 6.21875 -9.015625 L 6.3125 -7.203125 C 6.3125 -7.160156 6.28125 -7.132812 6.21875 -7.125 C 6.164062 -7.113281 6.132812 -7.128906 6.125 -7.171875 C 6.019531 -7.703125 5.789062 -8.203125 5.4375 -8.671875 C 5.082031 -9.148438 4.570312 -9.390625 3.90625 -9.390625 C 3.375 -9.390625 2.96875 -9.234375 2.6875 -8.921875 C 2.414062 -8.609375 2.28125 -8.21875 2.28125 -7.75 Z M 2.28125 -7.75 "/></g></g><g style="fill:#ffffff;fill-opacity:1;"><g transform="translate(129.239751, 214.384401)"><path style="stroke:none" d="M 8.671875 -7.765625 C 8.671875 -8.265625 8.554688 -8.644531 8.328125 -8.90625 C 8.097656 -9.164062 7.765625 -9.296875 7.328125 -9.296875 C 7.304688 -9.296875 7.296875 -9.320312 7.296875 -9.375 C 7.296875 -9.4375 7.304688 -9.46875 7.328125 -9.46875 L 8 -9.453125 C 8.34375 -9.429688 8.628906 -9.421875 8.859375 -9.421875 C 9.054688 -9.421875 9.316406 -9.429688 9.640625 -9.453125 L 10.28125 -9.46875 C 10.300781 -9.46875 10.3125 -9.4375 10.3125 -9.375 C 10.3125 -9.320312 10.300781 -9.296875 10.28125 -9.296875 C 9.875 -9.296875 9.566406 -9.164062 9.359375 -8.90625 C 9.160156 -8.644531 9.0625 -8.265625 9.0625 -7.765625 L 9.0625 -3.46875 C 9.0625 -2.332031 8.734375 -1.4375 8.078125 -0.78125 C 7.421875 -0.125 6.539062 0.203125 5.4375 0.203125 C 4.6875 0.203125 4.03125 0.0546875 3.46875 -0.234375 C 2.914062 -0.535156 2.484375 -0.953125 2.171875 -1.484375 C 1.859375 -2.023438 1.703125 -2.660156 1.703125 -3.390625 L 1.703125 -8.25 C 1.703125 -8.550781 1.671875 -8.769531 1.609375 -8.90625 C 1.546875 -9.050781 1.425781 -9.148438 1.25 -9.203125 C 1.082031 -9.265625 0.8125 -9.296875 0.4375 -9.296875 C 0.414062 -9.296875 0.40625 -9.320312 0.40625 -9.375 C 0.40625 -9.4375 0.414062 -9.46875 0.4375 -9.46875 L 1.203125 -9.453125 C 1.640625 -9.429688 1.988281 -9.421875 2.25 -9.421875 C 2.53125 -9.421875 2.890625 -9.429688 3.328125 -9.453125 L 4.046875 -9.46875 C 4.078125 -9.46875 4.09375 -9.4375 4.09375 -9.375 C 4.09375 -9.320312 4.078125 -9.296875 4.046875 -9.296875 C 3.679688 -9.296875 3.410156 -9.265625 3.234375 -9.203125 C 3.066406 -9.140625 2.953125 -9.035156 2.890625 -8.890625 C 2.828125 -8.742188 2.796875 -8.519531 2.796875 -8.21875 L 2.796875 -3.921875 C 2.796875 -2.734375 3.054688 -1.828125 3.578125 -1.203125 C 4.109375 -0.578125 4.851562 -0.265625 5.8125 -0.265625 C 6.71875 -0.265625 7.421875 -0.546875 7.921875 -1.109375 C 8.421875 -1.671875 8.671875 -2.453125 8.671875 -3.453125 Z M 8.671875 -7.765625 "/></g></g><g style="fill:#ffffff;fill-opacity:1;"><g transform="translate(139.825645, 214.384401)"><path style="stroke:none" d="M 2.875 -1.28125 C 2.875 -1 2.898438 -0.789062 2.953125 -0.65625 C 3.015625 -0.53125 3.125 -0.441406 3.28125 -0.390625 C 3.4375 -0.347656 3.6875 -0.328125 4.03125 -0.328125 L 5.484375 -0.328125 C 6.085938 -0.328125 6.582031 -0.507812 6.96875 -0.875 C 7.363281 -1.25 7.625 -1.753906 7.75 -2.390625 C 7.75 -2.421875 7.773438 -2.429688 7.828125 -2.421875 C 7.878906 -2.421875 7.90625 -2.40625 7.90625 -2.375 C 7.820312 -1.519531 7.78125 -0.804688 7.78125 -0.234375 C 7.78125 -0.148438 7.765625 -0.0859375 7.734375 -0.046875 C 7.703125 -0.015625 7.640625 0 7.546875 0 L 0.515625 0 C 0.492188 0 0.484375 -0.03125 0.484375 -0.09375 C 0.484375 -0.15625 0.492188 -0.1875 0.515625 -0.1875 C 0.890625 -0.1875 1.160156 -0.207031 1.328125 -0.25 C 1.503906 -0.300781 1.617188 -0.398438 1.671875 -0.546875 C 1.734375 -0.691406 1.765625 -0.921875 1.765625 -1.234375 L 1.765625 -8.25 C 1.765625 -8.550781 1.734375 -8.769531 1.671875 -8.90625 C 1.617188 -9.050781 1.503906 -9.148438 1.328125 -9.203125 C 1.160156 -9.265625 0.890625 -9.296875 0.515625 -9.296875 C 0.492188 -9.296875 0.484375 -9.320312 0.484375 -9.375 C 0.484375 -9.4375 0.492188 -9.46875 0.515625 -9.46875 L 1.265625 -9.453125 C 1.691406 -9.429688 2.039062 -9.421875 2.3125 -9.421875 C 2.613281 -9.421875 2.972656 -9.429688 3.390625 -9.453125 L 4.140625 -9.46875 C 4.160156 -9.46875 4.171875 -9.4375 4.171875 -9.375 C 4.171875 -9.320312 4.160156 -9.296875 4.140625 -9.296875 C 3.773438 -9.296875 3.503906 -9.265625 3.328125 -9.203125 C 3.148438 -9.148438 3.03125 -9.050781 2.96875 -8.90625 C 2.90625 -8.757812 2.875 -8.535156 2.875 -8.234375 Z M 2.875 -1.28125 "/></g></g><g style="fill:#ffffff;fill-opacity:1;"><g transform="translate(147.927865, 214.384401)"><path style="stroke:none" d="M 2.9375 -9.1875 C 2.3125 -9.1875 1.828125 -9.015625 1.484375 -8.671875 C 1.148438 -8.335938 0.910156 -7.785156 0.765625 -7.015625 C 0.753906 -6.984375 0.71875 -6.96875 0.65625 -6.96875 C 0.601562 -6.976562 0.578125 -6.992188 0.578125 -7.015625 C 0.617188 -7.296875 0.660156 -7.75 0.703125 -8.375 C 0.753906 -9.007812 0.78125 -9.488281 0.78125 -9.8125 C 0.78125 -9.851562 0.8125 -9.875 0.875 -9.875 C 0.9375 -9.875 0.96875 -9.851562 0.96875 -9.8125 C 0.96875 -9.582031 1.238281 -9.46875 1.78125 -9.46875 C 2.65625 -9.4375 3.671875 -9.421875 4.828125 -9.421875 C 5.429688 -9.421875 6.066406 -9.429688 6.734375 -9.453125 L 7.765625 -9.46875 C 8.128906 -9.46875 8.398438 -9.492188 8.578125 -9.546875 C 8.753906 -9.597656 8.863281 -9.703125 8.90625 -9.859375 C 8.914062 -9.890625 8.945312 -9.90625 9 -9.90625 C 9.050781 -9.90625 9.078125 -9.890625 9.078125 -9.859375 C 9.046875 -9.554688 9.015625 -9.097656 8.984375 -8.484375 C 8.953125 -7.878906 8.9375 -7.390625 8.9375 -7.015625 C 8.9375 -6.992188 8.910156 -6.984375 8.859375 -6.984375 C 8.804688 -6.984375 8.773438 -6.992188 8.765625 -7.015625 C 8.722656 -7.796875 8.539062 -8.351562 8.21875 -8.6875 C 7.90625 -9.019531 7.414062 -9.1875 6.75 -9.1875 C 6.34375 -9.1875 6.050781 -9.164062 5.875 -9.125 C 5.695312 -9.082031 5.570312 -8.992188 5.5 -8.859375 C 5.4375 -8.734375 5.40625 -8.519531 5.40625 -8.21875 L 5.40625 -1.234375 C 5.40625 -0.921875 5.4375 -0.691406 5.5 -0.546875 C 5.570312 -0.398438 5.707031 -0.300781 5.90625 -0.25 C 6.101562 -0.207031 6.414062 -0.1875 6.84375 -0.1875 C 6.863281 -0.1875 6.875 -0.15625 6.875 -0.09375 C 6.875 -0.03125 6.863281 0 6.84375 0 C 6.5 0 6.226562 -0.00390625 6.03125 -0.015625 L 4.828125 -0.03125 L 3.6875 -0.015625 C 3.476562 -0.00390625 3.191406 0 2.828125 0 C 2.804688 0 2.796875 -0.03125 2.796875 -0.09375 C 2.796875 -0.15625 2.804688 -0.1875 2.828125 -0.1875 C 3.253906 -0.1875 3.566406 -0.207031 3.765625 -0.25 C 3.972656 -0.300781 4.113281 -0.398438 4.1875 -0.546875 C 4.257812 -0.691406 4.296875 -0.921875 4.296875 -1.234375 L 4.296875 -8.25 C 4.296875 -8.539062 4.257812 -8.75 4.1875 -8.875 C 4.125 -9 4.003906 -9.082031 3.828125 -9.125 C 3.648438 -9.164062 3.351562 -9.1875 2.9375 -9.1875 Z M 2.9375 -9.1875 "/></g></g><g style="fill:#ffffff;fill-opacity:1;"><g transform="translate(157.559665, 214.384401)"><path style="stroke:none" d="M 3.09375 -1.234375 C 3.09375 -0.921875 3.125 -0.691406 3.1875 -0.546875 C 3.25 -0.398438 3.363281 -0.300781 3.53125 -0.25 C 3.707031 -0.207031 3.976562 -0.1875 4.34375 -0.1875 C 4.363281 -0.1875 4.375 -0.15625 4.375 -0.09375 C 4.375 -0.03125 4.363281 0 4.34375 0 C 4.03125 0 3.785156 -0.00390625 3.609375 -0.015625 L 2.515625 -0.03125 L 1.46875 -0.015625 C 1.28125 -0.00390625 1.023438 0 0.703125 0 C 0.671875 0 0.65625 -0.03125 0.65625 -0.09375 C 0.65625 -0.15625 0.671875 -0.1875 0.703125 -0.1875 C 1.078125 -0.1875 1.347656 -0.207031 1.515625 -0.25 C 1.679688 -0.300781 1.796875 -0.398438 1.859375 -0.546875 C 1.929688 -0.691406 1.96875 -0.921875 1.96875 -1.234375 L 1.96875 -8.25 C 1.96875 -8.550781 1.929688 -8.769531 1.859375 -8.90625 C 1.796875 -9.050781 1.679688 -9.148438 1.515625 -9.203125 C 1.347656 -9.265625 1.078125 -9.296875 0.703125 -9.296875 C 0.671875 -9.296875 0.65625 -9.320312 0.65625 -9.375 C 0.65625 -9.4375 0.671875 -9.46875 0.703125 -9.46875 L 1.46875 -9.453125 C 1.894531 -9.429688 2.242188 -9.421875 2.515625 -9.421875 C 2.804688 -9.421875 3.175781 -9.429688 3.625 -9.453125 L 4.34375 -9.46875 C 4.363281 -9.46875 4.375 -9.4375 4.375 -9.375 C 4.375 -9.320312 4.363281 -9.296875 4.34375 -9.296875 C 3.976562 -9.296875 3.707031 -9.265625 3.53125 -9.203125 C 3.363281 -9.140625 3.25 -9.035156 3.1875 -8.890625 C 3.125 -8.742188 3.09375 -8.519531 3.09375 -8.21875 Z M 3.09375 -1.234375 "/></g></g><g style="fill:#ffffff;fill-opacity:1;"><g transform="translate(162.617869, 214.384401)"><path style="stroke:none" d="M 10.71875 -9.46875 C 10.75 -9.46875 10.765625 -9.4375 10.765625 -9.375 C 10.765625 -9.320312 10.75 -9.296875 10.71875 -9.296875 C 10.300781 -9.296875 9.992188 -9.171875 9.796875 -8.921875 C 9.597656 -8.671875 9.5 -8.285156 9.5 -7.765625 L 9.5 0.1875 C 9.5 0.21875 9.472656 0.234375 9.421875 0.234375 C 9.367188 0.242188 9.335938 0.242188 9.328125 0.234375 L 2.265625 -8.234375 L 2.21875 -8.296875 L 2.21875 -1.703125 C 2.21875 -1.171875 2.3125 -0.785156 2.5 -0.546875 C 2.6875 -0.304688 2.984375 -0.1875 3.390625 -0.1875 C 3.421875 -0.1875 3.4375 -0.15625 3.4375 -0.09375 C 3.4375 -0.03125 3.421875 0 3.390625 0 C 3.148438 0 2.957031 -0.00390625 2.8125 -0.015625 L 2.046875 -0.03125 L 1.25 -0.015625 C 1.09375 -0.00390625 0.875 0 0.59375 0 C 0.570312 0 0.5625 -0.03125 0.5625 -0.09375 C 0.5625 -0.15625 0.570312 -0.1875 0.59375 -0.1875 C 1.03125 -0.1875 1.34375 -0.304688 1.53125 -0.546875 C 1.726562 -0.785156 1.828125 -1.171875 1.828125 -1.703125 L 1.828125 -8.6875 C 1.421875 -9.09375 1.003906 -9.296875 0.578125 -9.296875 C 0.546875 -9.296875 0.53125 -9.320312 0.53125 -9.375 C 0.53125 -9.4375 0.546875 -9.46875 0.578125 -9.46875 L 1.140625 -9.453125 C 1.253906 -9.441406 1.425781 -9.4375 1.65625 -9.4375 L 2.359375 -9.453125 C 2.441406 -9.460938 2.550781 -9.46875 2.6875 -9.46875 C 2.757812 -9.46875 2.8125 -9.445312 2.84375 -9.40625 C 2.882812 -9.375 2.945312 -9.300781 3.03125 -9.1875 C 3.15625 -9 3.273438 -8.832031 3.390625 -8.6875 L 9.125 -1.75 L 9.125 -7.765625 C 9.125 -8.285156 9.03125 -8.671875 8.84375 -8.921875 C 8.664062 -9.171875 8.367188 -9.296875 7.953125 -9.296875 C 7.929688 -9.296875 7.921875 -9.320312 7.921875 -9.375 C 7.921875 -9.4375 7.929688 -9.46875 7.953125 -9.46875 L 8.546875 -9.453125 C 8.867188 -9.429688 9.128906 -9.421875 9.328125 -9.421875 C 9.515625 -9.421875 9.769531 -9.429688 10.09375 -9.453125 Z M 10.71875 -9.46875 "/></g></g><g style="fill:#ffffff;fill-opacity:1;"><g transform="translate(173.642944, 214.384401)"><path style="stroke:none" d="M 6.234375 0.1875 C 5.109375 0.1875 4.128906 -0.0351562 3.296875 -0.484375 C 2.472656 -0.929688 1.84375 -1.53125 1.40625 -2.28125 C 0.96875 -3.03125 0.75 -3.863281 0.75 -4.78125 C 0.75 -5.75 1 -6.597656 1.5 -7.328125 C 2 -8.066406 2.679688 -8.632812 3.546875 -9.03125 C 4.410156 -9.4375 5.382812 -9.640625 6.46875 -9.640625 C 7.007812 -9.640625 7.515625 -9.585938 7.984375 -9.484375 C 8.453125 -9.390625 8.835938 -9.253906 9.140625 -9.078125 C 9.222656 -9.035156 9.269531 -9 9.28125 -8.96875 C 9.300781 -8.945312 9.316406 -8.875 9.328125 -8.75 L 9.515625 -6.90625 C 9.515625 -6.875 9.484375 -6.851562 9.421875 -6.84375 C 9.367188 -6.832031 9.34375 -6.84375 9.34375 -6.875 C 9.113281 -7.613281 8.734375 -8.210938 8.203125 -8.671875 C 7.679688 -9.140625 6.988281 -9.375 6.125 -9.375 C 5.351562 -9.375 4.65625 -9.195312 4.03125 -8.84375 C 3.414062 -8.5 2.925781 -7.988281 2.5625 -7.3125 C 2.207031 -6.644531 2.03125 -5.875 2.03125 -5 C 2.03125 -4.125 2.207031 -3.304688 2.5625 -2.546875 C 2.914062 -1.796875 3.4375 -1.191406 4.125 -0.734375 C 4.820312 -0.273438 5.65625 -0.046875 6.625 -0.046875 C 7.320312 -0.046875 7.804688 -0.175781 8.078125 -0.4375 C 8.359375 -0.707031 8.5 -1.191406 8.5 -1.890625 C 8.5 -2.421875 8.46875 -2.785156 8.40625 -2.984375 C 8.34375 -3.191406 8.203125 -3.332031 7.984375 -3.40625 C 7.765625 -3.476562 7.378906 -3.515625 6.828125 -3.515625 C 6.765625 -3.515625 6.734375 -3.554688 6.734375 -3.640625 C 6.734375 -3.671875 6.738281 -3.695312 6.75 -3.71875 C 6.769531 -3.75 6.789062 -3.765625 6.8125 -3.765625 C 7.613281 -3.710938 8.265625 -3.6875 8.765625 -3.6875 C 9.234375 -3.6875 9.738281 -3.703125 10.28125 -3.734375 C 10.320312 -3.734375 10.34375 -3.695312 10.34375 -3.625 C 10.351562 -3.550781 10.332031 -3.515625 10.28125 -3.515625 C 10.03125 -3.523438 9.859375 -3.488281 9.765625 -3.40625 C 9.671875 -3.332031 9.609375 -3.179688 9.578125 -2.953125 C 9.546875 -2.722656 9.53125 -2.320312 9.53125 -1.75 C 9.53125 -1.289062 9.546875 -0.960938 9.578125 -0.765625 C 9.617188 -0.578125 9.640625 -0.457031 9.640625 -0.40625 C 9.640625 -0.34375 9.628906 -0.300781 9.609375 -0.28125 C 9.585938 -0.257812 9.539062 -0.242188 9.46875 -0.234375 C 8.21875 0.046875 7.140625 0.1875 6.234375 0.1875 Z M 6.234375 0.1875 "/></g></g><g style="fill:#ffffff;fill-opacity:1;"><g transform="translate(184.501429, 214.384401)"><path style="stroke:none" d=""/></g></g><g style="fill:#ffffff;fill-opacity:1;"><g transform="translate(188.045197, 214.384401)"><path style="stroke:none" d="M 10.640625 -0.1875 C 10.679688 -0.175781 10.695312 -0.140625 10.6875 -0.078125 C 10.6875 -0.0234375 10.671875 0 10.640625 0 L 8.84375 0 C 8.425781 0 7.769531 -0.335938 6.875 -1.015625 C 6.082031 -0.210938 5.070312 0.1875 3.84375 0.1875 C 3.207031 0.1875 2.671875 0.0820312 2.234375 -0.125 C 1.804688 -0.332031 1.488281 -0.609375 1.28125 -0.953125 C 1.070312 -1.296875 0.96875 -1.664062 0.96875 -2.0625 C 0.96875 -2.625 1.144531 -3.117188 1.5 -3.546875 C 1.863281 -3.972656 2.378906 -4.425781 3.046875 -4.90625 C 2.867188 -5.175781 2.722656 -5.429688 2.609375 -5.671875 C 2.316406 -6.285156 2.171875 -6.835938 2.171875 -7.328125 C 2.171875 -7.773438 2.273438 -8.1875 2.484375 -8.5625 C 2.703125 -8.9375 3.003906 -9.234375 3.390625 -9.453125 C 3.785156 -9.679688 4.242188 -9.796875 4.765625 -9.796875 C 5.265625 -9.796875 5.691406 -9.675781 6.046875 -9.4375 C 6.398438 -9.195312 6.578125 -8.816406 6.578125 -8.296875 C 6.578125 -7.898438 6.472656 -7.539062 6.265625 -7.21875 C 6.066406 -6.90625 5.820312 -6.628906 5.53125 -6.390625 C 5.238281 -6.148438 4.835938 -5.863281 4.328125 -5.53125 L 4.0625 -5.34375 C 4.8125 -4.195312 5.890625 -3.082031 7.296875 -2 C 7.585938 -2.5625 7.734375 -3.195312 7.734375 -3.90625 C 7.734375 -4.3125 7.65625 -4.613281 7.5 -4.8125 C 7.34375 -5.007812 7.050781 -5.109375 6.625 -5.109375 C 6.59375 -5.109375 6.570312 -5.140625 6.5625 -5.203125 C 6.5625 -5.265625 6.582031 -5.296875 6.625 -5.296875 L 9.859375 -5.3125 C 9.898438 -5.3125 9.921875 -5.28125 9.921875 -5.21875 C 9.921875 -5.15625 9.898438 -5.125 9.859375 -5.125 C 9.523438 -5.125 9.273438 -5.085938 9.109375 -5.015625 C 8.941406 -4.953125 8.820312 -4.859375 8.75 -4.734375 C 8.6875 -4.617188 8.617188 -4.4375 8.546875 -4.1875 C 8.273438 -3.238281 7.9375 -2.445312 7.53125 -1.8125 C 8.144531 -1.375 8.722656 -1.007812 9.265625 -0.71875 C 9.816406 -0.4375 10.273438 -0.257812 10.640625 -0.1875 Z M 3.140625 -8.078125 C 3.140625 -7.285156 3.40625 -6.445312 3.9375 -5.5625 C 4.457031 -5.96875 4.851562 -6.359375 5.125 -6.734375 C 5.40625 -7.117188 5.546875 -7.550781 5.546875 -8.03125 C 5.546875 -8.476562 5.425781 -8.828125 5.1875 -9.078125 C 4.957031 -9.328125 4.648438 -9.453125 4.265625 -9.453125 C 3.515625 -9.453125 3.140625 -8.992188 3.140625 -8.078125 Z M 4.625 -0.3125 C 5.414062 -0.3125 6.101562 -0.601562 6.6875 -1.1875 C 6.550781 -1.269531 6.429688 -1.359375 6.328125 -1.453125 C 5.722656 -1.941406 5.144531 -2.46875 4.59375 -3.03125 C 4.050781 -3.59375 3.585938 -4.15625 3.203125 -4.71875 C 2.835938 -4.414062 2.550781 -4.097656 2.34375 -3.765625 C 2.144531 -3.441406 2.046875 -3.070312 2.046875 -2.65625 C 2.046875 -2.238281 2.15625 -1.847656 2.375 -1.484375 C 2.59375 -1.128906 2.894531 -0.84375 3.28125 -0.625 C 3.675781 -0.414062 4.125 -0.3125 4.625 -0.3125 Z M 4.625 -0.3125 "/></g></g><g style="fill:#ffffff;fill-opacity:1;"><g transform="translate(198.646234, 214.384401)"><path style="stroke:none" d=""/></g></g><g style="fill:#ffffff;fill-opacity:1;"><g transform="translate(202.190002, 214.384401)"><path style="stroke:none" d="M 12.375 -0.1875 C 12.394531 -0.1875 12.40625 -0.15625 12.40625 -0.09375 C 12.40625 -0.03125 12.394531 0 12.375 0 C 12.039062 0 11.78125 -0.00390625 11.59375 -0.015625 L 10.546875 -0.03125 L 9.53125 -0.015625 C 9.375 -0.00390625 9.144531 0 8.84375 0 C 8.832031 0 8.828125 -0.03125 8.828125 -0.09375 C 8.828125 -0.15625 8.832031 -0.1875 8.84375 -0.1875 C 9.1875 -0.1875 9.441406 -0.210938 9.609375 -0.265625 C 9.773438 -0.316406 9.882812 -0.410156 9.9375 -0.546875 C 9.988281 -0.691406 10.003906 -0.921875 9.984375 -1.234375 L 9.703125 -7.96875 L 6.3125 -0.109375 C 6.289062 -0.0664062 6.25 -0.046875 6.1875 -0.046875 C 6.132812 -0.046875 6.085938 -0.0664062 6.046875 -0.109375 L 2.296875 -7.9375 L 2.1875 -1.703125 C 2.175781 -1.160156 2.269531 -0.769531 2.46875 -0.53125 C 2.664062 -0.300781 2.992188 -0.1875 3.453125 -0.1875 C 3.472656 -0.1875 3.484375 -0.15625 3.484375 -0.09375 C 3.484375 -0.03125 3.472656 0 3.453125 0 C 3.171875 0 2.953125 -0.00390625 2.796875 -0.015625 L 1.984375 -0.03125 L 1.171875 -0.015625 C 1.023438 -0.00390625 0.820312 0 0.5625 0 C 0.53125 0 0.515625 -0.03125 0.515625 -0.09375 C 0.515625 -0.15625 0.53125 -0.1875 0.5625 -0.1875 C 0.976562 -0.1875 1.285156 -0.304688 1.484375 -0.546875 C 1.679688 -0.785156 1.785156 -1.171875 1.796875 -1.703125 L 1.9375 -8.59375 C 1.632812 -9.0625 1.210938 -9.296875 0.671875 -9.296875 C 0.640625 -9.296875 0.625 -9.320312 0.625 -9.375 C 0.625 -9.4375 0.640625 -9.46875 0.671875 -9.46875 L 1.265625 -9.453125 C 1.367188 -9.441406 1.515625 -9.4375 1.703125 -9.4375 C 1.898438 -9.4375 2.066406 -9.441406 2.203125 -9.453125 C 2.335938 -9.460938 2.445312 -9.46875 2.53125 -9.46875 C 2.664062 -9.46875 2.769531 -9.421875 2.84375 -9.328125 C 2.925781 -9.242188 3.054688 -9.03125 3.234375 -8.6875 L 6.609375 -1.71875 L 9.828125 -9.09375 C 9.929688 -9.34375 10.082031 -9.46875 10.28125 -9.46875 C 10.332031 -9.46875 10.40625 -9.460938 10.5 -9.453125 C 10.601562 -9.441406 10.734375 -9.4375 10.890625 -9.4375 L 11.65625 -9.453125 C 11.769531 -9.460938 11.941406 -9.46875 12.171875 -9.46875 C 12.191406 -9.46875 12.203125 -9.4375 12.203125 -9.375 C 12.203125 -9.320312 12.191406 -9.296875 12.171875 -9.296875 C 11.660156 -9.296875 11.296875 -9.21875 11.078125 -9.0625 C 10.867188 -8.90625 10.769531 -8.625 10.78125 -8.21875 L 11.09375 -1.234375 C 11.113281 -0.921875 11.15625 -0.691406 11.21875 -0.546875 C 11.28125 -0.398438 11.394531 -0.300781 11.5625 -0.25 C 11.726562 -0.207031 12 -0.1875 12.375 -0.1875 Z M 12.375 -0.1875 "/></g></g><g style="fill:#ffffff;fill-opacity:1;"><g transform="translate(214.896103, 214.384401)"><path style="stroke:none" d="M 10.640625 -0.1875 C 10.679688 -0.1875 10.703125 -0.15625 10.703125 -0.09375 C 10.703125 -0.03125 10.679688 0 10.640625 0 C 10.453125 0 10.15625 -0.0078125 9.75 -0.03125 C 9.34375 -0.0507812 9.039062 -0.0625 8.84375 -0.0625 C 8.613281 -0.0625 8.328125 -0.0507812 7.984375 -0.03125 C 7.660156 -0.0078125 7.410156 0 7.234375 0 C 7.191406 0 7.171875 -0.03125 7.171875 -0.09375 C 7.171875 -0.15625 7.191406 -0.1875 7.234375 -0.1875 C 7.597656 -0.1875 7.859375 -0.21875 8.015625 -0.28125 C 8.171875 -0.34375 8.25 -0.460938 8.25 -0.640625 C 8.25 -0.785156 8.175781 -1.007812 8.03125 -1.3125 L 6.734375 -4.046875 L 3.109375 -4.046875 L 2.21875 -1.96875 C 2.082031 -1.664062 2.015625 -1.390625 2.015625 -1.140625 C 2.015625 -0.503906 2.503906 -0.1875 3.484375 -0.1875 C 3.535156 -0.1875 3.5625 -0.15625 3.5625 -0.09375 C 3.5625 -0.03125 3.535156 0 3.484375 0 C 3.304688 0 3.046875 -0.0078125 2.703125 -0.03125 C 2.316406 -0.0507812 1.984375 -0.0625 1.703125 -0.0625 C 1.441406 -0.0625 1.128906 -0.0507812 0.765625 -0.03125 C 0.460938 -0.0078125 0.207031 0 0 0 C -0.0507812 0 -0.078125 -0.03125 -0.078125 -0.09375 C -0.078125 -0.15625 -0.0507812 -0.1875 0 -0.1875 C 0.28125 -0.1875 0.519531 -0.238281 0.71875 -0.34375 C 0.914062 -0.445312 1.101562 -0.632812 1.28125 -0.90625 C 1.46875 -1.175781 1.671875 -1.578125 1.890625 -2.109375 L 5.09375 -9.59375 C 5.113281 -9.625 5.15625 -9.640625 5.21875 -9.640625 C 5.28125 -9.640625 5.3125 -9.625 5.3125 -9.59375 L 8.921875 -2.078125 C 9.265625 -1.335938 9.554688 -0.835938 9.796875 -0.578125 C 10.046875 -0.316406 10.328125 -0.1875 10.640625 -0.1875 Z M 3.25 -4.359375 L 6.578125 -4.359375 L 4.8125 -8.03125 Z M 3.25 -4.359375 "/></g></g><g style="fill:#ffffff;fill-opacity:1;"><g transform="translate(225.557712, 214.384401)"><path style="stroke:none" d="M 10.71875 -9.46875 C 10.75 -9.46875 10.765625 -9.4375 10.765625 -9.375 C 10.765625 -9.320312 10.75 -9.296875 10.71875 -9.296875 C 10.300781 -9.296875 9.992188 -9.171875 9.796875 -8.921875 C 9.597656 -8.671875 9.5 -8.285156 9.5 -7.765625 L 9.5 0.1875 C 9.5 0.21875 9.472656 0.234375 9.421875 0.234375 C 9.367188 0.242188 9.335938 0.242188 9.328125 0.234375 L 2.265625 -8.234375 L 2.21875 -8.296875 L 2.21875 -1.703125 C 2.21875 -1.171875 2.3125 -0.785156 2.5 -0.546875 C 2.6875 -0.304688 2.984375 -0.1875 3.390625 -0.1875 C 3.421875 -0.1875 3.4375 -0.15625 3.4375 -0.09375 C 3.4375 -0.03125 3.421875 0 3.390625 0 C 3.148438 0 2.957031 -0.00390625 2.8125 -0.015625 L 2.046875 -0.03125 L 1.25 -0.015625 C 1.09375 -0.00390625 0.875 0 0.59375 0 C 0.570312 0 0.5625 -0.03125 0.5625 -0.09375 C 0.5625 -0.15625 0.570312 -0.1875 0.59375 -0.1875 C 1.03125 -0.1875 1.34375 -0.304688 1.53125 -0.546875 C 1.726562 -0.785156 1.828125 -1.171875 1.828125 -1.703125 L 1.828125 -8.6875 C 1.421875 -9.09375 1.003906 -9.296875 0.578125 -9.296875 C 0.546875 -9.296875 0.53125 -9.320312 0.53125 -9.375 C 0.53125 -9.4375 0.546875 -9.46875 0.578125 -9.46875 L 1.140625 -9.453125 C 1.253906 -9.441406 1.425781 -9.4375 1.65625 -9.4375 L 2.359375 -9.453125 C 2.441406 -9.460938 2.550781 -9.46875 2.6875 -9.46875 C 2.757812 -9.46875 2.8125 -9.445312 2.84375 -9.40625 C 2.882812 -9.375 2.945312 -9.300781 3.03125 -9.1875 C 3.15625 -9 3.273438 -8.832031 3.390625 -8.6875 L 9.125 -1.75 L 9.125 -7.765625 C 9.125 -8.285156 9.03125 -8.671875 8.84375 -8.921875 C 8.664062 -9.171875 8.367188 -9.296875 7.953125 -9.296875 C 7.929688 -9.296875 7.921875 -9.320312 7.921875 -9.375 C 7.921875 -9.4375 7.929688 -9.46875 7.953125 -9.46875 L 8.546875 -9.453125 C 8.867188 -9.429688 9.128906 -9.421875 9.328125 -9.421875 C 9.515625 -9.421875 9.769531 -9.429688 10.09375 -9.453125 Z M 10.71875 -9.46875 "/></g></g><g style="fill:#ffffff;fill-opacity:1;"><g transform="translate(236.582786, 214.384401)"><path style="stroke:none" d="M 10.640625 -0.1875 C 10.679688 -0.1875 10.703125 -0.15625 10.703125 -0.09375 C 10.703125 -0.03125 10.679688 0 10.640625 0 C 10.453125 0 10.15625 -0.0078125 9.75 -0.03125 C 9.34375 -0.0507812 9.039062 -0.0625 8.84375 -0.0625 C 8.613281 -0.0625 8.328125 -0.0507812 7.984375 -0.03125 C 7.660156 -0.0078125 7.410156 0 7.234375 0 C 7.191406 0 7.171875 -0.03125 7.171875 -0.09375 C 7.171875 -0.15625 7.191406 -0.1875 7.234375 -0.1875 C 7.597656 -0.1875 7.859375 -0.21875 8.015625 -0.28125 C 8.171875 -0.34375 8.25 -0.460938 8.25 -0.640625 C 8.25 -0.785156 8.175781 -1.007812 8.03125 -1.3125 L 6.734375 -4.046875 L 3.109375 -4.046875 L 2.21875 -1.96875 C 2.082031 -1.664062 2.015625 -1.390625 2.015625 -1.140625 C 2.015625 -0.503906 2.503906 -0.1875 3.484375 -0.1875 C 3.535156 -0.1875 3.5625 -0.15625 3.5625 -0.09375 C 3.5625 -0.03125 3.535156 0 3.484375 0 C 3.304688 0 3.046875 -0.0078125 2.703125 -0.03125 C 2.316406 -0.0507812 1.984375 -0.0625 1.703125 -0.0625 C 1.441406 -0.0625 1.128906 -0.0507812 0.765625 -0.03125 C 0.460938 -0.0078125 0.207031 0 0 0 C -0.0507812 0 -0.078125 -0.03125 -0.078125 -0.09375 C -0.078125 -0.15625 -0.0507812 -0.1875 0 -0.1875 C 0.28125 -0.1875 0.519531 -0.238281 0.71875 -0.34375 C 0.914062 -0.445312 1.101562 -0.632812 1.28125 -0.90625 C 1.46875 -1.175781 1.671875 -1.578125 1.890625 -2.109375 L 5.09375 -9.59375 C 5.113281 -9.625 5.15625 -9.640625 5.21875 -9.640625 C 5.28125 -9.640625 5.3125 -9.625 5.3125 -9.59375 L 8.921875 -2.078125 C 9.265625 -1.335938 9.554688 -0.835938 9.796875 -0.578125 C 10.046875 -0.316406 10.328125 -0.1875 10.640625 -0.1875 Z M 3.25 -4.359375 L 6.578125 -4.359375 L 4.8125 -8.03125 Z M 3.25 -4.359375 "/></g></g><g style="fill:#ffffff;fill-opacity:1;"><g transform="translate(247.244395, 214.384401)"><path style="stroke:none" d="M 6.234375 0.1875 C 5.109375 0.1875 4.128906 -0.0351562 3.296875 -0.484375 C 2.472656 -0.929688 1.84375 -1.53125 1.40625 -2.28125 C 0.96875 -3.03125 0.75 -3.863281 0.75 -4.78125 C 0.75 -5.75 1 -6.597656 1.5 -7.328125 C 2 -8.066406 2.679688 -8.632812 3.546875 -9.03125 C 4.410156 -9.4375 5.382812 -9.640625 6.46875 -9.640625 C 7.007812 -9.640625 7.515625 -9.585938 7.984375 -9.484375 C 8.453125 -9.390625 8.835938 -9.253906 9.140625 -9.078125 C 9.222656 -9.035156 9.269531 -9 9.28125 -8.96875 C 9.300781 -8.945312 9.316406 -8.875 9.328125 -8.75 L 9.515625 -6.90625 C 9.515625 -6.875 9.484375 -6.851562 9.421875 -6.84375 C 9.367188 -6.832031 9.34375 -6.84375 9.34375 -6.875 C 9.113281 -7.613281 8.734375 -8.210938 8.203125 -8.671875 C 7.679688 -9.140625 6.988281 -9.375 6.125 -9.375 C 5.351562 -9.375 4.65625 -9.195312 4.03125 -8.84375 C 3.414062 -8.5 2.925781 -7.988281 2.5625 -7.3125 C 2.207031 -6.644531 2.03125 -5.875 2.03125 -5 C 2.03125 -4.125 2.207031 -3.304688 2.5625 -2.546875 C 2.914062 -1.796875 3.4375 -1.191406 4.125 -0.734375 C 4.820312 -0.273438 5.65625 -0.046875 6.625 -0.046875 C 7.320312 -0.046875 7.804688 -0.175781 8.078125 -0.4375 C 8.359375 -0.707031 8.5 -1.191406 8.5 -1.890625 C 8.5 -2.421875 8.46875 -2.785156 8.40625 -2.984375 C 8.34375 -3.191406 8.203125 -3.332031 7.984375 -3.40625 C 7.765625 -3.476562 7.378906 -3.515625 6.828125 -3.515625 C 6.765625 -3.515625 6.734375 -3.554688 6.734375 -3.640625 C 6.734375 -3.671875 6.738281 -3.695312 6.75 -3.71875 C 6.769531 -3.75 6.789062 -3.765625 6.8125 -3.765625 C 7.613281 -3.710938 8.265625 -3.6875 8.765625 -3.6875 C 9.234375 -3.6875 9.738281 -3.703125 10.28125 -3.734375 C 10.320312 -3.734375 10.34375 -3.695312 10.34375 -3.625 C 10.351562 -3.550781 10.332031 -3.515625 10.28125 -3.515625 C 10.03125 -3.523438 9.859375 -3.488281 9.765625 -3.40625 C 9.671875 -3.332031 9.609375 -3.179688 9.578125 -2.953125 C 9.546875 -2.722656 9.53125 -2.320312 9.53125 -1.75 C 9.53125 -1.289062 9.546875 -0.960938 9.578125 -0.765625 C 9.617188 -0.578125 9.640625 -0.457031 9.640625 -0.40625 C 9.640625 -0.34375 9.628906 -0.300781 9.609375 -0.28125 C 9.585938 -0.257812 9.539062 -0.242188 9.46875 -0.234375 C 8.21875 0.046875 7.140625 0.1875 6.234375 0.1875 Z M 6.234375 0.1875 "/></g></g><g style="fill:#ffffff;fill-opacity:1;"><g transform="translate(258.102879, 214.384401)"><path style="stroke:none" d="M 12.375 -0.1875 C 12.394531 -0.1875 12.40625 -0.15625 12.40625 -0.09375 C 12.40625 -0.03125 12.394531 0 12.375 0 C 12.039062 0 11.78125 -0.00390625 11.59375 -0.015625 L 10.546875 -0.03125 L 9.53125 -0.015625 C 9.375 -0.00390625 9.144531 0 8.84375 0 C 8.832031 0 8.828125 -0.03125 8.828125 -0.09375 C 8.828125 -0.15625 8.832031 -0.1875 8.84375 -0.1875 C 9.1875 -0.1875 9.441406 -0.210938 9.609375 -0.265625 C 9.773438 -0.316406 9.882812 -0.410156 9.9375 -0.546875 C 9.988281 -0.691406 10.003906 -0.921875 9.984375 -1.234375 L 9.703125 -7.96875 L 6.3125 -0.109375 C 6.289062 -0.0664062 6.25 -0.046875 6.1875 -0.046875 C 6.132812 -0.046875 6.085938 -0.0664062 6.046875 -0.109375 L 2.296875 -7.9375 L 2.1875 -1.703125 C 2.175781 -1.160156 2.269531 -0.769531 2.46875 -0.53125 C 2.664062 -0.300781 2.992188 -0.1875 3.453125 -0.1875 C 3.472656 -0.1875 3.484375 -0.15625 3.484375 -0.09375 C 3.484375 -0.03125 3.472656 0 3.453125 0 C 3.171875 0 2.953125 -0.00390625 2.796875 -0.015625 L 1.984375 -0.03125 L 1.171875 -0.015625 C 1.023438 -0.00390625 0.820312 0 0.5625 0 C 0.53125 0 0.515625 -0.03125 0.515625 -0.09375 C 0.515625 -0.15625 0.53125 -0.1875 0.5625 -0.1875 C 0.976562 -0.1875 1.285156 -0.304688 1.484375 -0.546875 C 1.679688 -0.785156 1.785156 -1.171875 1.796875 -1.703125 L 1.9375 -8.59375 C 1.632812 -9.0625 1.210938 -9.296875 0.671875 -9.296875 C 0.640625 -9.296875 0.625 -9.320312 0.625 -9.375 C 0.625 -9.4375 0.640625 -9.46875 0.671875 -9.46875 L 1.265625 -9.453125 C 1.367188 -9.441406 1.515625 -9.4375 1.703125 -9.4375 C 1.898438 -9.4375 2.066406 -9.441406 2.203125 -9.453125 C 2.335938 -9.460938 2.445312 -9.46875 2.53125 -9.46875 C 2.664062 -9.46875 2.769531 -9.421875 2.84375 -9.328125 C 2.925781 -9.242188 3.054688 -9.03125 3.234375 -8.6875 L 6.609375 -1.71875 L 9.828125 -9.09375 C 9.929688 -9.34375 10.082031 -9.46875 10.28125 -9.46875 C 10.332031 -9.46875 10.40625 -9.460938 10.5 -9.453125 C 10.601562 -9.441406 10.734375 -9.4375 10.890625 -9.4375 L 11.65625 -9.453125 C 11.769531 -9.460938 11.941406 -9.46875 12.171875 -9.46875 C 12.191406 -9.46875 12.203125 -9.4375 12.203125 -9.375 C 12.203125 -9.320312 12.191406 -9.296875 12.171875 -9.296875 C 11.660156 -9.296875 11.296875 -9.21875 11.078125 -9.0625 C 10.867188 -8.90625 10.769531 -8.625 10.78125 -8.21875 L 11.09375 -1.234375 C 11.113281 -0.921875 11.15625 -0.691406 11.21875 -0.546875 C 11.28125 -0.398438 11.394531 -0.300781 11.5625 -0.25 C 11.726562 -0.207031 12 -0.1875 12.375 -0.1875 Z M 12.375 -0.1875 "/></g></g><g style="fill:#ffffff;fill-opacity:1;"><g transform="translate(270.808981, 214.384401)"><path style="stroke:none" d="M 7.265625 -2.28125 C 7.265625 -2.300781 7.289062 -2.304688 7.34375 -2.296875 C 7.40625 -2.296875 7.4375 -2.285156 7.4375 -2.265625 C 7.351562 -1.597656 7.3125 -0.921875 7.3125 -0.234375 C 7.3125 -0.148438 7.289062 -0.0859375 7.25 -0.046875 C 7.21875 -0.015625 7.15625 0 7.0625 0 L 0.65625 0 C 0.632812 0 0.625 -0.03125 0.625 -0.09375 C 0.625 -0.15625 0.632812 -0.1875 0.65625 -0.1875 C 1.03125 -0.1875 1.300781 -0.207031 1.46875 -0.25 C 1.644531 -0.300781 1.757812 -0.398438 1.8125 -0.546875 C 1.875 -0.691406 1.90625 -0.921875 1.90625 -1.234375 L 1.90625 -8.25 C 1.90625 -8.550781 1.875 -8.769531 1.8125 -8.90625 C 1.757812 -9.050781 1.644531 -9.148438 1.46875 -9.203125 C 1.300781 -9.265625 1.03125 -9.296875 0.65625 -9.296875 C 0.632812 -9.296875 0.625 -9.320312 0.625 -9.375 C 0.625 -9.4375 0.632812 -9.46875 0.65625 -9.46875 L 6.8125 -9.46875 C 6.894531 -9.46875 6.9375 -9.425781 6.9375 -9.34375 L 6.96875 -7.4375 C 6.96875 -7.40625 6.941406 -7.390625 6.890625 -7.390625 C 6.835938 -7.390625 6.8125 -7.40625 6.8125 -7.4375 C 6.75 -7.988281 6.5625 -8.410156 6.25 -8.703125 C 5.9375 -8.992188 5.523438 -9.140625 5.015625 -9.140625 L 4.1875 -9.140625 C 3.707031 -9.140625 3.390625 -9.070312 3.234375 -8.9375 C 3.085938 -8.8125 3.015625 -8.5625 3.015625 -8.1875 L 3.015625 -5.09375 L 4.765625 -5.09375 C 5.265625 -5.09375 5.628906 -5.175781 5.859375 -5.34375 C 6.085938 -5.519531 6.203125 -5.800781 6.203125 -6.1875 C 6.203125 -6.207031 6.226562 -6.21875 6.28125 -6.21875 C 6.34375 -6.21875 6.375 -6.207031 6.375 -6.1875 L 6.359375 -4.921875 C 6.359375 -4.628906 6.363281 -4.410156 6.375 -4.265625 L 6.390625 -3.5 C 6.390625 -3.476562 6.359375 -3.46875 6.296875 -3.46875 C 6.242188 -3.46875 6.21875 -3.476562 6.21875 -3.5 C 6.21875 -3.945312 6.097656 -4.269531 5.859375 -4.46875 C 5.628906 -4.664062 5.253906 -4.765625 4.734375 -4.765625 L 3.015625 -4.765625 L 3.015625 -1.28125 C 3.015625 -1.019531 3.046875 -0.820312 3.109375 -0.6875 C 3.171875 -0.5625 3.273438 -0.46875 3.421875 -0.40625 C 3.578125 -0.351562 3.8125 -0.328125 4.125 -0.328125 L 5.203125 -0.328125 C 5.734375 -0.328125 6.175781 -0.492188 6.53125 -0.828125 C 6.882812 -1.171875 7.128906 -1.65625 7.265625 -2.28125 Z M 7.265625 -2.28125 "/></g></g><g style="fill:#ffffff;fill-opacity:1;"><g transform="translate(278.986915, 214.384401)"><path style="stroke:none" d="M 10.71875 -9.46875 C 10.75 -9.46875 10.765625 -9.4375 10.765625 -9.375 C 10.765625 -9.320312 10.75 -9.296875 10.71875 -9.296875 C 10.300781 -9.296875 9.992188 -9.171875 9.796875 -8.921875 C 9.597656 -8.671875 9.5 -8.285156 9.5 -7.765625 L 9.5 0.1875 C 9.5 0.21875 9.472656 0.234375 9.421875 0.234375 C 9.367188 0.242188 9.335938 0.242188 9.328125 0.234375 L 2.265625 -8.234375 L 2.21875 -8.296875 L 2.21875 -1.703125 C 2.21875 -1.171875 2.3125 -0.785156 2.5 -0.546875 C 2.6875 -0.304688 2.984375 -0.1875 3.390625 -0.1875 C 3.421875 -0.1875 3.4375 -0.15625 3.4375 -0.09375 C 3.4375 -0.03125 3.421875 0 3.390625 0 C 3.148438 0 2.957031 -0.00390625 2.8125 -0.015625 L 2.046875 -0.03125 L 1.25 -0.015625 C 1.09375 -0.00390625 0.875 0 0.59375 0 C 0.570312 0 0.5625 -0.03125 0.5625 -0.09375 C 0.5625 -0.15625 0.570312 -0.1875 0.59375 -0.1875 C 1.03125 -0.1875 1.34375 -0.304688 1.53125 -0.546875 C 1.726562 -0.785156 1.828125 -1.171875 1.828125 -1.703125 L 1.828125 -8.6875 C 1.421875 -9.09375 1.003906 -9.296875 0.578125 -9.296875 C 0.546875 -9.296875 0.53125 -9.320312 0.53125 -9.375 C 0.53125 -9.4375 0.546875 -9.46875 0.578125 -9.46875 L 1.140625 -9.453125 C 1.253906 -9.441406 1.425781 -9.4375 1.65625 -9.4375 L 2.359375 -9.453125 C 2.441406 -9.460938 2.550781 -9.46875 2.6875 -9.46875 C 2.757812 -9.46875 2.8125 -9.445312 2.84375 -9.40625 C 2.882812 -9.375 2.945312 -9.300781 3.03125 -9.1875 C 3.15625 -9 3.273438 -8.832031 3.390625 -8.6875 L 9.125 -1.75 L 9.125 -7.765625 C 9.125 -8.285156 9.03125 -8.671875 8.84375 -8.921875 C 8.664062 -9.171875 8.367188 -9.296875 7.953125 -9.296875 C 7.929688 -9.296875 7.921875 -9.320312 7.921875 -9.375 C 7.921875 -9.4375 7.929688 -9.46875 7.953125 -9.46875 L 8.546875 -9.453125 C 8.867188 -9.429688 9.128906 -9.421875 9.328125 -9.421875 C 9.515625 -9.421875 9.769531 -9.429688 10.09375 -9.453125 Z M 10.71875 -9.46875 "/></g></g><g style="fill:#ffffff;fill-opacity:1;"><g transform="translate(290.01199, 214.384401)"><path style="stroke:none" d="M 2.9375 -9.1875 C 2.3125 -9.1875 1.828125 -9.015625 1.484375 -8.671875 C 1.148438 -8.335938 0.910156 -7.785156 0.765625 -7.015625 C 0.753906 -6.984375 0.71875 -6.96875 0.65625 -6.96875 C 0.601562 -6.976562 0.578125 -6.992188 0.578125 -7.015625 C 0.617188 -7.296875 0.660156 -7.75 0.703125 -8.375 C 0.753906 -9.007812 0.78125 -9.488281 0.78125 -9.8125 C 0.78125 -9.851562 0.8125 -9.875 0.875 -9.875 C 0.9375 -9.875 0.96875 -9.851562 0.96875 -9.8125 C 0.96875 -9.582031 1.238281 -9.46875 1.78125 -9.46875 C 2.65625 -9.4375 3.671875 -9.421875 4.828125 -9.421875 C 5.429688 -9.421875 6.066406 -9.429688 6.734375 -9.453125 L 7.765625 -9.46875 C 8.128906 -9.46875 8.398438 -9.492188 8.578125 -9.546875 C 8.753906 -9.597656 8.863281 -9.703125 8.90625 -9.859375 C 8.914062 -9.890625 8.945312 -9.90625 9 -9.90625 C 9.050781 -9.90625 9.078125 -9.890625 9.078125 -9.859375 C 9.046875 -9.554688 9.015625 -9.097656 8.984375 -8.484375 C 8.953125 -7.878906 8.9375 -7.390625 8.9375 -7.015625 C 8.9375 -6.992188 8.910156 -6.984375 8.859375 -6.984375 C 8.804688 -6.984375 8.773438 -6.992188 8.765625 -7.015625 C 8.722656 -7.796875 8.539062 -8.351562 8.21875 -8.6875 C 7.90625 -9.019531 7.414062 -9.1875 6.75 -9.1875 C 6.34375 -9.1875 6.050781 -9.164062 5.875 -9.125 C 5.695312 -9.082031 5.570312 -8.992188 5.5 -8.859375 C 5.4375 -8.734375 5.40625 -8.519531 5.40625 -8.21875 L 5.40625 -1.234375 C 5.40625 -0.921875 5.4375 -0.691406 5.5 -0.546875 C 5.570312 -0.398438 5.707031 -0.300781 5.90625 -0.25 C 6.101562 -0.207031 6.414062 -0.1875 6.84375 -0.1875 C 6.863281 -0.1875 6.875 -0.15625 6.875 -0.09375 C 6.875 -0.03125 6.863281 0 6.84375 0 C 6.5 0 6.226562 -0.00390625 6.03125 -0.015625 L 4.828125 -0.03125 L 3.6875 -0.015625 C 3.476562 -0.00390625 3.191406 0 2.828125 0 C 2.804688 0 2.796875 -0.03125 2.796875 -0.09375 C 2.796875 -0.15625 2.804688 -0.1875 2.828125 -0.1875 C 3.253906 -0.1875 3.566406 -0.207031 3.765625 -0.25 C 3.972656 -0.300781 4.113281 -0.398438 4.1875 -0.546875 C 4.257812 -0.691406 4.296875 -0.921875 4.296875 -1.234375 L 4.296875 -8.25 C 4.296875 -8.539062 4.257812 -8.75 4.1875 -8.875 C 4.125 -9 4.003906 -9.082031 3.828125 -9.125 C 3.648438 -9.164062 3.351562 -9.1875 2.9375 -9.1875 Z M 2.9375 -9.1875 "/></g></g><path style="fill:none;stroke-width:3;stroke-linecap:butt;stroke-linejoin:miter;stroke:#ffffff;stroke-opacity:1;stroke-miterlimit:4;" d="M -0.00000441667 1.501601 L 399.942729 1.501601 " transform="matrix(0.75,0,0,0.75,0.0000033125,142.9988)"/><g clip-rule="nonzero" clip-path="url(#145979ef06)"><g clip-rule="nonzero" clip-path="url(#a577722220)"><g clip-rule="nonzero" clip-path="url(#0dfa926067)"><path style=" stroke:none;fill-rule:nonzero;fill:#ffffff;fill-opacity:1;" d="M 202.613281 114.804688 L 200.796875 112.988281 C 199.789062 111.980469 199.554688 110.441406 200.183594 109.179688 C 201.25 107.046875 202.179688 104.855469 202.890625 102.609375 C 203.34375 101.246094 204.585938 100.320312 206.046875 100.320312 L 208.652344 100.320312 C 213.78125 100.320312 217.984375 96.117188 217.984375 90.984375 L 217.945312 84.628906 C 217.945312 79.5 213.761719 75.316406 208.613281 75.296875 L 206.007812 75.296875 C 204.585938 75.296875 203.304688 74.371094 202.867188 73.027344 C 202.140625 70.796875 201.230469 68.585938 200.164062 66.457031 C 199.515625 65.171875 199.769531 63.65625 200.777344 62.648438 L 202.59375 60.832031 C 206.222656 57.203125 206.222656 51.28125 202.59375 47.652344 L 198.113281 43.171875 C 194.480469 39.539062 188.5625 39.539062 184.929688 43.171875 L 183.117188 44.988281 C 182.109375 45.992188 180.570312 46.230469 179.308594 45.597656 C 177.175781 44.53125 174.984375 43.605469 172.738281 42.894531 C 171.375 42.441406 170.449219 41.199219 170.449219 39.738281 L 170.449219 37.132812 C 170.449219 32.003906 166.242188 27.800781 161.113281 27.800781 L 154.757812 27.800781 C 149.628906 27.800781 145.425781 32.003906 145.425781 37.132812 L 145.425781 39.738281 C 145.425781 41.160156 144.519531 42.421875 143.15625 42.875 C 140.925781 43.605469 138.714844 44.511719 136.585938 45.578125 C 135.300781 46.230469 133.78125 45.972656 132.777344 44.96875 L 130.960938 43.152344 C 127.308594 39.5 121.390625 39.5 117.738281 43.152344 L 113.261719 47.632812 C 109.628906 51.261719 109.628906 57.183594 113.261719 60.8125 L 115.074219 62.628906 C 116.082031 63.632812 116.320312 65.171875 115.6875 66.4375 C 114.621094 68.566406 113.695312 70.757812 112.984375 73.007812 C 112.53125 74.371094 111.289062 75.296875 109.828125 75.296875 L 107.222656 75.296875 C 102.089844 75.296875 97.886719 79.5 97.886719 84.628906 L 97.929688 90.984375 C 97.929688 96.117188 102.109375 100.300781 107.261719 100.320312 L 109.867188 100.320312 C 111.289062 100.320312 112.570312 101.246094 113.003906 102.589844 C 113.734375 104.816406 114.640625 107.027344 115.707031 109.160156 C 116.359375 110.441406 116.101562 111.960938 115.09375 112.96875 L 113.261719 114.804688 C 109.628906 118.433594 109.628906 124.355469 113.261719 127.984375 L 117.738281 132.464844 C 121.371094 136.09375 127.289062 136.09375 130.921875 132.464844 L 132.757812 130.628906 C 133.761719 129.621094 135.300781 129.386719 136.566406 130.015625 C 138.695312 131.082031 140.886719 132.011719 143.136719 132.71875 C 144.5 133.175781 145.425781 134.417969 145.425781 135.878906 L 145.425781 138.484375 C 145.425781 143.613281 149.628906 147.816406 154.757812 147.816406 L 161.113281 147.816406 C 166.246094 147.816406 170.449219 143.613281 170.449219 138.484375 L 170.449219 135.878906 C 170.449219 134.457031 171.355469 133.195312 172.714844 132.742188 C 174.945312 132.011719 177.15625 131.101562 179.289062 130.035156 C 180.570312 129.386719 182.089844 129.640625 183.097656 130.648438 L 184.910156 132.464844 C 188.542969 136.09375 194.460938 136.09375 198.09375 132.464844 L 202.574219 127.984375 C 206.242188 124.355469 206.242188 118.433594 202.613281 114.804688 Z M 193.890625 128.222656 C 192.589844 129.523438 190.476562 129.503906 189.195312 128.222656 L 187.378906 126.40625 C 184.535156 123.5625 180.214844 122.875 176.625 124.6875 C 174.789062 125.617188 172.855469 126.40625 170.902344 127.058594 C 167.074219 128.320312 164.488281 131.851562 164.46875 135.898438 L 164.46875 138.503906 C 164.46875 140.355469 162.988281 141.835938 161.132812 141.835938 L 154.777344 141.835938 C 152.925781 141.835938 151.445312 140.316406 151.445312 138.503906 L 151.445312 135.898438 C 151.445312 131.871094 148.878906 128.320312 145.011719 127.058594 C 143.058594 126.40625 141.144531 125.636719 139.289062 124.6875 C 135.695312 122.875 131.375 123.5625 128.535156 126.40625 L 126.699219 128.242188 C 125.394531 129.542969 123.285156 129.523438 122.003906 128.242188 L 117.523438 123.761719 C 116.21875 122.460938 116.238281 120.347656 117.523438 119.066406 L 119.359375 117.230469 C 122.199219 114.386719 122.890625 110.066406 121.074219 106.476562 C 120.148438 104.640625 119.359375 102.707031 118.707031 100.753906 C 118.234375 99.332031 117.445312 98.070312 116.4375 97.0625 C 114.742188 95.367188 112.390625 94.359375 109.867188 94.359375 L 107.261719 94.359375 C 105.425781 94.339844 103.925781 92.878906 103.925781 91.023438 L 103.925781 84.671875 C 103.925781 82.816406 105.40625 81.335938 107.261719 81.335938 L 109.867188 81.335938 C 113.890625 81.335938 117.445312 78.769531 118.707031 74.902344 C 119.359375 72.949219 120.128906 71.035156 121.074219 69.179688 C 122.890625 65.589844 122.199219 61.265625 119.359375 58.425781 L 117.542969 56.609375 C 116.238281 55.308594 116.261719 53.195312 117.542969 51.914062 L 122.023438 47.433594 C 123.324219 46.132812 125.4375 46.152344 126.71875 47.433594 L 128.535156 49.25 C 131.375 52.089844 135.695312 52.78125 139.289062 50.964844 C 141.125 50.039062 143.058594 49.25 145.011719 48.597656 C 148.839844 47.335938 151.425781 43.804688 151.445312 39.757812 L 151.445312 37.152344 C 151.445312 35.296875 152.925781 33.816406 154.777344 33.816406 L 161.132812 33.816406 C 162.988281 33.816406 164.46875 35.296875 164.46875 37.152344 L 164.46875 39.757812 C 164.46875 43.78125 167.054688 47.355469 170.902344 48.597656 C 172.855469 49.25 174.769531 50.019531 176.625 50.964844 C 180.214844 52.78125 184.535156 52.089844 187.378906 49.25 L 189.195312 47.433594 C 190.496094 46.132812 192.609375 46.152344 193.890625 47.433594 L 198.371094 51.914062 C 199.671875 53.214844 199.652344 55.328125 198.371094 56.609375 L 196.554688 58.425781 C 193.710938 61.265625 193.023438 65.589844 194.835938 69.179688 C 195.765625 71.015625 196.554688 72.949219 197.207031 74.902344 C 198.46875 78.730469 202 81.316406 206.046875 81.335938 L 208.652344 81.335938 C 210.484375 81.316406 211.984375 82.816406 211.984375 84.671875 L 211.984375 91.023438 C 211.984375 92.878906 210.503906 94.359375 208.652344 94.359375 L 206.046875 94.359375 C 202.019531 94.359375 198.46875 96.925781 197.207031 100.792969 C 196.554688 102.746094 195.785156 104.660156 194.835938 106.515625 C 193.023438 110.105469 193.710938 114.429688 196.554688 117.269531 L 198.371094 119.085938 C 199.671875 120.386719 199.652344 122.5 198.371094 123.78125 L 193.910156 128.242188 Z M 193.890625 128.222656 "/></g></g></g><g clip-rule="nonzero" clip-path="url(#763150762f)"><g clip-rule="nonzero" clip-path="url(#bd16fabea5)"><g clip-rule="nonzero" clip-path="url(#1ce1dea3bc)"><path style=" stroke:none;fill-rule:nonzero;fill:#ffffff;fill-opacity:1;" d="M 180.214844 65.527344 C 167.941406 53.253906 147.953125 53.234375 135.65625 65.527344 C 123.363281 77.824219 123.382812 97.8125 135.65625 110.085938 C 147.933594 122.359375 167.941406 122.359375 180.214844 110.085938 C 192.488281 97.8125 192.488281 77.804688 180.214844 65.527344 Z M 139.898438 105.84375 C 129.953125 95.898438 129.953125 79.71875 139.898438 69.773438 C 149.847656 59.824219 166.027344 59.824219 175.972656 69.773438 C 185.917969 79.71875 185.917969 95.898438 175.972656 105.84375 C 166.027344 115.789062 149.847656 115.789062 139.898438 105.84375 Z M 139.898438 105.84375 "/></g></g></g><g clip-rule="nonzero" clip-path="url(#3214f3706f)"><path style=" stroke:none;fill-rule:nonzero;fill:#ffffff;fill-opacity:1;" d="M 168.570312 115.921875 L 166.011719 115.921875 C 164.589844 115.921875 163.339844 115 162.894531 113.664062 C 162.140625 111.410156 161.25 109.210938 160.164062 107.125 C 159.523438 105.84375 159.746094 104.3125 160.777344 103.28125 L 162.613281 101.445312 C 166.234375 97.828125 166.234375 91.898438 162.613281 88.277344 L 158.105469 83.824219 C 154.488281 80.207031 148.585938 80.207031 144.9375 83.824219 L 143.101562 85.664062 C 142.097656 86.664062 140.539062 86.914062 139.289062 86.273438 C 137.199219 85.21875 135 84.296875 132.746094 83.546875 C 131.382812 83.101562 130.492188 81.847656 130.492188 80.429688 L 130.492188 77.867188 C 130.492188 72.746094 126.316406 68.570312 121.195312 68.570312 L 114.875 68.570312 C 109.753906 68.570312 105.578125 72.746094 105.578125 77.867188 L 105.578125 80.429688 C 105.578125 81.847656 104.660156 83.101562 103.324219 83.546875 C 101.070312 84.296875 98.871094 85.1875 96.78125 86.273438 C 95.5 86.914062 93.972656 86.691406 92.941406 85.664062 L 91.105469 83.824219 C 87.484375 80.207031 81.554688 80.207031 77.9375 83.824219 L 73.457031 88.304688 C 69.835938 91.925781 69.835938 97.855469 73.457031 101.472656 L 75.292969 103.308594 C 76.296875 104.3125 76.546875 105.84375 75.90625 107.125 C 74.847656 109.210938 73.929688 111.410156 73.175781 113.664062 C 72.730469 115.027344 71.480469 115.921875 70.058594 115.921875 L 67.5 115.921875 C 62.347656 115.921875 58.171875 120.09375 58.171875 125.246094 L 58.171875 131.5625 C 58.171875 136.6875 62.347656 140.859375 67.472656 140.859375 L 70.03125 140.859375 C 71.453125 140.859375 72.703125 141.78125 73.148438 143.117188 C 73.902344 145.371094 74.792969 147.570312 75.878906 149.65625 C 76.519531 150.9375 76.296875 152.46875 75.265625 153.5 L 73.429688 155.335938 C 69.808594 158.953125 69.808594 164.882812 73.429688 168.503906 L 77.9375 172.957031 C 81.554688 176.574219 87.457031 176.574219 91.105469 172.957031 L 92.941406 171.117188 C 93.941406 170.117188 95.5 169.867188 96.753906 170.507812 C 98.84375 171.5625 101.042969 172.484375 103.296875 173.234375 C 104.660156 173.679688 105.550781 174.933594 105.550781 176.351562 L 105.550781 178.941406 C 105.550781 184.0625 109.726562 188.238281 114.847656 188.238281 L 121.167969 188.238281 C 126.289062 188.238281 130.464844 184.0625 130.464844 178.941406 L 130.464844 176.351562 C 130.464844 174.933594 131.382812 173.679688 132.71875 173.234375 C 134.972656 172.484375 137.171875 171.59375 139.261719 170.507812 C 140.539062 169.867188 142.070312 170.089844 143.101562 171.117188 L 144.9375 172.957031 C 148.558594 176.574219 154.488281 176.574219 158.105469 172.957031 L 162.585938 168.476562 C 166.207031 164.855469 166.207031 158.925781 162.585938 155.308594 L 160.75 153.472656 C 159.746094 152.46875 159.496094 150.9375 160.136719 149.65625 C 161.195312 147.570312 162.113281 145.371094 162.867188 143.117188 C 163.3125 141.753906 164.5625 140.859375 165.984375 140.859375 L 168.542969 140.859375 C 173.664062 140.859375 177.839844 136.6875 177.839844 131.5625 L 177.839844 125.246094 C 177.867188 120.09375 173.695312 115.921875 168.570312 115.921875 Z M 171.882812 131.535156 C 171.882812 133.375 170.382812 134.847656 168.570312 134.847656 L 166.011719 134.847656 C 162.003906 134.847656 158.46875 137.410156 157.214844 141.222656 C 156.574219 143.171875 155.765625 145.09375 154.847656 146.929688 C 153.039062 150.519531 153.707031 154.835938 156.546875 157.703125 L 158.382812 159.539062 C 159.691406 160.847656 159.691406 162.933594 158.382812 164.242188 L 153.902344 168.726562 C 152.59375 170.035156 150.476562 170.003906 149.199219 168.726562 L 147.359375 166.886719 C 144.519531 164.046875 140.207031 163.351562 136.589844 165.191406 C 134.75 166.109375 132.859375 166.914062 130.882812 167.554688 C 127.066406 168.808594 124.507812 172.34375 124.507812 176.351562 L 124.507812 178.941406 C 124.507812 180.777344 123.003906 182.253906 121.195312 182.253906 L 114.875 182.253906 C 113.039062 182.253906 111.5625 180.75 111.5625 178.941406 L 111.5625 176.351562 C 111.5625 172.34375 109.003906 168.808594 105.1875 167.554688 C 103.242188 166.914062 101.320312 166.109375 99.484375 165.191406 C 98.144531 164.523438 96.699219 164.1875 95.277344 164.1875 C 92.886719 164.1875 90.519531 165.132812 88.738281 166.914062 L 86.902344 168.753906 C 85.59375 170.035156 83.503906 170.0625 82.195312 168.753906 L 77.714844 164.269531 C 76.40625 162.964844 76.40625 160.875 77.714844 159.566406 L 79.550781 157.730469 C 82.390625 154.890625 83.085938 150.574219 81.25 146.957031 C 80.332031 145.121094 79.523438 143.226562 78.882812 141.25 C 77.632812 137.4375 74.097656 134.875 70.085938 134.875 L 67.527344 134.875 C 65.691406 134.875 64.214844 133.375 64.214844 131.5625 L 64.214844 125.246094 C 64.214844 123.40625 65.71875 121.933594 67.527344 121.933594 L 70.085938 121.933594 C 74.097656 121.933594 77.632812 119.371094 78.882812 115.558594 C 79.523438 113.609375 80.332031 111.6875 81.25 109.851562 C 83.058594 106.261719 82.390625 101.945312 79.550781 99.078125 L 77.714844 97.242188 C 76.40625 95.933594 76.40625 93.847656 77.714844 92.539062 L 82.195312 88.054688 C 83.503906 86.746094 85.59375 86.746094 86.902344 88.054688 L 88.738281 89.894531 C 91.578125 92.734375 95.917969 93.429688 99.511719 91.589844 C 101.347656 90.671875 103.242188 89.867188 105.214844 89.226562 C 109.03125 87.972656 111.589844 84.4375 111.589844 80.429688 L 111.589844 77.867188 C 111.589844 76.03125 113.09375 74.554688 114.902344 74.554688 L 121.222656 74.554688 C 123.058594 74.554688 124.535156 76.058594 124.535156 77.867188 L 124.535156 80.429688 C 124.535156 84.4375 127.097656 87.972656 130.910156 89.226562 C 132.859375 89.867188 134.777344 90.671875 136.617188 91.589844 C 140.207031 93.402344 144.519531 92.734375 147.386719 89.894531 L 149.226562 88.054688 C 150.507812 86.746094 152.621094 86.746094 153.929688 88.054688 L 158.410156 92.539062 C 159.71875 93.847656 159.71875 95.933594 158.410156 97.242188 L 156.574219 99.078125 C 153.734375 101.917969 153.039062 106.234375 154.875 109.851562 C 155.796875 111.6875 156.601562 113.582031 157.242188 115.558594 C 158.496094 119.371094 162.03125 121.933594 166.039062 121.933594 L 168.597656 121.933594 C 170.4375 121.933594 171.910156 123.4375 171.910156 125.246094 L 171.910156 131.535156 Z M 171.882812 131.535156 "/></g><g clip-rule="nonzero" clip-path="url(#2dbfee0c0e)"><path style=" stroke:none;fill-rule:nonzero;fill:#ffffff;fill-opacity:1;" d="M 118.019531 96.964844 C 100.707031 96.964844 86.59375 111.046875 86.59375 128.390625 C 86.59375 145.734375 100.707031 159.816406 118.019531 159.816406 C 135.335938 159.816406 149.449219 145.703125 149.449219 128.390625 C 149.449219 111.078125 135.335938 96.964844 118.019531 96.964844 Z M 118.019531 153.832031 C 103.992188 153.832031 92.578125 142.421875 92.578125 128.390625 C 92.578125 114.359375 103.992188 102.949219 118.019531 102.949219 C 132.050781 102.949219 143.464844 114.359375 143.464844 128.390625 C 143.464844 142.421875 132.050781 153.832031 118.019531 153.832031 Z M 118.019531 153.832031 "/></g></g></svg>