<svg xmlns="http://www.w3.org/2000/svg" xmlns:xlink="http://www.w3.org/1999/xlink" width="300" zoomAndPan="magnify" viewBox="0 0 224.87999 225" height="300" preserveAspectRatio="xMidYMid meet" version="1.2"><defs><clipPath id="1eb3a9384b"><path d="M 77 4.863281 L 148 4.863281 L 148 51 L 77 51 Z M 77 4.863281 "/></clipPath><clipPath id="e108dc4614"><path d="M 43.28125 43 L 181.957031 43 L 181.957031 219.996094 L 43.28125 219.996094 Z M 43.28125 43 "/></clipPath></defs><g id="cff2e34371"><path style=" stroke:none;fill-rule:nonzero;fill:#000000;fill-opacity:1;" d="M 158.847656 150.824219 C 158.847656 151.328125 158.796875 151.828125 158.699219 152.324219 C 158.597656 152.816406 158.453125 153.296875 158.257812 153.761719 C 158.066406 154.230469 157.828125 154.671875 157.546875 155.089844 C 157.265625 155.511719 156.945312 155.898438 156.589844 156.253906 C 156.230469 156.609375 155.84375 156.929688 155.421875 157.210938 C 155 157.488281 154.558594 157.726562 154.089844 157.917969 C 153.621094 158.113281 153.140625 158.257812 152.644531 158.355469 C 152.148438 158.453125 151.648438 158.503906 151.140625 158.503906 C 150.636719 158.503906 150.132812 158.453125 149.636719 158.355469 C 149.140625 158.257812 148.660156 158.113281 148.191406 157.917969 C 147.726562 157.726562 147.28125 157.488281 146.859375 157.210938 C 146.441406 156.929688 146.050781 156.609375 145.695312 156.253906 C 145.335938 155.898438 145.015625 155.511719 144.734375 155.089844 C 144.453125 154.671875 144.21875 154.230469 144.023438 153.761719 C 143.832031 153.296875 143.683594 152.816406 143.585938 152.324219 C 143.488281 151.828125 143.4375 151.328125 143.4375 150.824219 C 143.4375 150.320312 143.488281 149.820312 143.585938 149.328125 C 143.683594 148.832031 143.832031 148.351562 144.023438 147.886719 C 144.21875 147.421875 144.453125 146.976562 144.734375 146.558594 C 145.015625 146.140625 145.335938 145.75 145.695312 145.394531 C 146.050781 145.039062 146.441406 144.71875 146.859375 144.441406 C 147.28125 144.160156 147.726562 143.921875 148.191406 143.730469 C 148.660156 143.535156 149.140625 143.390625 149.636719 143.292969 C 150.132812 143.195312 150.636719 143.144531 151.140625 143.144531 C 151.648438 143.144531 152.148438 143.195312 152.644531 143.292969 C 153.140625 143.390625 153.621094 143.535156 154.089844 143.730469 C 154.558594 143.921875 155 144.160156 155.421875 144.441406 C 155.84375 144.71875 156.230469 145.039062 156.589844 145.394531 C 156.945312 145.75 157.265625 146.140625 157.546875 146.558594 C 157.828125 146.976562 158.066406 147.421875 158.257812 147.886719 C 158.453125 148.351562 158.597656 148.832031 158.699219 149.328125 C 158.796875 149.820312 158.847656 150.320312 158.847656 150.824219 Z M 158.847656 150.824219 "/><path style=" stroke:none;fill-rule:nonzero;fill:#000000;fill-opacity:1;" d="M 81.804688 189.21875 C 81.804688 189.722656 81.753906 190.222656 81.65625 190.71875 C 81.558594 191.210938 81.410156 191.691406 81.21875 192.160156 C 81.023438 192.625 80.785156 193.066406 80.503906 193.484375 C 80.222656 193.90625 79.90625 194.292969 79.546875 194.648438 C 79.1875 195.007812 78.800781 195.324219 78.378906 195.605469 C 77.957031 195.882812 77.515625 196.121094 77.046875 196.3125 C 76.582031 196.507812 76.097656 196.652344 75.601562 196.75 C 75.105469 196.847656 74.605469 196.898438 74.097656 196.898438 C 73.59375 196.898438 73.09375 196.847656 72.597656 196.75 C 72.101562 196.652344 71.617188 196.507812 71.152344 196.3125 C 70.683594 196.121094 70.238281 195.882812 69.820312 195.605469 C 69.398438 195.324219 69.007812 195.007812 68.652344 194.648438 C 68.292969 194.292969 67.972656 193.90625 67.695312 193.484375 C 67.414062 193.066406 67.175781 192.625 66.980469 192.160156 C 66.789062 191.691406 66.640625 191.210938 66.542969 190.71875 C 66.445312 190.222656 66.394531 189.722656 66.394531 189.21875 C 66.394531 188.714844 66.445312 188.214844 66.542969 187.722656 C 66.640625 187.226562 66.789062 186.746094 66.980469 186.28125 C 67.175781 185.816406 67.414062 185.371094 67.695312 184.953125 C 67.972656 184.535156 68.292969 184.144531 68.652344 183.789062 C 69.007812 183.433594 69.398438 183.113281 69.820312 182.835938 C 70.238281 182.554688 70.683594 182.316406 71.152344 182.125 C 71.617188 181.933594 72.101562 181.785156 72.597656 181.6875 C 73.09375 181.589844 73.59375 181.539062 74.097656 181.539062 C 74.605469 181.539062 75.105469 181.589844 75.601562 181.6875 C 76.097656 181.785156 76.582031 181.933594 77.046875 182.125 C 77.515625 182.316406 77.957031 182.554688 78.378906 182.835938 C 78.800781 183.113281 79.1875 183.433594 79.546875 183.789062 C 79.90625 184.144531 80.222656 184.535156 80.503906 184.953125 C 80.785156 185.371094 81.023438 185.816406 81.21875 186.28125 C 81.410156 186.746094 81.558594 187.226562 81.65625 187.722656 C 81.753906 188.214844 81.804688 188.714844 81.804688 189.21875 Z M 81.804688 189.21875 "/><path style=" stroke:none;fill-rule:nonzero;fill:#000000;fill-opacity:1;" d="M 120.324219 81.714844 C 120.324219 82.21875 120.273438 82.71875 120.175781 83.210938 C 120.078125 83.707031 119.933594 84.1875 119.738281 84.652344 C 119.542969 85.117188 119.308594 85.558594 119.027344 85.980469 C 118.746094 86.398438 118.425781 86.785156 118.066406 87.144531 C 117.710938 87.5 117.320312 87.816406 116.902344 88.097656 C 116.480469 88.378906 116.035156 88.613281 115.570312 88.808594 C 115.101562 89 114.621094 89.144531 114.125 89.246094 C 113.628906 89.34375 113.125 89.390625 112.621094 89.390625 C 112.113281 89.390625 111.613281 89.34375 111.117188 89.246094 C 110.621094 89.144531 110.140625 89 109.671875 88.808594 C 109.203125 88.613281 108.761719 88.378906 108.339844 88.097656 C 107.917969 87.816406 107.53125 87.5 107.171875 87.144531 C 106.816406 86.785156 106.496094 86.398438 106.214844 85.980469 C 105.933594 85.558594 105.695312 85.117188 105.503906 84.652344 C 105.308594 84.1875 105.164062 83.707031 105.0625 83.210938 C 104.964844 82.71875 104.917969 82.21875 104.917969 81.714844 C 104.917969 81.210938 104.964844 80.710938 105.0625 80.214844 C 105.164062 79.71875 105.308594 79.242188 105.503906 78.773438 C 105.695312 78.308594 105.933594 77.867188 106.214844 77.445312 C 106.496094 77.027344 106.816406 76.640625 107.171875 76.285156 C 107.53125 75.925781 107.917969 75.609375 108.339844 75.328125 C 108.761719 75.046875 109.203125 74.8125 109.671875 74.617188 C 110.140625 74.425781 110.621094 74.28125 111.117188 74.183594 C 111.613281 74.082031 112.113281 74.035156 112.621094 74.035156 C 113.125 74.035156 113.628906 74.082031 114.125 74.183594 C 114.621094 74.28125 115.101562 74.425781 115.570312 74.617188 C 116.035156 74.8125 116.480469 75.046875 116.902344 75.328125 C 117.320312 75.609375 117.710938 75.925781 118.066406 76.285156 C 118.425781 76.640625 118.746094 77.027344 119.027344 77.445312 C 119.308594 77.867188 119.542969 78.308594 119.738281 78.773438 C 119.933594 79.242188 120.078125 79.71875 120.175781 80.214844 C 120.273438 80.710938 120.324219 81.210938 120.324219 81.714844 Z M 120.324219 81.714844 "/><g clip-rule="nonzero" clip-path="url(#1eb3a9384b)"><path style=" stroke:none;fill-rule:nonzero;fill:#000000;fill-opacity:1;" d="M 147.289062 50.996094 L 147.289062 31.800781 C 147.289062 31.289062 147.191406 30.800781 146.996094 30.332031 C 146.800781 29.859375 146.523438 29.445312 146.160156 29.085938 C 145.800781 28.722656 145.382812 28.445312 144.910156 28.253906 C 144.441406 28.058594 143.949219 27.960938 143.4375 27.960938 L 128.027344 27.960938 C 127.519531 27.960938 127.027344 27.863281 126.554688 27.667969 C 126.082031 27.472656 125.667969 27.195312 125.304688 26.835938 C 124.945312 26.476562 124.664062 26.058594 124.46875 25.589844 C 124.273438 25.121094 124.175781 24.628906 124.175781 24.121094 L 124.175781 16.441406 C 124.175781 15.683594 124.101562 14.9375 123.953125 14.195312 C 123.804688 13.453125 123.585938 12.730469 123.296875 12.035156 C 123.007812 11.335938 122.652344 10.671875 122.230469 10.042969 C 121.808594 9.414062 121.328125 8.832031 120.792969 8.296875 C 120.253906 7.761719 119.671875 7.285156 119.039062 6.863281 C 118.410156 6.445312 117.742188 6.089844 117.042969 5.800781 C 116.339844 5.511719 115.621094 5.292969 114.875 5.144531 C 114.128906 4.996094 113.378906 4.921875 112.621094 4.921875 C 111.863281 4.921875 111.109375 4.996094 110.367188 5.144531 C 109.621094 5.292969 108.898438 5.511719 108.199219 5.800781 C 107.496094 6.089844 106.832031 6.445312 106.199219 6.863281 C 105.570312 7.285156 104.984375 7.761719 104.449219 8.296875 C 103.914062 8.832031 103.433594 9.414062 103.011719 10.042969 C 102.589844 10.671875 102.234375 11.335938 101.945312 12.035156 C 101.652344 12.730469 101.433594 13.453125 101.285156 14.195312 C 101.136719 14.9375 101.0625 15.683594 101.0625 16.441406 L 101.0625 24.121094 C 101.0625 24.628906 100.964844 25.121094 100.769531 25.589844 C 100.574219 26.058594 100.296875 26.476562 99.9375 26.835938 C 99.574219 27.195312 99.15625 27.472656 98.6875 27.667969 C 98.214844 27.863281 97.722656 27.960938 97.210938 27.960938 L 77.953125 27.960938 C 77.890625 28.894531 77.890625 29.828125 77.953125 30.761719 L 77.953125 50.996094 Z M 124.175781 35.640625 L 131.882812 35.640625 L 131.882812 43.316406 L 124.175781 43.316406 Z M 108.769531 35.640625 L 116.472656 35.640625 L 116.472656 43.316406 L 108.769531 43.316406 Z M 93.359375 35.640625 L 101.0625 35.640625 L 101.0625 43.316406 L 93.359375 43.316406 Z M 93.359375 35.640625 "/></g><g clip-rule="nonzero" clip-path="url(#e108dc4614)"><path style=" stroke:none;fill-rule:nonzero;fill:#000000;fill-opacity:1;" d="M 154.992188 43.316406 L 154.992188 54.835938 C 154.992188 55.347656 154.894531 55.835938 154.699219 56.304688 C 154.503906 56.777344 154.226562 57.191406 153.867188 57.550781 C 153.503906 57.910156 153.085938 58.1875 152.617188 58.382812 C 152.144531 58.578125 151.652344 58.675781 151.140625 58.675781 L 74.097656 58.675781 C 73.589844 58.675781 73.097656 58.578125 72.625 58.382812 C 72.152344 58.1875 71.738281 57.910156 71.375 57.550781 C 71.015625 57.191406 70.734375 56.777344 70.539062 56.304688 C 70.34375 55.835938 70.246094 55.347656 70.246094 54.835938 L 70.246094 43.316406 L 43.28125 43.316406 L 43.28125 219.9375 L 181.957031 219.9375 L 181.957031 43.316406 Z M 137.042969 104.019531 L 142.511719 98.570312 L 150.679688 106.707031 L 158.847656 98.570312 L 164.316406 104.019531 L 156.109375 112.160156 L 164.316406 120.300781 L 158.847656 125.714844 L 150.679688 117.574219 L 142.511719 125.714844 L 137.042969 120.300781 L 145.246094 112.160156 Z M 55.957031 84.4375 L 61.425781 78.988281 L 69.59375 87.128906 L 77.953125 78.988281 L 83.382812 84.4375 L 75.214844 92.578125 L 83.191406 100.910156 L 77.953125 106.132812 L 69.785156 97.992188 L 61.617188 106.132812 L 55.957031 100.910156 L 64.121094 92.769531 Z M 126.910156 198.011719 L 121.441406 203.464844 L 113.273438 195.324219 L 105.109375 203.464844 L 99.675781 198.011719 L 107.84375 189.871094 L 99.675781 181.734375 L 105.109375 176.320312 L 113.273438 184.457031 L 121.441406 176.320312 L 126.910156 181.734375 L 118.746094 189.871094 Z M 121.441406 122.835938 L 116.472656 117.84375 L 116.472656 139.304688 C 116.472656 140.0625 116.398438 140.8125 116.25 141.554688 C 116.101562 142.296875 115.882812 143.015625 115.59375 143.714844 C 115.300781 144.414062 114.945312 145.078125 114.523438 145.707031 C 114.101562 146.335938 113.625 146.917969 113.085938 147.449219 C 112.550781 147.984375 111.96875 148.464844 111.335938 148.882812 C 110.707031 149.304688 110.039062 149.660156 109.339844 149.949219 C 108.636719 150.238281 107.914062 150.457031 107.171875 150.601562 C 106.425781 150.75 105.675781 150.824219 104.917969 150.824219 L 81.804688 150.824219 C 81.292969 150.824219 80.800781 150.921875 80.328125 151.117188 C 79.859375 151.3125 79.441406 151.589844 79.078125 151.949219 C 78.71875 152.308594 78.441406 152.722656 78.246094 153.195312 C 78.050781 153.664062 77.953125 154.15625 77.953125 154.664062 L 77.953125 174.398438 C 78.550781 174.554688 79.136719 174.742188 79.714844 174.96875 C 80.292969 175.191406 80.851562 175.453125 81.398438 175.742188 C 81.941406 176.035156 82.46875 176.359375 82.972656 176.714844 C 83.480469 177.070312 83.964844 177.453125 84.421875 177.867188 C 84.882812 178.28125 85.316406 178.71875 85.722656 179.1875 C 86.128906 179.652344 86.503906 180.140625 86.851562 180.648438 C 87.199219 181.160156 87.515625 181.691406 87.796875 182.238281 C 88.082031 182.789062 88.332031 183.351562 88.546875 183.929688 C 88.761719 184.507812 88.941406 185.097656 89.085938 185.695312 C 89.230469 186.296875 89.335938 186.902344 89.40625 187.515625 C 89.476562 188.128906 89.511719 188.746094 89.507812 189.359375 C 89.503906 189.976562 89.464844 190.59375 89.386719 191.203125 C 89.308594 191.816406 89.191406 192.421875 89.042969 193.019531 C 88.890625 193.617188 88.703125 194.207031 88.480469 194.78125 C 88.257812 195.355469 88.003906 195.917969 87.714844 196.464844 C 87.421875 197.007812 87.101562 197.535156 86.746094 198.039062 C 86.394531 198.546875 86.011719 199.03125 85.601562 199.492188 C 85.1875 199.953125 84.75 200.386719 84.285156 200.792969 C 83.820312 201.199219 83.332031 201.578125 82.824219 201.929688 C 82.3125 202.277344 81.785156 202.597656 81.234375 202.882812 C 80.6875 203.167969 80.121094 203.417969 79.542969 203.636719 C 78.964844 203.855469 78.375 204.039062 77.773438 204.183594 C 77.171875 204.332031 76.5625 204.441406 75.949219 204.515625 C 75.335938 204.589844 74.71875 204.628906 74.097656 204.628906 C 73.480469 204.628906 72.863281 204.589844 72.25 204.515625 C 71.632812 204.441406 71.027344 204.332031 70.425781 204.183594 C 69.824219 204.039062 69.234375 203.855469 68.65625 203.636719 C 68.078125 203.417969 67.511719 203.167969 66.964844 202.882812 C 66.414062 202.597656 65.886719 202.277344 65.375 201.929688 C 64.867188 201.578125 64.378906 201.199219 63.914062 200.792969 C 63.449219 200.386719 63.011719 199.953125 62.597656 199.492188 C 62.1875 199.03125 61.804688 198.546875 61.449219 198.039062 C 61.097656 197.535156 60.777344 197.007812 60.484375 196.464844 C 60.195312 195.917969 59.941406 195.355469 59.71875 194.78125 C 59.496094 194.207031 59.308594 193.617188 59.15625 193.019531 C 59.007812 192.421875 58.890625 191.816406 58.8125 191.203125 C 58.734375 190.59375 58.695312 189.976562 58.691406 189.359375 C 58.6875 188.746094 58.722656 188.128906 58.792969 187.515625 C 58.863281 186.902344 58.96875 186.296875 59.113281 185.695312 C 59.257812 185.097656 59.4375 184.507812 59.652344 183.929688 C 59.867188 183.351562 60.117188 182.789062 60.398438 182.238281 C 60.683594 181.691406 61 181.160156 61.347656 180.648438 C 61.695312 180.140625 62.070312 179.652344 62.476562 179.1875 C 62.882812 178.71875 63.316406 178.28125 63.777344 177.867188 C 64.234375 177.453125 64.71875 177.070312 65.222656 176.714844 C 65.730469 176.359375 66.257812 176.035156 66.800781 175.742188 C 67.347656 175.453125 67.90625 175.191406 68.484375 174.96875 C 69.058594 174.742188 69.648438 174.554688 70.246094 174.398438 L 70.246094 154.664062 C 70.246094 153.90625 70.320312 153.160156 70.46875 152.417969 C 70.617188 151.675781 70.835938 150.953125 71.125 150.257812 C 71.417969 149.558594 71.773438 148.894531 72.195312 148.265625 C 72.617188 147.636719 73.09375 147.054688 73.632812 146.519531 C 74.167969 145.984375 74.753906 145.507812 75.382812 145.085938 C 76.015625 144.667969 76.679688 144.3125 77.382812 144.023438 C 78.082031 143.734375 78.804688 143.515625 79.550781 143.367188 C 80.292969 143.21875 81.042969 143.144531 81.804688 143.144531 L 104.917969 143.144531 C 105.425781 143.144531 105.917969 143.046875 106.390625 142.851562 C 106.863281 142.660156 107.277344 142.382812 107.640625 142.019531 C 108 141.660156 108.28125 141.246094 108.476562 140.773438 C 108.671875 140.304688 108.769531 139.816406 108.769531 139.304688 L 108.769531 117.84375 L 103.800781 122.835938 L 98.328125 117.382812 L 109.886719 105.863281 C 110.246094 105.5 110.664062 105.21875 111.140625 105.023438 C 111.613281 104.828125 112.105469 104.726562 112.621094 104.726562 C 113.132812 104.726562 113.628906 104.828125 114.101562 105.023438 C 114.574219 105.21875 114.992188 105.5 115.355469 105.863281 L 126.910156 117.382812 Z M 112.621094 97.070312 C 111.609375 97.070312 110.605469 96.972656 109.613281 96.777344 C 108.621094 96.578125 107.660156 96.289062 106.722656 95.902344 C 105.789062 95.515625 104.902344 95.042969 104.058594 94.484375 C 103.21875 93.921875 102.441406 93.285156 101.726562 92.574219 C 101.007812 91.859375 100.371094 91.085938 99.808594 90.246094 C 99.246094 89.40625 98.773438 88.523438 98.386719 87.589844 C 97.996094 86.660156 97.707031 85.699219 97.507812 84.710938 C 97.3125 83.71875 97.210938 82.722656 97.210938 81.714844 C 97.210938 80.703125 97.3125 79.707031 97.507812 78.71875 C 97.707031 77.726562 97.996094 76.769531 98.386719 75.835938 C 98.773438 74.902344 99.246094 74.019531 99.808594 73.179688 C 100.371094 72.34375 101.007812 71.566406 101.726562 70.851562 C 102.441406 70.140625 103.21875 69.503906 104.058594 68.945312 C 104.902344 68.382812 105.789062 67.910156 106.722656 67.523438 C 107.660156 67.136719 108.621094 66.847656 109.613281 66.648438 C 110.605469 66.453125 111.609375 66.355469 112.621094 66.355469 C 113.632812 66.355469 114.632812 66.453125 115.625 66.648438 C 116.617188 66.847656 117.582031 67.136719 118.515625 67.523438 C 119.453125 67.910156 120.339844 68.382812 121.179688 68.945312 C 122.023438 69.503906 122.800781 70.140625 123.515625 70.851562 C 124.230469 71.566406 124.871094 72.34375 125.433594 73.179688 C 125.996094 74.019531 126.46875 74.902344 126.855469 75.835938 C 127.242188 76.769531 127.535156 77.726562 127.734375 78.71875 C 127.929688 79.707031 128.027344 80.703125 128.027344 81.714844 C 128.027344 82.722656 127.929688 83.71875 127.734375 84.710938 C 127.535156 85.699219 127.242188 86.660156 126.855469 87.589844 C 126.46875 88.523438 125.996094 89.40625 125.433594 90.246094 C 124.871094 91.085938 124.230469 91.859375 123.515625 92.574219 C 122.800781 93.285156 122.023438 93.921875 121.179688 94.484375 C 120.339844 95.042969 119.453125 95.515625 118.515625 95.902344 C 117.582031 96.289062 116.617188 96.578125 115.625 96.777344 C 114.632812 96.972656 113.632812 97.070312 112.621094 97.070312 Z M 151.140625 166.183594 C 150.128906 166.183594 149.128906 166.085938 148.136719 165.886719 C 147.144531 165.691406 146.179688 165.398438 145.246094 165.011719 C 144.308594 164.628906 143.421875 164.15625 142.582031 163.59375 C 141.738281 163.035156 140.960938 162.398438 140.246094 161.683594 C 139.53125 160.972656 138.890625 160.195312 138.328125 159.355469 C 137.769531 158.519531 137.292969 157.632812 136.90625 156.703125 C 136.519531 155.769531 136.226562 154.808594 136.027344 153.820312 C 135.832031 152.832031 135.734375 151.832031 135.734375 150.824219 C 135.734375 149.816406 135.832031 148.816406 136.027344 147.828125 C 136.226562 146.839844 136.519531 145.878906 136.90625 144.945312 C 137.292969 144.015625 137.769531 143.128906 138.328125 142.292969 C 138.890625 141.453125 139.53125 140.679688 140.246094 139.964844 C 140.960938 139.25 141.738281 138.613281 142.582031 138.054688 C 143.421875 137.496094 144.308594 137.019531 145.246094 136.636719 C 146.179688 136.25 147.144531 135.957031 148.136719 135.761719 C 149.128906 135.566406 150.128906 135.464844 151.140625 135.464844 C 152.152344 135.464844 153.15625 135.566406 154.148438 135.761719 C 155.140625 135.957031 156.101562 136.25 157.039062 136.636719 C 157.972656 137.019531 158.859375 137.496094 159.703125 138.054688 C 160.542969 138.613281 161.320312 139.25 162.035156 139.964844 C 162.753906 140.679688 163.390625 141.453125 163.953125 142.292969 C 164.515625 143.128906 164.988281 144.015625 165.378906 144.945312 C 165.765625 145.878906 166.054688 146.839844 166.253906 147.828125 C 166.453125 148.816406 166.550781 149.816406 166.550781 150.824219 C 166.550781 151.832031 166.453125 152.832031 166.253906 153.820312 C 166.054688 154.808594 165.765625 155.769531 165.378906 156.703125 C 164.988281 157.632812 164.515625 158.519531 163.953125 159.355469 C 163.390625 160.195312 162.753906 160.972656 162.035156 161.683594 C 161.320312 162.398438 160.542969 163.035156 159.703125 163.59375 C 158.859375 164.15625 157.972656 164.628906 157.039062 165.011719 C 156.101562 165.398438 155.140625 165.691406 154.148438 165.886719 C 153.15625 166.085938 152.152344 166.183594 151.140625 166.183594 Z M 151.140625 166.183594 "/></g></g></svg>