<svg xmlns="http://www.w3.org/2000/svg" xmlns:xlink="http://www.w3.org/1999/xlink" width="300" zoomAndPan="magnify" viewBox="0 0 224.87999 225" height="300" preserveAspectRatio="xMidYMid meet" version="1.2"><defs><clipPath id="701aa5a3af"><path d="M 122 3.125 L 171 3.125 L 171 52 L 122 52 Z M 122 3.125 "/></clipPath><clipPath id="b9a987b222"><path d="M 134 55 L 195.113281 55 L 195.113281 129 L 134 129 Z M 134 55 "/></clipPath><clipPath id="5afdff3e44"><path d="M 53 3.125 L 103 3.125 L 103 52 L 53 52 Z M 53 3.125 "/></clipPath><clipPath id="6f69dfe815"><path d="M 29.449219 55 L 127 55 L 127 125 L 29.449219 125 Z M 29.449219 55 "/></clipPath></defs><g id="5eb7b8c246"><g clip-rule="nonzero" clip-path="url(#701aa5a3af)"><path style=" stroke:none;fill-rule:nonzero;fill:#000000;fill-opacity:1;" d="M 146.625 51.800781 C 133.253906 51.800781 122.382812 40.902344 122.382812 27.496094 C 122.382812 14.09375 133.253906 3.191406 146.625 3.191406 C 159.996094 3.191406 170.867188 14.09375 170.867188 27.496094 C 170.867188 40.902344 159.996094 51.800781 146.625 51.800781 Z M 146.625 11.292969 C 137.710938 11.292969 130.464844 18.5625 130.464844 27.496094 C 130.464844 36.433594 137.710938 43.699219 146.625 43.699219 C 155.539062 43.699219 162.789062 36.433594 162.789062 27.496094 C 162.789062 18.5625 155.539062 11.292969 146.625 11.292969 Z M 146.625 11.292969 "/></g><path style=" stroke:none;fill-rule:nonzero;fill:#000000;fill-opacity:1;" d="M 122.382812 221.9375 C 120.152344 221.9375 118.34375 220.125 118.34375 217.886719 L 118.34375 112.566406 C 118.34375 110.324219 120.152344 108.515625 122.382812 108.515625 C 124.613281 108.515625 126.421875 110.324219 126.421875 112.566406 L 126.421875 217.886719 C 126.421875 220.125 124.613281 221.9375 122.382812 221.9375 Z M 122.382812 221.9375 "/><path style=" stroke:none;fill-rule:nonzero;fill:#000000;fill-opacity:1;" d="M 126.421875 63.953125 L 102.179688 63.953125 C 99.949219 63.953125 98.140625 62.144531 98.140625 59.902344 C 98.140625 57.664062 99.949219 55.851562 102.179688 55.851562 L 126.421875 55.851562 C 128.652344 55.851562 130.464844 57.664062 130.464844 59.902344 C 130.464844 62.144531 128.652344 63.953125 126.421875 63.953125 Z M 126.421875 63.953125 "/><g clip-rule="nonzero" clip-path="url(#b9a987b222)"><path style=" stroke:none;fill-rule:nonzero;fill:#000000;fill-opacity:1;" d="M 178.949219 128.769531 L 148.644531 128.769531 C 140.847656 128.769531 134.503906 122.40625 134.503906 114.589844 C 134.503906 106.773438 140.847656 100.414062 148.644531 100.414062 L 166.828125 100.414062 L 166.828125 92.308594 C 166.828125 90.070312 168.636719 88.257812 170.867188 88.257812 C 173.097656 88.257812 174.910156 90.070312 174.910156 92.308594 L 174.910156 104.464844 C 174.910156 106.703125 173.097656 108.515625 170.867188 108.515625 L 148.644531 108.515625 C 145.304688 108.515625 142.585938 111.238281 142.585938 114.589844 C 142.585938 117.941406 145.304688 120.667969 148.644531 120.667969 L 178.949219 120.667969 C 183.40625 120.667969 187.03125 117.03125 187.03125 112.566406 L 187.03125 84.207031 C 187.03125 73.039062 177.96875 63.953125 166.828125 63.953125 C 164.597656 63.953125 162.789062 62.144531 162.789062 59.902344 C 162.789062 57.664062 164.597656 55.851562 166.828125 55.851562 C 182.425781 55.851562 195.113281 68.578125 195.113281 84.207031 L 195.113281 112.566406 C 195.113281 121.5 187.863281 128.769531 178.949219 128.769531 Z M 178.949219 128.769531 "/></g><path style=" stroke:none;fill-rule:nonzero;fill:#000000;fill-opacity:1;" d="M 170.867188 221.9375 C 168.636719 221.9375 166.828125 220.125 166.828125 217.886719 L 166.828125 124.71875 C 166.828125 122.476562 168.636719 120.667969 170.867188 120.667969 C 173.097656 120.667969 174.910156 122.476562 174.910156 124.71875 L 174.910156 217.886719 C 174.910156 220.125 173.097656 221.9375 170.867188 221.9375 Z M 170.867188 221.9375 "/><path style=" stroke:none;fill-rule:nonzero;fill:#000000;fill-opacity:1;" d="M 146.625 221.9375 C 144.394531 221.9375 142.585938 220.125 142.585938 217.886719 L 142.585938 144.972656 C 142.585938 142.730469 144.394531 140.921875 146.625 140.921875 C 148.855469 140.921875 150.667969 142.730469 150.667969 144.972656 L 150.667969 217.886719 C 150.667969 220.125 148.855469 221.9375 146.625 221.9375 Z M 146.625 221.9375 "/><g clip-rule="nonzero" clip-path="url(#5afdff3e44)"><path style=" stroke:none;fill-rule:nonzero;fill:#000000;fill-opacity:1;" d="M 77.9375 51.800781 C 64.566406 51.800781 53.695312 40.902344 53.695312 27.496094 C 53.695312 14.09375 64.566406 3.191406 77.9375 3.191406 C 91.308594 3.191406 102.179688 14.09375 102.179688 27.496094 C 102.179688 40.902344 91.308594 51.800781 77.9375 51.800781 Z M 77.9375 11.292969 C 69.023438 11.292969 61.773438 18.5625 61.773438 27.496094 C 61.773438 36.433594 69.023438 43.699219 77.9375 43.699219 C 86.851562 43.699219 94.097656 36.433594 94.097656 27.496094 C 94.097656 18.5625 86.851562 11.292969 77.9375 11.292969 Z M 77.9375 11.292969 "/></g><path style=" stroke:none;fill-rule:nonzero;fill:#000000;fill-opacity:1;" d="M 102.179688 221.9375 C 99.949219 221.9375 98.140625 220.125 98.140625 217.886719 L 98.140625 124.71875 L 57.734375 124.71875 L 57.734375 217.886719 C 57.734375 220.125 55.921875 221.9375 53.695312 221.9375 C 51.464844 221.9375 49.652344 220.125 49.652344 217.886719 L 49.652344 120.667969 C 49.652344 118.425781 51.464844 116.617188 53.695312 116.617188 L 102.179688 116.617188 C 104.410156 116.617188 106.21875 118.425781 106.21875 120.667969 L 106.21875 217.886719 C 106.21875 220.125 104.410156 221.9375 102.179688 221.9375 Z M 102.179688 221.9375 "/><path style=" stroke:none;fill-rule:nonzero;fill:#000000;fill-opacity:1;" d="M 77.9375 221.9375 C 75.707031 221.9375 73.894531 220.125 73.894531 217.886719 L 73.894531 144.972656 C 73.894531 142.730469 75.707031 140.921875 77.9375 140.921875 C 80.167969 140.921875 81.976562 142.730469 81.976562 144.972656 L 81.976562 217.886719 C 81.976562 220.125 80.167969 221.9375 77.9375 221.9375 Z M 77.9375 221.9375 "/><g clip-rule="nonzero" clip-path="url(#6f69dfe815)"><path style=" stroke:none;fill-rule:nonzero;fill:#000000;fill-opacity:1;" d="M 110.261719 124.71875 L 45.613281 124.71875 C 36.699219 124.71875 29.449219 117.449219 29.449219 108.515625 L 29.449219 84.207031 C 29.449219 68.578125 42.136719 55.851562 57.734375 55.851562 C 59.964844 55.851562 61.773438 57.664062 61.773438 59.902344 C 61.773438 62.144531 59.964844 63.953125 57.734375 63.953125 C 46.59375 63.953125 37.53125 73.039062 37.53125 84.207031 L 37.53125 108.515625 C 37.53125 112.980469 41.15625 116.617188 45.613281 116.617188 L 110.261719 116.617188 C 114.71875 116.617188 118.34375 112.980469 118.34375 108.515625 L 118.34375 84.207031 C 118.34375 73.039062 109.277344 63.953125 98.140625 63.953125 C 95.910156 63.953125 94.097656 62.144531 94.097656 59.902344 C 94.097656 57.664062 95.910156 55.851562 98.140625 55.851562 C 113.734375 55.851562 126.421875 68.578125 126.421875 84.207031 L 126.421875 108.515625 C 126.421875 117.449219 119.175781 124.71875 110.261719 124.71875 Z M 110.261719 124.71875 "/></g><path style=" stroke:none;fill-rule:nonzero;fill:#000000;fill-opacity:1;" d="M 106.214844 104.464844 C 104.328125 104.464844 102.640625 103.132812 102.261719 101.207031 L 98.21875 80.953125 C 97.785156 78.757812 99.203125 76.625 101.386719 76.183594 C 103.582031 75.726562 105.707031 77.164062 106.144531 79.359375 L 110.183594 99.613281 C 110.621094 101.808594 109.203125 103.941406 107.015625 104.382812 C 106.746094 104.4375 106.480469 104.464844 106.214844 104.464844 Z M 106.214844 104.464844 "/><path style=" stroke:none;fill-rule:nonzero;fill:#000000;fill-opacity:1;" d="M 57.734375 124.71875 C 56.148438 124.71875 54.648438 123.78125 54.003906 122.226562 C 53.148438 120.160156 54.117188 117.785156 56.179688 116.925781 L 101.589844 97.953125 L 100.597656 93.113281 L 50.535156 104.363281 C 49.191406 104.664062 47.800781 104.265625 46.828125 103.304688 C 45.851562 102.347656 45.421875 100.960938 45.6875 99.613281 L 49.730469 79.359375 C 50.160156 77.164062 52.289062 75.722656 54.484375 76.183594 C 56.675781 76.621094 58.09375 78.757812 57.652344 80.953125 L 54.832031 95.09375 L 102.84375 84.304688 C 103.898438 84.0625 105.011719 84.265625 105.921875 84.855469 C 106.832031 85.449219 107.464844 86.378906 107.6875 87.445312 L 110.179688 99.597656 C 110.570312 101.496094 109.5625 103.40625 107.777344 104.152344 L 59.289062 124.40625 C 58.78125 124.621094 58.25 124.71875 57.734375 124.71875 Z M 57.734375 124.71875 "/></g></svg>