<svg xmlns="http://www.w3.org/2000/svg" xmlns:xlink="http://www.w3.org/1999/xlink" width="300" zoomAndPan="magnify" viewBox="0 0 224.87999 225" height="300" preserveAspectRatio="xMidYMid meet" version="1.2"><defs><clipPath id="e9c079559d"><path d="M 73 144 L 152 144 L 152 211.808594 L 73 211.808594 Z M 73 144 "/></clipPath><clipPath id="ba608311b6"><path d="M 87 165 L 95 165 L 95 211.808594 L 87 211.808594 Z M 87 165 "/></clipPath><clipPath id="d16ac283ea"><path d="M 130 165 L 138 165 L 138 211.808594 L 130 211.808594 Z M 130 165 "/></clipPath><clipPath id="f7e4eeb78d"><path d="M 154 151 L 208 151 L 208 211.808594 L 154 211.808594 Z M 154 151 "/></clipPath><clipPath id="40a6e94daf"><path d="M 186 172 L 194 172 L 194 211.808594 L 186 211.808594 Z M 186 172 "/></clipPath><clipPath id="42e0349e98"><path d="M 16 151 L 70 151 L 70 211.808594 L 16 211.808594 Z M 16 151 "/></clipPath><clipPath id="9a96f0f6db"><path d="M 30 172 L 38 172 L 38 211.808594 L 30 211.808594 Z M 30 172 "/></clipPath><clipPath id="cbfda77f1f"><path d="M 2.527344 13.164062 L 67 13.164062 L 67 78 L 2.527344 78 Z M 2.527344 13.164062 "/></clipPath><clipPath id="09c816025c"><path d="M 158 13.164062 L 222.160156 13.164062 L 222.160156 78 L 158 78 Z M 158 13.164062 "/></clipPath><clipPath id="35c13be014"><path d="M 80 13.164062 L 145 13.164062 L 145 78 L 80 78 Z M 80 13.164062 "/></clipPath></defs><g id="841ef65964"><path style=" stroke:none;fill-rule:nonzero;fill:#000000;fill-opacity:1;" d="M 112.34375 140.847656 C 111.644531 140.847656 110.953125 140.8125 110.257812 140.746094 C 109.566406 140.675781 108.878906 140.574219 108.195312 140.4375 C 107.511719 140.304688 106.839844 140.132812 106.171875 139.929688 C 105.507812 139.730469 104.851562 139.496094 104.207031 139.226562 C 103.566406 138.960938 102.9375 138.664062 102.324219 138.335938 C 101.707031 138.007812 101.113281 137.648438 100.535156 137.261719 C 99.953125 136.875 99.394531 136.460938 98.859375 136.019531 C 98.320312 135.578125 97.804688 135.109375 97.3125 134.617188 C 96.820312 134.125 96.351562 133.609375 95.910156 133.070312 C 95.46875 132.53125 95.054688 131.972656 94.667969 131.394531 C 94.28125 130.816406 93.925781 130.21875 93.597656 129.605469 C 93.269531 128.988281 92.972656 128.359375 92.707031 127.71875 C 92.4375 127.074219 92.203125 126.417969 92.003906 125.75 C 91.800781 125.085938 91.632812 124.410156 91.496094 123.726562 C 91.359375 123.042969 91.257812 122.355469 91.191406 121.660156 C 91.121094 120.96875 91.085938 120.273438 91.085938 119.578125 C 91.085938 118.878906 91.121094 118.183594 91.191406 117.492188 C 91.257812 116.800781 91.359375 116.109375 91.496094 115.425781 C 91.632812 114.742188 91.800781 114.070312 92.003906 113.402344 C 92.203125 112.734375 92.4375 112.082031 92.707031 111.4375 C 92.972656 110.792969 93.269531 110.164062 93.597656 109.550781 C 93.925781 108.9375 94.28125 108.339844 94.667969 107.761719 C 95.054688 107.179688 95.46875 106.621094 95.910156 106.082031 C 96.351562 105.542969 96.820312 105.027344 97.3125 104.535156 C 97.804688 104.042969 98.320312 103.578125 98.859375 103.132812 C 99.394531 102.691406 99.953125 102.277344 100.535156 101.890625 C 101.113281 101.503906 101.707031 101.148438 102.324219 100.816406 C 102.9375 100.488281 103.566406 100.191406 104.207031 99.925781 C 104.851562 99.660156 105.507812 99.425781 106.171875 99.222656 C 106.839844 99.019531 107.511719 98.851562 108.195312 98.714844 C 108.878906 98.578125 109.566406 98.476562 110.257812 98.410156 C 110.953125 98.339844 111.644531 98.304688 112.34375 98.304688 C 113.039062 98.304688 113.734375 98.339844 114.425781 98.410156 C 115.117188 98.476562 115.804688 98.578125 116.488281 98.714844 C 117.171875 98.851562 117.847656 99.019531 118.511719 99.222656 C 119.179688 99.425781 119.832031 99.660156 120.476562 99.925781 C 121.117188 100.191406 121.746094 100.488281 122.363281 100.816406 C 122.976562 101.148438 123.570312 101.503906 124.152344 101.890625 C 124.730469 102.277344 125.289062 102.691406 125.824219 103.132812 C 126.363281 103.578125 126.878906 104.042969 127.371094 104.535156 C 127.863281 105.027344 128.332031 105.542969 128.773438 106.082031 C 129.214844 106.621094 129.628906 107.179688 130.015625 107.761719 C 130.402344 108.339844 130.757812 108.9375 131.085938 109.550781 C 131.414062 110.164062 131.710938 110.792969 131.980469 111.4375 C 132.246094 112.082031 132.480469 112.734375 132.679688 113.402344 C 132.882812 114.070312 133.050781 114.742188 133.1875 115.425781 C 133.324219 116.109375 133.425781 116.800781 133.496094 117.492188 C 133.5625 118.183594 133.597656 118.878906 133.597656 119.578125 C 133.597656 120.273438 133.5625 120.96875 133.496094 121.660156 C 133.425781 122.355469 133.324219 123.042969 133.1875 123.726562 C 133.050781 124.410156 132.882812 125.085938 132.679688 125.75 C 132.480469 126.417969 132.246094 127.074219 131.980469 127.71875 C 131.710938 128.359375 131.414062 128.988281 131.085938 129.605469 C 130.757812 130.21875 130.402344 130.816406 130.015625 131.394531 C 129.628906 131.972656 129.214844 132.53125 128.773438 133.070312 C 128.332031 133.609375 127.863281 134.125 127.371094 134.617188 C 126.878906 135.109375 126.363281 135.578125 125.824219 136.019531 C 125.289062 136.460938 124.730469 136.875 124.152344 137.261719 C 123.570312 137.648438 122.976562 138.007812 122.363281 138.335938 C 121.746094 138.664062 121.117188 138.960938 120.476562 139.226562 C 119.832031 139.496094 119.179688 139.730469 118.511719 139.929688 C 117.847656 140.132812 117.171875 140.304688 116.488281 140.4375 C 115.804688 140.574219 115.117188 140.675781 114.425781 140.746094 C 113.734375 140.8125 113.039062 140.847656 112.34375 140.847656 Z M 112.34375 105.398438 C 111.410156 105.398438 110.488281 105.488281 109.578125 105.667969 C 108.664062 105.851562 107.777344 106.121094 106.917969 106.476562 C 106.058594 106.832031 105.242188 107.269531 104.46875 107.785156 C 103.695312 108.304688 102.980469 108.890625 102.324219 109.550781 C 101.664062 110.207031 101.078125 110.925781 100.558594 111.699219 C 100.042969 112.472656 99.605469 113.289062 99.25 114.152344 C 98.894531 115.011719 98.625 115.898438 98.445312 116.8125 C 98.261719 117.722656 98.171875 118.644531 98.171875 119.578125 C 98.171875 120.507812 98.261719 121.429688 98.445312 122.34375 C 98.625 123.257812 98.894531 124.144531 99.25 125.003906 C 99.605469 125.863281 100.042969 126.679688 100.558594 127.457031 C 101.078125 128.230469 101.664062 128.945312 102.324219 129.605469 C 102.980469 130.261719 103.695312 130.851562 104.46875 131.367188 C 105.242188 131.882812 106.058594 132.320312 106.917969 132.679688 C 107.777344 133.035156 108.664062 133.304688 109.578125 133.484375 C 110.488281 133.667969 111.410156 133.757812 112.34375 133.757812 C 113.273438 133.757812 114.195312 133.667969 115.105469 133.484375 C 116.019531 133.304688 116.90625 133.035156 117.765625 132.679688 C 118.625 132.320312 119.441406 131.882812 120.214844 131.367188 C 120.988281 130.851562 121.703125 130.261719 122.363281 129.605469 C 123.019531 128.945312 123.605469 128.230469 124.125 127.457031 C 124.640625 126.679688 125.078125 125.863281 125.433594 125.003906 C 125.789062 124.144531 126.058594 123.257812 126.238281 122.34375 C 126.421875 121.429688 126.511719 120.507812 126.511719 119.578125 C 126.511719 118.644531 126.421875 117.722656 126.238281 116.8125 C 126.058594 115.898438 125.789062 115.011719 125.433594 114.152344 C 125.078125 113.289062 124.640625 112.472656 124.125 111.699219 C 123.605469 110.925781 123.019531 110.207031 122.363281 109.550781 C 121.703125 108.890625 120.988281 108.304688 120.214844 107.785156 C 119.441406 107.269531 118.625 106.832031 117.765625 106.476562 C 116.90625 106.121094 116.019531 105.851562 115.105469 105.667969 C 114.195312 105.488281 113.273438 105.398438 112.34375 105.398438 Z M 112.34375 105.398438 "/><g clip-rule="nonzero" clip-path="url(#e9c079559d)"><path style=" stroke:none;fill-rule:nonzero;fill:#000000;fill-opacity:1;" d="M 147.765625 211.75 C 147.296875 211.75 146.84375 211.660156 146.410156 211.480469 C 145.976562 211.300781 145.59375 211.042969 145.261719 210.710938 C 144.929688 210.378906 144.671875 209.996094 144.492188 209.558594 C 144.3125 209.125 144.222656 208.671875 144.222656 208.203125 L 144.222656 165.664062 C 144.222656 157.828125 136.289062 151.484375 126.511719 151.484375 L 98.171875 151.484375 C 88.394531 151.484375 80.460938 157.828125 80.460938 165.664062 L 80.460938 208.203125 C 80.460938 208.671875 80.371094 209.125 80.191406 209.558594 C 80.011719 209.996094 79.753906 210.378906 79.421875 210.710938 C 79.089844 211.042969 78.707031 211.300781 78.273438 211.480469 C 77.839844 211.660156 77.386719 211.75 76.917969 211.75 C 76.449219 211.75 75.996094 211.660156 75.5625 211.480469 C 75.128906 211.300781 74.746094 211.042969 74.414062 210.710938 C 74.082031 210.378906 73.824219 209.996094 73.644531 209.558594 C 73.464844 209.125 73.375 208.671875 73.375 208.203125 L 73.375 165.664062 C 73.375 153.929688 84.5 144.390625 98.171875 144.390625 L 126.511719 144.390625 C 140.1875 144.390625 151.308594 153.929688 151.308594 165.664062 L 151.308594 208.203125 C 151.308594 208.671875 151.21875 209.125 151.039062 209.558594 C 150.859375 209.996094 150.605469 210.378906 150.273438 210.710938 C 149.9375 211.042969 149.554688 211.300781 149.121094 211.480469 C 148.6875 211.660156 148.238281 211.75 147.765625 211.75 Z M 147.765625 211.75 "/></g><g clip-rule="nonzero" clip-path="url(#ba608311b6)"><path style=" stroke:none;fill-rule:nonzero;fill:#000000;fill-opacity:1;" d="M 91.085938 211.75 C 90.617188 211.75 90.164062 211.660156 89.730469 211.480469 C 89.296875 211.300781 88.914062 211.042969 88.582031 210.710938 C 88.25 210.378906 87.996094 209.996094 87.8125 209.558594 C 87.632812 209.125 87.542969 208.671875 87.542969 208.203125 L 87.542969 169.207031 C 87.542969 168.738281 87.632812 168.285156 87.8125 167.851562 C 87.996094 167.417969 88.25 167.035156 88.582031 166.703125 C 88.914062 166.367188 89.296875 166.113281 89.730469 165.933594 C 90.164062 165.753906 90.617188 165.664062 91.085938 165.664062 C 91.558594 165.664062 92.007812 165.753906 92.441406 165.933594 C 92.875 166.113281 93.261719 166.367188 93.59375 166.703125 C 93.925781 167.035156 94.179688 167.417969 94.359375 167.851562 C 94.539062 168.285156 94.628906 168.738281 94.628906 169.207031 L 94.628906 208.203125 C 94.628906 208.671875 94.539062 209.125 94.359375 209.558594 C 94.179688 209.996094 93.925781 210.378906 93.59375 210.710938 C 93.261719 211.042969 92.875 211.300781 92.441406 211.480469 C 92.007812 211.660156 91.558594 211.75 91.085938 211.75 Z M 91.085938 211.75 "/></g><g clip-rule="nonzero" clip-path="url(#d16ac283ea)"><path style=" stroke:none;fill-rule:nonzero;fill:#000000;fill-opacity:1;" d="M 133.597656 211.75 C 133.128906 211.75 132.675781 211.660156 132.242188 211.480469 C 131.808594 211.300781 131.425781 211.042969 131.09375 210.710938 C 130.757812 210.378906 130.503906 209.996094 130.324219 209.558594 C 130.144531 209.125 130.054688 208.671875 130.054688 208.203125 L 130.054688 169.207031 C 130.054688 168.738281 130.144531 168.285156 130.324219 167.851562 C 130.503906 167.417969 130.757812 167.035156 131.09375 166.703125 C 131.425781 166.367188 131.808594 166.113281 132.242188 165.933594 C 132.675781 165.753906 133.128906 165.664062 133.597656 165.664062 C 134.066406 165.664062 134.519531 165.753906 134.953125 165.933594 C 135.386719 166.113281 135.769531 166.367188 136.101562 166.703125 C 136.433594 167.035156 136.691406 167.417969 136.871094 167.851562 C 137.050781 168.285156 137.140625 168.738281 137.140625 169.207031 L 137.140625 208.203125 C 137.140625 208.671875 137.050781 209.125 136.871094 209.558594 C 136.691406 209.996094 136.433594 210.378906 136.101562 210.710938 C 135.769531 211.042969 135.386719 211.300781 134.953125 211.480469 C 134.519531 211.660156 134.066406 211.75 133.597656 211.75 Z M 133.597656 211.75 "/></g><path style=" stroke:none;fill-rule:nonzero;fill:#000000;fill-opacity:1;" d="M 169.019531 147.9375 C 168.324219 147.9375 167.628906 147.902344 166.9375 147.835938 C 166.246094 147.765625 165.558594 147.664062 164.875 147.527344 C 164.191406 147.394531 163.519531 147.222656 162.851562 147.023438 C 162.183594 146.820312 161.53125 146.585938 160.886719 146.320312 C 160.246094 146.050781 159.617188 145.753906 159.003906 145.425781 C 158.386719 145.097656 157.792969 144.738281 157.210938 144.351562 C 156.632812 143.964844 156.074219 143.550781 155.539062 143.109375 C 155 142.667969 154.484375 142.199219 153.992188 141.707031 C 153.5 141.214844 153.03125 140.699219 152.589844 140.160156 C 152.148438 139.621094 151.734375 139.0625 151.347656 138.484375 C 150.960938 137.90625 150.605469 137.308594 150.277344 136.695312 C 149.949219 136.078125 149.652344 135.449219 149.382812 134.808594 C 149.117188 134.164062 148.882812 133.507812 148.683594 132.839844 C 148.480469 132.175781 148.3125 131.5 148.175781 130.816406 C 148.039062 130.132812 147.9375 129.445312 147.867188 128.753906 C 147.800781 128.058594 147.765625 127.363281 147.765625 126.667969 C 147.765625 125.96875 147.800781 125.277344 147.867188 124.582031 C 147.9375 123.890625 148.039062 123.199219 148.175781 122.515625 C 148.3125 121.835938 148.480469 121.160156 148.683594 120.492188 C 148.882812 119.824219 149.117188 119.171875 149.382812 118.527344 C 149.652344 117.882812 149.949219 117.253906 150.277344 116.640625 C 150.605469 116.027344 150.960938 115.429688 151.347656 114.851562 C 151.734375 114.269531 152.148438 113.710938 152.589844 113.171875 C 153.03125 112.636719 153.5 112.121094 153.992188 111.625 C 154.484375 111.132812 155 110.667969 155.539062 110.226562 C 156.074219 109.78125 156.632812 109.367188 157.210938 108.980469 C 157.792969 108.59375 158.386719 108.238281 159.003906 107.910156 C 159.617188 107.578125 160.246094 107.28125 160.886719 107.015625 C 161.53125 106.75 162.183594 106.515625 162.851562 106.3125 C 163.519531 106.109375 164.191406 105.941406 164.875 105.804688 C 165.558594 105.667969 166.246094 105.566406 166.9375 105.5 C 167.628906 105.429688 168.324219 105.398438 169.019531 105.398438 C 169.71875 105.398438 170.410156 105.429688 171.105469 105.5 C 171.796875 105.566406 172.484375 105.667969 173.167969 105.804688 C 173.851562 105.941406 174.523438 106.109375 175.191406 106.3125 C 175.859375 106.515625 176.511719 106.75 177.15625 107.015625 C 177.796875 107.28125 178.425781 107.578125 179.039062 107.910156 C 179.65625 108.238281 180.25 108.59375 180.828125 108.980469 C 181.410156 109.367188 181.96875 109.78125 182.503906 110.226562 C 183.042969 110.667969 183.558594 111.132812 184.050781 111.625 C 184.542969 112.121094 185.011719 112.636719 185.453125 113.171875 C 185.894531 113.710938 186.308594 114.269531 186.695312 114.851562 C 187.082031 115.429688 187.4375 116.027344 187.765625 116.640625 C 188.09375 117.253906 188.390625 117.882812 188.660156 118.527344 C 188.925781 119.171875 189.160156 119.824219 189.359375 120.492188 C 189.5625 121.160156 189.730469 121.835938 189.867188 122.515625 C 190.003906 123.199219 190.105469 123.890625 190.175781 124.582031 C 190.242188 125.277344 190.277344 125.96875 190.277344 126.667969 C 190.277344 127.363281 190.242188 128.058594 190.175781 128.753906 C 190.105469 129.445312 190.003906 130.132812 189.867188 130.816406 C 189.730469 131.5 189.5625 132.175781 189.359375 132.839844 C 189.160156 133.507812 188.925781 134.164062 188.660156 134.808594 C 188.390625 135.449219 188.09375 136.078125 187.765625 136.695312 C 187.4375 137.308594 187.082031 137.90625 186.695312 138.484375 C 186.308594 139.0625 185.894531 139.621094 185.453125 140.160156 C 185.011719 140.699219 184.542969 141.214844 184.050781 141.707031 C 183.558594 142.199219 183.042969 142.667969 182.503906 143.109375 C 181.96875 143.550781 181.410156 143.964844 180.828125 144.351562 C 180.25 144.738281 179.65625 145.097656 179.039062 145.425781 C 178.425781 145.753906 177.796875 146.050781 177.15625 146.320312 C 176.511719 146.585938 175.859375 146.820312 175.191406 147.023438 C 174.523438 147.222656 173.851562 147.394531 173.167969 147.527344 C 172.484375 147.664062 171.796875 147.765625 171.105469 147.835938 C 170.410156 147.902344 169.71875 147.9375 169.019531 147.9375 Z M 169.019531 112.488281 C 168.089844 112.488281 167.167969 112.578125 166.257812 112.757812 C 165.34375 112.941406 164.457031 113.210938 163.597656 113.566406 C 162.738281 113.921875 161.921875 114.359375 161.148438 114.875 C 160.375 115.394531 159.660156 115.980469 159 116.640625 C 158.34375 117.296875 157.757812 118.015625 157.238281 118.789062 C 156.722656 119.5625 156.285156 120.378906 155.929688 121.242188 C 155.574219 122.101562 155.304688 122.988281 155.125 123.902344 C 154.941406 124.8125 154.851562 125.734375 154.851562 126.667969 C 154.851562 127.597656 154.941406 128.519531 155.125 129.433594 C 155.304688 130.347656 155.574219 131.234375 155.929688 132.09375 C 156.285156 132.953125 156.722656 133.769531 157.238281 134.546875 C 157.757812 135.320312 158.34375 136.035156 159 136.695312 C 159.660156 137.351562 160.375 137.941406 161.148438 138.457031 C 161.921875 138.976562 162.738281 139.410156 163.597656 139.769531 C 164.457031 140.125 165.34375 140.394531 166.257812 140.574219 C 167.167969 140.757812 168.089844 140.847656 169.019531 140.847656 C 169.953125 140.847656 170.875 140.757812 171.785156 140.574219 C 172.699219 140.394531 173.585938 140.125 174.445312 139.769531 C 175.304688 139.410156 176.121094 138.976562 176.894531 138.457031 C 177.667969 137.941406 178.382812 137.351562 179.039062 136.695312 C 179.699219 136.035156 180.285156 135.320312 180.804688 134.546875 C 181.320312 133.769531 181.757812 132.953125 182.113281 132.09375 C 182.46875 131.234375 182.738281 130.347656 182.917969 129.433594 C 183.101562 128.519531 183.191406 127.597656 183.191406 126.667969 C 183.191406 125.734375 183.101562 124.8125 182.917969 123.902344 C 182.738281 122.988281 182.46875 122.101562 182.113281 121.242188 C 181.757812 120.378906 181.320312 119.5625 180.804688 118.789062 C 180.285156 118.015625 179.699219 117.296875 179.039062 116.640625 C 178.382812 115.980469 177.667969 115.394531 176.894531 114.875 C 176.121094 114.359375 175.304688 113.921875 174.445312 113.566406 C 173.585938 113.210938 172.699219 112.941406 171.785156 112.757812 C 170.875 112.578125 169.953125 112.488281 169.019531 112.488281 Z M 169.019531 112.488281 "/><g clip-rule="nonzero" clip-path="url(#f7e4eeb78d)"><path style=" stroke:none;fill-rule:nonzero;fill:#000000;fill-opacity:1;" d="M 204.445312 211.75 C 203.976562 211.75 203.523438 211.660156 203.089844 211.480469 C 202.65625 211.300781 202.273438 211.042969 201.941406 210.710938 C 201.609375 210.378906 201.351562 209.996094 201.171875 209.558594 C 200.992188 209.125 200.902344 208.671875 200.902344 208.203125 L 200.902344 172.753906 C 200.902344 164.917969 192.96875 158.574219 183.191406 158.574219 L 158.394531 158.574219 C 157.925781 158.574219 157.472656 158.484375 157.039062 158.304688 C 156.605469 158.121094 156.222656 157.867188 155.890625 157.535156 C 155.558594 157.203125 155.300781 156.820312 155.121094 156.382812 C 154.941406 155.949219 154.851562 155.496094 154.851562 155.027344 C 154.851562 154.558594 154.941406 154.105469 155.121094 153.671875 C 155.300781 153.238281 155.558594 152.851562 155.890625 152.519531 C 156.222656 152.1875 156.605469 151.933594 157.039062 151.753906 C 157.472656 151.574219 157.925781 151.484375 158.394531 151.484375 L 183.191406 151.484375 C 196.863281 151.484375 207.988281 161.019531 207.988281 172.753906 L 207.988281 208.203125 C 207.988281 208.671875 207.898438 209.125 207.71875 209.558594 C 207.539062 209.996094 207.28125 210.378906 206.949219 210.710938 C 206.617188 211.042969 206.234375 211.300781 205.800781 211.480469 C 205.367188 211.660156 204.914062 211.75 204.445312 211.75 Z M 204.445312 211.75 "/></g><g clip-rule="nonzero" clip-path="url(#40a6e94daf)"><path style=" stroke:none;fill-rule:nonzero;fill:#000000;fill-opacity:1;" d="M 190.277344 211.75 C 189.804688 211.75 189.355469 211.660156 188.921875 211.480469 C 188.488281 211.300781 188.101562 211.042969 187.769531 210.710938 C 187.4375 210.378906 187.183594 209.996094 187.003906 209.558594 C 186.824219 209.125 186.734375 208.671875 186.734375 208.203125 L 186.734375 176.296875 C 186.734375 175.828125 186.824219 175.375 187.003906 174.941406 C 187.183594 174.507812 187.4375 174.125 187.769531 173.792969 C 188.101562 173.457031 188.488281 173.203125 188.921875 173.023438 C 189.355469 172.84375 189.804688 172.753906 190.277344 172.753906 C 190.746094 172.753906 191.199219 172.84375 191.632812 173.023438 C 192.066406 173.203125 192.449219 173.457031 192.78125 173.792969 C 193.113281 174.125 193.371094 174.507812 193.550781 174.941406 C 193.730469 175.375 193.820312 175.828125 193.820312 176.296875 L 193.820312 208.203125 C 193.820312 208.671875 193.730469 209.125 193.550781 209.558594 C 193.371094 209.996094 193.113281 210.378906 192.78125 210.710938 C 192.449219 211.042969 192.066406 211.300781 191.632812 211.480469 C 191.199219 211.660156 190.746094 211.75 190.277344 211.75 Z M 190.277344 211.75 "/></g><path style=" stroke:none;fill-rule:nonzero;fill:#000000;fill-opacity:1;" d="M 55.664062 147.9375 C 54.964844 147.9375 54.273438 147.902344 53.578125 147.835938 C 52.886719 147.765625 52.199219 147.664062 51.515625 147.527344 C 50.832031 147.394531 50.160156 147.222656 49.492188 147.023438 C 48.828125 146.820312 48.171875 146.585938 47.527344 146.320312 C 46.886719 146.050781 46.257812 145.753906 45.644531 145.425781 C 45.027344 145.097656 44.433594 144.738281 43.855469 144.351562 C 43.273438 143.964844 42.714844 143.550781 42.179688 143.109375 C 41.640625 142.667969 41.125 142.199219 40.632812 141.707031 C 40.140625 141.214844 39.675781 140.699219 39.230469 140.160156 C 38.789062 139.621094 38.375 139.0625 37.988281 138.484375 C 37.601562 137.90625 37.246094 137.308594 36.917969 136.695312 C 36.589844 136.078125 36.292969 135.449219 36.027344 134.808594 C 35.757812 134.164062 35.523438 133.507812 35.324219 132.839844 C 35.121094 132.175781 34.953125 131.5 34.816406 130.816406 C 34.679688 130.132812 34.578125 129.445312 34.511719 128.753906 C 34.441406 128.058594 34.40625 127.363281 34.40625 126.667969 C 34.40625 125.96875 34.441406 125.277344 34.511719 124.582031 C 34.578125 123.890625 34.679688 123.199219 34.816406 122.515625 C 34.953125 121.835938 35.121094 121.160156 35.324219 120.492188 C 35.523438 119.824219 35.757812 119.171875 36.027344 118.527344 C 36.292969 117.882812 36.589844 117.253906 36.917969 116.640625 C 37.246094 116.027344 37.601562 115.429688 37.988281 114.851562 C 38.375 114.269531 38.789062 113.710938 39.230469 113.171875 C 39.675781 112.636719 40.140625 112.121094 40.632812 111.625 C 41.125 111.132812 41.640625 110.667969 42.179688 110.226562 C 42.714844 109.78125 43.273438 109.367188 43.855469 108.980469 C 44.433594 108.59375 45.027344 108.238281 45.644531 107.910156 C 46.257812 107.578125 46.886719 107.28125 47.527344 107.015625 C 48.171875 106.75 48.828125 106.515625 49.492188 106.3125 C 50.160156 106.109375 50.832031 105.941406 51.515625 105.804688 C 52.199219 105.667969 52.886719 105.566406 53.578125 105.5 C 54.273438 105.429688 54.964844 105.398438 55.664062 105.398438 C 56.359375 105.398438 57.054688 105.429688 57.746094 105.5 C 58.4375 105.566406 59.125 105.667969 59.808594 105.804688 C 60.492188 105.941406 61.167969 106.109375 61.832031 106.3125 C 62.5 106.515625 63.152344 106.75 63.796875 107.015625 C 64.441406 107.28125 65.066406 107.578125 65.683594 107.910156 C 66.296875 108.238281 66.890625 108.59375 67.472656 108.980469 C 68.050781 109.367188 68.609375 109.78125 69.144531 110.226562 C 69.683594 110.667969 70.199219 111.132812 70.691406 111.625 C 71.183594 112.121094 71.652344 112.636719 72.09375 113.171875 C 72.535156 113.710938 72.949219 114.269531 73.335938 114.851562 C 73.722656 115.429688 74.078125 116.027344 74.40625 116.640625 C 74.734375 117.253906 75.03125 117.882812 75.300781 118.527344 C 75.566406 119.171875 75.800781 119.824219 76.003906 120.492188 C 76.203125 121.160156 76.375 121.835938 76.507812 122.515625 C 76.644531 123.199219 76.746094 123.890625 76.816406 124.582031 C 76.882812 125.277344 76.917969 125.96875 76.917969 126.667969 C 76.917969 127.363281 76.882812 128.058594 76.816406 128.753906 C 76.746094 129.445312 76.644531 130.132812 76.507812 130.816406 C 76.375 131.5 76.203125 132.175781 76.003906 132.839844 C 75.800781 133.507812 75.566406 134.164062 75.300781 134.808594 C 75.03125 135.449219 74.734375 136.078125 74.40625 136.695312 C 74.078125 137.308594 73.722656 137.90625 73.335938 138.484375 C 72.949219 139.0625 72.535156 139.621094 72.09375 140.160156 C 71.652344 140.699219 71.183594 141.214844 70.691406 141.707031 C 70.199219 142.199219 69.683594 142.667969 69.144531 143.109375 C 68.609375 143.550781 68.050781 143.964844 67.472656 144.351562 C 66.890625 144.738281 66.296875 145.097656 65.683594 145.425781 C 65.066406 145.753906 64.441406 146.050781 63.796875 146.320312 C 63.152344 146.585938 62.5 146.820312 61.832031 147.023438 C 61.167969 147.222656 60.492188 147.394531 59.808594 147.527344 C 59.125 147.664062 58.4375 147.765625 57.746094 147.835938 C 57.054688 147.902344 56.359375 147.9375 55.664062 147.9375 Z M 55.664062 112.488281 C 54.730469 112.488281 53.8125 112.578125 52.898438 112.757812 C 51.984375 112.941406 51.097656 113.210938 50.238281 113.566406 C 49.378906 113.921875 48.5625 114.359375 47.789062 114.875 C 47.015625 115.394531 46.300781 115.980469 45.644531 116.640625 C 44.984375 117.296875 44.398438 118.015625 43.878906 118.789062 C 43.363281 119.5625 42.925781 120.378906 42.570312 121.242188 C 42.214844 122.101562 41.945312 122.988281 41.765625 123.902344 C 41.582031 124.8125 41.492188 125.734375 41.492188 126.667969 C 41.492188 127.597656 41.582031 128.519531 41.765625 129.433594 C 41.945312 130.347656 42.214844 131.234375 42.570312 132.09375 C 42.925781 132.953125 43.363281 133.769531 43.878906 134.546875 C 44.398438 135.320312 44.984375 136.035156 45.644531 136.695312 C 46.300781 137.351562 47.015625 137.941406 47.789062 138.457031 C 48.5625 138.976562 49.378906 139.410156 50.238281 139.769531 C 51.097656 140.125 51.984375 140.394531 52.898438 140.574219 C 53.8125 140.757812 54.730469 140.847656 55.664062 140.847656 C 56.59375 140.847656 57.515625 140.757812 58.425781 140.574219 C 59.339844 140.394531 60.226562 140.125 61.085938 139.769531 C 61.945312 139.410156 62.761719 138.976562 63.535156 138.457031 C 64.308594 137.941406 65.023438 137.351562 65.683594 136.695312 C 66.339844 136.035156 66.925781 135.320312 67.445312 134.546875 C 67.960938 133.769531 68.398438 132.953125 68.753906 132.09375 C 69.109375 131.234375 69.378906 130.347656 69.558594 129.433594 C 69.742188 128.519531 69.832031 127.597656 69.832031 126.667969 C 69.832031 125.734375 69.742188 124.8125 69.558594 123.902344 C 69.378906 122.988281 69.109375 122.101562 68.753906 121.242188 C 68.398438 120.378906 67.960938 119.5625 67.445312 118.789062 C 66.925781 118.015625 66.339844 117.296875 65.683594 116.640625 C 65.023438 115.980469 64.308594 115.394531 63.535156 114.875 C 62.761719 114.359375 61.945312 113.921875 61.085938 113.566406 C 60.226562 113.210938 59.339844 112.941406 58.425781 112.757812 C 57.515625 112.578125 56.59375 112.488281 55.664062 112.488281 Z M 55.664062 112.488281 "/><g clip-rule="nonzero" clip-path="url(#42e0349e98)"><path style=" stroke:none;fill-rule:nonzero;fill:#000000;fill-opacity:1;" d="M 20.238281 211.75 C 19.769531 211.75 19.316406 211.660156 18.882812 211.480469 C 18.449219 211.300781 18.066406 211.042969 17.734375 210.710938 C 17.402344 210.378906 17.144531 209.996094 16.964844 209.558594 C 16.785156 209.125 16.695312 208.671875 16.695312 208.203125 L 16.695312 172.753906 C 16.695312 161.019531 27.820312 151.484375 41.492188 151.484375 L 66.289062 151.484375 C 66.757812 151.484375 67.210938 151.574219 67.644531 151.753906 C 68.078125 151.933594 68.460938 152.1875 68.792969 152.519531 C 69.128906 152.851562 69.382812 153.238281 69.5625 153.671875 C 69.742188 154.105469 69.832031 154.558594 69.832031 155.027344 C 69.832031 155.496094 69.742188 155.949219 69.5625 156.382812 C 69.382812 156.820312 69.128906 157.203125 68.792969 157.535156 C 68.460938 157.867188 68.078125 158.121094 67.644531 158.304688 C 67.210938 158.484375 66.757812 158.574219 66.289062 158.574219 L 41.492188 158.574219 C 31.714844 158.574219 23.78125 164.917969 23.78125 172.753906 L 23.78125 208.203125 C 23.78125 208.671875 23.691406 209.125 23.511719 209.558594 C 23.332031 209.996094 23.074219 210.378906 22.742188 210.710938 C 22.410156 211.042969 22.027344 211.300781 21.59375 211.480469 C 21.160156 211.660156 20.707031 211.75 20.238281 211.75 Z M 20.238281 211.75 "/></g><g clip-rule="nonzero" clip-path="url(#9a96f0f6db)"><path style=" stroke:none;fill-rule:nonzero;fill:#000000;fill-opacity:1;" d="M 34.40625 211.75 C 33.9375 211.75 33.484375 211.660156 33.050781 211.480469 C 32.617188 211.300781 32.234375 211.042969 31.902344 210.710938 C 31.570312 210.378906 31.316406 209.996094 31.136719 209.558594 C 30.957031 209.125 30.867188 208.671875 30.867188 208.203125 L 30.867188 176.296875 C 30.867188 175.828125 30.957031 175.375 31.136719 174.941406 C 31.316406 174.507812 31.570312 174.125 31.902344 173.792969 C 32.234375 173.457031 32.617188 173.203125 33.050781 173.023438 C 33.484375 172.84375 33.9375 172.753906 34.40625 172.753906 C 34.878906 172.753906 35.328125 172.84375 35.761719 173.023438 C 36.199219 173.203125 36.582031 173.457031 36.914062 173.792969 C 37.246094 174.125 37.5 174.507812 37.679688 174.941406 C 37.859375 175.375 37.949219 175.828125 37.949219 176.296875 L 37.949219 208.203125 C 37.949219 208.671875 37.859375 209.125 37.679688 209.558594 C 37.5 209.996094 37.246094 210.378906 36.914062 210.710938 C 36.582031 211.042969 36.199219 211.300781 35.761719 211.480469 C 35.328125 211.660156 34.878906 211.75 34.40625 211.75 Z M 34.40625 211.75 "/></g><g clip-rule="nonzero" clip-path="url(#cbfda77f1f)"><path style=" stroke:none;fill-rule:nonzero;fill:#000000;fill-opacity:1;" d="M 62.746094 77.035156 L 6.066406 77.035156 C 5.597656 77.035156 5.144531 76.945312 4.710938 76.765625 C 4.277344 76.585938 3.894531 76.332031 3.5625 75.996094 C 3.230469 75.664062 2.976562 75.28125 2.796875 74.847656 C 2.617188 74.414062 2.527344 73.960938 2.527344 73.492188 L 2.527344 16.769531 C 2.527344 16.300781 2.617188 15.847656 2.796875 15.414062 C 2.976562 14.980469 3.230469 14.59375 3.5625 14.261719 C 3.894531 13.929688 4.277344 13.675781 4.710938 13.496094 C 5.144531 13.316406 5.597656 13.226562 6.066406 13.226562 L 62.746094 13.226562 C 63.21875 13.226562 63.667969 13.316406 64.101562 13.496094 C 64.539062 13.675781 64.921875 13.929688 65.253906 14.261719 C 65.585938 14.59375 65.839844 14.980469 66.019531 15.414062 C 66.199219 15.847656 66.289062 16.300781 66.289062 16.769531 L 66.289062 73.492188 C 66.289062 73.960938 66.199219 74.414062 66.019531 74.847656 C 65.839844 75.28125 65.585938 75.664062 65.253906 75.996094 C 64.921875 76.332031 64.539062 76.585938 64.101562 76.765625 C 63.667969 76.945312 63.21875 77.035156 62.746094 77.035156 Z M 9.609375 69.945312 L 59.203125 69.945312 L 59.203125 20.316406 L 9.609375 20.316406 Z M 9.609375 69.945312 "/></g><g clip-rule="nonzero" clip-path="url(#09c816025c)"><path style=" stroke:none;fill-rule:nonzero;fill:#000000;fill-opacity:1;" d="M 218.617188 77.035156 L 161.9375 77.035156 C 161.464844 77.035156 161.015625 76.945312 160.582031 76.765625 C 160.148438 76.585938 159.765625 76.332031 159.429688 75.996094 C 159.097656 75.664062 158.84375 75.28125 158.664062 74.847656 C 158.484375 74.414062 158.394531 73.960938 158.394531 73.492188 L 158.394531 16.769531 C 158.394531 16.300781 158.484375 15.847656 158.664062 15.414062 C 158.84375 14.980469 159.097656 14.59375 159.429688 14.261719 C 159.765625 13.929688 160.148438 13.675781 160.582031 13.496094 C 161.015625 13.316406 161.464844 13.226562 161.9375 13.226562 L 218.617188 13.226562 C 219.085938 13.226562 219.539062 13.316406 219.972656 13.496094 C 220.40625 13.675781 220.789062 13.929688 221.121094 14.261719 C 221.453125 14.59375 221.707031 14.980469 221.890625 15.414062 C 222.070312 15.847656 222.160156 16.300781 222.160156 16.769531 L 222.160156 73.492188 C 222.160156 73.960938 222.070312 74.414062 221.890625 74.847656 C 221.707031 75.28125 221.453125 75.664062 221.121094 75.996094 C 220.789062 76.332031 220.40625 76.585938 219.972656 76.765625 C 219.539062 76.945312 219.085938 77.035156 218.617188 77.035156 Z M 165.480469 69.945312 L 215.074219 69.945312 L 215.074219 20.316406 L 165.480469 20.316406 Z M 165.480469 69.945312 "/></g><path style=" stroke:none;fill-rule:nonzero;fill:#000000;fill-opacity:1;" d="M 52.121094 66.402344 C 51.140625 66.40625 50.300781 66.0625 49.605469 65.371094 L 14.179688 29.921875 C 13.847656 29.589844 13.589844 29.203125 13.410156 28.765625 C 13.230469 28.332031 13.136719 27.878906 13.136719 27.40625 C 13.136719 26.933594 13.230469 26.480469 13.410156 26.042969 C 13.589844 25.605469 13.847656 25.222656 14.179688 24.886719 C 14.515625 24.554688 14.898438 24.296875 15.335938 24.117188 C 15.769531 23.9375 16.222656 23.84375 16.695312 23.84375 C 17.167969 23.84375 17.621094 23.9375 18.058594 24.117188 C 18.492188 24.296875 18.878906 24.554688 19.210938 24.886719 L 54.636719 60.339844 C 54.96875 60.671875 55.230469 61.054688 55.410156 61.492188 C 55.59375 61.929688 55.683594 62.382812 55.683594 62.855469 C 55.683594 63.328125 55.59375 63.78125 55.410156 64.21875 C 55.230469 64.65625 54.96875 65.039062 54.636719 65.371094 C 53.9375 66.0625 53.101562 66.40625 52.121094 66.402344 Z M 52.121094 66.402344 "/><path style=" stroke:none;fill-rule:nonzero;fill:#000000;fill-opacity:1;" d="M 16.695312 66.402344 C 15.714844 66.40625 14.875 66.0625 14.179688 65.371094 C 13.84375 65.039062 13.585938 64.65625 13.40625 64.21875 C 13.222656 63.78125 13.132812 63.328125 13.132812 62.855469 C 13.132812 62.382812 13.222656 61.929688 13.40625 61.492188 C 13.585938 61.054688 13.84375 60.671875 14.179688 60.339844 L 49.605469 24.886719 C 49.9375 24.554688 50.324219 24.296875 50.757812 24.117188 C 51.195312 23.933594 51.648438 23.84375 52.121094 23.84375 C 52.59375 23.84375 53.046875 23.933594 53.480469 24.113281 C 53.917969 24.296875 54.304688 24.554688 54.636719 24.886719 C 54.96875 25.222656 55.226562 25.605469 55.40625 26.042969 C 55.589844 26.476562 55.679688 26.933594 55.679688 27.40625 C 55.679688 27.878906 55.585938 28.332031 55.40625 28.765625 C 55.226562 29.203125 54.96875 29.589844 54.636719 29.921875 L 19.210938 65.371094 C 18.515625 66.0625 17.675781 66.40625 16.695312 66.402344 Z M 16.695312 66.402344 "/><path style=" stroke:none;fill-rule:nonzero;fill:#000000;fill-opacity:1;" d="M 179.648438 59.3125 L 179.1875 59.3125 C 178.683594 59.242188 178.210938 59.070312 177.78125 58.800781 C 177.347656 58.527344 176.988281 58.179688 176.707031 57.75 L 169.625 47.117188 C 169.414062 46.726562 169.285156 46.3125 169.230469 45.875 C 169.175781 45.4375 169.203125 45.003906 169.308594 44.574219 C 169.417969 44.144531 169.597656 43.753906 169.855469 43.390625 C 170.109375 43.03125 170.421875 42.730469 170.789062 42.484375 C 171.15625 42.242188 171.554688 42.070312 171.988281 41.976562 C 172.417969 41.882812 172.851562 41.871094 173.289062 41.9375 C 173.722656 42.003906 174.132812 42.148438 174.515625 42.371094 C 174.898438 42.589844 175.226562 42.871094 175.503906 43.214844 L 180.355469 50.449219 L 205.652344 28.292969 C 205.824219 28.125 206.011719 27.980469 206.210938 27.851562 C 206.414062 27.722656 206.628906 27.617188 206.851562 27.53125 C 207.074219 27.449219 207.304688 27.386719 207.539062 27.347656 C 207.777344 27.308594 208.015625 27.296875 208.253906 27.304688 C 208.492188 27.316406 208.726562 27.351562 208.960938 27.40625 C 209.191406 27.464844 209.414062 27.546875 209.632812 27.648438 C 209.847656 27.753906 210.050781 27.875 210.242188 28.019531 C 210.429688 28.164062 210.605469 28.328125 210.765625 28.507812 C 210.921875 28.6875 211.058594 28.878906 211.179688 29.085938 C 211.296875 29.292969 211.394531 29.511719 211.46875 29.738281 C 211.542969 29.96875 211.59375 30.199219 211.621094 30.4375 C 211.652344 30.675781 211.65625 30.914062 211.632812 31.152344 C 211.613281 31.390625 211.570312 31.625 211.5 31.851562 C 211.433594 32.082031 211.34375 32.300781 211.230469 32.515625 C 211.117188 32.726562 210.988281 32.921875 210.835938 33.105469 C 210.683594 33.292969 210.511719 33.460938 210.328125 33.609375 L 181.988281 58.425781 C 181.320312 59.015625 180.539062 59.308594 179.648438 59.3125 Z M 179.648438 59.3125 "/><g clip-rule="nonzero" clip-path="url(#35c13be014)"><path style=" stroke:none;fill-rule:nonzero;fill:#000000;fill-opacity:1;" d="M 140.683594 77.035156 L 84.003906 77.035156 C 83.53125 77.035156 83.082031 76.945312 82.648438 76.765625 C 82.210938 76.585938 81.828125 76.332031 81.496094 75.996094 C 81.164062 75.664062 80.910156 75.28125 80.730469 74.847656 C 80.550781 74.414062 80.460938 73.960938 80.460938 73.492188 L 80.460938 16.769531 C 80.460938 16.300781 80.550781 15.847656 80.730469 15.414062 C 80.910156 14.980469 81.164062 14.59375 81.496094 14.261719 C 81.828125 13.929688 82.210938 13.675781 82.648438 13.496094 C 83.082031 13.316406 83.53125 13.226562 84.003906 13.226562 L 140.683594 13.226562 C 141.152344 13.226562 141.601562 13.316406 142.039062 13.496094 C 142.472656 13.675781 142.855469 13.929688 143.1875 14.261719 C 143.519531 14.59375 143.773438 14.980469 143.953125 15.414062 C 144.132812 15.847656 144.222656 16.300781 144.222656 16.769531 L 144.222656 73.492188 C 144.222656 73.960938 144.132812 74.414062 143.953125 74.847656 C 143.773438 75.28125 143.519531 75.664062 143.1875 75.996094 C 142.855469 76.332031 142.472656 76.585938 142.039062 76.765625 C 141.601562 76.945312 141.152344 77.035156 140.683594 77.035156 Z M 87.542969 69.945312 L 137.140625 69.945312 L 137.140625 20.316406 L 87.542969 20.316406 Z M 87.542969 69.945312 "/></g><path style=" stroke:none;fill-rule:nonzero;fill:#000000;fill-opacity:1;" d="M 101.714844 59.3125 L 101.253906 59.3125 C 100.746094 59.242188 100.277344 59.070312 99.84375 58.800781 C 99.414062 58.527344 99.054688 58.179688 98.773438 57.75 L 91.6875 47.117188 C 91.535156 46.921875 91.402344 46.71875 91.289062 46.496094 C 91.179688 46.277344 91.089844 46.050781 91.027344 45.8125 C 90.964844 45.574219 90.925781 45.332031 90.910156 45.085938 C 90.898438 44.835938 90.910156 44.59375 90.949219 44.347656 C 90.984375 44.105469 91.046875 43.867188 91.136719 43.636719 C 91.222656 43.40625 91.332031 43.1875 91.464844 42.980469 C 91.597656 42.773438 91.75 42.582031 91.925781 42.40625 C 92.097656 42.230469 92.285156 42.074219 92.492188 41.9375 C 92.695312 41.800781 92.914062 41.6875 93.144531 41.597656 C 93.371094 41.503906 93.609375 41.4375 93.851562 41.398438 C 94.09375 41.355469 94.339844 41.339844 94.585938 41.347656 C 94.832031 41.359375 95.074219 41.394531 95.3125 41.453125 C 95.550781 41.515625 95.78125 41.597656 96.003906 41.707031 C 96.226562 41.816406 96.433594 41.945312 96.628906 42.097656 C 96.820312 42.25 97 42.417969 97.15625 42.605469 C 97.316406 42.796875 97.453125 43 97.570312 43.214844 L 102.421875 50.449219 L 127.714844 28.292969 C 127.890625 28.125 128.074219 27.980469 128.277344 27.851562 C 128.480469 27.722656 128.691406 27.617188 128.917969 27.53125 C 129.140625 27.449219 129.371094 27.386719 129.605469 27.347656 C 129.84375 27.308594 130.078125 27.296875 130.320312 27.304688 C 130.558594 27.316406 130.792969 27.351562 131.023438 27.40625 C 131.257812 27.464844 131.480469 27.546875 131.695312 27.648438 C 131.914062 27.753906 132.117188 27.875 132.304688 28.019531 C 132.496094 28.164062 132.671875 28.328125 132.828125 28.507812 C 132.988281 28.6875 133.125 28.878906 133.246094 29.085938 C 133.363281 29.292969 133.460938 29.511719 133.535156 29.738281 C 133.609375 29.96875 133.660156 30.199219 133.6875 30.4375 C 133.714844 30.675781 133.71875 30.914062 133.699219 31.152344 C 133.679688 31.390625 133.636719 31.625 133.566406 31.851562 C 133.5 32.082031 133.410156 32.300781 133.296875 32.515625 C 133.183594 32.726562 133.050781 32.921875 132.898438 33.105469 C 132.746094 33.292969 132.578125 33.460938 132.390625 33.609375 L 104.050781 58.425781 C 103.382812 59.015625 102.605469 59.308594 101.714844 59.3125 Z M 101.714844 59.3125 "/></g></svg>