<svg xmlns="http://www.w3.org/2000/svg" xmlns:xlink="http://www.w3.org/1999/xlink" width="300" zoomAndPan="magnify" viewBox="0 0 224.87999 225" height="300" preserveAspectRatio="xMidYMid meet" version="1.2"><defs><clipPath id="3c249edcda"><path d="M 0 142 L 224.761719 142 L 224.761719 209 L 0 209 Z M 0 142 "/></clipPath></defs><g id="363d1583d7"><path style=" stroke:none;fill-rule:nonzero;fill:#000000;fill-opacity:1;" d="M 49.191406 138.5 C 49.882812 138.5 50.570312 138.46875 51.257812 138.398438 C 51.945312 138.332031 52.628906 138.230469 53.304688 138.097656 C 53.984375 137.960938 54.652344 137.792969 55.3125 137.59375 C 55.972656 137.394531 56.621094 137.160156 57.261719 136.898438 C 57.898438 136.632812 58.523438 136.335938 59.128906 136.011719 C 59.738281 135.6875 60.332031 135.332031 60.90625 134.949219 C 61.480469 134.566406 62.035156 134.152344 62.566406 133.714844 C 63.101562 133.277344 63.613281 132.816406 64.101562 132.328125 C 64.589844 131.839844 65.050781 131.328125 65.488281 130.792969 C 65.925781 130.261719 66.339844 129.707031 66.722656 129.132812 C 67.105469 128.558594 67.460938 127.964844 67.785156 127.359375 C 68.109375 126.75 68.40625 126.125 68.671875 125.488281 C 68.933594 124.847656 69.167969 124.199219 69.367188 123.539062 C 69.566406 122.878906 69.734375 122.210938 69.871094 121.53125 C 70.003906 120.855469 70.105469 120.171875 70.171875 119.484375 C 70.242188 118.796875 70.273438 118.109375 70.273438 117.417969 C 70.273438 116.730469 70.242188 116.039062 70.171875 115.351562 C 70.105469 114.664062 70.003906 113.984375 69.871094 113.304688 C 69.734375 112.628906 69.566406 111.960938 69.367188 111.300781 C 69.167969 110.636719 68.933594 109.988281 68.671875 109.351562 C 68.40625 108.714844 68.109375 108.089844 67.785156 107.480469 C 67.460938 106.871094 67.105469 106.28125 66.722656 105.707031 C 66.339844 105.132812 65.925781 104.578125 65.488281 104.042969 C 65.050781 103.511719 64.589844 103 64.101562 102.511719 C 63.613281 102.023438 63.101562 101.558594 62.566406 101.121094 C 62.035156 100.683594 61.480469 100.273438 60.90625 99.890625 C 60.332031 99.507812 59.738281 99.152344 59.128906 98.824219 C 58.523438 98.5 57.898438 98.207031 57.261719 97.941406 C 56.621094 97.675781 55.972656 97.445312 55.3125 97.246094 C 54.652344 97.042969 53.984375 96.875 53.304688 96.742188 C 52.628906 96.605469 51.945312 96.507812 51.257812 96.4375 C 50.570312 96.371094 49.882812 96.335938 49.191406 96.335938 C 48.503906 96.335938 47.8125 96.371094 47.125 96.4375 C 46.4375 96.507812 45.757812 96.605469 45.078125 96.742188 C 44.402344 96.875 43.734375 97.042969 43.074219 97.246094 C 42.410156 97.445312 41.761719 97.675781 41.125 97.941406 C 40.488281 98.207031 39.863281 98.5 39.253906 98.824219 C 38.644531 99.152344 38.054688 99.507812 37.480469 99.890625 C 36.90625 100.273438 36.351562 100.683594 35.816406 101.121094 C 35.285156 101.558594 34.773438 102.023438 34.285156 102.511719 C 33.796875 103 33.332031 103.511719 32.894531 104.042969 C 32.457031 104.578125 32.046875 105.132812 31.664062 105.707031 C 31.28125 106.28125 30.925781 106.871094 30.597656 107.480469 C 30.273438 108.089844 29.980469 108.714844 29.714844 109.351562 C 29.449219 109.988281 29.21875 110.636719 29.019531 111.300781 C 28.816406 111.960938 28.648438 112.628906 28.515625 113.304688 C 28.378906 113.984375 28.277344 114.664062 28.210938 115.351562 C 28.144531 116.039062 28.109375 116.730469 28.109375 117.417969 C 28.109375 118.109375 28.144531 118.796875 28.210938 119.484375 C 28.277344 120.171875 28.378906 120.855469 28.515625 121.53125 C 28.648438 122.210938 28.816406 122.878906 29.019531 123.539062 C 29.21875 124.199219 29.449219 124.847656 29.714844 125.488281 C 29.980469 126.125 30.273438 126.75 30.597656 127.359375 C 30.925781 127.964844 31.28125 128.558594 31.664062 129.132812 C 32.046875 129.707031 32.457031 130.261719 32.894531 130.792969 C 33.332031 131.328125 33.796875 131.839844 34.285156 132.328125 C 34.773438 132.816406 35.285156 133.277344 35.816406 133.714844 C 36.351562 134.152344 36.90625 134.566406 37.480469 134.949219 C 38.054688 135.332031 38.644531 135.6875 39.253906 136.011719 C 39.863281 136.335938 40.488281 136.632812 41.125 136.898438 C 41.761719 137.160156 42.410156 137.394531 43.074219 137.59375 C 43.734375 137.792969 44.402344 137.960938 45.078125 138.097656 C 45.757812 138.230469 46.4375 138.332031 47.125 138.398438 C 47.8125 138.46875 48.503906 138.5 49.191406 138.5 Z M 49.191406 103.363281 C 50.117188 103.363281 51.03125 103.453125 51.933594 103.632812 C 52.839844 103.8125 53.71875 104.082031 54.570312 104.433594 C 55.421875 104.789062 56.234375 105.21875 57 105.734375 C 57.769531 106.246094 58.476562 106.828125 59.132812 107.480469 C 59.785156 108.132812 60.367188 108.84375 60.878906 109.609375 C 61.390625 110.378906 61.824219 111.1875 62.175781 112.039062 C 62.53125 112.894531 62.796875 113.773438 62.976562 114.675781 C 63.15625 115.582031 63.246094 116.496094 63.246094 117.417969 C 63.246094 118.34375 63.15625 119.257812 62.976562 120.160156 C 62.796875 121.066406 62.53125 121.945312 62.175781 122.796875 C 61.824219 123.652344 61.390625 124.460938 60.878906 125.226562 C 60.367188 125.996094 59.785156 126.703125 59.132812 127.359375 C 58.476562 128.011719 57.769531 128.59375 57 129.105469 C 56.234375 129.617188 55.421875 130.050781 54.570312 130.40625 C 53.71875 130.757812 52.839844 131.023438 51.933594 131.203125 C 51.03125 131.382812 50.117188 131.472656 49.191406 131.472656 C 48.269531 131.472656 47.355469 131.382812 46.449219 131.203125 C 45.546875 131.023438 44.667969 130.757812 43.8125 130.40625 C 42.960938 130.050781 42.152344 129.617188 41.382812 129.105469 C 40.617188 128.59375 39.90625 128.011719 39.253906 127.359375 C 38.601562 126.703125 38.019531 125.996094 37.507812 125.226562 C 36.992188 124.460938 36.558594 123.652344 36.207031 122.796875 C 35.855469 121.945312 35.585938 121.066406 35.40625 120.160156 C 35.226562 119.257812 35.136719 118.34375 35.136719 117.417969 C 35.136719 116.496094 35.226562 115.582031 35.40625 114.675781 C 35.585938 113.773438 35.855469 112.894531 36.207031 112.039062 C 36.558594 111.1875 36.992188 110.378906 37.507812 109.609375 C 38.019531 108.84375 38.601562 108.132812 39.253906 107.480469 C 39.90625 106.828125 40.617188 106.246094 41.382812 105.734375 C 42.152344 105.21875 42.960938 104.789062 43.8125 104.433594 C 44.667969 104.082031 45.546875 103.8125 46.449219 103.632812 C 47.355469 103.453125 48.269531 103.363281 49.191406 103.363281 Z M 49.191406 103.363281 "/><path style=" stroke:none;fill-rule:nonzero;fill:#000000;fill-opacity:1;" d="M 175.6875 138.5 C 176.378906 138.5 177.066406 138.46875 177.753906 138.398438 C 178.441406 138.332031 179.125 138.230469 179.800781 138.097656 C 180.476562 137.960938 181.148438 137.792969 181.808594 137.59375 C 182.46875 137.394531 183.117188 137.160156 183.753906 136.898438 C 184.394531 136.632812 185.015625 136.335938 185.625 136.011719 C 186.234375 135.6875 186.828125 135.332031 187.398438 134.949219 C 187.972656 134.566406 188.527344 134.152344 189.0625 133.714844 C 189.597656 133.277344 190.105469 132.816406 190.59375 132.328125 C 191.082031 131.839844 191.546875 131.328125 191.984375 130.792969 C 192.421875 130.261719 192.832031 129.707031 193.21875 129.132812 C 193.601562 128.558594 193.957031 127.964844 194.28125 127.359375 C 194.605469 126.75 194.902344 126.125 195.164062 125.488281 C 195.429688 124.847656 195.660156 124.199219 195.863281 123.539062 C 196.0625 122.878906 196.230469 122.210938 196.363281 121.53125 C 196.5 120.855469 196.601562 120.171875 196.667969 119.484375 C 196.734375 118.796875 196.769531 118.109375 196.769531 117.417969 C 196.769531 116.730469 196.734375 116.039062 196.667969 115.351562 C 196.601562 114.664062 196.5 113.984375 196.363281 113.304688 C 196.230469 112.628906 196.0625 111.960938 195.863281 111.300781 C 195.660156 110.636719 195.429688 109.988281 195.164062 109.351562 C 194.902344 108.714844 194.605469 108.089844 194.28125 107.480469 C 193.957031 106.871094 193.601562 106.28125 193.21875 105.707031 C 192.832031 105.132812 192.421875 104.578125 191.984375 104.042969 C 191.546875 103.511719 191.082031 103 190.59375 102.511719 C 190.105469 102.023438 189.597656 101.558594 189.0625 101.121094 C 188.527344 100.683594 187.972656 100.273438 187.398438 99.890625 C 186.828125 99.507812 186.234375 99.152344 185.625 98.824219 C 185.015625 98.5 184.394531 98.207031 183.753906 97.941406 C 183.117188 97.675781 182.46875 97.445312 181.808594 97.246094 C 181.148438 97.042969 180.476562 96.875 179.800781 96.742188 C 179.125 96.605469 178.441406 96.507812 177.753906 96.4375 C 177.066406 96.371094 176.378906 96.335938 175.6875 96.335938 C 174.996094 96.335938 174.308594 96.371094 173.621094 96.4375 C 172.933594 96.507812 172.25 96.605469 171.574219 96.742188 C 170.898438 96.875 170.226562 97.042969 169.566406 97.246094 C 168.90625 97.445312 168.257812 97.675781 167.621094 97.941406 C 166.980469 98.207031 166.359375 98.5 165.75 98.824219 C 165.140625 99.152344 164.546875 99.507812 163.976562 99.890625 C 163.402344 100.273438 162.847656 100.683594 162.3125 101.121094 C 161.777344 101.558594 161.269531 102.023438 160.78125 102.511719 C 160.292969 103 159.828125 103.511719 159.390625 104.042969 C 158.953125 104.578125 158.542969 105.132812 158.15625 105.707031 C 157.773438 106.28125 157.417969 106.871094 157.09375 107.480469 C 156.769531 108.089844 156.472656 108.714844 156.210938 109.351562 C 155.945312 109.988281 155.714844 110.636719 155.511719 111.300781 C 155.3125 111.960938 155.144531 112.628906 155.011719 113.304688 C 154.875 113.984375 154.773438 114.664062 154.707031 115.351562 C 154.640625 116.039062 154.605469 116.730469 154.605469 117.417969 C 154.605469 118.109375 154.640625 118.796875 154.707031 119.484375 C 154.773438 120.171875 154.875 120.855469 155.011719 121.53125 C 155.144531 122.210938 155.3125 122.878906 155.511719 123.539062 C 155.714844 124.199219 155.945312 124.847656 156.210938 125.488281 C 156.472656 126.125 156.769531 126.75 157.09375 127.359375 C 157.417969 127.964844 157.773438 128.558594 158.15625 129.132812 C 158.542969 129.707031 158.953125 130.261719 159.390625 130.792969 C 159.828125 131.328125 160.292969 131.839844 160.78125 132.328125 C 161.269531 132.816406 161.777344 133.277344 162.3125 133.714844 C 162.847656 134.152344 163.402344 134.566406 163.976562 134.949219 C 164.546875 135.332031 165.140625 135.6875 165.75 136.011719 C 166.359375 136.335938 166.980469 136.632812 167.621094 136.898438 C 168.257812 137.160156 168.90625 137.394531 169.566406 137.59375 C 170.226562 137.792969 170.898438 137.960938 171.574219 138.097656 C 172.25 138.230469 172.933594 138.332031 173.621094 138.398438 C 174.308594 138.46875 174.996094 138.5 175.6875 138.5 Z M 175.6875 103.363281 C 176.609375 103.363281 177.523438 103.453125 178.429688 103.632812 C 179.335938 103.8125 180.214844 104.082031 181.066406 104.433594 C 181.917969 104.789062 182.730469 105.21875 183.496094 105.734375 C 184.261719 106.246094 184.972656 106.828125 185.625 107.480469 C 186.277344 108.132812 186.859375 108.84375 187.375 109.609375 C 187.886719 110.378906 188.320312 111.1875 188.671875 112.039062 C 189.027344 112.894531 189.292969 113.773438 189.472656 114.675781 C 189.652344 115.582031 189.742188 116.496094 189.742188 117.417969 C 189.742188 118.34375 189.652344 119.257812 189.472656 120.160156 C 189.292969 121.066406 189.027344 121.945312 188.671875 122.796875 C 188.320312 123.652344 187.886719 124.460938 187.375 125.226562 C 186.859375 125.996094 186.277344 126.703125 185.625 127.359375 C 184.972656 128.011719 184.261719 128.59375 183.496094 129.105469 C 182.730469 129.617188 181.917969 130.050781 181.066406 130.40625 C 180.214844 130.757812 179.335938 131.023438 178.429688 131.203125 C 177.523438 131.382812 176.609375 131.472656 175.6875 131.472656 C 174.765625 131.472656 173.851562 131.382812 172.945312 131.203125 C 172.039062 131.023438 171.160156 130.757812 170.308594 130.40625 C 169.457031 130.050781 168.644531 129.617188 167.878906 129.105469 C 167.113281 128.59375 166.402344 128.011719 165.75 127.359375 C 165.097656 126.703125 164.515625 125.996094 164 125.226562 C 163.488281 124.460938 163.054688 123.652344 162.703125 122.796875 C 162.347656 121.945312 162.082031 121.066406 161.902344 120.160156 C 161.722656 119.257812 161.632812 118.34375 161.632812 117.417969 C 161.632812 116.496094 161.722656 115.582031 161.902344 114.675781 C 162.082031 113.773438 162.347656 112.894531 162.703125 112.039062 C 163.054688 111.1875 163.488281 110.378906 164 109.609375 C 164.515625 108.84375 165.097656 108.132812 165.75 107.480469 C 166.402344 106.828125 167.113281 106.246094 167.878906 105.734375 C 168.644531 105.21875 169.457031 104.789062 170.308594 104.433594 C 171.160156 104.082031 172.039062 103.8125 172.945312 103.632812 C 173.851562 103.453125 174.765625 103.363281 175.6875 103.363281 Z M 175.6875 103.363281 "/><g clip-rule="nonzero" clip-path="url(#3c249edcda)"><path style=" stroke:none;fill-rule:nonzero;fill:#000000;fill-opacity:1;" d="M 221.367188 201.75 L 211.878906 201.75 C 212.660156 200.742188 213.261719 199.640625 213.683594 198.4375 C 214.105469 197.234375 214.324219 195.996094 214.339844 194.722656 L 214.339844 163.097656 C 214.339844 151.46875 203.304688 142.015625 189.742188 142.015625 L 161.632812 142.015625 C 149.476562 142.015625 139.355469 149.640625 137.421875 159.585938 L 122.980469 159.585938 C 122.441406 159.582031 121.925781 159.695312 121.4375 159.929688 C 120.953125 160.164062 120.539062 160.496094 120.207031 160.917969 C 119.871094 161.347656 119.652344 161.828125 119.539062 162.355469 C 119.429688 162.886719 119.441406 163.414062 119.574219 163.941406 L 129.023438 201.75 L 95.855469 201.75 L 105.414062 163.941406 C 105.546875 163.414062 105.558594 162.886719 105.445312 162.355469 C 105.335938 161.828125 105.113281 161.347656 104.78125 160.917969 C 104.433594 160.480469 104.007812 160.144531 103.5 159.90625 C 102.992188 159.671875 102.457031 159.566406 101.898438 159.585938 L 87.457031 159.585938 C 85.523438 149.640625 75.40625 142.015625 63.246094 142.015625 L 35.136719 142.015625 C 21.574219 142.015625 10.542969 151.46875 10.542969 163.097656 L 10.542969 194.722656 C 10.558594 195.996094 10.777344 197.234375 11.195312 198.4375 C 11.617188 199.640625 12.21875 200.742188 13 201.75 L 3.515625 201.75 C 3.046875 201.75 2.597656 201.839844 2.167969 202.015625 C 1.738281 202.195312 1.359375 202.449219 1.027344 202.777344 C 0.699219 203.109375 0.445312 203.488281 0.265625 203.917969 C 0.0898438 204.347656 0 204.796875 0 205.261719 C 0 205.730469 0.0898438 206.175781 0.265625 206.609375 C 0.445312 207.039062 0.699219 207.417969 1.027344 207.746094 C 1.359375 208.078125 1.738281 208.332031 2.167969 208.507812 C 2.597656 208.6875 3.046875 208.777344 3.515625 208.777344 L 221.367188 208.777344 C 221.832031 208.777344 222.28125 208.6875 222.710938 208.507812 C 223.140625 208.332031 223.519531 208.078125 223.851562 207.746094 C 224.179688 207.417969 224.433594 207.039062 224.613281 206.609375 C 224.789062 206.175781 224.878906 205.730469 224.878906 205.261719 C 224.878906 204.796875 224.789062 204.347656 224.613281 203.917969 C 224.433594 203.488281 224.179688 203.109375 223.851562 202.777344 C 223.519531 202.449219 223.140625 202.195312 222.710938 202.015625 C 222.28125 201.839844 221.832031 201.75 221.367188 201.75 Z M 59.734375 201.75 L 28.109375 201.75 C 22.382812 201.75 17.570312 198.515625 17.570312 194.722656 L 17.570312 163.097656 C 17.570312 155.332031 25.441406 149.042969 35.136719 149.042969 L 63.246094 149.042969 C 64.132812 148.992188 65.019531 149.007812 65.902344 149.09375 C 66.785156 149.175781 67.65625 149.328125 68.519531 149.546875 C 69.378906 149.765625 70.21875 150.050781 71.035156 150.398438 C 71.851562 150.746094 72.636719 151.15625 73.390625 151.625 C 74.144531 152.09375 74.855469 152.617188 75.53125 153.195312 C 76.203125 153.777344 76.828125 154.402344 77.402344 155.078125 C 77.980469 155.753906 78.5 156.46875 78.96875 157.222656 C 79.433594 157.980469 79.839844 158.765625 80.183594 159.585938 L 52.707031 159.585938 C 52.304688 159.574219 51.914062 159.628906 51.53125 159.75 C 51.148438 159.875 50.796875 160.054688 50.476562 160.300781 C 50.15625 160.542969 49.886719 160.832031 49.667969 161.167969 C 49.445312 161.503906 49.289062 161.863281 49.191406 162.253906 L 42.9375 187.695312 L 35.136719 187.695312 L 35.136719 177.152344 C 35.136719 176.6875 35.046875 176.238281 34.871094 175.808594 C 34.691406 175.378906 34.4375 174.996094 34.109375 174.667969 C 33.777344 174.339844 33.398438 174.085938 32.96875 173.90625 C 32.539062 173.726562 32.089844 173.640625 31.625 173.640625 C 31.15625 173.640625 30.710938 173.726562 30.277344 173.90625 C 29.847656 174.085938 29.46875 174.339844 29.140625 174.667969 C 28.808594 174.996094 28.554688 175.378906 28.378906 175.808594 C 28.199219 176.238281 28.109375 176.6875 28.109375 177.152344 L 28.109375 191.207031 C 28.109375 191.675781 28.199219 192.121094 28.378906 192.550781 C 28.554688 192.984375 28.808594 193.363281 29.140625 193.691406 C 29.46875 194.023438 29.847656 194.277344 30.277344 194.453125 C 30.710938 194.632812 31.15625 194.722656 31.625 194.722656 L 69.675781 194.722656 C 69.3125 195.75 68.804688 196.699219 68.144531 197.566406 C 67.488281 198.4375 66.714844 199.1875 65.824219 199.816406 C 64.933594 200.445312 63.96875 200.925781 62.929688 201.253906 C 61.890625 201.585938 60.824219 201.75 59.734375 201.75 Z M 88.617188 201.75 L 73.789062 201.75 C 74.9375 200.234375 75.8125 198.574219 76.414062 196.769531 C 77.015625 194.964844 77.3125 193.109375 77.300781 191.207031 C 77.300781 190.742188 77.214844 190.292969 77.035156 189.863281 C 76.855469 189.433594 76.601562 189.054688 76.273438 188.722656 C 75.945312 188.394531 75.5625 188.140625 75.132812 187.960938 C 74.703125 187.785156 74.253906 187.695312 73.789062 187.695312 L 50.175781 187.695312 L 55.445312 166.613281 L 97.402344 166.613281 Z M 136.261719 201.75 L 127.480469 166.613281 L 169.433594 166.613281 L 174.703125 187.695312 L 151.089844 187.695312 C 150.625 187.695312 150.175781 187.785156 149.746094 187.960938 C 149.316406 188.140625 148.9375 188.394531 148.605469 188.722656 C 148.277344 189.054688 148.023438 189.433594 147.84375 189.863281 C 147.667969 190.292969 147.578125 190.742188 147.578125 191.207031 C 147.566406 193.109375 147.863281 194.964844 148.464844 196.769531 C 149.066406 198.574219 149.941406 200.234375 151.089844 201.75 Z M 207.3125 194.722656 C 207.3125 198.515625 202.496094 201.75 196.769531 201.75 L 165.144531 201.75 C 164.054688 201.75 162.992188 201.585938 161.953125 201.253906 C 160.914062 200.925781 159.949219 200.445312 159.058594 199.816406 C 158.167969 199.1875 157.390625 198.4375 156.734375 197.566406 C 156.078125 196.699219 155.566406 195.75 155.203125 194.722656 L 193.257812 194.722656 C 193.722656 194.722656 194.171875 194.632812 194.601562 194.453125 C 195.03125 194.277344 195.410156 194.023438 195.742188 193.691406 C 196.070312 193.363281 196.324219 192.984375 196.503906 192.550781 C 196.679688 192.121094 196.769531 191.675781 196.769531 191.207031 L 196.769531 177.152344 C 196.769531 176.6875 196.679688 176.238281 196.503906 175.808594 C 196.324219 175.378906 196.070312 174.996094 195.742188 174.667969 C 195.410156 174.339844 195.03125 174.085938 194.601562 173.90625 C 194.171875 173.726562 193.722656 173.640625 193.257812 173.640625 C 192.789062 173.640625 192.34375 173.726562 191.910156 173.90625 C 191.480469 174.085938 191.101562 174.339844 190.773438 174.667969 C 190.441406 174.996094 190.1875 175.378906 190.011719 175.808594 C 189.832031 176.238281 189.742188 176.6875 189.742188 177.152344 L 189.742188 187.695312 L 181.941406 187.695312 L 175.6875 162.253906 C 175.589844 161.863281 175.433594 161.503906 175.210938 161.167969 C 174.992188 160.832031 174.722656 160.542969 174.402344 160.300781 C 174.082031 160.054688 173.730469 159.875 173.347656 159.75 C 172.96875 159.628906 172.574219 159.574219 172.171875 159.585938 L 144.695312 159.585938 C 145.042969 158.765625 145.445312 157.980469 145.914062 157.222656 C 146.378906 156.46875 146.898438 155.753906 147.476562 155.078125 C 148.054688 154.402344 148.675781 153.777344 149.351562 153.195312 C 150.023438 152.617188 150.738281 152.09375 151.492188 151.625 C 152.246094 151.15625 153.03125 150.746094 153.847656 150.398438 C 154.664062 150.050781 155.5 149.765625 156.363281 149.546875 C 157.222656 149.328125 158.09375 149.175781 158.976562 149.09375 C 159.859375 149.007812 160.746094 148.992188 161.632812 149.042969 L 189.742188 149.042969 C 199.441406 149.042969 207.3125 155.332031 207.3125 163.097656 Z M 207.3125 194.722656 "/></g><path style=" stroke:none;fill-rule:nonzero;fill:#000000;fill-opacity:1;" d="M 159.910156 57.683594 C 159.910156 56.648438 159.859375 55.617188 159.757812 54.585938 C 159.65625 53.554688 159.503906 52.53125 159.304688 51.515625 C 159.101562 50.5 158.851562 49.496094 158.550781 48.503906 C 158.25 47.515625 157.898438 46.539062 157.503906 45.582031 C 157.105469 44.625 156.664062 43.691406 156.175781 42.777344 C 155.6875 41.863281 155.15625 40.976562 154.582031 40.117188 C 154.003906 39.253906 153.390625 38.425781 152.734375 37.625 C 152.074219 36.824219 151.378906 36.054688 150.648438 35.324219 C 149.914062 34.589844 149.148438 33.898438 148.347656 33.238281 C 147.546875 32.582031 146.71875 31.964844 145.855469 31.390625 C 144.996094 30.816406 144.109375 30.285156 143.195312 29.796875 C 142.28125 29.308594 141.347656 28.867188 140.390625 28.46875 C 139.433594 28.074219 138.457031 27.722656 137.46875 27.421875 C 136.476562 27.121094 135.472656 26.871094 134.457031 26.667969 C 133.441406 26.46875 132.417969 26.316406 131.386719 26.214844 C 130.355469 26.113281 129.324219 26.0625 128.285156 26.0625 C 124.882812 26.0625 121.566406 26.613281 118.34375 27.714844 C 117.539062 26.925781 116.699219 26.183594 115.816406 25.488281 C 114.933594 24.792969 114.019531 24.144531 113.066406 23.542969 C 112.117188 22.945312 111.136719 22.398438 110.128906 21.902344 C 109.117188 21.410156 108.085938 20.96875 107.03125 20.585938 C 105.972656 20.199219 104.898438 19.875 103.808594 19.601562 C 102.71875 19.332031 101.617188 19.121094 100.503906 18.96875 C 99.390625 18.816406 98.269531 18.722656 97.148438 18.691406 C 96.023438 18.65625 94.902344 18.683594 93.78125 18.769531 C 92.660156 18.855469 91.546875 19.003906 90.441406 19.207031 C 89.339844 19.410156 88.246094 19.675781 87.171875 19.996094 C 86.09375 20.316406 85.035156 20.695312 84 21.128906 C 82.964844 21.5625 81.953125 22.050781 80.96875 22.59375 C 79.984375 23.132812 79.03125 23.726562 78.109375 24.371094 C 77.1875 25.011719 76.300781 25.703125 75.453125 26.441406 C 74.605469 27.179688 73.800781 27.960938 73.035156 28.78125 C 72.269531 29.605469 71.550781 30.46875 70.878906 31.367188 C 70.207031 32.269531 69.582031 33.203125 69.011719 34.167969 C 68.4375 35.136719 67.917969 36.128906 67.449219 37.152344 C 66.980469 38.175781 66.570312 39.21875 66.214844 40.285156 C 65.859375 41.351562 65.558594 42.433594 65.320312 43.53125 C 65.078125 44.628906 64.898438 45.734375 64.773438 46.851562 C 64.652344 47.96875 64.589844 49.089844 64.585938 50.214844 C 64.582031 51.335938 64.640625 52.457031 64.757812 53.578125 C 64.871094 54.695312 65.046875 55.800781 65.28125 56.902344 C 65.515625 58 65.808594 59.085938 66.160156 60.152344 C 66.511719 61.21875 66.914062 62.265625 67.378906 63.292969 C 67.839844 64.316406 68.355469 65.3125 68.921875 66.28125 C 69.488281 67.253906 70.109375 68.1875 70.777344 69.09375 C 71.445312 69.996094 72.15625 70.863281 72.917969 71.691406 C 73.679688 72.519531 74.480469 73.304688 75.324219 74.046875 C 76.167969 74.789062 77.046875 75.484375 77.964844 76.132812 C 78.882812 76.78125 79.835938 77.378906 80.816406 77.925781 L 79.269531 88.816406 C 79.152344 89.5 79.230469 90.160156 79.503906 90.796875 C 79.78125 91.433594 80.203125 91.945312 80.78125 92.332031 C 81.375 92.730469 82.03125 92.929688 82.75 92.929688 C 83.375 92.933594 83.960938 92.78125 84.503906 92.472656 L 103.269531 81.71875 C 104.460938 81.464844 105.632812 81.136719 106.78125 80.734375 C 108.878906 82.738281 111.210938 84.417969 113.769531 85.777344 C 116.328125 87.136719 119.023438 88.128906 121.855469 88.746094 L 140.550781 99.394531 C 141.09375 99.703125 141.679688 99.855469 142.308594 99.851562 C 143.023438 99.851562 143.679688 99.652344 144.273438 99.253906 C 144.851562 98.867188 145.277344 98.355469 145.550781 97.71875 C 145.824219 97.082031 145.902344 96.421875 145.785156 95.738281 L 144.238281 84.847656 C 145.421875 84.15625 146.554688 83.390625 147.636719 82.554688 C 148.71875 81.71875 149.742188 80.8125 150.710938 79.84375 C 151.675781 78.871094 152.574219 77.84375 153.40625 76.753906 C 154.238281 75.667969 154.996094 74.53125 155.679688 73.34375 C 156.363281 72.160156 156.96875 70.933594 157.492188 69.671875 C 158.019531 68.40625 158.457031 67.113281 158.816406 65.792969 C 159.171875 64.46875 159.441406 63.128906 159.625 61.773438 C 159.808594 60.417969 159.90625 59.054688 159.910156 57.683594 Z M 101.230469 74.832031 C 100.851562 74.914062 100.488281 75.042969 100.140625 75.21875 L 87.105469 82.703125 L 87.84375 76.484375 C 87.878906 76.125 87.859375 75.769531 87.789062 75.417969 C 87.714844 75.066406 87.589844 74.730469 87.414062 74.417969 C 87.238281 74.101562 87.019531 73.824219 86.757812 73.574219 C 86.492188 73.328125 86.199219 73.128906 85.875 72.96875 C 85.003906 72.550781 84.164062 72.082031 83.347656 71.566406 C 82.53125 71.046875 81.75 70.484375 81 69.875 C 80.25 69.265625 79.539062 68.613281 78.867188 67.917969 C 78.195312 67.226562 77.566406 66.492188 76.980469 65.726562 C 76.394531 64.957031 75.855469 64.160156 75.363281 63.328125 C 74.871094 62.496094 74.429688 61.636719 74.039062 60.753906 C 73.648438 59.871094 73.3125 58.96875 73.027344 58.046875 C 72.742188 57.121094 72.515625 56.1875 72.339844 55.234375 C 72.164062 54.285156 72.046875 53.328125 71.988281 52.363281 C 71.925781 51.398438 71.921875 50.4375 71.972656 49.472656 C 72.023438 48.507812 72.132812 47.550781 72.300781 46.597656 C 72.464844 45.644531 72.683594 44.707031 72.960938 43.78125 C 73.238281 42.855469 73.566406 41.949219 73.949219 41.0625 C 74.332031 40.175781 74.765625 39.3125 75.246094 38.476562 C 75.730469 37.640625 76.261719 36.835938 76.84375 36.0625 C 77.421875 35.289062 78.042969 34.554688 78.710938 33.855469 C 79.375 33.152344 80.078125 32.496094 80.824219 31.878906 C 81.566406 31.261719 82.34375 30.691406 83.152344 30.164062 C 83.964844 29.640625 84.800781 29.164062 85.667969 28.734375 C 86.535156 28.308594 87.421875 27.933594 88.335938 27.613281 C 89.246094 27.292969 90.171875 27.023438 91.113281 26.8125 C 92.054688 26.597656 93.007812 26.441406 93.96875 26.339844 C 94.929688 26.238281 95.890625 26.195312 96.859375 26.207031 C 97.824219 26.222656 98.785156 26.289062 99.742188 26.417969 C 100.699219 26.542969 101.648438 26.726562 102.585938 26.960938 C 103.519531 27.199219 104.441406 27.492188 105.339844 27.835938 C 106.242188 28.183594 107.121094 28.582031 107.976562 29.03125 C 108.832031 29.480469 109.65625 29.976562 110.453125 30.523438 C 111.25 31.070312 112.011719 31.664062 112.738281 32.300781 C 113.464844 32.9375 114.152344 33.613281 114.800781 34.332031 C 115.445312 35.046875 116.046875 35.800781 116.605469 36.589844 C 117.164062 37.378906 117.675781 38.195312 118.136719 39.042969 C 118.597656 39.890625 119.007812 40.765625 119.367188 41.660156 C 119.726562 42.558594 120.03125 43.472656 120.28125 44.40625 C 120.535156 45.339844 120.730469 46.28125 120.871094 47.238281 C 121.011719 48.195312 121.09375 49.15625 121.121094 50.121094 C 121.148438 51.085938 121.117188 52.050781 121.03125 53.011719 C 120.941406 53.972656 120.800781 54.929688 120.601562 55.871094 C 120.402344 56.816406 120.148438 57.75 119.839844 58.664062 C 119.53125 59.578125 119.167969 60.472656 118.753906 61.347656 C 118.339844 62.21875 117.878906 63.0625 117.363281 63.882812 C 116.851562 64.699219 116.289062 65.484375 115.683594 66.238281 C 115.078125 66.988281 114.429688 67.703125 113.738281 68.378906 C 113.050781 69.054688 112.320312 69.6875 111.558594 70.277344 C 110.792969 70.867188 109.996094 71.410156 109.167969 71.90625 C 108.335938 72.402344 107.484375 72.847656 106.601562 73.242188 C 105.71875 73.640625 104.820312 73.980469 103.898438 74.269531 C 102.976562 74.558594 102.039062 74.792969 101.089844 74.972656 Z M 138.933594 79.855469 C 138.609375 80.015625 138.316406 80.214844 138.054688 80.460938 C 137.792969 80.710938 137.574219 80.988281 137.394531 81.304688 C 137.21875 81.617188 137.097656 81.953125 137.023438 82.304688 C 136.949219 82.65625 136.929688 83.011719 136.964844 83.371094 L 137.84375 89.589844 L 124.808594 82.28125 C 124.460938 82.105469 124.097656 81.976562 123.71875 81.894531 C 120.003906 81.167969 116.644531 79.660156 113.632812 77.363281 C 114.511719 76.804688 115.355469 76.207031 116.171875 75.566406 C 116.988281 74.925781 117.769531 74.246094 118.519531 73.527344 C 119.269531 72.808594 119.980469 72.054688 120.65625 71.269531 C 121.332031 70.480469 121.96875 69.660156 122.5625 68.808594 C 123.15625 67.960938 123.707031 67.082031 124.214844 66.175781 C 124.726562 65.273438 125.1875 64.34375 125.605469 63.394531 C 126.019531 62.445312 126.390625 61.476562 126.710938 60.488281 C 127.035156 59.5 127.304688 58.5 127.527344 57.488281 C 127.75 56.472656 127.925781 55.453125 128.046875 54.421875 C 128.167969 53.390625 128.242188 52.355469 128.261719 51.320312 C 128.28125 50.28125 128.25 49.246094 128.171875 48.210938 C 128.089844 47.175781 127.957031 46.148438 127.773438 45.125 C 127.59375 44.105469 127.359375 43.09375 127.078125 42.097656 C 126.796875 41.097656 126.464844 40.113281 126.085938 39.148438 C 125.707031 38.183594 125.28125 37.238281 124.8125 36.3125 C 124.339844 35.390625 123.824219 34.488281 123.261719 33.617188 C 124.917969 33.261719 126.59375 33.085938 128.285156 33.089844 C 129.667969 33.09375 131.039062 33.214844 132.402344 33.453125 C 133.761719 33.691406 135.09375 34.039062 136.394531 34.5 C 137.695312 34.960938 138.953125 35.53125 140.15625 36.203125 C 141.363281 36.875 142.507812 37.644531 143.582031 38.507812 C 144.660156 39.375 145.65625 40.324219 146.574219 41.355469 C 147.492188 42.390625 148.316406 43.492188 149.046875 44.664062 C 149.777344 45.835938 150.40625 47.0625 150.929688 48.339844 C 151.457031 49.617188 151.871094 50.929688 152.175781 52.277344 C 152.476562 53.625 152.667969 54.988281 152.742188 56.367188 C 152.816406 57.746094 152.773438 59.125 152.617188 60.496094 C 152.457031 61.867188 152.1875 63.21875 151.800781 64.542969 C 151.414062 65.871094 150.921875 67.15625 150.320312 68.398438 C 149.71875 69.644531 149.015625 70.828125 148.214844 71.953125 C 147.414062 73.078125 146.523438 74.128906 145.546875 75.101562 C 144.566406 76.078125 143.515625 76.964844 142.386719 77.761719 C 141.261719 78.5625 140.074219 79.257812 138.828125 79.855469 Z M 138.933594 79.855469 "/><path style=" stroke:none;fill-rule:nonzero;fill:#000000;fill-opacity:1;" d="M 91.394531 50.65625 C 91.394531 51.003906 91.359375 51.347656 91.292969 51.6875 C 91.222656 52.027344 91.125 52.355469 90.992188 52.675781 C 90.859375 52.996094 90.695312 53.296875 90.503906 53.585938 C 90.3125 53.875 90.09375 54.140625 89.847656 54.386719 C 89.605469 54.628906 89.339844 54.847656 89.050781 55.039062 C 88.761719 55.234375 88.457031 55.394531 88.140625 55.527344 C 87.820312 55.660156 87.488281 55.761719 87.148438 55.828125 C 86.8125 55.894531 86.46875 55.929688 86.121094 55.929688 C 85.777344 55.929688 85.433594 55.894531 85.09375 55.828125 C 84.753906 55.761719 84.425781 55.660156 84.105469 55.527344 C 83.785156 55.394531 83.480469 55.234375 83.195312 55.039062 C 82.90625 54.847656 82.640625 54.628906 82.394531 54.386719 C 82.152344 54.140625 81.933594 53.875 81.738281 53.585938 C 81.546875 53.296875 81.386719 52.996094 81.253906 52.675781 C 81.121094 52.355469 81.019531 52.027344 80.953125 51.6875 C 80.886719 51.347656 80.851562 51.003906 80.851562 50.65625 C 80.851562 50.3125 80.886719 49.96875 80.953125 49.628906 C 81.019531 49.289062 81.121094 48.960938 81.253906 48.640625 C 81.386719 48.320312 81.546875 48.015625 81.738281 47.730469 C 81.933594 47.441406 82.152344 47.175781 82.394531 46.929688 C 82.640625 46.6875 82.90625 46.46875 83.195312 46.277344 C 83.480469 46.082031 83.785156 45.921875 84.105469 45.789062 C 84.425781 45.65625 84.753906 45.554688 85.09375 45.488281 C 85.433594 45.421875 85.777344 45.386719 86.121094 45.386719 C 86.46875 45.386719 86.8125 45.421875 87.148438 45.488281 C 87.488281 45.554688 87.820312 45.65625 88.140625 45.789062 C 88.457031 45.921875 88.761719 46.082031 89.050781 46.277344 C 89.339844 46.46875 89.605469 46.6875 89.847656 46.929688 C 90.09375 47.175781 90.3125 47.441406 90.503906 47.730469 C 90.695312 48.015625 90.859375 48.320312 90.992188 48.640625 C 91.125 48.960938 91.222656 49.289062 91.292969 49.628906 C 91.359375 49.96875 91.394531 50.3125 91.394531 50.65625 Z M 91.394531 50.65625 "/><path style=" stroke:none;fill-rule:nonzero;fill:#000000;fill-opacity:1;" d="M 101.933594 50.65625 C 101.933594 51.003906 101.898438 51.347656 101.832031 51.6875 C 101.765625 52.027344 101.664062 52.355469 101.53125 52.675781 C 101.398438 52.996094 101.238281 53.296875 101.046875 53.585938 C 100.851562 53.875 100.636719 54.140625 100.390625 54.386719 C 100.144531 54.628906 99.878906 54.847656 99.589844 55.039062 C 99.304688 55.234375 99 55.394531 98.679688 55.527344 C 98.359375 55.660156 98.03125 55.761719 97.691406 55.828125 C 97.351562 55.894531 97.007812 55.929688 96.664062 55.929688 C 96.316406 55.929688 95.972656 55.894531 95.636719 55.828125 C 95.296875 55.761719 94.964844 55.660156 94.644531 55.527344 C 94.328125 55.394531 94.023438 55.234375 93.734375 55.039062 C 93.449219 54.847656 93.179688 54.628906 92.9375 54.386719 C 92.691406 54.140625 92.472656 53.875 92.28125 53.585938 C 92.089844 53.296875 91.925781 52.996094 91.792969 52.675781 C 91.660156 52.355469 91.5625 52.027344 91.492188 51.6875 C 91.425781 51.347656 91.394531 51.003906 91.394531 50.65625 C 91.394531 50.3125 91.425781 49.96875 91.492188 49.628906 C 91.5625 49.289062 91.660156 48.960938 91.792969 48.640625 C 91.925781 48.320312 92.089844 48.015625 92.28125 47.730469 C 92.472656 47.441406 92.691406 47.175781 92.9375 46.929688 C 93.179688 46.6875 93.449219 46.46875 93.734375 46.277344 C 94.023438 46.082031 94.328125 45.921875 94.644531 45.789062 C 94.964844 45.65625 95.296875 45.554688 95.636719 45.488281 C 95.972656 45.421875 96.316406 45.386719 96.664062 45.386719 C 97.007812 45.386719 97.351562 45.421875 97.691406 45.488281 C 98.03125 45.554688 98.359375 45.65625 98.679688 45.789062 C 99 45.921875 99.304688 46.082031 99.589844 46.277344 C 99.878906 46.46875 100.144531 46.6875 100.390625 46.929688 C 100.636719 47.175781 100.851562 47.441406 101.046875 47.730469 C 101.238281 48.015625 101.398438 48.320312 101.53125 48.640625 C 101.664062 48.960938 101.765625 49.289062 101.832031 49.628906 C 101.898438 49.96875 101.933594 50.3125 101.933594 50.65625 Z M 101.933594 50.65625 "/><path style=" stroke:none;fill-rule:nonzero;fill:#000000;fill-opacity:1;" d="M 112.476562 50.65625 C 112.476562 51.003906 112.441406 51.347656 112.375 51.6875 C 112.304688 52.027344 112.207031 52.355469 112.074219 52.675781 C 111.941406 52.996094 111.777344 53.296875 111.585938 53.585938 C 111.394531 53.875 111.175781 54.140625 110.929688 54.386719 C 110.6875 54.628906 110.421875 54.847656 110.132812 55.039062 C 109.84375 55.234375 109.542969 55.394531 109.222656 55.527344 C 108.902344 55.660156 108.570312 55.761719 108.234375 55.828125 C 107.894531 55.894531 107.550781 55.929688 107.203125 55.929688 C 106.859375 55.929688 106.515625 55.894531 106.175781 55.828125 C 105.835938 55.761719 105.507812 55.660156 105.1875 55.527344 C 104.867188 55.394531 104.5625 55.234375 104.277344 55.039062 C 103.988281 54.847656 103.722656 54.628906 103.476562 54.386719 C 103.234375 54.140625 103.015625 53.875 102.820312 53.585938 C 102.628906 53.296875 102.46875 52.996094 102.335938 52.675781 C 102.203125 52.355469 102.101562 52.027344 102.035156 51.6875 C 101.96875 51.347656 101.933594 51.003906 101.933594 50.65625 C 101.933594 50.3125 101.96875 49.96875 102.035156 49.628906 C 102.101562 49.289062 102.203125 48.960938 102.335938 48.640625 C 102.46875 48.320312 102.628906 48.015625 102.820312 47.730469 C 103.015625 47.441406 103.234375 47.175781 103.476562 46.929688 C 103.722656 46.6875 103.988281 46.46875 104.277344 46.277344 C 104.5625 46.082031 104.867188 45.921875 105.1875 45.789062 C 105.507812 45.65625 105.835938 45.554688 106.175781 45.488281 C 106.515625 45.421875 106.859375 45.386719 107.203125 45.386719 C 107.550781 45.386719 107.894531 45.421875 108.234375 45.488281 C 108.570312 45.554688 108.902344 45.65625 109.222656 45.789062 C 109.542969 45.921875 109.84375 46.082031 110.132812 46.277344 C 110.421875 46.46875 110.6875 46.6875 110.929688 46.929688 C 111.175781 47.175781 111.394531 47.441406 111.585938 47.730469 C 111.777344 48.015625 111.941406 48.320312 112.074219 48.640625 C 112.207031 48.960938 112.304688 49.289062 112.375 49.628906 C 112.441406 49.96875 112.476562 50.3125 112.476562 50.65625 Z M 112.476562 50.65625 "/></g></svg>