<svg xmlns="http://www.w3.org/2000/svg" xmlns:xlink="http://www.w3.org/1999/xlink" width="300" zoomAndPan="magnify" viewBox="0 0 224.87999 225" height="300" preserveAspectRatio="xMidYMid meet" version="1.2"><defs><clipPath id="1e9e1288dd"><path d="M 18.363281 2.144531 L 206.511719 2.144531 L 206.511719 219 L 18.363281 219 Z M 18.363281 2.144531 "/></clipPath><clipPath id="f4aa345871"><path d="M 184 143 L 206.511719 143 L 206.511719 165 L 184 165 Z M 184 143 "/></clipPath></defs><g id="e556fae7c6"><path style=" stroke:none;fill-rule:nonzero;fill:#000000;fill-opacity:1;" d="M 88.160156 35.710938 L 78.394531 45.5 L 50.933594 45.5 C 50.453125 45.5 49.992188 45.59375 49.546875 45.773438 C 49.105469 45.957031 48.714844 46.21875 48.375 46.558594 C 48.035156 46.898438 47.773438 47.289062 47.589844 47.730469 C 47.40625 48.171875 47.3125 48.632812 47.3125 49.113281 L 47.3125 78.015625 C 47.3125 78.496094 47.40625 78.957031 47.589844 79.398438 C 47.773438 79.839844 48.035156 80.230469 48.375 80.570312 C 48.714844 80.910156 49.105469 81.171875 49.546875 81.355469 C 49.992188 81.535156 50.453125 81.628906 50.933594 81.628906 L 79.875 81.628906 C 80.355469 81.628906 80.816406 81.535156 81.261719 81.355469 C 81.703125 81.171875 82.09375 80.910156 82.433594 80.570312 C 82.773438 80.230469 83.035156 79.839844 83.21875 79.398438 C 83.402344 78.957031 83.496094 78.496094 83.496094 78.015625 L 83.496094 50.59375 L 93.300781 40.839844 Z M 76.257812 74.402344 L 54.550781 74.402344 L 54.550781 52.726562 L 71.15625 52.726562 L 62.835938 61 L 67.972656 66.128906 L 76.257812 57.820312 Z M 76.257812 74.402344 "/><path style=" stroke:none;fill-rule:nonzero;fill:#000000;fill-opacity:1;" d="M 88.160156 82.675781 L 78.394531 92.46875 L 50.933594 92.46875 C 50.453125 92.46875 49.992188 92.558594 49.546875 92.742188 C 49.105469 92.925781 48.714844 93.1875 48.375 93.523438 C 48.035156 93.863281 47.773438 94.253906 47.589844 94.699219 C 47.40625 95.140625 47.3125 95.601562 47.3125 96.078125 L 47.3125 124.984375 C 47.3125 125.460938 47.40625 125.921875 47.589844 126.363281 C 47.773438 126.808594 48.035156 127.199219 48.375 127.535156 C 48.714844 127.875 49.105469 128.136719 49.546875 128.320312 C 49.992188 128.503906 50.453125 128.59375 50.933594 128.59375 L 79.875 128.59375 C 80.355469 128.59375 80.816406 128.503906 81.261719 128.320312 C 81.703125 128.136719 82.09375 127.875 82.433594 127.535156 C 82.773438 127.199219 83.035156 126.808594 83.21875 126.363281 C 83.402344 125.921875 83.496094 125.460938 83.496094 124.984375 L 83.496094 97.5625 L 93.300781 87.804688 Z M 76.257812 121.371094 L 54.550781 121.371094 L 54.550781 99.691406 L 71.15625 99.691406 L 62.835938 107.964844 L 67.972656 113.097656 L 76.257812 104.785156 Z M 76.257812 121.371094 "/><path style=" stroke:none;fill-rule:nonzero;fill:#000000;fill-opacity:1;" d="M 88.160156 129.644531 L 78.394531 139.433594 L 50.933594 139.433594 C 50.453125 139.433594 49.992188 139.527344 49.546875 139.707031 C 49.105469 139.890625 48.714844 140.152344 48.375 140.492188 C 48.035156 140.832031 47.773438 141.222656 47.589844 141.664062 C 47.40625 142.105469 47.3125 142.566406 47.3125 143.046875 L 47.3125 171.949219 C 47.3125 172.429688 47.40625 172.890625 47.589844 173.332031 C 47.773438 173.773438 48.035156 174.164062 48.375 174.503906 C 48.714844 174.84375 49.105469 175.105469 49.546875 175.285156 C 49.992188 175.46875 50.453125 175.5625 50.933594 175.5625 L 79.875 175.5625 C 80.355469 175.5625 80.816406 175.46875 81.261719 175.285156 C 81.703125 175.105469 82.09375 174.84375 82.433594 174.503906 C 82.773438 174.164062 83.035156 173.773438 83.21875 173.332031 C 83.402344 172.890625 83.496094 172.429688 83.496094 171.949219 L 83.496094 144.527344 L 93.300781 134.773438 Z M 76.257812 168.335938 L 54.550781 168.335938 L 54.550781 146.660156 L 71.15625 146.660156 L 62.835938 154.933594 L 67.972656 160.0625 L 76.257812 151.753906 Z M 76.257812 168.335938 "/><path style=" stroke:none;fill-rule:nonzero;fill:#000000;fill-opacity:1;" d="M 97.964844 52.726562 L 105.203125 52.726562 L 105.203125 59.953125 L 97.964844 59.953125 Z M 97.964844 52.726562 "/><path style=" stroke:none;fill-rule:nonzero;fill:#000000;fill-opacity:1;" d="M 112.4375 52.726562 L 163.089844 52.726562 L 163.089844 59.953125 L 112.4375 59.953125 Z M 112.4375 52.726562 "/><path style=" stroke:none;fill-rule:nonzero;fill:#000000;fill-opacity:1;" d="M 97.964844 67.175781 L 155.855469 67.175781 L 155.855469 74.402344 L 97.964844 74.402344 Z M 97.964844 67.175781 "/><path style=" stroke:none;fill-rule:nonzero;fill:#000000;fill-opacity:1;" d="M 97.964844 99.691406 L 105.203125 99.691406 L 105.203125 106.917969 L 97.964844 106.917969 Z M 97.964844 99.691406 "/><path style=" stroke:none;fill-rule:nonzero;fill:#000000;fill-opacity:1;" d="M 112.4375 99.691406 L 163.089844 99.691406 L 163.089844 106.917969 L 112.4375 106.917969 Z M 112.4375 99.691406 "/><path style=" stroke:none;fill-rule:nonzero;fill:#000000;fill-opacity:1;" d="M 97.964844 114.144531 L 155.855469 114.144531 L 155.855469 121.371094 L 97.964844 121.371094 Z M 97.964844 114.144531 "/><path style=" stroke:none;fill-rule:nonzero;fill:#000000;fill-opacity:1;" d="M 97.964844 146.660156 L 105.203125 146.660156 L 105.203125 153.886719 L 97.964844 153.886719 Z M 97.964844 146.660156 "/><g clip-rule="nonzero" clip-path="url(#1e9e1288dd)"><path style=" stroke:none;fill-rule:nonzero;fill:#000000;fill-opacity:1;" d="M 198.65625 168.988281 C 198.878906 170.195312 199.042969 171.414062 199.140625 172.636719 C 199.242188 173.863281 199.277344 175.089844 199.25 176.320312 C 199.226562 177.546875 199.136719 178.773438 198.988281 179.992188 C 198.835938 181.214844 198.621094 182.421875 198.347656 183.621094 C 198.074219 184.820312 197.738281 186 197.34375 187.164062 C 196.949219 188.328125 196.492188 189.46875 195.980469 190.589844 C 195.46875 191.707031 194.902344 192.796875 194.277344 193.855469 C 193.65625 194.914062 192.980469 195.941406 192.25 196.933594 C 191.523438 197.921875 190.746094 198.875 189.921875 199.789062 C 189.09375 200.699219 188.226562 201.566406 187.3125 202.390625 C 186.398438 203.214844 185.445312 203.988281 184.449219 204.714844 C 183.457031 205.441406 182.429688 206.113281 181.367188 206.734375 C 180.304688 207.355469 179.214844 207.921875 178.09375 208.433594 C 176.972656 208.941406 175.828125 209.394531 174.664062 209.789062 C 173.496094 210.183594 172.3125 210.515625 171.113281 210.789062 C 169.914062 211.0625 168.703125 211.273438 167.480469 211.421875 C 166.257812 211.570312 165.03125 211.660156 163.800781 211.683594 C 162.570312 211.707031 161.339844 211.667969 160.113281 211.570312 C 158.886719 211.46875 157.667969 211.304688 156.457031 211.078125 C 155.246094 210.855469 154.050781 210.570312 152.871094 210.222656 C 151.6875 209.875 150.527344 209.46875 149.390625 209.003906 C 148.25 208.539062 147.136719 208.015625 146.050781 207.4375 C 144.964844 206.859375 143.910156 206.226562 142.890625 205.542969 C 141.867188 204.855469 140.882812 204.117188 139.9375 203.332031 C 138.992188 202.546875 138.085938 201.714844 137.226562 200.835938 C 136.363281 199.957031 135.550781 199.035156 134.785156 198.074219 C 134.015625 197.113281 133.300781 196.117188 132.632812 195.082031 C 131.96875 194.046875 131.359375 192.980469 130.800781 191.886719 C 130.246094 190.789062 129.746094 189.664062 129.304688 188.519531 C 128.863281 187.371094 128.484375 186.203125 128.160156 185.015625 C 127.839844 183.832031 127.578125 182.632812 127.378906 181.417969 C 127.179688 180.203125 127.042969 178.984375 126.964844 177.757812 C 126.890625 176.53125 126.878906 175.304688 126.929688 174.074219 C 126.980469 172.847656 127.09375 171.625 127.269531 170.40625 C 127.445312 169.191406 127.683594 167.984375 127.980469 166.792969 C 128.28125 165.601562 128.640625 164.425781 129.058594 163.269531 C 129.476562 162.113281 129.953125 160.980469 130.488281 159.875 C 131.023438 158.765625 131.613281 157.691406 132.257812 156.644531 C 132.902344 155.59375 133.597656 154.582031 134.347656 153.605469 C 135.09375 152.632812 135.890625 151.695312 136.734375 150.800781 C 137.578125 149.90625 138.464844 149.054688 139.394531 148.25 C 140.328125 147.445312 141.296875 146.691406 142.304688 145.984375 C 143.3125 145.277344 144.351562 144.625 145.425781 144.027344 C 146.503906 143.425781 147.605469 142.882812 148.734375 142.394531 C 149.867188 141.90625 151.015625 141.480469 152.191406 141.109375 C 153.367188 140.738281 154.554688 140.429688 155.761719 140.179688 C 156.964844 139.933594 158.183594 139.746094 159.40625 139.621094 C 160.632812 139.496094 161.859375 139.433594 163.089844 139.433594 C 166.59375 139.425781 170.023438 139.921875 173.378906 140.917969 C 176.734375 141.914062 179.878906 143.371094 182.808594 145.285156 L 186.789062 139.21875 C 183.886719 137.355469 180.8125 135.851562 177.5625 134.699219 L 177.5625 5.757812 C 177.5625 5.28125 177.46875 4.820312 177.285156 4.375 C 177.101562 3.933594 176.84375 3.542969 176.503906 3.203125 C 176.164062 2.867188 175.773438 2.605469 175.328125 2.421875 C 174.886719 2.238281 174.425781 2.144531 173.945312 2.144531 L 50.933594 2.144531 C 49.929688 2.140625 49.074219 2.488281 48.363281 3.195312 L 19.417969 32.097656 C 18.714844 32.808594 18.363281 33.660156 18.371094 34.660156 L 18.371094 193.625 C 18.371094 194.105469 18.460938 194.566406 18.644531 195.007812 C 18.828125 195.453125 19.089844 195.84375 19.429688 196.179688 C 19.769531 196.519531 20.160156 196.78125 20.601562 196.964844 C 21.046875 197.148438 21.507812 197.238281 21.988281 197.238281 L 125.535156 197.238281 C 126.128906 198.261719 126.761719 199.257812 127.4375 200.226562 C 128.113281 201.195312 128.828125 202.136719 129.578125 203.050781 C 130.332031 203.960938 131.121094 204.839844 131.945312 205.6875 C 132.765625 206.535156 133.625 207.347656 134.515625 208.125 C 135.40625 208.902344 136.328125 209.640625 137.277344 210.34375 C 138.230469 211.046875 139.207031 211.710938 140.210938 212.332031 C 141.21875 212.953125 142.246094 213.535156 143.300781 214.074219 C 144.351562 214.613281 145.425781 215.105469 146.519531 215.558594 C 147.613281 216.007812 148.722656 216.414062 149.847656 216.773438 C 150.976562 217.132812 152.117188 217.449219 153.269531 217.714844 C 154.421875 217.980469 155.582031 218.203125 156.75 218.375 C 157.921875 218.546875 159.097656 218.671875 160.277344 218.75 C 161.457031 218.824219 162.640625 218.851562 163.824219 218.832031 C 165.003906 218.8125 166.183594 218.746094 167.363281 218.628906 C 168.539062 218.511719 169.710938 218.347656 170.875 218.136719 C 172.039062 217.925781 173.191406 217.667969 174.332031 217.359375 C 175.476562 217.054688 176.605469 216.703125 177.71875 216.304688 C 178.832031 215.90625 179.925781 215.464844 181.003906 214.976562 C 182.082031 214.488281 183.136719 213.957031 184.171875 213.386719 C 185.207031 212.8125 186.214844 212.195312 187.199219 211.539062 C 188.183594 210.886719 189.136719 210.191406 190.066406 209.457031 C 190.992188 208.722656 191.886719 207.953125 192.75 207.144531 C 193.613281 206.335938 194.445312 205.496094 195.238281 204.621094 C 196.035156 203.746094 196.792969 202.84375 197.511719 201.90625 C 198.234375 200.96875 198.914062 200.003906 199.558594 199.011719 C 200.199219 198.019531 200.800781 197.003906 201.359375 195.960938 C 201.917969 194.921875 202.433594 193.859375 202.902344 192.777344 C 203.375 191.691406 203.804688 190.59375 204.183594 189.472656 C 204.566406 188.355469 204.902344 187.222656 205.191406 186.078125 C 205.480469 184.933594 205.722656 183.777344 205.914062 182.613281 C 206.109375 181.449219 206.257812 180.277344 206.355469 179.097656 C 206.453125 177.921875 206.503906 176.742188 206.507812 175.5625 C 206.5 172.914062 206.257812 170.289062 205.78125 167.6875 Z M 47.3125 14.464844 L 47.3125 31.050781 L 30.707031 31.050781 Z M 25.605469 190.011719 L 25.605469 38.273438 L 50.933594 38.273438 C 51.410156 38.273438 51.875 38.183594 52.316406 38 C 52.761719 37.816406 53.152344 37.554688 53.492188 37.214844 C 53.828125 36.878906 54.089844 36.488281 54.273438 36.042969 C 54.457031 35.601562 54.550781 35.140625 54.550781 34.660156 L 54.550781 9.371094 L 170.328125 9.371094 L 170.328125 132.824219 C 167.929688 132.417969 165.519531 132.214844 163.089844 132.207031 C 160.042969 132.214844 157.03125 132.539062 154.050781 133.175781 C 151.074219 133.816406 148.195312 134.757812 145.414062 136.003906 C 142.632812 137.25 140.011719 138.769531 137.554688 140.5625 C 135.09375 142.359375 132.847656 144.390625 130.816406 146.660156 L 112.4375 146.660156 L 112.4375 153.886719 L 125.535156 153.886719 C 124.214844 156.195312 123.105469 158.605469 122.207031 161.109375 L 97.964844 161.109375 L 97.964844 168.335938 L 120.324219 168.335938 C 119.90625 170.726562 119.6875 173.136719 119.675781 175.5625 C 119.675781 180.527344 120.519531 185.34375 122.207031 190.011719 Z M 25.605469 190.011719 "/></g><path style=" stroke:none;fill-rule:nonzero;fill:#000000;fill-opacity:1;" d="M 181.179688 197.238281 L 181.179688 171.949219 C 181.179688 171.359375 181.152344 170.765625 181.09375 170.179688 C 181.035156 169.589844 180.949219 169.003906 180.832031 168.425781 C 180.71875 167.84375 180.574219 167.273438 180.402344 166.707031 C 180.230469 166.140625 180.03125 165.582031 179.804688 165.035156 C 179.578125 164.488281 179.324219 163.957031 179.042969 163.433594 C 178.765625 162.910156 178.460938 162.40625 178.132812 161.914062 C 177.800781 161.421875 177.449219 160.945312 177.074219 160.488281 C 176.699219 160.03125 176.300781 159.59375 175.882812 159.175781 C 175.464844 158.757812 175.023438 158.359375 174.566406 157.984375 C 174.109375 157.609375 173.632812 157.257812 173.140625 156.929688 C 172.648438 156.601562 172.140625 156.296875 171.617188 156.019531 C 171.09375 155.738281 170.5625 155.488281 170.011719 155.261719 C 169.464844 155.035156 168.910156 154.835938 168.339844 154.664062 C 167.773438 154.492188 167.199219 154.347656 166.621094 154.230469 C 166.039062 154.117188 165.453125 154.03125 164.863281 153.972656 C 164.273438 153.914062 163.683594 153.886719 163.089844 153.886719 C 162.496094 153.886719 161.90625 153.914062 161.316406 153.972656 C 160.726562 154.03125 160.140625 154.117188 159.5625 154.230469 C 158.980469 154.347656 158.40625 154.492188 157.839844 154.664062 C 157.273438 154.835938 156.714844 155.035156 156.167969 155.261719 C 155.621094 155.488281 155.085938 155.738281 154.5625 156.019531 C 154.039062 156.296875 153.53125 156.601562 153.039062 156.929688 C 152.546875 157.257812 152.070312 157.609375 151.613281 157.984375 C 151.15625 158.359375 150.71875 158.757812 150.300781 159.175781 C 149.878906 159.59375 149.484375 160.03125 149.105469 160.488281 C 148.730469 160.945312 148.378906 161.421875 148.050781 161.914062 C 147.71875 162.40625 147.414062 162.910156 147.136719 163.433594 C 146.855469 163.957031 146.605469 164.488281 146.378906 165.035156 C 146.152344 165.582031 145.953125 166.140625 145.78125 166.707031 C 145.605469 167.273438 145.464844 167.84375 145.347656 168.425781 C 145.230469 169.003906 145.144531 169.589844 145.085938 170.179688 C 145.03125 170.765625 145 171.359375 145 171.949219 L 145 197.238281 L 152.238281 197.238281 L 152.238281 182.789062 L 173.945312 182.789062 L 173.945312 197.238281 Z M 152.238281 175.5625 L 152.238281 171.949219 C 152.238281 171.238281 152.304688 170.53125 152.445312 169.835938 C 152.585938 169.136719 152.789062 168.457031 153.0625 167.800781 C 153.335938 167.144531 153.667969 166.519531 154.066406 165.925781 C 154.460938 165.335938 154.910156 164.789062 155.414062 164.285156 C 155.917969 163.78125 156.46875 163.332031 157.058594 162.9375 C 157.652344 162.542969 158.277344 162.207031 158.9375 161.9375 C 159.59375 161.664062 160.273438 161.457031 160.972656 161.320312 C 161.671875 161.179688 162.378906 161.109375 163.089844 161.109375 C 163.804688 161.109375 164.507812 161.179688 165.207031 161.320312 C 165.90625 161.457031 166.585938 161.664062 167.242188 161.9375 C 167.902344 162.207031 168.527344 162.542969 169.121094 162.9375 C 169.714844 163.332031 170.261719 163.78125 170.765625 164.285156 C 171.269531 164.789062 171.71875 165.335938 172.113281 165.925781 C 172.511719 166.519531 172.84375 167.144531 173.117188 167.800781 C 173.390625 168.457031 173.597656 169.136719 173.734375 169.835938 C 173.875 170.53125 173.945312 171.238281 173.945312 171.949219 L 173.945312 175.5625 Z M 152.238281 175.5625 "/><g clip-rule="nonzero" clip-path="url(#f4aa345871)"><path style=" stroke:none;fill-rule:nonzero;fill:#000000;fill-opacity:1;" d="M 199.269531 150.273438 L 199.269531 143.046875 L 192.035156 143.046875 L 192.035156 150.273438 L 184.796875 150.273438 L 184.796875 157.496094 L 192.035156 157.496094 L 192.035156 164.722656 L 199.269531 164.722656 L 199.269531 157.496094 L 206.507812 157.496094 L 206.507812 150.273438 Z M 199.269531 150.273438 "/></g></g></svg>